<?xml version="1.0" encoding="utf-8"?>
<!-- Generator: Adobe Illustrator 21.0.2, SVG Export Plug-In . SVG Version: 6.00 Build 0)  -->
<svg version="1.1" id="圖層_1" xmlns="http://www.w3.org/2000/svg" xmlns:xlink="http://www.w3.org/1999/xlink" x="0px" y="0px"
	 viewBox="0 0 65 58" style="enable-background:new 0 0 65 58;" xml:space="preserve">
<style type="text/css">
	.st0{fill:#3F5D45;}
</style>
<g id="圖層_1_2_">
	<g id="圖層_1_1_">
	</g>
</g>
<g>
	<path class="st0" d="M0,29.8c0,5.5,1.3,10.4,4.7,14.9c2.1,3,5.3,4,8.7,3.8c4.5-0.2,8.7-1.7,12.1-4.3c6-4.5,10-10,10.9-17.7
		c0.6-5.3-1.5-9.8-5.1-13.8C26,7.1,14,5.6,8.1,11.3c-3.2,3-5.1,6.4-4.9,10.9c0.2,4.7,3,7.9,7.2,9.6c6.2,2.8,12.8-1.1,13.4-7.4
		c0.2-2.1-1.1-4-3.2-4.5c-2.1-0.6-3.4,0.2-4.5,2.3C16,22.6,15.5,23,15.3,23c-1.3,0-2.8,0-4,0c-0.2-4.3,2.6-7.9,6.8-8.3
		c3.6-0.4,6.8,0.9,9.2,3.8c3.8,4.9,1.9,10.9-1.9,15.1c-4.9,5.1-12.1,5.7-18.5,2.3C3.8,34.3,1.7,32.4,0,29.8z M14.3,53.7
		c0,0.2,0,0.2,0,0.4c1.3,0.6,2.6,1.1,3.8,1.7c8.9,3.4,17.9,3,26-2.6c5.7-3.8,9.2-9.4,11.9-15.3c2.1-4.5,4.3-8.7,8.5-11.9
		c0.4-0.2,0.6-1.3,0.4-1.7c-0.9-1.3-1.7-3-3.2-3.8c-5.5-3.8-13-2.1-16.4,4c-2.6,4.5-4.9,9.2-7.4,13.8c-4.3,7.4-10.4,12.6-19.2,14.5
		C17.2,53,15.7,53.2,14.3,53.7z M18.7,2.4C30.4,3.2,38.3,9,41.5,20.5c1.9-1.5,3.4-3.2,5.1-4.3c1.9-1.1,4-1.7,6-2.6
		C47.7,3.2,26.2-4,18.7,2.4z"/>
	<path class="st0" d="M0,29.8c1.9,2.6,4,4.5,6.8,6c6.2,3.4,13.6,2.8,18.5-2.3c4-4.3,5.7-10.2,1.9-15.1c-2.3-3-5.5-4-9.2-3.8
		c-4.3,0.4-7,4-6.8,8.3c1.3,0,2.8,0,4,0c0.2,0,0.6-0.4,0.9-0.9c1.1-2.1,2.6-2.8,4.5-2.3c1.9,0.6,3.4,2.6,3.2,4.5
		c-0.6,6.4-7.2,10.2-13.4,7.4c-4.3-1.7-6.8-4.9-7.2-9.6C3,17.5,4.9,14.1,8.1,11.1c6.2-5.7,18.1-4.5,23.2,1.5c3.6,4,5.7,8.5,5.1,13.8
		c-0.9,7.4-4.9,13.2-10.9,17.7c-3.6,2.6-7.7,4-12.1,4.3c-3.6,0.2-6.6-1.1-8.7-3.8C1.3,40.3-0.2,35.1,0,29.8z"/>
	<path class="st0" d="M14.3,53.7c1.5-0.2,3-0.6,4.5-0.9c8.7-1.7,14.9-7,19.2-14.5c2.6-4.5,4.9-9.2,7.4-13.8c3.6-6,10.9-7.9,16.4-4
		c1.3,0.9,2.1,2.6,3.2,3.8c0.2,0.2,0,1.3-0.4,1.7c-4,3-6.4,7.2-8.5,11.9c-2.8,6-6.2,11.7-11.9,15.3c-8.1,5.5-16.8,5.7-26,2.6
		c-1.3-0.4-2.6-1.1-3.8-1.7C14.3,53.9,14.3,53.7,14.3,53.7z"/>
	<path class="st0" d="M18.7,2.4C26.2-4,47.7,3.2,52.6,13.7c-1.9,0.9-4,1.5-6,2.6c-1.9,1.1-3.2,2.8-5.1,4.3C38.3,9,30.4,3.2,18.7,2.4
		z"/>
</g>
</svg>
