<?xml version="1.0" encoding="utf-8"?>
<!-- Generator: Adobe Illustrator 21.0.2, SVG Export Plug-In . SVG Version: 6.00 Build 0)  -->
<svg version="1.1" id="圖層_1" xmlns="http://www.w3.org/2000/svg" xmlns:xlink="http://www.w3.org/1999/xlink" x="0px" y="0px"
	 viewBox="0 0 187.9 41.8" style="enable-background:new 0 0 187.9 41.8;" xml:space="preserve">
<style type="text/css">
	.st0{fill:#2E688C;}
</style>
<g id="圖層_1_2_">
	<g id="圖層_1_1_">
	</g>
</g>
<g id="Layer_1_1_">
	<g>
		<g>
			<path class="st0" d="M0,21.4c0,3.9,1,7.5,3.3,10.6c1.6,2.1,3.8,2.9,6.3,2.8c3.2-0.1,6.2-1.2,8.8-3.1c4.3-3.1,7.2-7.2,7.8-12.6
				c0.4-3.9-1.1-7.1-3.6-9.9C18.8,5,10.3,4,5.9,8.2c-2.2,2.1-3.7,4.6-3.5,7.8c0.2,3.4,2.1,5.6,5.2,6.9c4.5,1.9,9.1-0.8,9.7-5.4
				c0.2-1.5-0.8-2.9-2.3-3.3c-1.5-0.4-2.5,0.1-3.2,1.6c-0.1,0.2-0.4,0.6-0.6,0.6c-1,0.1-2,0-3,0c-0.2-3.1,1.8-5.6,4.9-6
				c2.6-0.3,4.9,0.6,6.5,2.7c2.7,3.5,1.4,7.8-1.4,10.8C14.7,27.6,9.5,28,5,25.6C2.9,24.6,1.4,23.2,0,21.4z M10.3,38.5
				c0,0.1,0,0.2,0,0.3c0.9,0.4,1.9,0.8,2.8,1.2c6.5,2.4,12.7,2.1,18.6-1.8c4-2.7,6.5-6.7,8.5-11c1.5-3.2,3.1-6.3,6.1-8.5
				c0.3-0.2,0.4-0.9,0.3-1.1c-0.7-1-1.3-2.1-2.2-2.8c-4-2.7-9.3-1.5-11.8,2.9c-1.9,3.2-3.5,6.6-5.3,9.8c-3.1,5.3-7.5,9.1-13.7,10.3
				C12.4,38,11.4,38.2,10.3,38.5z M13.5,1.7c8.4,0.7,14.1,4.8,16.3,13c1.3-1.1,2.4-2.3,3.7-3.1c1.3-0.8,2.8-1.2,4.3-1.8
				C34.3,2.3,18.9-2.8,13.5,1.7z"/>
			<path class="st0" d="M0,21.4c1.3,1.8,2.9,3.3,4.8,4.3c4.5,2.4,9.7,1.9,13.2-1.7c2.9-3,4.2-7.3,1.4-10.8c-1.6-2.1-3.9-3-6.5-2.7
				c-3.1,0.3-5.1,2.8-4.9,6c1,0,2,0,3,0c0.2,0,0.5-0.3,0.6-0.6c0.8-1.5,1.8-2,3.2-1.6s2.4,1.8,2.3,3.3c-0.5,4.6-5.2,7.3-9.7,5.4
				c-3-1.3-4.9-3.5-5.2-6.9C2,12.9,3.5,10.4,5.7,8.3C10.3,4,18.8,5,22.5,9.2c2.6,2.8,4.1,6,3.6,9.9c-0.6,5.4-3.5,9.5-7.8,12.6
				c-2.6,1.9-5.5,3-8.8,3.1C7,34.9,4.8,34.1,3.2,32C1,28.8,0,25.3,0,21.4z"/>
			<path class="st0" d="M10.3,38.5c1.1-0.2,2.1-0.4,3.2-0.6c6.2-1.3,10.6-5,13.7-10.3c1.9-3.2,3.4-6.6,5.3-9.8
				c2.5-4.3,7.8-5.6,11.8-2.9c0.9,0.6,1.6,1.8,2.2,2.8c0.2,0.2,0,1-0.3,1.1c-3,2.2-4.6,5.2-6.1,8.5c-2,4.3-4.5,8.3-8.5,11
				c-5.8,3.9-12.1,4.2-18.6,1.8c-1-0.4-1.9-0.8-2.8-1.2C10.3,38.6,10.3,38.5,10.3,38.5z"/>
			<path class="st0" d="M13.5,1.7c5.4-4.6,20.8,0.6,24.2,8c-1.4,0.6-3,1-4.3,1.8s-2.4,2-3.7,3.1C27.6,6.5,22,2.4,13.5,1.7z"/>
		</g>
		<g>
			<path class="st0" d="M53.5,25.4c0.5,0,0.8,0.1,1.1,0.3c0.2,0.2,0.4,0.5,0.4,0.9c0,0.3-0.1,0.6-0.3,0.8c-0.2,0.2-0.4,0.3-0.7,0.3
				c-0.1,0-0.2,0-0.4-0.1c-0.1-0.1-0.2-0.1-0.3-0.2c-0.2,0.2-0.4,0.5-0.4,0.9c-0.2,0.4-0.2,0.8-0.2,1.1c0,0.5,0.1,1.1,0.4,1.5
				c0.3,0.5,0.6,0.9,1.1,1.3c0.5,0.4,1.1,0.7,1.8,0.9c0.7,0.2,1.4,0.3,2.3,0.3c1.4,0,2.6-0.3,3.6-1c1-0.6,1.8-1.5,2.4-2.5
				c0.6-1,1-2.1,1.3-3.3c0.3-1.2,0.4-2.4,0.4-3.5c0-1.8,0.2-3.5,0.5-5s0.8-2.7,1.5-3.7c0.6-1,1.4-1.8,2.4-2.4c0.9-0.6,2-0.8,3.2-0.8
				c1.1,0,2,0.3,2.7,0.8s1,1.2,1,2.1c0,0.7-0.2,1.2-0.7,1.5s-1,0.5-1.7,0.5c0.2-0.4,0.4-0.7,0.5-1c0.1-0.3,0.2-0.7,0.2-1.2
				c0-0.7-0.2-1.3-0.7-1.7c-0.4-0.4-1-0.5-1.5-0.5c-0.8,0-1.5,0.2-2.1,0.5c-0.6,0.3-1,0.8-1.4,1.3c-0.4,0.6-0.7,1.2-0.9,2
				c-0.2,0.7-0.4,1.5-0.6,2.4c-0.1,0.8-0.3,1.7-0.3,2.6c-0.1,0.9-0.1,1.8-0.2,2.6c-0.1,2.1-0.5,3.9-1.1,5.3
				c-0.6,1.4-1.4,2.5-2.2,3.3c-0.9,0.8-1.9,1.4-3,1.7s-2.2,0.5-3.4,0.5c-0.9,0-1.8-0.1-2.6-0.4c-0.8-0.3-1.4-0.7-2-1.2
				c-0.6-0.5-1-1.2-1.3-1.9c-0.5-0.8-0.6-1.6-0.6-2.4c0-0.7,0.2-1.3,0.5-1.8S52.9,25.4,53.5,25.4z"/>
			<path class="st0" d="M76.5,22.8l-4.1,5.7l0.1,0.1c0.4-0.5,0.9-1.1,1.5-1.8c0.6-0.7,1.2-1.3,1.9-2c0.7-0.6,1.3-1.1,2.1-1.6
				c0.7-0.4,1.4-0.6,2.1-0.6c0.6,0,1.1,0.2,1.4,0.5s0.5,0.8,0.5,1.3c0,0.3-0.1,0.7-0.4,1.2c-0.2,0.5-0.5,0.9-0.9,1.5
				c-0.4,0.5-0.7,1-1.1,1.6c-0.4,0.5-0.8,1-1.1,1.5c-0.4,0.5-0.6,0.9-0.9,1.3c-0.2,0.4-0.4,0.7-0.4,1c0,0.6,0.3,0.9,0.9,0.9
				c0.7,0,1.4-0.2,2.1-0.7c0.7-0.4,1.6-1.2,2.7-2.2c0.4-0.4,0.8-0.9,1.3-1.4c0.4-0.5,0.8-1,1.2-1.5c0.4-0.5,0.7-0.9,1.1-1.4
				c0.3-0.4,0.6-0.8,0.8-1.1l0.2,0.1c-0.4,0.6-0.9,1.4-1.6,2.2c-0.7,0.9-1.4,1.7-2.1,2.5c-0.5,0.5-0.9,1-1.4,1.4
				c-0.5,0.5-1,0.9-1.4,1.2c-0.5,0.3-0.9,0.6-1.4,0.8s-0.9,0.3-1.4,0.3c-0.6,0-1.1-0.2-1.5-0.5c-0.4-0.3-0.6-0.8-0.6-1.4
				c0-0.6,0.2-1.3,0.7-2s1-1.5,1.6-2.2c0.6-0.7,1.1-1.5,1.6-2.1c0.5-0.7,0.7-1.3,0.7-1.8c0-0.2-0.1-0.4-0.2-0.6
				c-0.2-0.1-0.4-0.2-0.7-0.2c-0.5,0-1.1,0.2-1.7,0.6c-0.6,0.4-1.3,0.9-2,1.5s-1.3,1.3-2,2.1c-0.7,0.8-1.3,1.5-1.9,2.3
				c-0.6,0.8-1.1,1.5-1.5,2.2c-0.5,0.7-0.8,1.3-1,1.8h-1.9c0.5-0.9,1.1-1.8,1.7-2.8c0.6-0.9,1.2-1.9,1.8-2.8s1.2-1.8,1.7-2.7
				c0.5-0.9,1-1.6,1.5-2.3L76.5,22.8z"/>
			<path class="st0" d="M95.5,22.8h2c-0.8,1.1-1.5,2.1-2.2,3.1s-1.3,1.9-1.9,2.8c-0.5,0.9-1,1.6-1.3,2.3c-0.3,0.7-0.5,1.2-0.5,1.5
				c0,0.5,0.3,0.8,0.8,0.8c0.4,0,1-0.2,1.7-0.6c0.7-0.4,1.4-1,2.2-1.8c0.8-0.7,1.6-1.6,2.4-2.6s1.6-2,2.4-3.2l0.2,0.1
				c-0.6,0.8-1.2,1.8-2,2.7c-0.8,1-1.5,1.9-2.4,2.7c-0.8,0.8-1.7,1.6-2.5,2.1c-0.8,0.6-1.6,0.9-2.3,0.9c-0.6,0-1-0.2-1.3-0.4
				c-0.3-0.3-0.4-0.7-0.4-1.1c0-0.3,0-0.6,0.1-0.9c0.1-0.3,0.2-0.6,0.3-0.9h-0.1c-0.3,0.3-0.6,0.6-1,1c-0.4,0.4-0.8,0.7-1.3,1.1
				c-0.5,0.3-0.9,0.6-1.4,0.8s-1,0.3-1.4,0.3c-0.8,0-1.3-0.2-1.6-0.7s-0.5-1-0.5-1.6c0-0.8,0.3-1.8,0.8-2.8s1.2-2,2-2.9
				s1.7-1.6,2.7-2.2s1.9-0.9,2.8-0.9c0.4,0,0.8,0.1,1.1,0.2s0.6,0.3,0.8,0.5c0.2,0.2,0.4,0.4,0.5,0.7c0.1,0.2,0.2,0.5,0.3,0.8h0.1
				L95.5,22.8z M85.3,31.4c0,0.5,0.1,0.8,0.3,1.1c0.2,0.3,0.5,0.4,0.8,0.4c0.4,0,0.8-0.1,1.2-0.4c0.5-0.3,1-0.6,1.5-1s1-0.9,1.5-1.5
				s1-1.2,1.3-1.8c0.4-0.6,0.7-1.3,1-2c0.2-0.7,0.4-1.3,0.4-1.9c0-0.5-0.1-0.8-0.4-1.1c-0.3-0.2-0.6-0.4-1-0.4
				c-0.6,0-1.3,0.3-2.1,0.8s-1.5,1.2-2.2,2.1c-0.7,0.8-1.3,1.8-1.7,2.8C85.6,29.5,85.3,30.5,85.3,31.4z"/>
			<path class="st0" d="M104.4,22.8c-1.1,1.6-2.1,3-2.9,4.1s-1.4,2-1.9,2.8c-0.5,0.7-0.8,1.3-1.1,1.8c-0.2,0.4-0.3,0.8-0.3,1.1
				c0,0.5,0.2,0.8,0.7,0.8c0.4,0,0.9-0.1,1.4-0.4c0.5-0.3,1.1-0.7,1.7-1.2c0.6-0.5,1.2-1,1.8-1.6s1.2-1.2,1.7-1.8
				c0.5-0.6,1-1.2,1.4-1.7c0.4-0.5,0.7-1,0.9-1.3l0.2,0.2c-0.2,0.4-0.6,0.9-1,1.5c-0.4,0.6-0.9,1.2-1.4,1.8
				c-0.5,0.6-1.1,1.2-1.7,1.8c-0.6,0.6-1.2,1.1-1.8,1.6c-0.6,0.5-1.2,0.9-1.8,1.1c-0.6,0.3-1.1,0.4-1.6,0.4c-0.6,0-1-0.2-1.2-0.5
				c-0.3-0.3-0.4-0.7-0.4-1c0-0.4,0.1-0.9,0.3-1.4c0.2-0.5,0.5-1.1,0.9-1.8c0.4-0.7,1-1.6,1.7-2.6s1.5-2.2,2.5-3.7
				C102.5,22.8,104.4,22.8,104.4,22.8z M106.2,17c0.3,0,0.5,0.1,0.7,0.3c0.2,0.2,0.3,0.4,0.3,0.7c0,0.3-0.1,0.5-0.3,0.7
				c-0.2,0.2-0.4,0.3-0.7,0.3s-0.5-0.1-0.7-0.3c-0.2-0.2-0.3-0.4-0.3-0.7c0-0.3,0.1-0.5,0.3-0.7C105.7,17.1,105.9,17,106.2,17z"/>
			<path class="st0" d="M118.2,11.8c-1.8,2.8-3.4,5.2-4.8,7.2c-1.4,2-2.5,3.8-3.5,5.2c-1,1.4-1.8,2.6-2.4,3.6
				c-0.6,0.9-1.1,1.7-1.5,2.3c-0.4,0.6-0.6,1.1-0.7,1.4c-0.1,0.4-0.2,0.7-0.2,0.9c0,0.5,0.2,0.8,0.7,0.8s1.1-0.2,1.8-0.6
				c0.7-0.4,1.4-1,2.2-1.7s1.6-1.6,2.4-2.6s1.6-2,2.4-3.1l0.3,0.1c-0.7,1.1-1.5,2.1-2.4,3.1c-0.8,1-1.6,1.8-2.4,2.6
				c-1,1-1.9,1.6-2.6,2.1c-0.7,0.4-1.4,0.7-2,0.7c-0.6,0-1.1-0.1-1.4-0.4c-0.3-0.3-0.4-0.7-0.4-1.1s0.1-0.9,0.2-1.3
				c0.2-0.5,0.4-1,0.8-1.7c0.4-0.7,0.9-1.4,1.5-2.4c0.6-0.9,1.4-2.1,2.3-3.4c0.9-1.4,2-3,3.2-4.8c1.2-1.9,2.6-4.1,4.2-6.6h2.3V11.8z
				"/>
			<path class="st0" d="M118.2,22.8c-1.1,1.6-2.1,3-2.9,4.1c-0.8,1.1-1.4,2-1.9,2.8c-0.5,0.7-0.8,1.3-1.1,1.8
				c-0.2,0.4-0.3,0.8-0.3,1.1c0,0.5,0.2,0.8,0.7,0.8c0.4,0,0.9-0.1,1.4-0.4c0.5-0.3,1.1-0.7,1.7-1.2c0.6-0.5,1.2-1,1.8-1.6
				s1.2-1.2,1.7-1.8c0.5-0.6,1-1.2,1.4-1.7s0.7-1,0.9-1.3l0.2,0.2c-0.2,0.4-0.6,0.9-1,1.5s-0.9,1.2-1.4,1.8
				c-0.5,0.6-1.1,1.2-1.7,1.8c-0.6,0.6-1.2,1.1-1.8,1.6c-0.6,0.5-1.2,0.9-1.8,1.1c-0.6,0.3-1.1,0.4-1.6,0.4c-0.6,0-1-0.2-1.2-0.5
				c-0.3-0.3-0.4-0.7-0.4-1c0-0.4,0.1-0.9,0.3-1.4c0.2-0.5,0.5-1.1,0.9-1.8c0.4-0.7,1-1.6,1.7-2.6s1.5-2.2,2.5-3.7
				C116.3,22.8,118.2,22.8,118.2,22.8z M120,17c0.3,0,0.5,0.1,0.7,0.3c0.2,0.2,0.3,0.4,0.3,0.7c0,0.3-0.1,0.5-0.3,0.7
				S120.3,19,120,19s-0.5-0.1-0.7-0.3c-0.2-0.2-0.3-0.4-0.3-0.7c0-0.3,0.1-0.5,0.3-0.7C119.5,17.1,119.7,17,120,17z"/>
			<path class="st0" d="M124.7,22.8l-4.1,5.7l0.1,0.1c0.4-0.5,0.9-1.1,1.5-1.8c0.6-0.7,1.2-1.3,1.9-2c0.7-0.6,1.3-1.1,2.1-1.6
				c0.7-0.4,1.4-0.6,2.1-0.6c0.6,0,1.1,0.2,1.4,0.5c0.3,0.3,0.5,0.8,0.5,1.3c0,0.3-0.1,0.7-0.4,1.2c-0.2,0.5-0.5,0.9-0.9,1.5
				c-0.4,0.5-0.7,1-1.1,1.6c-0.4,0.5-0.8,1-1.1,1.5c-0.4,0.5-0.6,0.9-0.9,1.3c-0.2,0.4-0.4,0.7-0.4,1c0,0.6,0.3,0.9,0.9,0.9
				c0.7,0,1.4-0.2,2.1-0.7c0.7-0.4,1.6-1.2,2.7-2.2c0.4-0.4,0.8-0.9,1.3-1.4c0.4-0.5,0.8-1,1.2-1.5s0.7-0.9,1.1-1.4
				c0.3-0.4,0.6-0.8,0.8-1.1l0.2,0.1c-0.4,0.6-0.9,1.4-1.6,2.2c-0.7,0.9-1.4,1.7-2.1,2.5c-0.5,0.5-0.9,1-1.4,1.4
				c-0.5,0.5-1,0.9-1.4,1.2c-0.5,0.3-0.9,0.6-1.4,0.8s-0.9,0.3-1.4,0.3c-0.6,0-1.1-0.2-1.5-0.5s-0.6-0.8-0.6-1.4
				c0-0.6,0.2-1.3,0.7-2s1-1.5,1.6-2.2s1.1-1.5,1.6-2.1c0.5-0.7,0.7-1.3,0.7-1.8c0-0.2-0.1-0.4-0.2-0.6c-0.2-0.1-0.4-0.2-0.7-0.2
				c-0.5,0-1.1,0.2-1.7,0.6c-0.6,0.4-1.3,0.9-2,1.5s-1.3,1.3-2,2.1c-0.7,0.8-1.3,1.5-1.9,2.3c-0.6,0.8-1.1,1.5-1.5,2.2
				c-0.5,0.7-0.8,1.3-1,1.8H116c0.5-0.9,1.1-1.8,1.7-2.8c0.6-0.9,1.2-1.9,1.8-2.8s1.2-1.8,1.7-2.7c0.5-0.9,1-1.6,1.5-2.3L124.7,22.8
				z"/>
			<path class="st0" d="M145.9,22.8c-1.2,1.7-2.4,3.4-3.5,5.1s-2.2,3.5-3.4,5.2c1-0.2,2.1-0.6,3.1-1.1s1.9-1.1,2.8-1.9
				c0.9-0.7,1.7-1.5,2.5-2.4s1.4-1.7,1.9-2.6l0.1,0.2c-0.9,1.5-1.9,2.8-3,3.9c-1.1,1-2.1,1.9-3.1,2.5c-1,0.6-1.9,1.1-2.7,1.3
				c-0.8,0.3-1.4,0.4-1.7,0.5c-0.1,0.1-0.3,0.3-0.6,0.8s-0.7,1.1-1.2,1.7c-0.5,0.7-1.1,1.4-1.8,2.2s-1.5,1.5-2.4,2.1
				c-0.9,0.7-1.9,1.2-3,1.6c-1.1,0.4-2.3,0.7-3.5,0.7c-0.7,0-1.4-0.1-2.1-0.2c-0.6-0.2-1.2-0.4-1.7-0.7s-0.8-0.7-1.1-1.1
				c-0.3-0.4-0.4-0.9-0.4-1.5c0-0.9,0.3-1.6,1-2.2c0.6-0.6,1.4-0.9,2.4-0.9c0.2,0,0.4,0,0.5,0s0.3,0.1,0.4,0.1v0.2h-0.2
				c-0.8,0-1.4,0.3-1.8,0.8c-0.4,0.5-0.6,1.2-0.6,2c0,0.6,0.1,1,0.3,1.4s0.5,0.7,0.8,1c0.3,0.2,0.7,0.4,1.2,0.5s1,0.2,1.5,0.2
				c0.9,0,1.8-0.2,2.7-0.6c0.9-0.4,1.7-1,2.5-1.7s1.6-1.5,2.3-2.3c0.7-0.9,1.4-1.7,2.1-2.6c0.7-0.9,1.2-1.7,1.8-2.5
				c0.5-0.8,1-1.5,1.4-2.1l-0.1-0.1c-0.3,0.4-0.7,0.8-1.1,1.2c-0.4,0.4-0.8,0.8-1.3,1.1s-0.9,0.6-1.4,0.8s-1,0.3-1.5,0.3
				c-0.4,0-0.7-0.1-1-0.2c-0.3-0.1-0.5-0.3-0.7-0.6c-0.2-0.2-0.3-0.5-0.4-0.8c-0.1-0.3-0.1-0.6-0.1-0.8c0-0.6,0.1-1.3,0.4-2
				c0.3-0.7,0.6-1.3,1.1-2s1-1.3,1.6-1.8c0.6-0.6,1.2-1.1,1.9-1.5s1.3-0.8,2-1c0.7-0.3,1.3-0.4,1.8-0.4c0.8,0,1.4,0.2,1.8,0.6
				c0.4,0.4,0.5,0.9,0.5,1.4h0.1l1.1-1.8C144.1,22.8,145.9,22.8,145.9,22.8z M140.1,22.9c-0.7,0-1.4,0.3-2.2,0.9s-1.5,1.3-2.2,2.1
				c-0.7,0.8-1.3,1.8-1.7,2.8c-0.5,1-0.7,1.9-0.7,2.8c0,0.5,0.1,0.8,0.4,1.1c0.2,0.3,0.5,0.4,0.9,0.4c0.3,0,0.7-0.1,1.1-0.4
				c0.5-0.2,1-0.6,1.5-1s1-0.9,1.5-1.5s1-1.2,1.4-1.8c0.4-0.6,0.7-1.3,1-2s0.4-1.4,0.4-2.1c0-0.4-0.1-0.7-0.3-0.9
				C140.9,23,140.6,22.9,140.1,22.9z"/>
			<path class="st0" d="M148.6,31.1c0.3,0,0.6,0.1,0.8,0.3c0.2,0.2,0.3,0.5,0.3,0.8s-0.1,0.6-0.3,0.8s-0.5,0.3-0.8,0.3
				s-0.6-0.1-0.8-0.3s-0.3-0.5-0.3-0.8c0-0.3,0.1-0.6,0.3-0.8C148,31.2,148.3,31.1,148.6,31.1z"/>
			<path class="st0" d="M160.3,22.8c-1.1,1.6-2.1,3-2.9,4.1c-0.8,1.1-1.4,2-1.9,2.8c-0.5,0.7-0.8,1.3-1.1,1.8
				c-0.2,0.4-0.3,0.8-0.3,1.1c0,0.5,0.2,0.8,0.7,0.8c0.4,0,0.9-0.1,1.4-0.4c0.5-0.3,1.1-0.7,1.7-1.2c0.6-0.5,1.2-1,1.8-1.6
				s1.2-1.2,1.7-1.8c0.5-0.6,1-1.2,1.4-1.7s0.7-1,0.9-1.3l0.2,0.2c-0.2,0.4-0.6,0.9-1,1.5s-0.9,1.2-1.4,1.8
				c-0.5,0.6-1.1,1.2-1.7,1.8c-0.6,0.6-1.2,1.1-1.8,1.6c-0.6,0.5-1.2,0.9-1.8,1.1c-0.6,0.3-1.1,0.4-1.6,0.4c-0.6,0-1-0.2-1.2-0.5
				c-0.3-0.3-0.4-0.7-0.4-1c0-0.4,0.1-0.9,0.3-1.4s0.5-1.1,0.9-1.8c0.4-0.7,1-1.6,1.7-2.6s1.5-2.2,2.5-3.7
				C158.4,22.8,160.3,22.8,160.3,22.8z M162.1,17c0.3,0,0.5,0.1,0.7,0.3c0.2,0.2,0.3,0.4,0.3,0.7c0,0.3-0.1,0.5-0.3,0.7
				s-0.4,0.3-0.7,0.3s-0.5-0.1-0.7-0.3c-0.2-0.2-0.3-0.4-0.3-0.7c0-0.3,0.1-0.5,0.3-0.7C161.6,17.1,161.8,17,162.1,17z"/>
			<path class="st0" d="M166.8,22.8l-4.1,5.7l0.1,0.1c0.4-0.5,0.9-1.1,1.5-1.8c0.6-0.7,1.2-1.3,1.9-2c0.7-0.6,1.3-1.1,2.1-1.6
				c0.7-0.4,1.4-0.6,2.1-0.6c0.6,0,1.1,0.2,1.4,0.5c0.3,0.3,0.5,0.8,0.5,1.3c0,0.3-0.1,0.7-0.4,1.2c-0.2,0.5-0.5,0.9-0.9,1.5
				c-0.4,0.5-0.7,1-1.1,1.6c-0.4,0.5-0.8,1-1.1,1.5c-0.4,0.5-0.6,0.9-0.9,1.3c-0.2,0.4-0.4,0.7-0.4,1c0,0.6,0.3,0.9,0.9,0.9
				c0.7,0,1.4-0.2,2.1-0.7c0.7-0.4,1.6-1.2,2.7-2.2c0.4-0.4,0.8-0.9,1.3-1.4c0.4-0.5,0.8-1,1.2-1.5s0.7-0.9,1.1-1.4
				c0.3-0.4,0.6-0.8,0.8-1.1l0.2,0.1c-0.4,0.6-0.9,1.4-1.6,2.2c-0.7,0.9-1.4,1.7-2.1,2.5c-0.5,0.5-0.9,1-1.4,1.4
				c-0.5,0.5-1,0.9-1.4,1.2c-0.5,0.3-0.9,0.6-1.4,0.8s-0.9,0.3-1.4,0.3c-0.6,0-1.1-0.2-1.5-0.5s-0.6-0.8-0.6-1.4
				c0-0.6,0.2-1.3,0.7-2s1-1.5,1.6-2.2s1.1-1.5,1.6-2.1c0.5-0.7,0.7-1.3,0.7-1.8c0-0.2-0.1-0.4-0.2-0.6c-0.2-0.1-0.4-0.2-0.7-0.2
				c-0.5,0-1.1,0.2-1.7,0.6c-0.6,0.4-1.3,0.9-2,1.5s-1.3,1.3-2,2.1c-0.7,0.8-1.3,1.5-1.9,2.3c-0.6,0.8-1.1,1.5-1.5,2.2
				c-0.5,0.7-0.8,1.3-1,1.8h-1.9c0.5-0.9,1.1-1.8,1.7-2.8c0.6-0.9,1.2-1.9,1.8-2.8s1.2-1.8,1.7-2.7c0.5-0.9,1-1.6,1.5-2.3
				L166.8,22.8z"/>
			<path class="st0" d="M187.9,25.6c-0.5,0.8-1.1,1.6-1.9,2.5c-0.8,0.9-1.6,1.7-2.5,2.5c-1.1,0.9-2.2,1.7-3.3,2.2
				c-1.1,0.6-2.2,0.9-3.3,0.9c-0.8,0-1.4-0.2-1.9-0.6c-0.5-0.4-0.8-1-0.8-1.8c0-1,0.3-2,0.9-3c0.6-1,1.3-2,2.1-2.8
				c0.9-0.9,1.8-1.6,2.8-2.1s2-0.8,2.9-0.8c0.6,0,1.1,0.1,1.6,0.3c0.4,0.2,0.7,0.6,0.7,1.1c0,0.2-0.1,0.5-0.2,0.6
				c-0.1,0.2-0.3,0.3-0.5,0.4s-0.4,0.2-0.7,0.2c-0.2,0.1-0.4,0.1-0.6,0.1c0.1-0.2,0.2-0.4,0.2-0.6c0.1-0.2,0.1-0.4,0.1-0.7
				c0-0.8-0.4-1.1-1.1-1.1c-0.5,0-1.2,0.3-1.9,0.8s-1.4,1.2-2.1,2c-0.7,0.8-1.2,1.7-1.7,2.7s-0.7,1.9-0.7,2.8c0,0.6,0.1,1,0.4,1.4
				c0.3,0.4,0.7,0.6,1.2,0.6c0.7,0,1.6-0.2,2.5-0.7c0.9-0.5,1.9-1.1,2.7-1.8c0.9-0.7,1.8-1.6,2.7-2.5s1.6-1.9,2.2-2.7L187.9,25.6z"
				/>
		</g>
	</g>
</g>
</svg>
