<?xml version="1.0" encoding="utf-8"?>
<!-- Generator: Adobe Illustrator 21.0.2, SVG Export Plug-In . SVG Version: 6.00 Build 0)  -->
<svg version="1.1" xmlns="http://www.w3.org/2000/svg" xmlns:xlink="http://www.w3.org/1999/xlink" x="0px" y="0px"
	 viewBox="0 0 59.3 218.7" style="enable-background:new 0 0 59.3 218.7;" xml:space="preserve">
<style type="text/css">
	.st0{fill:#2E688C;}
</style>
<g id="圖層_1">
</g>
<g id="Layer_1">
	<g>
		<path class="st0" d="M51.2,0.6c0.1,0,0.2,0,0.3,0.1c1.5,1.1,2.3,1.8,2.4,2.2c0,0.2-0.2,0.3-0.5,0.4h-0.7c-1,1-2.2,1.9-3.8,2.7
			c0.2,0,0.5,0.1,0.7,0.2c0.1,0.1,0.2,0.2,0.2,0.4c0,0.2-0.2,0.3-0.5,0.5C49,7,48.9,7.1,48.9,7.3v2.6h0.9c0.4-0.5,0.9-1.2,1.6-1.9
			c0.1-0.1,0.2-0.2,0.3-0.2c0.2,0.1,0.4,0.2,0.6,0.4c1.3,1.1,2,1.8,2.2,2.1c0,0.2-0.2,0.3-0.3,0.3h-5.3l0,7.7
			c-0.1,1.9-1.3,2.8-3.7,2.8c-0.2,0-0.3-0.2-0.4-0.6c-0.1-0.6-0.2-1.1-0.5-1.5c-0.4-0.4-1-0.6-1.7-0.7c0,0,0-0.2,0-0.5
			c0.8,0.1,1.6,0.2,2.5,0.2c0.5,0,0.8-0.2,0.8-0.5l0-6.9h-4.4c-0.4,1.5-0.8,2.7-1.3,3.6c1.6,0.8,2.4,1.9,2.5,3.2
			c0,0.5-0.1,0.9-0.3,1.1c-0.1,0.2-0.4,0.4-0.8,0.5c-1.1,0-1.9-0.9-2.4-2.6c0-0.1,0-0.1-0.1-0.2c-0.7,1.1-1.6,2.1-2.7,3
			c-1.5,1.3-2.7,1.9-3.5,2c0-0.2-0.1-0.4-0.2-0.5c0.7-0.4,1.5-1.1,2.6-2.2c0.9-1.1,1.8-2.5,2.5-4.1c-0.3-0.3-0.7-0.6-1.1-0.8
			c-0.1,0.2-0.2,0.4-0.2,0.6c-0.2,0.3-0.7,0.5-1.7,0.5c-0.8,0-1.3-0.2-1.3-0.5c1-3.2,1.8-6,2.3-8.4c-0.9,0-1.5,0.1-1.9,0.1
			c0-0.1-0.2-0.5-0.6-1c0.4,0.1,1.3,0.2,2.6,0.2C36,3.2,36.2,1.5,36.2,0c2.4,0.2,3.6,0.5,3.6,0.8c0,0.2-0.3,0.4-0.8,0.7
			c-0.2,1.3-0.4,2.5-0.6,3.6h0.9c0.9-0.9,1.4-1.3,1.5-1.3c0.2,0,0.6,0.3,1.3,0.9c0.7,0.6,1.1,1,1.1,1.2c0,0.2-0.1,0.3-0.3,0.5
			c-0.3,0.2-0.5,0.3-0.6,0.4c-0.2,1.2-0.4,2.2-0.6,3.2h4.3V9.2c0-1.3,0-2.6-0.1-3.9c0.7,0.1,1.4,0.2,2.1,0.3
			c0.7-1.1,1.4-2.1,1.9-3.1h-5.3c-1.1,0-1.9,0.1-2.6,0.2c-0.1-0.4-0.3-0.8-0.4-1.1c0.9,0.2,2.3,0.3,4.2,0.3h4
			C50.1,1.5,50.6,1,51.2,0.6z M36.7,13c0.5,0.1,0.9,0.2,1.3,0.4c0.4-1.2,0.7-2.3,0.8-3.4c0.3-1.5,0.5-3,0.5-4.3h-1.1
			C37.7,9,37.2,11.4,36.7,13z"/>
		<path class="st0" d="M51.2,27.7c0.1,0,0.2,0,0.3,0.1c1.5,1.1,2.3,1.8,2.4,2.2c0,0.2-0.2,0.3-0.5,0.4h-0.7c-1,1-2.2,1.9-3.8,2.7
			c0.2,0,0.5,0.1,0.7,0.2c0.1,0.1,0.2,0.2,0.2,0.4c0,0.2-0.2,0.3-0.5,0.5c-0.3,0.1-0.4,0.3-0.4,0.5V37h0.9c0.4-0.5,0.9-1.2,1.6-1.9
			c0.1-0.1,0.2-0.2,0.3-0.2c0.2,0.1,0.4,0.2,0.6,0.4c1.3,1.1,2,1.8,2.2,2.1c0,0.2-0.2,0.3-0.3,0.3h-5.3l0,7.7
			c-0.1,1.9-1.3,2.8-3.7,2.8c-0.2,0-0.3-0.2-0.4-0.6c-0.1-0.6-0.2-1.1-0.5-1.5c-0.4-0.4-1-0.6-1.7-0.7c0,0,0-0.2,0-0.5
			c0.8,0.1,1.6,0.2,2.5,0.2c0.5,0,0.8-0.2,0.8-0.5l0-6.9h-4.4c-0.4,1.5-0.8,2.7-1.3,3.6c1.6,0.8,2.4,1.9,2.5,3.2
			c0,0.5-0.1,0.9-0.3,1.1c-0.1,0.2-0.4,0.4-0.8,0.5c-1.1,0-1.9-0.9-2.4-2.6c0-0.1,0-0.1-0.1-0.2c-0.7,1.1-1.6,2.1-2.7,3
			c-1.5,1.3-2.7,1.9-3.5,2c0-0.2-0.1-0.4-0.2-0.5c0.7-0.4,1.5-1.1,2.6-2.2c0.9-1.1,1.8-2.5,2.5-4.1c-0.3-0.3-0.7-0.6-1.1-0.8
			c-0.1,0.2-0.2,0.4-0.2,0.6c-0.2,0.3-0.7,0.5-1.7,0.5c-0.8,0-1.3-0.2-1.3-0.5c1-3.2,1.8-6,2.3-8.4c-0.9,0-1.5,0.1-1.9,0.1
			c0-0.1-0.2-0.5-0.6-1c0.4,0.1,1.3,0.2,2.6,0.2c0.4-1.9,0.5-3.6,0.5-5.1c2.4,0.2,3.6,0.5,3.6,0.8c0,0.2-0.3,0.4-0.8,0.7
			c-0.2,1.3-0.4,2.5-0.6,3.6h0.9c0.9-0.9,1.4-1.3,1.5-1.3c0.2,0,0.6,0.3,1.3,0.9c0.7,0.6,1.1,1,1.1,1.2c0,0.2-0.1,0.3-0.3,0.5
			c-0.3,0.2-0.5,0.3-0.6,0.4c-0.2,1.2-0.4,2.2-0.6,3.2h4.3v-0.7c0-1.3,0-2.6-0.1-3.9c0.7,0.1,1.4,0.2,2.1,0.3
			c0.7-1.1,1.4-2.1,1.9-3.1h-5.3c-1.1,0-1.9,0.1-2.6,0.2c-0.1-0.4-0.3-0.8-0.4-1.1c0.9,0.2,2.3,0.3,4.2,0.3h4
			C50.1,28.6,50.6,28.2,51.2,27.7z M36.7,40.1c0.5,0.1,0.9,0.2,1.3,0.4c0.4-1.2,0.7-2.3,0.8-3.4c0.3-1.5,0.5-3,0.5-4.3h-1.1
			C37.7,36.1,37.2,38.5,36.7,40.1z"/>
		<path class="st0" d="M36.8,54.2c2.9,0.4,4.4,0.7,4.5,1c0,0.4-0.4,0.6-1.1,0.8c-0.4,1.6-0.9,3-1.6,4.2c0.6,0.2,0.9,0.4,0.9,0.5
			c0,0.2-0.1,0.3-0.2,0.3c-0.3,0.2-0.5,0.4-0.5,0.5V71c2.2-2.9,3.6-5.8,4.2-8.7c0.1-0.4,0.2-0.8,0.3-1.2c-1.6,0-2.6,0.1-3,0.2
			c-0.2-0.4-0.3-0.8-0.4-1.1c0.9,0.2,2.4,0.3,4.6,0.3h0.4v-3.1c0-1.3-0.1-2.3-0.2-3.2c2.6,0.2,4,0.6,4,1c0,0.2-0.1,0.3-0.2,0.4
			c-0.4,0.2-0.6,0.3-0.6,0.4v4.5h1.6c0.4-0.4,0.9-1.1,1.6-1.9c0.2-0.1,0.3-0.2,0.4-0.2c0.1,0,0.3,0.2,0.6,0.4c1.3,1.1,2,1.8,2.1,2.1
			c0,0.2-0.1,0.3-0.3,0.3h-5.1c0.3,1.3,1,2.7,2,4.2c1.1,1.4,2.5,2.2,4.1,2.6c0,0.2,0,0.3,0,0.4c-0.4,0.1-0.7,0.4-0.8,0.8
			c-0.2,0.2-0.3,0.8-0.5,1.8c-0.2,0.5-0.3,0.7-0.4,0.8c-0.9-0.3-1.9-1.4-3-3.6c-0.9-2.2-1.5-4.5-1.7-7h-0.4v6.3
			c0.1,3.6,0.1,6,0.1,7.3c-0.1,0.7-0.8,1-2.2,1c-0.7,0-1.1-0.2-1.1-0.6c0.1-1.2,0.1-3.8,0.1-7.8v-1.7c-1.3,2.5-3.3,4.5-6,6.2v1
			c0,0.8,0,1.7,0,2.5c-0.2,0.3-0.7,0.4-1.5,0.5c-1.2,0-1.8-0.1-1.8-0.4c0.1-0.7,0.1-1.6,0.1-2.6v-8.5c-0.8,0.7-1.6,1.4-2.5,2
			c-0.1-0.2-0.2-0.2-0.3-0.2C35,62.8,36.3,58.9,36.8,54.2z"/>
		<path class="st0" d="M36.4,95.5h0.4C37,96.2,37,97,37,98.1c-0.1,1.9-1,2.9-2.7,3c-1-0.1-1.5-0.6-1.5-1.7c0-0.3,0.3-0.7,0.7-1.1
			c0.1-0.1,0.6-0.4,1.6-0.9C35.8,97.1,36.3,96.4,36.4,95.5z M36.1,83.2l2.4,0.9h2.8c0.1-0.7,0.2-1.7,0.2-2.8
			c2.8,0.2,4.1,0.5,4.1,0.8c0,0.2-0.3,0.4-0.9,0.4c-0.8,0.6-1.7,1.2-2.7,1.6h5.7c0.9-0.8,1.5-1.2,1.7-1.2c0.2,0,0.6,0.3,1.2,0.8
			c0.6,0.4,0.8,0.7,0.8,0.8c0,0.2-0.2,0.5-0.7,0.8V92c0,0.7,0,1.4,0,2.1c0,0.5-0.5,0.7-1.6,0.7c-0.8,0-1.3-0.1-1.3-0.3v-0.9h-8.9
			v0.5c0,0.4-0.5,0.6-1.4,0.6c-1,0-1.5-0.1-1.5-0.4c0.1-0.5,0.1-1.3,0.1-2.2V86C36.1,84.9,36.1,84,36.1,83.2z M38.5,94.6
			c2.4,0.3,3.6,0.6,3.6,0.8c-0.1,0.3-0.3,0.5-0.8,0.6v2.4c0,0.7,0.4,1,1.3,1h4.4c0.8,0,1.2-0.4,1.4-1.2c0.2-0.7,0.4-1.3,0.5-1.6
			c0.2,0,0.3,0,0.4,0.1v1.6c0,0.5,0.2,0.8,0.6,1.1c0.4,0.2,0.5,0.5,0.5,0.8c0,0.9-0.8,1.4-2.3,1.7c-0.5,0.1-1.7,0.2-3.4,0.2
			c-2.3,0-3.9-0.1-4.8-0.3c-0.9-0.2-1.3-1-1.3-2.4v-2.1C38.6,95.9,38.5,95,38.5,94.6z M39.1,87.1H48v-2.3h-8.9V87.1z M39.1,89.9H48
			v-2h-8.9V89.9z M39.1,92.8H48v-2.2h-8.9V92.8z M42.7,94.2c2.7,0,4.1,0.7,4.1,2.2c0,0.7-0.2,1.1-0.5,1.4c-0.3,0.3-0.6,0.4-1.1,0.4
			c-0.7,0-1.1-0.5-1.1-1.3c-0.2-1.1-0.7-1.9-1.6-2.3C42.6,94.3,42.6,94.2,42.7,94.2z M50.3,95.5c2.5,0.9,3.8,1.8,3.9,2.7
			c0,1.2-0.3,1.9-0.9,2.1c-0.3,0.2-0.7,0.2-1.2,0.3c-0.4,0-0.7-0.5-0.8-1.6c-0.2-1.3-0.7-2.4-1.5-3.2C50,95.6,50.2,95.6,50.3,95.5z"
			/>
		<path class="st0" d="M14.5,26.4H9.7c-2.2,0-3.6,0.1-4.1,0.3c-0.2-0.4-0.3-0.8-0.5-1.1c0.9,0.2,2.5,0.3,4.6,0.3h12.1
			c0.4-0.4,0.9-1,1.5-1.8c0.1-0.1,0.2-0.2,0.4-0.2c0.1,0,0.3,0.2,0.5,0.3c1.2,1,1.8,1.7,1.9,1.9c0,0.2-0.1,0.3-0.3,0.3h-8.3v3.2h2.7
			c0.4-0.5,0.8-1.1,1.5-1.8c0.1-0.1,0.2-0.2,0.3-0.2c0.2,0.1,0.4,0.2,0.6,0.3c1.2,1,1.9,1.6,2,1.9c0,0.2-0.2,0.3-0.3,0.3h-6.7v3
			c0.4,0,0.8,0,1.2,0c2.1,0,4.6-0.1,7.3-0.3v0.5c-0.4,0-0.7,0.4-0.9,1c-0.1,0.4-0.1,0.9-0.2,1.5c-0.1,0.3-0.3,0.5-0.5,0.6
			c-5.9,0-9.8-0.6-11.8-1.7c-0.9-0.6-1.7-1.4-2.2-2.6c-1,2-2.7,3.6-5.4,4.7C5.1,36.9,5,36.9,5,36.7c1.8-1.8,2.9-4.2,3.3-7.3
			c0.1-0.7,0.1-1.4,0.1-2c2.7,0.6,4,0.9,4,1.2c0,0.2-0.3,0.5-0.9,0.6c-0.1,0.1-0.3,0.6-0.6,1.7c0.9,0.8,2,1.4,3.5,1.8V26.4z
			 M8.1,15.7l2.6,1h8.7c0.9-0.8,1.5-1.2,1.8-1.2c0.2,0,0.6,0.3,1.3,0.9c0.6,0.4,0.9,0.8,0.9,0.9c0,0.2-0.3,0.5-0.9,0.9v4.3
			c0,0.5,0,0.9,0,1.4c0,0.5-0.6,0.7-1.7,0.8c-0.9,0-1.3-0.1-1.4-0.4v-0.6h-8.1v0.6c0,0.4-0.5,0.6-1.6,0.7c-1.1,0-1.6-0.1-1.6-0.4
			c0.1-0.6,0.1-1.3,0.1-2.3v-4.5C8.2,16.9,8.2,16.3,8.1,15.7z M11.3,19.6h8.1v-2.2h-8.1V19.6z M11.3,22.9h8.1v-2.5h-8.1V22.9z"/>
		<path class="st0" d="M23.2,42.5c0.1,0,0.3,0.2,0.6,0.4c1.4,1.2,2.1,2,2.2,2.3c0,0.2-0.1,0.3-0.3,0.3h-7.1
			c-0.2,0.6-0.5,1.2-0.8,1.6c-0.4,0.7-0.8,1.3-1.2,1.9c0.6,0.2,1,0.4,1,0.5c0,0.2-0.1,0.4-0.2,0.4c-0.3,0.2-0.5,0.3-0.5,0.5v10.4
			c0,0.8,0,1.7,0,2.4c-0.2,0.3-0.7,0.5-1.5,0.6c-1.2,0-1.8-0.1-1.8-0.4c0.1-0.7,0.1-1.6,0.1-2.6v-8.4c-2.4,2.3-5.4,4.1-8.9,5.3
			c-0.1-0.2-0.2-0.4-0.3-0.4c4.7-3.4,8-7,9.8-10.9c0.2-0.3,0.3-0.6,0.4-0.9h-4.8c-2.2,0-3.6,0.1-4.1,0.2c-0.1-0.4-0.3-0.8-0.4-1.1
			c0.9,0.2,2.4,0.3,4.6,0.3h11c0.4-0.5,0.9-1.2,1.7-2.1C22.9,42.6,23.1,42.5,23.2,42.5z M18.4,50.1c5,1.9,7.6,3.9,7.8,5.8
			c0,1.1-0.3,1.7-0.8,1.9c-0.2,0.1-0.6,0.2-1.1,0.2c-1.2,0-2-0.9-2.3-2.6c-0.6-2.1-1.9-3.8-4-5.2C18.1,50.2,18.3,50.1,18.4,50.1z"/>
		<path class="st0" d="M6.5,82.4l2.4,0.9h4.5l0,0c0.2-0.6,0.3-1.3,0.3-2.1H9.5c-2.2,0-3.6,0.1-4.1,0.2C5.2,81,5,80.6,4.9,80.3
			c0.9,0.2,2.4,0.3,4.6,0.3h12.6c0.3-0.4,0.8-0.9,1.3-1.6c0.1-0.1,0.2-0.2,0.3-0.2h-3.3c-1.2,0.1-2,0.1-2.5,0.2
			c-0.1-0.4-0.3-0.7-0.5-0.9c0.7,0.1,1.7,0.1,3.1,0.1h0.2c0.5-0.5,0.9-0.9,1.1-1.2c0.2-0.2,0.4-0.4,0.5-0.5c0.2,0.1,0.5,0.4,1,0.9
			c0.5,0.5,0.8,0.8,1,1.1c0,0.2-0.1,0.3-0.2,0.3h-0.1c0.1,0.1,0.3,0.2,0.4,0.3c1.1,1,1.7,1.6,1.8,1.8c0,0.2-0.1,0.3-0.3,0.3H17
			c-0.7,0.8-1.6,1.5-2.8,2.1h6.9c0.9-0.7,1.5-1.1,1.8-1.1c0.4,0.1,0.7,0.3,1.2,0.7c0.7,0.5,1,0.8,1.1,1c0,0.2-0.1,0.4-0.3,0.5
			c-0.2,0.1-0.4,0.3-0.5,0.5v2.9c0,1.8-1,2.9-3,3.2c-0.3,0-0.4-0.2-0.4-0.7c-0.2-0.9-0.4-1.6-0.8-1.9c-0.2-0.2-0.5-0.3-0.8-0.4
			c0,0.5,0,1,0,1.5c0,0.4-0.5,0.6-1.6,0.7c-0.8,0-1.3-0.1-1.3-0.4c0.1-0.9,0.1-2.4,0.1-4.6V84h-2.3v1.4c0.1,1.2,0.1,2.6,0.1,4.2
			c0,0.4-0.5,0.6-1.6,0.6c-0.8,0-1.3-0.1-1.3-0.4c0.1-0.9,0.1-2.4,0.1-4.6V84H9.5v6.4c0,0.4-0.5,0.6-1.5,0.6c-1,0-1.5-0.1-1.5-0.4
			c0.1-0.5,0.1-1.3,0.1-2.2v-4.2C6.6,83.6,6.6,82.9,6.5,82.4z M21.7,69.3c0.1,0,0.3,0.1,0.5,0.3c1.1,1,1.7,1.6,1.8,1.8
			c0,0.2-0.1,0.3-0.3,0.3h-6.9v1.6h5.6c0.8-0.9,1.3-1.3,1.4-1.3c0.4,0.2,0.8,0.5,1.3,0.9c0.7,0.7,1,1.1,1,1.2c0,0.2-0.2,0.3-0.5,0.3
			c-0.3,0.1-0.5,0.1-0.7,0.1c-0.5,0.3-1.2,0.6-1.9,0.8c0.3,0.3,0.5,0.5,0.6,0.7c0,0.2-0.1,0.3-0.2,0.3h-3.2c-1.2,0-2,0.1-2.6,0.2
			c-0.1-0.3-0.3-0.6-0.5-0.9c0.7,0.1,1.7,0.1,3.1,0.1h0.1c0.5-0.5,0.8-0.8,1-1.1c0.2-0.2,0.3-0.3,0.5-0.4c0.1,0.1,0.2,0.2,0.4,0.3
			c0.1-0.2,0.1-0.4,0.2-0.6h-5.7v1c0.1,1.3,0.1,2.8,0.1,4.6c0,0.4-0.6,0.7-1.7,0.7c-0.9,0-1.3-0.2-1.3-0.5c0-0.9,0.1-2.6,0.1-5v-0.8
			H8.3c0,0.4,0,0.7,0,1.1c0,0.3,0,0.5-0.1,0.7h2.1c0.3-0.4,0.7-0.8,1.2-1.3c0.1-0.1,0.1-0.1,0.2-0.1c0.1,0,0.3,0.1,0.5,0.3
			c0.9,0.8,1.4,1.3,1.6,1.5c0,0.2-0.2,0.3-0.3,0.3H8.1c-0.3,0.6-0.8,1-1.5,1c-1.1-0.1-1.6-0.6-1.6-1.6c0-0.5,0.1-0.8,0.4-1
			c0.1-0.1,0.5-0.3,1.3-0.8c0.6-0.4,0.9-1,1-1.7H8c0.1,0.3,0.1,0.6,0.2,1H14v-1.6h-1.9c-2.2,0-3.6,0.1-4.1,0.2
			c-0.2-0.4-0.3-0.7-0.4-1.1c0.9,0.2,2.4,0.3,4.6,0.3H20c0.3-0.4,0.8-0.9,1.3-1.6C21.5,69.3,21.6,69.3,21.7,69.3z M11.8,76.5
			c0.2,0.1,0.5,0.4,1,0.8c0.5,0.5,0.8,0.9,1,1.1c0,0.2-0.1,0.3-0.2,0.3h-3.4c-1.2,0.1-2,0.1-2.5,0.2c-0.1-0.4-0.3-0.7-0.5-0.9
			c0.7,0.1,1.7,0.1,3.1,0.1h0c0.5-0.5,0.9-0.9,1.1-1.2C11.5,76.8,11.7,76.6,11.8,76.5z M19.3,87.6H21c0.3,0,0.5-0.2,0.5-0.5
			c0-0.9,0-1.9,0-3.1h-2.3v1.3C19.3,86,19.3,86.8,19.3,87.6z"/>
		<path class="st0" d="M23.7,108.1c0.1,0,0.3,0.2,0.5,0.3c1.2,1,1.8,1.7,1.9,1.9c0,0.2-0.1,0.3-0.3,0.3h-4.4
			c-0.4,1.3-0.9,2.4-1.7,3.4c3,0.6,4.6,1.5,4.7,2.9v0.5c-0.1,0.6-0.5,0.9-1.1,0.9c-0.6,0-2-0.7-4-2c-0.5-0.2-1-0.4-1.4-0.6
			c-0.7,0.5-1.4,0.8-2.3,1.1c-1.7,0.8-5.3,1.2-10.7,1.2L5,117.5c4.3-0.4,7.5-1.2,9.6-2.4c0.3-0.2,0.5-0.3,0.7-0.5
			c-1.2-0.4-2.3-0.7-3.5-0.9c-0.6,0.9-1,1.3-1.3,1.3c-0.3,0.1-0.5,0.1-0.8,0.1c-1.3,0-1.9-0.3-1.9-0.8c1.1-1.4,2-2.6,2.7-3.7H9.7
			c-2.2,0-3.6,0.1-4.1,0.3c-0.2-0.4-0.3-0.8-0.5-1.1c0.9,0.2,2.5,0.3,4.6,0.3H11c0.7-1.1,1.1-2,1.4-2.7c2.4,0.6,3.6,1.1,3.6,1.4
			c-0.1,0.2-0.4,0.4-1.1,0.4c-0.2,0.3-0.4,0.6-0.6,0.9h7.5c0.4-0.4,0.8-1,1.5-1.7C23.5,108.2,23.6,108.1,23.7,108.1z M23.4,96.5
			c0.1,0,0.3,0.2,0.5,0.3c1.2,1.1,1.8,1.7,1.9,1.9c0,0.2-0.1,0.3-0.3,0.3h-6v2.4h2c0.9-0.9,1.4-1.3,1.7-1.3c0.2,0,0.6,0.3,1.2,0.8
			c0.6,0.4,0.8,0.7,0.8,0.9c0,0.2-0.3,0.5-0.8,0.8v3.5c0,0.4,0,0.7,0,1.1c0,0.5-0.5,0.7-1.6,0.7c-0.8,0-1.3-0.1-1.3-0.3v-0.6H10v0.7
			c0,0.4-0.5,0.6-1.4,0.6c-1,0-1.5-0.1-1.5-0.4c0.1-0.5,0.1-1.3,0.1-2.2v-3.7c0-0.6-0.1-1.2-0.1-1.6l2.5,0.9H12v-2.4H10
			c-2.2,0-3.6,0.1-4.1,0.2c-0.1-0.4-0.3-0.8-0.4-1.1c0.9,0.2,2.4,0.3,4.6,0.3h11.5c0.4-0.4,0.9-1,1.5-1.8
			C23.1,96.6,23.2,96.6,23.4,96.5z M12,106.4v-4.1h-2v4.1H12z M12,113.3c1.7,0,3.1,0.1,4.5,0.2c0.7-0.8,1.3-1.8,1.7-2.9h-4.3
			C13.3,111.5,12.7,112.4,12,113.3C12,113.3,12,113.3,12,113.3z M16.8,101.6v-2.4h-2.1v2.4H16.8z M16.8,106.4v-4.1h-2.1v4.1H16.8z
			 M21.5,106.4v-4.1h-2.1v4.1H21.5z"/>
		<path class="st0" d="M13.4,137.9c0.1,0.1,0.1,0.2,0.1,0.3c-1.5,1.5-3.7,2.8-6.6,3.8c0,0.7-0.2,1.1-0.4,1.2c-0.3,0-0.5-0.3-0.7-1
			c-0.3-1.1-0.6-2.1-1-2.9c1,0,2-0.1,3-0.2l0-5.9c-1.1,0-1.8,0.1-2,0.1c-0.2-0.4-0.4-0.7-0.5-1c0.5,0.1,1.3,0.2,2.6,0.2v-5.8
			c-1.1,0-1.8,0.1-2.3,0.2c-0.2-0.3-0.3-0.6-0.5-0.9c0.7,0.1,1.7,0.1,3.1,0.1h1.6c0.6-0.6,1-1,1.2-1.3c0.2-0.2,0.4-0.4,0.6-0.5
			c0.2,0.1,0.5,0.4,1,0.9c0.5,0.5,0.9,0.9,1.1,1.2c0-0.8-0.1-1.5-0.1-2.1l2.4,1h6.2c0.8-0.7,1.3-1.1,1.6-1.1c0.2,0,0.6,0.3,1.2,0.8
			c0.5,0.4,0.8,0.7,0.8,0.8c0,0.2-0.2,0.4-0.6,0.7v7c0,0.7,0,1.5,0,2.2c0,0.4-0.5,0.6-1.5,0.6c-0.7,0-1.2-0.1-1.2-0.3v-1h-1.7v3.8h1
			c0.6-0.6,1-1,1.2-1.3c0.2-0.2,0.4-0.4,0.6-0.5c0.2,0.1,0.5,0.4,1,0.9c0.5,0.5,0.9,0.9,1.1,1.2c0,0.2-0.1,0.3-0.2,0.3h-4.6v4.1H22
			c0.7-0.7,1.1-1.2,1.3-1.5c0.2-0.3,0.4-0.5,0.6-0.6c0.2,0.1,0.6,0.5,1.2,1.1c0.6,0.6,1,1.1,1.2,1.4c0,0.2-0.1,0.3-0.2,0.3H14.3
			c-1.2,0-2,0.1-2.6,0.2c-0.1-0.3-0.3-0.6-0.5-0.9c0.7,0.1,1.7,0.1,3.1,0.1h3.5v-4.1h-1.7c-1.2,0-2,0.1-2.6,0.2
			c-0.1-0.3-0.3-0.6-0.5-0.9c0.7,0.1,1.7,0.1,3.1,0.1h1.7v-3.8h-1.7v1.2c0,0.3-0.5,0.5-1.4,0.5c-0.9,0-1.3-0.1-1.4-0.3
			c0.1-0.5,0.1-1.2,0.1-2v-7.1c0-0.4,0-0.7,0-1c0,0.2-0.1,0.2-0.2,0.3h-3v5.9h0c0.7-1.1,1.1-1.6,1.3-1.6c0.1,0.1,0.4,0.4,0.9,1
			c0.4,0.4,0.5,0.7,0.5,0.9c0,0.2-0.1,0.3-0.3,0.3h-2.6v5.5C11.3,138.5,12.3,138.2,13.4,137.9z M16.2,129.8h1.7v-3.8h-1.7V129.8z
			 M16.2,134.5h1.7v-4h-1.7V134.5z M20.5,125.9v3.8h1.7v-3.8H20.5z M20.5,130.5v4h1.7v-4H20.5z"/>
		<path class="st0" d="M22.7,154.9c0.2,0,0.7,0.3,1.3,0.8c0.7,0.5,1.1,0.9,1.1,1.2c0,0.2-0.1,0.3-0.2,0.5c-0.2,0.2-0.3,0.3-0.4,0.5
			v10.5c0,1,0.1,2,0.1,3c0,0.5-0.6,0.7-1.7,0.8c-1,0-1.5-0.1-1.5-0.3v-1.4H9.7v1.1c0,0.4-0.5,0.6-1.6,0.7c-1,0-1.6-0.1-1.6-0.4
			c0.1-0.6,0.1-1.3,0.1-2.3v-9.7c0-1.7-0.1-3.1-0.1-4.3l2.8,1.1h4.6v-2.1c0-1.7,0-2.9-0.1-3.4c2.8,0.2,4.2,0.5,4.2,0.9
			c0,0.2-0.1,0.3-0.2,0.3c-0.4,0.1-0.6,0.3-0.6,0.6v3.8h3.8C21.8,155.4,22.4,154.9,22.7,154.9z M9.7,162.6h4.2v-5.4H9.7V162.6z
			 M9.7,169.6h4.2v-6.3H9.7V169.6z M17,157.1v5.4h4.4v-5.4H17z M17,163.3v6.3h4.4v-6.3H17z"/>
		<path class="st0" d="M5.7,181.6l2.3,0.9h0.4c0.1-1.3,0.2-2.8,0.2-4.5c2.6,0.5,3.9,1,3.9,1.3c0,0.2-0.3,0.3-0.9,0.4
			c-0.7,1-1.4,2-2.3,2.8H11c0.9-0.9,1.4-1.3,1.6-1.3c0.2,0,0.6,0.2,1.1,0.6c0.6,0.5,1,0.8,1,1.1c0,0.1,0,0.2-0.1,0.4
			c-0.2,0.2-0.3,0.3-0.4,0.5v3.8c1.1-2.3,1.8-5.4,2.1-9.4c2.7,0.4,4.1,0.7,4.1,1c0,0.3-0.3,0.5-1,0.6c-0.3,1-0.6,2-1,2.9h3.6
			c0.9-0.9,1.6-1.3,1.9-1.3c0.3,0.1,0.7,0.4,1.3,0.9c0.6,0.5,0.9,0.9,0.9,1c0,0.2-0.1,0.4-0.4,0.5c-0.3,0.2-0.4,0.4-0.4,0.6
			c-0.4,7.4-0.9,11.7-1.6,12.9c-0.5,1.3-1.8,2-3.8,2.1c-0.2,0-0.4-0.3-0.5-0.9c-0.1-0.6-0.5-1.2-1.2-1.8c-0.5-0.3-1-0.5-1.3-0.5
			c0-0.4,0-0.6,0.1-0.6c0.5,0.2,1.5,0.3,2.9,0.3c0.7,0,1.1-0.3,1.3-0.9c0.3-0.7,0.7-4.6,1.1-11.6h-4.3c-1,2.3-2.3,4-3.9,5.1v6.6
			c0,1.1,0.1,2.2,0.1,3.3c0,0.4-0.5,0.6-1.5,0.7c-0.8,0-1.2-0.1-1.3-0.3v-1.6h-3v1.7c0,0.3-0.5,0.5-1.4,0.6c-0.9,0-1.3-0.1-1.4-0.3
			c0.1-0.5,0.1-1.2,0.1-2v-10.6C5.8,184.6,5.7,183,5.7,181.6z M8.5,188.9h3v-5.7h-3V188.9z M8.5,196.4h3v-6.7h-3V196.4z M16.6,186.8
			c2.3,1.1,3.5,2.2,3.6,3.5c-0.1,0.9-0.3,1.5-0.6,1.8c-0.3,0.4-0.8,0.5-1.5,0.5c-0.5,0-0.8-0.6-0.8-1.7c0-1.7-0.4-2.9-1.1-3.8
			C16.4,187.1,16.5,187,16.6,186.8z"/>
		<path class="st0" d="M18.4,215.9c0,0.8-0.3,1.4-0.8,2c-0.6,0.6-1.2,0.8-2,0.8c-0.8,0-1.4-0.3-2-0.8c-0.5-0.5-0.8-1.2-0.8-2
			c0-0.8,0.3-1.4,0.8-2c0.5-0.5,1.2-0.8,2-0.8c0.8,0,1.4,0.3,2,0.8C18.1,214.4,18.4,215.1,18.4,215.9z M17.2,215.9
			c0-0.5-0.2-0.8-0.5-1.2c-0.3-0.3-0.7-0.5-1.1-0.5c-0.5,0-0.8,0.2-1.1,0.5c-0.3,0.3-0.5,0.7-0.5,1.2c0,0.5,0.2,0.8,0.5,1.1
			c0.3,0.3,0.7,0.5,1.1,0.5c0.4,0,0.8-0.2,1.1-0.5C17,216.7,17.2,216.3,17.2,215.9z"/>
	</g>
</g>
</svg>
