<?xml version="1.0" encoding="utf-8"?>
<!-- Generator: Adobe Illustrator 21.0.2, SVG Export Plug-In . SVG Version: 6.00 Build 0)  -->
<svg version="1.1" xmlns="http://www.w3.org/2000/svg" xmlns:xlink="http://www.w3.org/1999/xlink" x="0px" y="0px"
	 viewBox="0 0 59.4 218.5" style="enable-background:new 0 0 59.4 218.5;" xml:space="preserve">
<style type="text/css">
	.st0{fill:#3E5F44;}
</style>
<g id="圖層_1">
</g>
<g id="Layer_1">
	<g>
		<path class="st0" d="M51.6,12.1c0.1,0,0.3,0.2,0.6,0.4c1.3,1.1,2,1.8,2.1,2.1c0,0.2-0.1,0.3-0.3,0.3h-8.7c1,1.1,2.3,1.9,3.7,2.2
			c1.8,0.6,3.6,0.9,5.4,0.9c0,0.3,0,0.4,0,0.5c-0.4,0.1-0.7,0.5-0.9,1.2c-0.1,0.7-0.1,1.2-0.2,1.6c0,0.3-0.1,0.5-0.3,0.5
			c-1.3-0.1-3.2-1.1-5.6-2.9c-1.1-1-2-2.3-2.7-3.9h-0.2c-1.4,3.8-5,6-10.7,6.7c-0.1,0-0.1-0.2-0.1-0.4c3-0.9,5.4-2.4,7-4.7
			c0.3-0.5,0.6-1,0.8-1.6h-3c-2.2,0-3.6,0.1-4.1,0.2c-0.1-0.4-0.3-0.8-0.4-1.1c0.9,0.2,2.4,0.3,4.6,0.3h3.2c0.2-0.9,0.3-1.9,0.3-2.9
			c2.7,0.5,4,0.9,4.1,1.3c0,0.2-0.4,0.5-1,0.7c-0.1,0.4-0.1,0.7-0.3,1h5c0.3-0.4,0.9-1.1,1.6-1.9C51.4,12.2,51.5,12.2,51.6,12.1z
			 M37.8,0.3c3.1,0,4.7,0.6,4.7,1.8c0,0.7-0.2,1.1-0.5,1.4c-0.2,0.2-0.4,0.4-0.8,0.4h3.4c0.7-1,1.2-2.3,1.3-3.8
			c2.9,0.7,4.4,1.2,4.4,1.5c0,0.2-0.4,0.4-1.2,0.5c-0.8,0.8-1.8,1.4-3.2,1.9h3.1c0.4-0.5,0.9-1.1,1.6-1.9c0.2-0.1,0.3-0.2,0.4-0.2
			c0.1,0,0.3,0.1,0.6,0.3c1.3,1.1,2,1.8,2.1,2.1c0,0.2-0.1,0.3-0.3,0.3h-8.3V7h2.4c0.3-0.4,0.8-1,1.5-1.7c0.1-0.1,0.3-0.2,0.4-0.2
			c0.1,0,0.3,0.1,0.5,0.3c1.2,1,1.8,1.7,1.9,1.9c0,0.2-0.1,0.3-0.3,0.3h-6.4v2.9h4.5c0.4-0.5,0.9-1.1,1.6-1.9
			c0.1-0.1,0.3-0.2,0.4-0.3c0.1,0,0.3,0.2,0.6,0.4c1.3,1.1,2,1.8,2.1,2.1c0,0.2-0.1,0.3-0.3,0.3H38.2c-2.2,0-3.6,0.1-4.1,0.2
			c-0.2-0.4-0.3-0.7-0.5-1.1c0.9,0.2,2.4,0.3,4.6,0.3h4.1V7.7h-1.7c-2.2,0-3.6,0.1-4.2,0.2c-0.2-0.4-0.3-0.8-0.4-1.1
			C36.9,7,38.4,7,40.6,7h1.7V4.4h-3.4c-2.2,0-3.6,0.1-4.1,0.3c-0.2-0.4-0.3-0.8-0.5-1.1c0.9,0.2,2.5,0.3,4.6,0.3h1.8
			c-0.7-0.1-1-0.5-1.1-1.2c-0.3-1-0.9-1.7-1.9-2.1C37.8,0.4,37.8,0.3,37.8,0.3z"/>
		<path class="st0" d="M51.4,27.9c0.1,0,0.2,0,0.3,0.1c1.5,1,2.3,1.8,2.4,2.2c0,0.2-0.2,0.3-0.5,0.4h-0.7c-1,1-2.2,1.9-3.8,2.6
			c0.2,0,0.5,0.1,0.7,0.2c0.1,0.1,0.2,0.2,0.2,0.4c0,0.2-0.2,0.3-0.5,0.5c-0.3,0.1-0.4,0.3-0.4,0.5v2.6h0.9c0.4-0.5,0.9-1.2,1.6-1.9
			c0.1-0.1,0.2-0.2,0.3-0.2c0.2,0.1,0.4,0.2,0.6,0.4c1.3,1.1,2,1.8,2.2,2.1c0,0.2-0.2,0.3-0.3,0.3h-5.2l0,7.7
			c-0.1,1.9-1.3,2.8-3.7,2.8c-0.2,0-0.3-0.2-0.4-0.6c-0.1-0.6-0.2-1.1-0.5-1.5c-0.4-0.4-1-0.6-1.7-0.7c0,0,0-0.2,0-0.5
			c0.8,0.1,1.6,0.2,2.5,0.2c0.5,0,0.8-0.2,0.8-0.5l0-6.9h-4.4c-0.4,1.5-0.8,2.7-1.3,3.6c1.6,0.8,2.4,1.9,2.5,3.2
			c0,0.5-0.1,0.9-0.3,1.1c-0.1,0.2-0.4,0.4-0.8,0.5c-1.1,0-1.9-0.9-2.4-2.6c0-0.1,0-0.1-0.1-0.2c-0.7,1.1-1.6,2.1-2.7,2.9
			c-1.5,1.2-2.6,1.9-3.5,2c0-0.2-0.1-0.4-0.2-0.5c0.7-0.4,1.5-1.1,2.6-2.2c0.9-1.1,1.8-2.4,2.5-4.1c-0.3-0.3-0.7-0.6-1.1-0.8
			c-0.1,0.2-0.2,0.4-0.2,0.6c-0.2,0.3-0.7,0.5-1.7,0.5c-0.8,0-1.3-0.2-1.3-0.5c1-3.1,1.8-5.9,2.3-8.4c-0.9,0-1.5,0.1-1.9,0.1
			c0-0.1-0.2-0.5-0.6-1c0.4,0.1,1.3,0.2,2.6,0.2c0.3-1.9,0.5-3.6,0.5-5.1c2.4,0.2,3.6,0.5,3.6,0.8c0,0.2-0.3,0.4-0.8,0.7
			c-0.2,1.3-0.4,2.5-0.6,3.6h0.9c0.9-0.9,1.4-1.3,1.5-1.3c0.2,0,0.6,0.3,1.3,0.9c0.7,0.6,1.1,1,1.1,1.2c0,0.2-0.1,0.3-0.3,0.5
			c-0.3,0.2-0.5,0.3-0.6,0.4c-0.2,1.2-0.4,2.2-0.6,3.2h4.3v-0.7c0-1.3,0-2.6-0.1-3.9c0.7,0.1,1.4,0.2,2.1,0.3
			c0.7-1.1,1.4-2.1,1.9-3.1h-5.3c-1,0-1.9,0.1-2.6,0.2c-0.1-0.4-0.3-0.8-0.4-1.1c0.9,0.2,2.3,0.3,4.2,0.3h4
			C50.3,28.8,50.8,28.4,51.4,27.9z M37,40.3c0.5,0.1,0.9,0.2,1.3,0.4c0.4-1.2,0.7-2.3,0.8-3.4c0.3-1.5,0.5-3,0.5-4.3h-1.1
			C38,36.3,37.4,38.7,37,40.3z"/>
		<path class="st0" d="M34.1,57.9l2.3,0.9h0.4C37,57.5,37,56,37,54.3c2.6,0.5,3.9,1,3.9,1.3c0,0.2-0.3,0.3-0.9,0.4
			c-0.7,1-1.4,2-2.3,2.8h1.7c0.9-0.9,1.4-1.3,1.6-1.3c0.2,0,0.6,0.2,1.1,0.6c0.6,0.5,1,0.8,1,1c0,0.1,0,0.2-0.1,0.4
			c-0.2,0.2-0.3,0.3-0.4,0.5v3.8c1.1-2.3,1.8-5.4,2.1-9.4c2.7,0.4,4.1,0.7,4.1,1c0,0.3-0.3,0.5-1,0.6c-0.3,1-0.6,2-1,2.9h3.6
			c0.9-0.9,1.6-1.3,1.9-1.3c0.3,0.1,0.7,0.4,1.3,0.9c0.6,0.5,0.9,0.9,0.9,1c0,0.2-0.1,0.4-0.4,0.5c-0.3,0.2-0.4,0.4-0.4,0.6
			c-0.4,7.4-0.9,11.7-1.6,12.9c-0.5,1.3-1.7,2-3.8,2.1c-0.2,0-0.4-0.3-0.5-0.9c-0.1-0.6-0.5-1.2-1.2-1.8c-0.5-0.3-1-0.5-1.3-0.5
			c0-0.4,0-0.6,0.1-0.6c0.5,0.2,1.5,0.3,2.9,0.3c0.7,0,1.1-0.3,1.3-0.9c0.3-0.7,0.7-4.6,1.1-11.5h-4.3c-1,2.3-2.3,3.9-3.9,5.1v6.5
			c0,1.1,0.1,2.2,0.1,3.3c0,0.4-0.5,0.6-1.5,0.7c-0.8,0-1.2-0.1-1.3-0.3v-1.6h-3V75c0,0.3-0.5,0.5-1.4,0.6c-0.9,0-1.3-0.1-1.4-0.3
			c0.1-0.5,0.1-1.2,0.1-2V62.7C34.2,60.8,34.1,59.2,34.1,57.9z M36.9,65.2h3v-5.7h-3V65.2z M36.9,72.6h3v-6.7h-3V72.6z M44.9,63.1
			c2.3,1.1,3.5,2.2,3.6,3.5c-0.1,0.9-0.3,1.5-0.6,1.8c-0.3,0.4-0.8,0.5-1.5,0.5c-0.5,0-0.8-0.6-0.8-1.7c0-1.7-0.4-2.9-1-3.7
			C44.7,63.4,44.8,63.3,44.9,63.1z"/>
		<path class="st0" d="M49.8,82c0.2,0,0.6,0.2,1.3,0.7c0.8,0.5,1.1,1,1.1,1.2c0,0.2-0.1,0.3-0.3,0.4c-0.2,0.2-0.5,0.4-0.6,0.6v13.3
			c0,1.3,0.1,2.6,0.1,3.9c0,0.5-0.6,0.7-1.7,0.8c-0.9,0-1.5-0.1-1.5-0.3v-2.1h-8.5v1.6c0,0.4-0.5,0.6-1.6,0.7c-1,0-1.6-0.1-1.6-0.4
			c0.1-0.6,0.1-1.4,0.1-2.4V87.9c0-2.1-0.1-4-0.1-5.5l3.1,1.2h8.4C48.9,82.6,49.5,82,49.8,82z M39.6,91.2h8.5v-6.9h-8.5V91.2z
			 M39.6,99.7h8.5v-7.8h-8.5V99.7z"/>
		<path class="st0" d="M49.5,108.8c0.1,0,0.2,0,0.3,0.1c1.4,1,2.2,1.7,2.4,2.2c0,0.2-0.2,0.3-0.6,0.3c-0.2,0-0.3,0.1-0.4,0.1
			c-1.6,1.2-3.3,2.2-4.9,3h0c0.1,0.1,0.2,0.2,0.2,0.4c0,0.2-0.2,0.3-0.5,0.5c-0.2,0.1-0.4,0.3-0.4,0.5v2.8h4.1
			c0.4-0.5,1-1.2,1.7-2.1c0.1-0.1,0.3-0.2,0.4-0.3c0.1,0,0.4,0.2,0.6,0.4c1.4,1.2,2.1,1.9,2.2,2.2c0,0.2-0.1,0.3-0.3,0.3h-8.8l0,6.5
			c-0.1,2.6-1.6,3.9-4.4,3.9c-0.3,0-0.4-0.3-0.5-0.8c-0.1-0.9-0.3-1.6-0.7-2.1c-0.6-0.5-1.4-0.8-2.5-1c0,0,0.1-0.2,0.1-0.7
			c1.2,0.1,2.6,0.2,4,0.2c0.5,0,0.8-0.2,0.8-0.7l0-5.4h-4.6c-2.2,0-3.6,0.1-4.2,0.2c-0.2-0.4-0.3-0.7-0.4-1.1
			c0.9,0.2,2.4,0.3,4.6,0.3h4.6v-1.5c0-1.2,0-2.4-0.1-3.6c1,0.2,2.1,0.3,3.1,0.6c0.9-0.9,1.8-2.1,2.5-3.5h-8.4c-1.7,0-3,0.1-3.7,0.2
			c-0.2-0.3-0.3-0.7-0.4-1c0.9,0.2,2.3,0.2,4.1,0.2h8C48.7,109.3,49.3,108.8,49.5,108.8z"/>
		<path class="st0" d="M9.4,20.5c2.5,0.6,3.7,1,3.7,1.3c0,0.3-0.4,0.4-1,0.5c-0.5,0.9-1,1.7-1.7,2.5v8.6c0.1,0.7,0.1,1.6,0.1,2.8
			c0,0.5-0.5,0.7-1.6,0.8c-0.8,0-1.3-0.1-1.3-0.3c0-0.5,0-1.6,0-3.5v-5.9c-0.7,0.5-1.5,1-2.3,1.5c-0.1,0-0.2-0.1-0.3-0.2
			C7.5,25.9,8.9,23.2,9.4,20.5z M8.6,15.8c2.5,0.6,3.7,1.1,3.7,1.4c0,0.2-0.3,0.4-1,0.5C10,20,8,21.7,5.5,22.8
			c-0.1-0.2-0.2-0.3-0.2-0.3C6.7,21,7.9,18.7,8.6,15.8z M22.8,26.5c0.2,0.1,0.3,0.2,0.5,0.3c1.1,0.9,1.7,1.5,1.9,1.8
			c0,0.3-0.2,0.4-0.4,0.4h-4.4v4.6c0.3,0,0.7,0,1,0c1.5,0,3.2-0.1,5.2-0.3v0.4c-0.3,0-0.6,0.3-0.8,0.9c-0.1,0.4-0.1,0.8-0.2,1.4
			c-0.1,0.3-0.2,0.4-0.4,0.5c-4.1,0-6.8-0.6-8.2-1.7c-0.8-0.7-1.4-2-1.8-3.8c-1,2.4-2.4,4.2-4.2,5.7c-0.1-0.1-0.2-0.2-0.3-0.2
			c1.2-2.6,1.9-5.9,2.2-9.8c2.7,0.4,4.1,0.7,4.1,0.9c0,0.3-0.3,0.6-1,0.7c-0.2,0.7-0.3,1.3-0.5,1.9c0.5,1.1,1.2,1.9,2.2,2.4v-6.5
			c0-0.9,0-1.6-0.1-1.8c2.4,0.2,3.6,0.4,3.6,0.8c0,0.1-0.1,0.2-0.2,0.3c-0.3,0.1-0.5,0.3-0.5,0.5v2.4h0.7c0.4-0.4,0.8-1,1.4-1.6
			C22.7,26.5,22.8,26.5,22.8,26.5z M14.6,16c2.5,0.3,3.8,0.6,3.8,0.8c0,0.3-0.3,0.5-0.9,0.7c-0.2,0.5-0.3,1.1-0.5,1.5
			c1.6,0.9,2.3,1.8,2.3,2.8c0,1-0.5,1.5-1.4,1.5c-0.7,0-1.1-0.4-1.1-1.2c0.1-0.2,0.1-0.3,0.1-0.5c0.1-0.2,0.1-0.4,0.1-0.7
			c0-0.5-0.1-1-0.3-1.4c-1,2.4-2.5,4.3-4.6,5.7c-0.1-0.1-0.2-0.2-0.2-0.2C13.4,22.7,14.2,19.6,14.6,16z M20.6,16
			c2.5,0.3,3.8,0.6,3.8,0.8c0,0.3-0.3,0.5-0.9,0.7c-0.2,0.9-0.5,1.7-0.9,2.4c2,0.4,2.9,1.2,2.9,2.6c0,1-0.6,1.6-1.7,1.6
			c-0.3,0-0.5-0.1-0.8-0.4c-0.2-0.4-0.4-0.8-0.4-1.4c0-0.5-0.1-0.8-0.2-1c-0.1-0.2-0.2-0.3-0.3-0.5c-0.8,1.4-1.9,2.6-3.3,3.5
			c-0.1-0.1-0.2-0.2-0.2-0.2C19.7,21.9,20.4,19.2,20.6,16z"/>
		<path class="st0" d="M16.8,44.8C14.4,49,10.6,52,5.4,53.5c0-0.1-0.1-0.2-0.2-0.3c4.6-3.2,7.4-6.9,8.6-11c2.9,0.8,4.3,1.3,4.3,1.4
			c0,0.3-0.3,0.5-1,0.6c1.1,1.3,2.5,2.4,4.2,3.3c2,1.1,3.8,1.7,5.3,1.8c0,0.2,0,0.3-0.1,0.4c-0.5,0.1-0.8,0.4-1,1
			c-0.2,0.7-0.3,1.2-0.5,1.7c0,0.4-0.1,0.6-0.3,0.6c-1.6-0.2-3.4-1.8-5.6-4.5C18.4,47.6,17.6,46.4,16.8,44.8z M21.4,53.4
			c0.4,0.2,0.8,0.5,1.3,0.8c0.8,0.6,1.2,1,1.2,1.4c0,0.3-0.4,0.6-1.2,0.8c-0.7,1.4-1.8,3.8-3.3,7.1c-0.2,0.4-0.7,0.6-1.6,0.6
			c-1.2-0.1-1.8-0.3-2-0.8c1.2-2.6,2.6-5.2,3.9-7.9h-7c-2.2,0-3.7,0.1-4.4,0.2c-0.1-0.3-0.3-0.6-0.4-1c1.2,0.1,2.7,0.2,4.5,0.2
			l7.2,0C20.5,53.8,21.1,53.4,21.4,53.4z M13.8,49c2.6,0.7,4.1,1.5,4.2,2.5c0,0.9-0.2,1.5-0.5,1.9c-0.2,0.4-0.7,0.6-1.5,0.6
			c-0.8,0-1.2-0.7-1.2-1.9c0-1.2-0.4-2.2-1.3-2.9L13.8,49z"/>
		<path class="st0" d="M13.7,72.4h-2c-2.2,0-3.6,0.1-4.2,0.2c-0.2-0.4-0.3-0.8-0.5-1.1c0.9,0.2,2.4,0.2,4.6,0.2h7.9
			c0.3-0.4,0.9-1.1,1.6-1.9c0.1-0.1,0.3-0.2,0.4-0.2c0.1,0,0.3,0.2,0.6,0.4c1.3,1.1,2,1.8,2.1,2.1c0,0.2-0.1,0.3-0.3,0.3h-7.1v2.9
			c0,1.4-0.1,2.6-0.3,3.8h4.9c0.4-0.5,1-1.2,1.7-2.1c0.2-0.2,0.3-0.2,0.4-0.3c0.1,0,0.3,0.2,0.6,0.4c1.4,1.2,2.1,1.9,2.2,2.2
			c0,0.2-0.1,0.3-0.3,0.3h-8.6c0.4,1.7,1.5,3.3,3.3,4.8c1.9,1.6,3.8,2.4,5.8,2.7c0,0.3,0,0.4-0.1,0.4c-0.4,0-0.7,0.2-0.9,0.5
			c-0.2,0.4-0.5,1-0.8,2c-0.1,0.5-0.3,0.8-0.5,0.8c-1.9-0.5-3.8-2.3-5.7-5.3c-0.7-1.2-1.4-3.2-1.8-6h-0.4c-1.2,6.2-4.9,10-11.2,11.3
			c-0.1-0.1-0.2-0.2-0.2-0.4c4.6-2.7,7.4-6.3,8.2-11H9.9c-2.2,0-3.6,0.1-4.1,0.3c-0.2-0.4-0.3-0.8-0.5-1.1c0.9,0.2,2.5,0.3,4.6,0.3
			h3.6c0.1-0.8,0.2-1.7,0.2-2.5C13.7,75.4,13.7,73.9,13.7,72.4z"/>
		<path class="st0" d="M13.8,99.3c0.2,0.1,0.5,0.4,1,0.8c0.5,0.5,0.8,0.9,1,1.1c0,0.2-0.1,0.3-0.2,0.3h-3.3v3.3h0.6
			c0.6-0.6,1-1,1.2-1.3c0.2-0.2,0.4-0.4,0.6-0.5c0.2,0.1,0.5,0.4,1,0.9c0.5,0.5,0.9,0.9,1,1.2c0,0.2-0.1,0.3-0.2,0.3h-3.7v4.4h0.5
			c0.7-1.2,1.2-1.8,1.4-1.8c0.1,0.1,0.5,0.5,1,1.2c0.4,0.4,0.5,0.8,0.5,1c0,0.2-0.1,0.2-0.2,0.2h-3.3v3.9c1.7,0.4,4.6,0.7,8.6,0.7
			c1.8,0,3.4,0,5-0.1c0,0.1,0,0.3,0,0.4c-0.3,0-0.5,0.3-0.6,0.9c0,0.4-0.1,0.8-0.1,1.2c0,0.3-0.1,0.5-0.2,0.5c-0.7,0-2.1,0-4.3,0
			c-4.4-0.2-7.5-0.7-9.3-1.6c-1.5-0.7-2.6-1.8-3.2-3.4c-0.5,2.3-1.6,4-3.1,4.9c-0.1-0.1-0.2-0.3-0.3-0.4c0.8-1.7,1.2-4.1,1.2-7.3
			c0-1.2,0-2.1-0.1-2.8c2.2,0.3,3.2,0.6,3.2,0.8c0,0.1-0.1,0.2-0.2,0.3c-0.2,0.1-0.3,0.2-0.3,0.3c0,1.2-0.1,2.3-0.2,3.3
			c0.4,0.5,0.8,0.8,1.3,1.2v-7.6H8.4c-1.2,0-2,0.1-2.5,0.2c-0.1-0.3-0.3-0.6-0.5-0.9c0.7,0.1,1.7,0.1,3.1,0.1h1v-3.3H9
			c-1.2,0-2,0.1-2.6,0.2c-0.1-0.3-0.3-0.6-0.5-0.9c0.7,0.1,1.7,0.1,3.1,0.1h0.5v-2.6c0-0.8,0-1.3-0.1-1.5c2.4,0.2,3.6,0.4,3.6,0.8
			c0,0.1-0.1,0.2-0.2,0.3c-0.3,0.1-0.5,0.3-0.6,0.5v2.6c0.5-0.5,0.9-0.9,1.1-1.2C13.5,99.5,13.7,99.4,13.8,99.3z M23.4,97.6
			c0.2,0,0.5,0.3,1.1,0.8c0.5,0.4,0.8,0.6,0.8,0.8c0,0.2-0.2,0.5-0.5,0.8v4.6c0,0.5,0,1,0,1.5c0,0.4-0.5,0.6-1.5,0.7
			c-0.7,0-1.2-0.1-1.3-0.3v-0.9h-2.6v4.6c0,0.5,0.3,0.7,1,0.7h1.9c0.8,0,1.3-0.3,1.4-1c0.4-1.2,0.6-2,0.6-2.2c0.1,0,0.2,0,0.3,0
			c0,0.2,0,0.6,0.1,1c0,1.1,0.2,1.8,0.6,2c0.4,0.3,0.6,0.6,0.6,1c0,1-0.8,1.6-2.4,1.7c-0.4,0.1-1.1,0.1-2.1,0.1c-1.2,0-2,0-2.4-0.1
			c-1.5,0-2.3-0.8-2.3-2.3v-8.8c0-1.7,0-3.1-0.1-4.3l2.4,0.8h2.7C22.7,98,23.2,97.6,23.4,97.6z M19.5,104.8h2.6v-5.4h-2.6
			L19.5,104.8z"/>
		<path class="st0" d="M15.1,123.7c1.1,0,1.9,0.1,2.5,0.4c0.5,0.3,0.8,0.8,0.8,1.4c0,0.7-0.3,1.2-0.8,1.4h4.7c0.3-0.4,0.8-1,1.3-1.6
			c0.1-0.1,0.2-0.2,0.3-0.2c0.2,0.1,0.4,0.2,0.5,0.3c1.1,0.9,1.7,1.5,1.9,1.8c0,0.2-0.2,0.4-0.3,0.4h-16v3.9c0,3.8-0.2,6.3-0.5,7.5
			c-0.3,1.2-0.6,2.1-0.9,2.6c-0.9,1.6-2.1,2.7-3.7,3.4c-0.2-0.2-0.3-0.4-0.3-0.5c1.6-1.1,2.4-4.9,2.4-11.3v-4.7c0-1.1-0.1-2-0.2-2.7
			l2.9,1.2h5.9c-0.2-0.2-0.4-0.5-0.5-1c-0.2-0.9-0.7-1.6-1.5-1.9c0.1-0.1,0.1-0.2,0.1-0.3C14.6,123.7,15,123.7,15.1,123.7z
			 M24.3,130.6c0.1,0,0.3,0.1,0.5,0.3c1.1,1,1.7,1.5,1.8,1.8c0,0.2-0.1,0.3-0.3,0.3h-6c0.3,1.4,1.1,2.6,2.4,3.8
			c1.4,1.3,2.7,2,4.1,2.2c0,0.2-0.1,0.4-0.1,0.4c-0.3,0-0.6,0.2-0.8,0.5c-0.2,0.4-0.5,1-0.8,1.8c-0.1,0.5-0.3,0.7-0.4,0.8
			c-1.3-0.5-2.6-2-3.8-4.5c-0.5-1-0.9-2.7-1.2-5h-0.3v4.4c0.1,3.3,0.1,5.6,0.1,6.8c-0.1,0.6-0.8,0.9-2.1,0.9c-0.7,0-1-0.2-1-0.6
			c0.1-1.1,0.1-3.5,0.1-7.2v-0.6c-1.3,2.7-3.7,4.8-7,6.2c-0.1-0.1-0.1-0.2-0.2-0.3c2.8-2.8,4.7-5.6,5.6-8.5c0.2-0.4,0.3-0.8,0.4-1.1
			h-0.1c-2.2,0-3.6,0.1-4.1,0.3c-0.2-0.4-0.3-0.8-0.5-1.1c0.9,0.2,2.4,0.3,4.6,0.3h1.4v-1.2c0-1.2-0.1-2.2-0.2-3
			c2.5,0.2,3.7,0.5,3.7,0.9c0,0.2-0.1,0.3-0.2,0.4c-0.3,0.1-0.5,0.2-0.5,0.4v2.5h3.3c0.3-0.4,0.8-0.9,1.4-1.6
			C24,130.7,24.1,130.6,24.3,130.6z"/>
		<path class="st0" d="M6.4,151.1l2.5,1h3.2c0.8-0.7,1.4-1.1,1.6-1.1c0.2,0,0.5,0.3,1.1,0.8c0.5,0.4,0.8,0.6,0.8,0.8
			c0,0.2-0.3,0.4-0.8,0.7v4c0,0.4,0,0.8,0,1.3c0,0.4-0.5,0.6-1.5,0.6c-0.7,0-1.2-0.1-1.2-0.3v-0.6h-3v13.4c0,0.3-0.4,0.5-1.3,0.6
			c-0.9,0-1.4-0.1-1.4-0.3c0-0.5,0.1-1.2,0.1-2v-12.9C6.5,154.6,6.4,152.7,6.4,151.1z M9.1,154.6h3v-1.8h-3V154.6z M9.1,157.5h3
			v-2.2h-3V157.5z M19.8,158.7c0.1,0,0.3,0.1,0.5,0.3c1,0.9,1.5,1.4,1.6,1.6c0,0.2-0.1,0.3-0.3,0.3H19v3.5h0.1
			c0.6-1.2,1.1-1.8,1.3-1.9c0.1,0,0.2,0,0.3,0c0.3,0.4,0.7,0.8,1,1.2c0.4,0.4,0.6,0.8,0.6,1c0,0.2-0.1,0.3-0.3,0.3h-3v1.4
			c0.1,1.2,0.1,2.6,0.1,4.2c0,0.4-0.5,0.6-1.6,0.7c-0.8,0-1.3-0.1-1.3-0.4c0.1-0.9,0.1-2.4,0.1-4.6v-1.3h-1.6
			c-0.1,1.1-0.2,1.8-0.3,2.1c-0.2,0.7-0.5,1.3-1,1.8c-1.1,1.3-2.4,2.1-4,2.4c-0.1-0.1-0.1-0.2-0.1-0.3c1-0.7,1.7-1.7,2.1-2.9
			c0.3-0.7,0.5-1.7,0.6-3.1c-1.3,0-2,0.1-2.3,0.1c-0.2-0.4-0.4-0.7-0.5-1c0.5,0.1,1.5,0.2,2.8,0.2c0-0.5,0-1,0-1.6V161
			c-1,0-1.6,0.1-1.9,0.2c-0.2-0.4-0.3-0.8-0.4-1.1c0.9,0.2,2.4,0.3,4.6,0.3h3.8c0.3-0.3,0.7-0.8,1.3-1.4
			C19.6,158.8,19.7,158.8,19.8,158.7z M14.8,160.9v1.2c0,0.9,0,1.6,0,2.3h1.6v-3.5H14.8z M16.6,151l2.6,1h3.2
			c0.8-0.7,1.3-1.1,1.5-1.1c0.2,0,0.6,0.2,1.2,0.6c0.6,0.5,0.9,0.8,0.9,1c0,0.2-0.1,0.3-0.4,0.5c-0.2,0.2-0.2,0.3-0.2,0.5l0,15.4
			c0,2.1-1.2,3.2-3.6,3.3c-0.2,0-0.3-0.3-0.3-0.9c0-0.7-0.3-1.3-0.8-1.6c-0.3-0.2-0.7-0.4-1.2-0.5c0-0.2,0.1-0.4,0.1-0.4
			c0.6,0.1,1.3,0.1,2.4,0.1c0.4,0,0.6-0.3,0.6-0.8v-9.8h-3.3v0.2c0,0.3-0.5,0.5-1.3,0.5c-0.9,0-1.4-0.1-1.4-0.3
			c0.1-0.5,0.1-1.2,0.1-2v-3.8C16.6,152.1,16.6,151.5,16.6,151z M19.3,154.6h3.3v-1.9h-3.3V154.6z M19.3,157.5h3.3v-2.2h-3.3V157.5z
			"/>
		<path class="st0" d="M8.1,178.2c2.4,0.3,3.6,0.5,3.6,0.8c0,0.2-0.3,0.4-0.8,0.7c-0.2,1.2-0.4,2.4-0.6,3.4h0.9
			c0.9-0.8,1.4-1.2,1.6-1.2c0.2,0,0.6,0.3,1.3,0.9c0.7,0.6,1.1,1,1.1,1.2c0,0.2-0.1,0.3-0.3,0.5c-0.3,0.2-0.5,0.3-0.6,0.4
			c-0.5,3.2-1.2,5.6-2.1,7.3c1.3,0.7,2.1,1.5,2.1,2.5c-0.1,0.6-0.1,1-0.2,1.1c-0.2,0.5-0.6,0.8-1.3,0.8c-0.5,0-1.1-0.7-1.8-2.2
			c-0.7,1-1.6,2-2.6,2.9c-1.4,1.2-2.6,1.9-3.4,2c0-0.2-0.1-0.4-0.2-0.5c0.7-0.4,1.5-1.1,2.5-2.2c0.9-1,1.6-2.3,2.3-3.8
			c-0.4-0.4-0.8-0.7-1.2-1c-0.1,0.2-0.1,0.4-0.2,0.6c-0.2,0.3-0.7,0.5-1.7,0.5c-0.8,0-1.2-0.2-1.2-0.5c1.1-3.2,1.9-6,2.3-8.4
			c-0.9,0-1.5,0.1-1.9,0.1c0-0.1-0.2-0.5-0.5-1c0.4,0.1,1.3,0.2,2.6,0.2C7.9,181.3,8.1,179.6,8.1,178.2z M8.5,191
			c0.5,0.1,1,0.2,1.5,0.3c0.4-1.2,0.7-2.3,0.8-3.4c0.3-1.5,0.5-2.9,0.5-4.2h-1.1C9.5,186.9,9,189.4,8.5,191z M17.8,177.9
			c2.8,0.8,4.1,1.3,4.1,1.6c0,0.3-0.4,0.4-1.1,0.5c-0.8,2.1-2.1,3.9-3.8,5.4c2.5,0,4.5,0,6-0.1c-0.3-1.1-0.8-2-1.4-2.8
			c0.1-0.1,0.3-0.2,0.4-0.3c2.8,1.2,4.2,2.4,4.4,3.6c0,1.2-0.3,2-0.9,2.2c-0.3,0.2-0.7,0.3-1.2,0.3c-0.5,0-0.8-0.6-0.9-1.9
			c0-0.1,0-0.2,0-0.3c-1.6,0.9-4.1,1.6-7.3,2.3c0,0.5-0.1,0.8-0.3,0.9l1.7,0.6h4.4c0.9-0.9,1.4-1.3,1.7-1.3c0.2,0,0.6,0.3,1.2,0.8
			c0.6,0.4,0.8,0.7,0.8,0.9c0,0.2-0.2,0.5-0.5,0.8v5.5c0,0.6,0,1.2,0,1.8c0,0.5-0.5,0.7-1.6,0.7c-0.8,0-1.3-0.1-1.3-0.3v-1.5h-4.3
			v1.3c0,0.3-0.5,0.6-1.5,0.6c-1,0-1.5-0.1-1.5-0.3c0.1-0.5,0.1-1.3,0.1-2.2v-5.3c0-0.9-0.1-1.7-0.1-2.4l0.6,0.3
			c-0.2-0.2-0.3-0.5-0.4-1c-0.3-0.8-0.5-1.9-0.8-3.1c0.4,0.1,0.9,0.2,1.7,0.3C16.9,183.3,17.6,180.9,17.8,177.9z M17.8,196.5h4.3
			v-5.9h-4.3V196.5z"/>
		<path class="st0" d="M18.7,215.7c0,0.8-0.3,1.4-0.8,2c-0.6,0.6-1.2,0.8-2,0.8c-0.8,0-1.4-0.3-2-0.8c-0.5-0.5-0.8-1.2-0.8-2
			c0-0.8,0.3-1.4,0.8-2c0.5-0.5,1.2-0.8,2-0.8c0.8,0,1.4,0.3,2,0.8C18.4,214.2,18.7,214.9,18.7,215.7z M17.5,215.7
			c0-0.5-0.2-0.8-0.5-1.2c-0.3-0.3-0.7-0.5-1.1-0.5c-0.5,0-0.8,0.2-1.1,0.5c-0.3,0.3-0.5,0.7-0.5,1.2c0,0.5,0.2,0.8,0.5,1.1
			c0.3,0.3,0.7,0.5,1.1,0.5c0.4,0,0.8-0.2,1.1-0.5C17.3,216.5,17.5,216.1,17.5,215.7z"/>
	</g>
</g>
</svg>
