<svg xmlns="http://www.w3.org/2000/svg" xmlns:xlink="http://www.w3.org/1999/xlink" width="360" height="2438" viewBox="0 0 360 2438">
  <defs>
    <style>
      .cls-1, .cls-37, .cls-5 {
        fill: none;
      }

      .cls-2 {
        clip-path: url(#clip-products-mobile-2);
      }

      .cls-16, .cls-17, .cls-18, .cls-3, .cls-45, .cls-50, .cls-6, .cls-7 {
        fill: #2e688c;
      }

      .cls-12, .cls-14, .cls-4, .cls-47, .cls-49 {
        fill: #fff;
      }

      .cls-10, .cls-4, .cls-5, .cls-8, .cls-9 {
        stroke: #707070;
      }

      .cls-4 {
        stroke-width: 0.5px;
      }

      .cls-5 {
        stroke-linecap: round;
        stroke-width: 2px;
      }

      .cls-21, .cls-6 {
        font-size: 16px;
      }

      .cls-16, .cls-18, .cls-20, .cls-21, .cls-23, .cls-50, .cls-6 {
        font-family: YuGothicUI-Regular, Yu Gothic UI;
      }

      .cls-48, .cls-8 {
        fill: #3b9cd9;
      }

      .cls-51, .cls-9 {
        fill: #d5d7f2;
      }

      .cls-10, .cls-15, .cls-52 {
        fill: #bcbbf2;
      }

      .cls-11 {
        clip-path: url(#clip-path);
      }

      .cls-13 {
        fill: #c1c1c1;
      }

      .cls-14 {
        opacity: 0.42;
      }

      .cls-16 {
        font-size: 10px;
      }

      .cls-17 {
        font-size: 20px;
      }

      .cls-17, .cls-19, .cls-22, .cls-24, .cls-47, .cls-49 {
        font-family: SegoeUI, Segoe UI;
      }

      .cls-18, .cls-49 {
        font-size: 9px;
      }

      .cls-19 {
        font-size: 12.8px;
      }

      .cls-21, .cls-23, .cls-24 {
        fill: #979899;
      }

      .cls-23 {
        font-size: 12px;
      }

      .cls-24, .cls-50 {
        font-size: 14px;
      }

      .cls-25 {
        clip-path: url(#clip-path-2);
      }

      .cls-26 {
        fill: #fcd200;
      }

      .cls-27 {
        clip-path: url(#clip-path-5);
      }

      .cls-28 {
        fill: #3f3d56;
      }

      .cls-29 {
        fill: #003b45;
      }

      .cls-30, .cls-46 {
        fill: #6c63ff;
      }

      .cls-31 {
        fill: #f2f2f2;
      }

      .cls-32 {
        fill: #ffb8b8;
      }

      .cls-33 {
        fill: #2f2e41;
      }

      .cls-34, .cls-46 {
        opacity: 0.1;
      }

      .cls-35 {
        fill: #ccc;
      }

      .cls-36 {
        fill: url(#linear-gradient);
      }

      .cls-37 {
        stroke: #6c63ff;
      }

      .cls-37, .cls-45 {
        stroke-miterlimit: 10;
        stroke-width: 1.952px;
      }

      .cls-38 {
        fill: url(#linear-gradient-2);
      }

      .cls-39 {
        fill: url(#linear-gradient-3);
      }

      .cls-40 {
        clip-path: url(#clip-path-9);
      }

      .cls-41 {
        fill: url(#linear-gradient-4);
      }

      .cls-42 {
        clip-path: url(#clip-path-10);
      }

      .cls-43 {
        fill: #bdbdbd;
      }

      .cls-44 {
        fill: #ff5252;
      }

      .cls-45, .cls-52 {
        stroke: #2e688c;
      }

      .cls-47, .cls-49 {
        stroke: #fff;
      }

      .cls-47 {
        font-size: 25px;
      }

      .cls-53, .cls-54 {
        stroke: none;
      }

      .cls-54 {
        fill: #707070;
      }

      .cls-55 {
        filter: url(#Rectangle_108-3);
      }

      .cls-56 {
        filter: url(#Rectangle_108-2);
      }

      .cls-57 {
        filter: url(#Rectangle_108);
      }
    </style>
    <clipPath id="clip-path">
      <rect class="cls-1" width="376" height="1614"/>
    </clipPath>
    <filter id="Rectangle_108" x="-8" y="476" width="376" height="551" filterUnits="userSpaceOnUse">
      <feOffset dy="3" input="SourceAlpha"/>
      <feGaussianBlur stdDeviation="6" result="blur"/>
      <feFlood flood-opacity="0.161"/>
      <feComposite operator="in" in2="blur"/>
      <feComposite in="SourceGraphic"/>
    </filter>
    <clipPath id="clip-path-2">
      <rect class="cls-1" width="98.714" height="13.078"/>
    </clipPath>
    <filter id="Rectangle_108-2" x="-8" y="1015" width="376" height="551" filterUnits="userSpaceOnUse">
      <feOffset dy="3" input="SourceAlpha"/>
      <feGaussianBlur stdDeviation="6" result="blur-2"/>
      <feFlood flood-opacity="0.161"/>
      <feComposite operator="in" in2="blur-2"/>
      <feComposite in="SourceGraphic"/>
    </filter>
    <filter id="Rectangle_108-3" x="-8" y="1554" width="376" height="551" filterUnits="userSpaceOnUse">
      <feOffset dy="3" input="SourceAlpha"/>
      <feGaussianBlur stdDeviation="6" result="blur-3"/>
      <feFlood flood-opacity="0.161"/>
      <feComposite operator="in" in2="blur-3"/>
      <feComposite in="SourceGraphic"/>
    </filter>
    <clipPath id="clip-path-5">
      <rect id="Rectangle_22" data-name="Rectangle 22" width="959.76" height="318.904"/>
    </clipPath>
    <linearGradient id="linear-gradient" x1="0.279" y1="-0.03" x2="0.279" y2="0.764" gradientUnits="objectBoundingBox">
      <stop offset="0" stop-color="gray" stop-opacity="0.251"/>
      <stop offset="0.54" stop-color="gray" stop-opacity="0.122"/>
      <stop offset="1" stop-color="gray" stop-opacity="0.102"/>
    </linearGradient>
    <linearGradient id="linear-gradient-2" x1="-0.087" y1="0.263" x2="-0.087" y2="1.105" xlink:href="#linear-gradient"/>
    <linearGradient id="linear-gradient-3" x1="-0.218" y1="0.491" x2="-0.218" y2="1.294" xlink:href="#linear-gradient"/>
    <clipPath id="clip-path-9">
      <rect id="Rectangle_80" data-name="Rectangle 80" width="145.893" height="161.193" transform="matrix(0.251, -0.968, 0.968, 0.251, 0, 141.225)"/>
    </clipPath>
    <linearGradient id="linear-gradient-4" x1="0.45" y1="-0.125" x2="0.45" y2="0.728" xlink:href="#linear-gradient"/>
    <clipPath id="clip-path-10">
      <rect id="Rectangle_82" data-name="Rectangle 82" width="141.807" height="159.158" transform="matrix(0.251, -0.968, 0.968, 0.251, 0, 137.269)"/>
    </clipPath>
    <clipPath id="clip-products-mobile-2">
      <rect width="360" height="2438"/>
    </clipPath>
  </defs>
  <g id="products-mobile-2" class="cls-2">
    <rect class="cls-12" width="360" height="2438"/>
    <g id="Group_46" data-name="Group 46" transform="translate(10)">
      <g id="Layer_1_1_" transform="translate(0 30)">
        <g id="Group_3" data-name="Group 3" transform="translate(0 0)">
          <g id="Group_1" data-name="Group 1">
            <path id="Path_1" data-name="Path 1" class="cls-3" d="M0,15.882a12.809,12.809,0,0,0,2.464,7.866,5.325,5.325,0,0,0,4.7,2.078,11.731,11.731,0,0,0,6.57-2.3,13.064,13.064,0,0,0,5.824-9.35,9.249,9.249,0,0,0-2.688-7.346C14.037,3.713,7.69,2.971,4.405,6.087a7.2,7.2,0,0,0-2.613,5.788A5.66,5.66,0,0,0,5.674,17a5.111,5.111,0,0,0,7.242-4.007A2.26,2.26,0,0,0,11.2,10.539,1.838,1.838,0,0,0,8.81,11.727c-.075.148-.3.445-.448.445-.747.074-1.493,0-2.24,0A4.081,4.081,0,0,1,9.781,7.72a5.121,5.121,0,0,1,4.853,2c2.016,2.6,1.045,5.788-1.045,8.014C10.975,20.483,7.093,20.78,3.733,19A10.119,10.119,0,0,1,0,15.882ZM7.69,28.571v.223c.672.3,1.419.594,2.091.89,4.853,1.781,9.482,1.558,13.887-1.336,2.987-2,4.853-4.972,6.346-8.162,1.12-2.374,2.315-4.675,4.554-6.307a.88.88,0,0,0,.224-.816,9.206,9.206,0,0,0-1.643-2.078,6.1,6.1,0,0,0-8.81,2.152c-1.419,2.374-2.613,4.9-3.957,7.272-2.315,3.933-5.6,6.752-10.229,7.643A24.024,24.024,0,0,0,7.69,28.571ZM10.08,1.264c6.272.519,10.527,3.562,12.17,9.646a25.191,25.191,0,0,1,2.763-2.3,20.765,20.765,0,0,1,3.211-1.336C25.609,1.709,14.111-2.075,10.08,1.264Z" transform="translate(0 0.023)"/>
            <path id="Path_2" data-name="Path 2" class="cls-3" d="M0,17.377a10.514,10.514,0,0,0,3.584,3.211,8.1,8.1,0,0,0,9.856-1.269c2.165-2.24,3.136-5.45,1.045-8.064A5.106,5.106,0,0,0,9.632,9.239a4.016,4.016,0,0,0-3.658,4.48h2.24c.149,0,.373-.224.448-.448a1.889,1.889,0,0,1,2.389-1.195,2.426,2.426,0,0,1,1.717,2.464,5.089,5.089,0,0,1-7.242,4.032A5.911,5.911,0,0,1,1.643,13.42,7.26,7.26,0,0,1,4.256,7.6C7.69,4.386,14.037,5.133,16.8,8.268a8.857,8.857,0,0,1,2.688,7.392,13.155,13.155,0,0,1-5.824,9.408,11.493,11.493,0,0,1-6.57,2.315,5.311,5.311,0,0,1-4.7-2.091A13.541,13.541,0,0,1,0,17.377Z" transform="translate(0 -1.374)"/>
            <path id="Path_3" data-name="Path 3" class="cls-3" d="M10.275,32.164c.821-.149,1.568-.3,2.389-.448a15.158,15.158,0,0,0,10.229-7.69c1.419-2.389,2.539-4.928,3.957-7.317a6.136,6.136,0,0,1,8.81-2.165A6.6,6.6,0,0,1,37.3,16.634a.707.707,0,0,1-.224.821c-2.24,1.643-3.434,3.882-4.554,6.346-1.493,3.211-3.36,6.2-6.346,8.213-4.33,2.912-9.034,3.136-13.887,1.344-.747-.3-1.419-.6-2.091-.9A1.177,1.177,0,0,0,10.275,32.164Z" transform="translate(-2.584 -3.584)"/>
            <path id="Path_4" data-name="Path 4" class="cls-3" d="M13.5,1.261c4.032-3.434,15.53.448,18.068,5.973a24.271,24.271,0,0,0-3.211,1.344A25.227,25.227,0,0,0,25.6,10.892C24.027,4.844,19.846,1.783,13.5,1.261Z" transform="translate(-3.42 0.034)"/>
          </g>
          <g id="Group_2" data-name="Group 2" transform="translate(37.759 8.197)">
            <path id="Path_5" data-name="Path 5" class="cls-3" d="M53.044,21.8a1.341,1.341,0,0,1,.821.224.946.946,0,0,1,.3.672.848.848,0,0,1-.224.6.678.678,0,0,1-.523.224.564.564,0,0,1-.3-.075c-.075-.075-.149-.075-.224-.149a.946.946,0,0,0-.3.672,1.75,1.75,0,0,0-.149.821,1.944,1.944,0,0,0,.3,1.12,3.35,3.35,0,0,0,.821.971,3.79,3.79,0,0,0,1.344.672,5.985,5.985,0,0,0,1.717.224,4.548,4.548,0,0,0,2.688-.747,5.364,5.364,0,0,0,1.792-1.867,8.931,8.931,0,0,0,.971-2.464,10.8,10.8,0,0,0,.3-2.613,19.153,19.153,0,0,1,.373-3.733,7.157,7.157,0,0,1,1.12-2.763A5.148,5.148,0,0,1,65.662,11.8a4.222,4.222,0,0,1,2.389-.6,3.4,3.4,0,0,1,2.016.6,1.787,1.787,0,0,1,.747,1.568,1.179,1.179,0,0,1-.523,1.12,2.314,2.314,0,0,1-1.269.373,6.905,6.905,0,0,0,.373-.747,2.785,2.785,0,0,0,.149-.9,1.538,1.538,0,0,0-.523-1.269,1.571,1.571,0,0,0-1.12-.373,3.471,3.471,0,0,0-1.568.373,3.253,3.253,0,0,0-1.045.971,4.558,4.558,0,0,0-.672,1.493q-.224.784-.448,1.792a15.392,15.392,0,0,0-.224,1.941c-.075.672-.075,1.344-.149,1.941a11.556,11.556,0,0,1-.821,3.957,7.87,7.87,0,0,1-1.643,2.464,5.619,5.619,0,0,1-2.24,1.269,9.482,9.482,0,0,1-2.539.373,5.567,5.567,0,0,1-1.941-.3,4.97,4.97,0,0,1-1.493-.9,3.709,3.709,0,0,1-.971-1.419,3.2,3.2,0,0,1-.448-1.792,2.578,2.578,0,0,1,.373-1.344A1.076,1.076,0,0,1,53.044,21.8Z" transform="translate(-51.7 -11.2)"/>
            <path id="Path_6" data-name="Path 6" class="cls-3" d="M74.3,22.749l-3.061,4.256.075.075q.448-.56,1.12-1.344c.448-.523.9-.971,1.419-1.493a12.4,12.4,0,0,1,1.568-1.195,3.136,3.136,0,0,1,1.568-.448,1.477,1.477,0,0,1,1.045.373,1.419,1.419,0,0,1,.373.971,1.78,1.78,0,0,1-.3.9,6.319,6.319,0,0,1-.672,1.12c-.3.373-.523.747-.821,1.195a10.684,10.684,0,0,0-.821,1.12c-.3.373-.448.672-.672.971a1.938,1.938,0,0,0-.3.747.594.594,0,0,0,.672.672,2.63,2.63,0,0,0,1.568-.523A13.927,13.927,0,0,0,79.074,28.5c.3-.3.6-.672.971-1.045l.9-1.12c.3-.373.523-.672.821-1.045.224-.3.448-.6.6-.821l.149.075a14.624,14.624,0,0,1-1.195,1.643c-.523.672-1.045,1.269-1.568,1.867A13.8,13.8,0,0,1,78.7,29.1a9.7,9.7,0,0,1-1.045.9,7.462,7.462,0,0,1-1.045.6,2.635,2.635,0,0,1-1.045.224,1.834,1.834,0,0,1-1.12-.373A1.253,1.253,0,0,1,74,29.394,2.587,2.587,0,0,1,74.52,27.9c.373-.523.747-1.12,1.195-1.643s.821-1.12,1.195-1.568a2.368,2.368,0,0,0,.523-1.344,1.061,1.061,0,0,0-.149-.448,1.079,1.079,0,0,0-.523-.149,2.38,2.38,0,0,0-1.269.448A15.512,15.512,0,0,0,74,24.317,15.172,15.172,0,0,0,72.5,25.885c-.523.6-.971,1.12-1.419,1.717a16.168,16.168,0,0,0-1.12,1.643,6.328,6.328,0,0,0-.747,1.344H67.8c.373-.672.821-1.344,1.269-2.091.448-.672.9-1.419,1.344-2.091s.9-1.344,1.269-2.016a17.155,17.155,0,0,1,1.12-1.717Z" transform="translate(-55.779 -14.088)"/>
            <path id="Path_7" data-name="Path 7" class="cls-3" d="M92.46,22.7h1.493c-.6.821-1.12,1.568-1.643,2.315s-.971,1.419-1.419,2.091c-.373.672-.747,1.195-.971,1.717a3.76,3.76,0,0,0-.373,1.12.55.55,0,0,0,.6.6,2.87,2.87,0,0,0,1.269-.448,8.138,8.138,0,0,0,1.643-1.344,15.308,15.308,0,0,0,1.792-1.941c.6-.747,1.195-1.493,1.792-2.389l.149.075c-.448.6-.9,1.344-1.493,2.016A15.668,15.668,0,0,1,93.5,28.522a11.559,11.559,0,0,1-1.867,1.568,2.955,2.955,0,0,1-1.717.672,1.662,1.662,0,0,1-.971-.3,1.123,1.123,0,0,1-.3-.821,2.067,2.067,0,0,1,.075-.672l.224-.672h-.075l-.747.747a11.169,11.169,0,0,1-.971.821,7.461,7.461,0,0,1-1.045.6,2.931,2.931,0,0,1-1.045.224,1.233,1.233,0,0,1-1.195-.523A2.256,2.256,0,0,1,83.5,28.97a4.981,4.981,0,0,1,.6-2.091,10.207,10.207,0,0,1,1.493-2.165,8.461,8.461,0,0,1,2.016-1.643A4.038,4.038,0,0,1,89.7,22.4a2.684,2.684,0,0,1,.821.149,1.626,1.626,0,0,1,.6.373,1.339,1.339,0,0,1,.373.523,5.143,5.143,0,0,1,.224.6h.075ZM84.844,29.12a1.341,1.341,0,0,0,.224.821.679.679,0,0,0,.6.3,1.435,1.435,0,0,0,.9-.3,9.728,9.728,0,0,0,1.12-.747,7.919,7.919,0,0,0,1.12-1.12,7.579,7.579,0,0,0,.971-1.344,9.292,9.292,0,0,0,.747-1.493,5.368,5.368,0,0,0,.3-1.419,1.02,1.02,0,0,0-.3-.821,1.327,1.327,0,0,0-.747-.3,3.183,3.183,0,0,0-1.568.6,6.458,6.458,0,0,0-1.643,1.568,7.463,7.463,0,0,0-1.269,2.091A8.005,8.005,0,0,0,84.844,29.12Z" transform="translate(-59.757 -14.038)"/>
            <path id="Path_8" data-name="Path 8" class="cls-3" d="M102.55,21.33c-.821,1.195-1.568,2.24-2.165,3.061s-1.045,1.493-1.419,2.091c-.373.523-.6.971-.821,1.344a1.947,1.947,0,0,0-.224.821c0,.373.149.6.523.6a2.042,2.042,0,0,0,1.045-.3,10.156,10.156,0,0,0,1.269-.9c.448-.373.9-.747,1.344-1.195s.9-.9,1.269-1.344.747-.9,1.045-1.269.523-.747.672-.971l.149.149c-.149.3-.448.672-.747,1.12a16.4,16.4,0,0,1-1.045,1.344c-.373.448-.821.9-1.269,1.344s-.9.821-1.344,1.195a4.349,4.349,0,0,1-1.344.821,2.56,2.56,0,0,1-1.195.3,1.018,1.018,0,0,1-.9-.373,1.07,1.07,0,0,1-.3-.747,2.931,2.931,0,0,1,.224-1.045A11.168,11.168,0,0,1,98,26.034c.3-.523.747-1.195,1.269-1.941s1.12-1.643,1.867-2.763ZM103.894,17a.766.766,0,1,1-.523.224A.678.678,0,0,1,103.894,17Z" transform="translate(-63.203 -12.67)"/>
            <path id="Path_9" data-name="Path 9" class="cls-3" d="M114.526,11.8q-2.016,3.136-3.584,5.376c-1.045,1.493-1.867,2.837-2.613,3.882s-1.344,1.941-1.792,2.688c-.448.672-.821,1.269-1.12,1.717a4.4,4.4,0,0,0-.523,1.045,3.787,3.787,0,0,0-.149.672c0,.373.149.6.523.6a2.835,2.835,0,0,0,1.344-.448,10.887,10.887,0,0,0,1.643-1.269,15.308,15.308,0,0,0,1.792-1.941c.6-.747,1.195-1.493,1.792-2.315l.224.075a17.465,17.465,0,0,1-1.792,2.315,22.964,22.964,0,0,1-1.792,1.941,13.687,13.687,0,0,1-1.941,1.568,3.272,3.272,0,0,1-1.493.523,1.46,1.46,0,0,1-1.045-.3,1.123,1.123,0,0,1-.3-.821,4.37,4.37,0,0,1,.149-.971,9.079,9.079,0,0,1,.6-1.269c.3-.523.672-1.045,1.12-1.792.448-.672,1.045-1.568,1.717-2.539.672-1.045,1.493-2.24,2.389-3.584q1.344-2.128,3.136-4.928h1.717Z" transform="translate(-64.875 -11.352)"/>
            <path id="Path_10" data-name="Path 10" class="cls-3" d="M116.35,21.33c-.821,1.195-1.568,2.24-2.165,3.061s-1.045,1.493-1.419,2.091c-.373.523-.6.971-.821,1.344a1.947,1.947,0,0,0-.224.821c0,.373.149.6.523.6a2.042,2.042,0,0,0,1.045-.3,10.156,10.156,0,0,0,1.269-.9c.448-.373.9-.747,1.344-1.195s.9-.9,1.269-1.344.747-.9,1.045-1.269.523-.747.672-.971l.149.149c-.149.3-.448.672-.747,1.12a16.4,16.4,0,0,1-1.045,1.344c-.373.448-.821.9-1.269,1.344s-.9.821-1.344,1.195a4.349,4.349,0,0,1-1.344.821,2.56,2.56,0,0,1-1.195.3,1.018,1.018,0,0,1-.9-.373,1.07,1.07,0,0,1-.3-.747,2.931,2.931,0,0,1,.224-1.045,11.17,11.17,0,0,1,.672-1.344c.3-.523.747-1.195,1.269-1.941s1.12-1.643,1.867-2.763ZM117.694,17a.766.766,0,1,1-.523.224A.678.678,0,0,1,117.694,17Z" transform="translate(-66.7 -12.67)"/>
            <path id="Path_11" data-name="Path 11" class="cls-3" d="M122.5,22.749l-3.061,4.256.075.075q.448-.56,1.12-1.344c.448-.523.9-.971,1.419-1.493a12.4,12.4,0,0,1,1.568-1.195,3.136,3.136,0,0,1,1.568-.448,1.477,1.477,0,0,1,1.045.373,1.419,1.419,0,0,1,.373.971,1.781,1.781,0,0,1-.3.9,6.319,6.319,0,0,1-.672,1.12c-.3.373-.523.747-.821,1.195a10.685,10.685,0,0,0-.821,1.12c-.3.373-.448.672-.672.971a1.938,1.938,0,0,0-.3.747.594.594,0,0,0,.672.672,2.63,2.63,0,0,0,1.568-.523,13.926,13.926,0,0,0,2.016-1.643c.3-.3.6-.672.971-1.045l.9-1.12c.3-.373.523-.672.821-1.045.224-.3.448-.6.6-.821l.149.075a14.622,14.622,0,0,1-1.195,1.643c-.523.672-1.045,1.269-1.568,1.867A13.8,13.8,0,0,1,126.9,29.1a9.7,9.7,0,0,1-1.045.9,7.461,7.461,0,0,1-1.045.6,2.635,2.635,0,0,1-1.045.224,1.834,1.834,0,0,1-1.12-.373,1.253,1.253,0,0,1-.448-1.045,2.587,2.587,0,0,1,.523-1.493c.373-.523.747-1.12,1.195-1.643s.821-1.12,1.195-1.568a2.368,2.368,0,0,0,.523-1.344,1.061,1.061,0,0,0-.149-.448,1.079,1.079,0,0,0-.523-.149,2.38,2.38,0,0,0-1.269.448,15.513,15.513,0,0,0-1.493,1.12,15.172,15.172,0,0,0-1.493,1.568c-.523.6-.971,1.12-1.419,1.717a16.168,16.168,0,0,0-1.12,1.643,6.328,6.328,0,0,0-.747,1.344H116c.373-.672.821-1.344,1.269-2.091.448-.672.9-1.419,1.344-2.091s.9-1.344,1.269-2.016A17.156,17.156,0,0,1,121,22.675Z" transform="translate(-67.992 -14.088)"/>
            <path id="Path_12" data-name="Path 12" class="cls-3" d="M139.616,22.749c-.9,1.269-1.792,2.539-2.613,3.808s-1.643,2.613-2.539,3.882a9.559,9.559,0,0,0,2.315-.821A9.4,9.4,0,0,0,138.87,28.2a14.026,14.026,0,0,0,1.867-1.792,10.671,10.671,0,0,0,1.419-1.941l.075.149a15.016,15.016,0,0,1-2.24,2.912,15.853,15.853,0,0,1-2.315,1.867,8.143,8.143,0,0,1-2.016.971c-.6.224-1.045.3-1.269.373a2.786,2.786,0,0,0-.448.6,10.157,10.157,0,0,1-.9,1.269c-.373.523-.821,1.045-1.344,1.643a9.007,9.007,0,0,1-1.792,1.568,8.067,8.067,0,0,1-2.24,1.195,7.756,7.756,0,0,1-2.613.523,11.139,11.139,0,0,1-1.568-.149,6.459,6.459,0,0,1-1.269-.523,2.866,2.866,0,0,1-.821-.821,1.8,1.8,0,0,1-.3-1.12,2.015,2.015,0,0,1,.747-1.643,2.422,2.422,0,0,1,1.792-.672h.373c.075,0,.224.075.3.075v.149h-.149a1.64,1.64,0,0,0-1.344.6,2.369,2.369,0,0,0-.448,1.493,2.168,2.168,0,0,0,.224,1.045,2.923,2.923,0,0,0,.6.747,2.492,2.492,0,0,0,.9.373,5.764,5.764,0,0,0,1.12.149,4.928,4.928,0,0,0,2.016-.448,7.514,7.514,0,0,0,1.867-1.269,18.639,18.639,0,0,0,1.717-1.717c.523-.672,1.045-1.269,1.568-1.941s.9-1.269,1.344-1.867c.373-.6.747-1.12,1.045-1.568l-.075-.075a8.949,8.949,0,0,1-.821.9,5.14,5.14,0,0,1-.971.821,7.461,7.461,0,0,1-1.045.6,3,3,0,0,1-1.12.224,2.209,2.209,0,0,1-.747-.149,1,1,0,0,1-.523-.448,1.5,1.5,0,0,1-.3-.6,1.856,1.856,0,0,1-.075-.6,3.8,3.8,0,0,1,.3-1.493,7.416,7.416,0,0,1,.821-1.493,6.977,6.977,0,0,1,1.195-1.344,6.691,6.691,0,0,1,1.419-1.12,6.975,6.975,0,0,1,1.493-.747,3.39,3.39,0,0,1,1.344-.3,1.825,1.825,0,0,1,1.344.448,1.4,1.4,0,0,1,.373,1.045h.075l.821-1.344Zm-4.33.075a2.764,2.764,0,0,0-1.643.672A10.8,10.8,0,0,0,132,25.064a7.464,7.464,0,0,0-1.269,2.091,4.549,4.549,0,0,0-.523,2.091,1.02,1.02,0,0,0,.3.821.728.728,0,0,0,.672.3,1.39,1.39,0,0,0,.821-.3,4.874,4.874,0,0,0,1.12-.747,7.919,7.919,0,0,0,1.12-1.12,16.4,16.4,0,0,0,1.045-1.344,9.292,9.292,0,0,0,.747-1.493,3.9,3.9,0,0,0,.3-1.568.913.913,0,0,0-.224-.672A1.02,1.02,0,0,0,135.286,22.824Z" transform="translate(-69.284 -14.088)"/>
            <path id="Path_13" data-name="Path 13" class="cls-3" d="M148.321,31.1a.771.771,0,1,1-.6.224A.848.848,0,0,1,148.321,31.1Z" transform="translate(-75.973 -16.242)"/>
            <path id="Path_14" data-name="Path 14" class="cls-3" d="M158.45,21.33c-.821,1.195-1.568,2.24-2.165,3.061s-1.045,1.493-1.419,2.091c-.373.523-.6.971-.821,1.344a1.947,1.947,0,0,0-.224.821c0,.373.149.6.523.6a2.042,2.042,0,0,0,1.045-.3,10.156,10.156,0,0,0,1.269-.9c.448-.373.9-.747,1.344-1.195s.9-.9,1.269-1.344.747-.9,1.045-1.269.523-.747.672-.971l.149.149c-.149.3-.448.672-.747,1.12a16.4,16.4,0,0,1-1.045,1.344c-.373.448-.821.9-1.269,1.344s-.9.821-1.344,1.195a4.349,4.349,0,0,1-1.344.821,2.56,2.56,0,0,1-1.195.3,1.018,1.018,0,0,1-.9-.373,1.07,1.07,0,0,1-.3-.747,2.931,2.931,0,0,1,.224-1.045,11.17,11.17,0,0,1,.672-1.344c.3-.523.747-1.195,1.269-1.941s1.12-1.643,1.867-2.763ZM159.794,17a.766.766,0,1,1-.523.224A.678.678,0,0,1,159.794,17Z" transform="translate(-77.366 -12.67)"/>
            <path id="Path_15" data-name="Path 15" class="cls-3" d="M164.6,22.749l-3.061,4.256.075.075q.448-.56,1.12-1.344c.448-.523.9-.971,1.419-1.493a12.4,12.4,0,0,1,1.568-1.195,3.136,3.136,0,0,1,1.568-.448,1.477,1.477,0,0,1,1.045.373,1.419,1.419,0,0,1,.373.971,1.78,1.78,0,0,1-.3.9,6.319,6.319,0,0,1-.672,1.12c-.3.373-.523.747-.821,1.195a10.687,10.687,0,0,0-.821,1.12c-.3.373-.448.672-.672.971a1.938,1.938,0,0,0-.3.747.594.594,0,0,0,.672.672,2.63,2.63,0,0,0,1.568-.523,13.926,13.926,0,0,0,2.016-1.643c.3-.3.6-.672.971-1.045l.9-1.12c.3-.373.523-.672.821-1.045.224-.3.448-.6.6-.821l.149.075a14.622,14.622,0,0,1-1.195,1.643c-.523.672-1.045,1.269-1.568,1.867A13.8,13.8,0,0,1,169,29.1a9.7,9.7,0,0,1-1.045.9,7.462,7.462,0,0,1-1.045.6,2.635,2.635,0,0,1-1.045.224,1.834,1.834,0,0,1-1.12-.373,1.253,1.253,0,0,1-.448-1.045,2.587,2.587,0,0,1,.523-1.493c.373-.523.747-1.12,1.195-1.643s.821-1.12,1.195-1.568a2.368,2.368,0,0,0,.523-1.344,1.061,1.061,0,0,0-.149-.448,1.079,1.079,0,0,0-.523-.149,2.38,2.38,0,0,0-1.269.448,15.51,15.51,0,0,0-1.493,1.12,15.171,15.171,0,0,0-1.493,1.568c-.523.6-.971,1.12-1.419,1.717a16.166,16.166,0,0,0-1.12,1.643,6.327,6.327,0,0,0-.747,1.344H158.1c.373-.672.821-1.344,1.269-2.091.448-.672.9-1.419,1.344-2.091s.9-1.344,1.269-2.016a17.152,17.152,0,0,1,1.12-1.717Z" transform="translate(-78.659 -14.088)"/>
            <path id="Path_16" data-name="Path 16" class="cls-3" d="M184.429,24.84a13.731,13.731,0,0,1-1.419,1.867,22.018,22.018,0,0,1-1.867,1.867,11.789,11.789,0,0,1-2.464,1.643,5.106,5.106,0,0,1-2.464.672,2.153,2.153,0,0,1-1.419-.448,1.64,1.64,0,0,1-.6-1.344,4.322,4.322,0,0,1,.672-2.24,10.928,10.928,0,0,1,1.568-2.091A8.067,8.067,0,0,1,178.53,23.2a4.994,4.994,0,0,1,2.165-.6,3.1,3.1,0,0,1,1.195.224.918.918,0,0,1,.523.821.8.8,0,0,1-.149.448.745.745,0,0,1-.373.3,1.079,1.079,0,0,1-.523.149.947.947,0,0,1-.448.075,1.061,1.061,0,0,0,.149-.448,1.107,1.107,0,0,0,.075-.523.716.716,0,0,0-.821-.821,2.764,2.764,0,0,0-1.419.6,9.638,9.638,0,0,0-1.568,1.493,9.223,9.223,0,0,0-1.269,2.016,4.55,4.55,0,0,0-.523,2.091,1.58,1.58,0,0,0,.3,1.045,1.064,1.064,0,0,0,.9.448,3.949,3.949,0,0,0,1.867-.523,11.842,11.842,0,0,0,2.016-1.344,22.965,22.965,0,0,0,2.016-1.867,17.784,17.784,0,0,0,1.643-2.016Z" transform="translate(-82.738 -14.088)"/>
          </g>
        </g>
      </g>
    </g>
    <g id="Rectangle_106" data-name="Rectangle 106" class="cls-4" transform="translate(303 34)">
      <rect class="cls-53" width="47" height="31.333" rx="8"/>
      <rect class="cls-1" x="0.25" y="0.25" width="46.5" height="30.833" rx="7.75"/>
    </g>
    <g id="Group_47" data-name="Group 47" transform="translate(6.5 -0.5)">
      <line id="Line_2" data-name="Line 2" class="cls-5" x2="23.874" transform="translate(308.5 42.5)"/>
      <line id="Line_3" data-name="Line 3" class="cls-5" x2="23.874" transform="translate(308.5 50.5)"/>
      <line id="Line_4" data-name="Line 4" class="cls-5" x2="23.874" transform="translate(308.5 58.5)"/>
    </g>
    <text id="目的地" class="cls-6" transform="translate(32 114)"><tspan x="0" y="0">目的地</tspan></text>
    <g id="Rectangle_107" data-name="Rectangle 107" class="cls-4" transform="translate(32 137)">
      <rect class="cls-53" width="308" height="33" rx="16.5"/>
      <rect class="cls-1" x="0.25" y="0.25" width="307.5" height="32.5" rx="16.25"/>
    </g>
    <g id="Path_423" data-name="Path 423" class="cls-7" transform="translate(10 400)">
      <path class="cls-53" d="M 35 69.5 C 30.34230995178223 69.5 25.82420921325684 68.58789825439453 21.57119941711426 66.78901672363281 C 17.46302032470703 65.05140686035156 13.77340030670166 62.56375885009766 10.60482025146484 59.39517974853516 C 7.436240196228027 56.22660064697266 4.94858980178833 52.53697967529297 3.21097993850708 48.42879867553711 C 1.412099957466125 44.17578887939453 0.5 39.65768814086914 0.5 35 C 0.5 30.34230995178223 1.412099957466125 25.82420921325684 3.21097993850708 21.57119941711426 C 4.94858980178833 17.46302032470703 7.436240196228027 13.77340030670166 10.60482025146484 10.60482025146484 C 13.77340030670166 7.436240196228027 17.46302032470703 4.94858980178833 21.57119941711426 3.21097993850708 C 25.82420921325684 1.412099957466125 30.34230995178223 0.5 35 0.5 C 39.65768814086914 0.5 44.17578887939453 1.412099957466125 48.42879867553711 3.21097993850708 C 52.53697967529297 4.94858980178833 56.22660064697266 7.436240196228027 59.39517974853516 10.60482025146484 C 62.56375885009766 13.77340030670166 65.05140686035156 17.46302032470703 66.78901672363281 21.57119941711426 C 68.58789825439453 25.82420921325684 69.5 30.34230995178223 69.5 35 C 69.5 39.65768814086914 68.58789825439453 44.17578887939453 66.78901672363281 48.42879867553711 C 65.05140686035156 52.53697967529297 62.56375885009766 56.22660064697266 59.39517974853516 59.39517974853516 C 56.22660064697266 62.56375885009766 52.53697967529297 65.05140686035156 48.42879867553711 66.78901672363281 C 44.17578887939453 68.58789825439453 39.65768814086914 69.5 35 69.5 Z"/>
      <path class="cls-54" d="M 35 1 C 30.40959167480469 1 25.9570198059082 1.898818969726563 21.7659797668457 3.671478271484375 C 17.71739959716797 5.383880615234375 14.08119964599609 7.835548400878906 10.95837020874023 10.95837020874023 C 7.835548400878906 14.08119964599609 5.383880615234375 17.71739959716797 3.671478271484375 21.7659797668457 C 1.898818969726563 25.9570198059082 1 30.40959167480469 1 35 C 1 39.59040832519531 1.898818969726563 44.0429801940918 3.671478271484375 48.2340202331543 C 5.383880615234375 52.28260040283203 7.835548400878906 55.91880035400391 10.95837020874023 59.04162979125977 C 14.08119964599609 62.16445159912109 17.71739959716797 64.61611938476563 21.7659797668457 66.32852172851563 C 25.9570198059082 68.10118103027344 30.40959167480469 69 35 69 C 39.59040832519531 69 44.0429801940918 68.10118103027344 48.2340202331543 66.32852172851563 C 52.28260040283203 64.61611938476563 55.91880035400391 62.16445159912109 59.04162979125977 59.04162979125977 C 62.16445159912109 55.91880035400391 64.61611938476563 52.28260040283203 66.32852172851563 48.2340202331543 C 68.10118103027344 44.0429801940918 69 39.59040832519531 69 35 C 69 30.40959167480469 68.10118103027344 25.9570198059082 66.32852172851563 21.7659797668457 C 64.61611938476563 17.71739959716797 62.16445159912109 14.08119964599609 59.04162979125977 10.95837020874023 C 55.91880035400391 7.835548400878906 52.28260040283203 5.383880615234375 48.2340202331543 3.671478271484375 C 44.0429801940918 1.898818969726563 39.59040832519531 1 35 1 M 35 0 C 54.32995986938477 0 70 15.67004013061523 70 35 C 70 54.32995986938477 54.32995986938477 70 35 70 C 15.67004013061523 70 0 54.32995986938477 0 35 C 0 15.67004013061523 15.67004013061523 0 35 0 Z"/>
    </g>
    <g id="Ellipse_86" data-name="Ellipse 86" class="cls-8" transform="translate(100 400)">
      <circle class="cls-53" cx="35" cy="35" r="35"/>
      <circle class="cls-1" cx="35" cy="35" r="34.5"/>
    </g>
    <g id="Ellipse_87" data-name="Ellipse 87" class="cls-9" transform="translate(190 400)">
      <circle class="cls-53" cx="35" cy="35" r="35"/>
      <circle class="cls-1" cx="35" cy="35" r="34.5"/>
    </g>
    <g id="Ellipse_88" data-name="Ellipse 88" class="cls-10" transform="translate(280 400)">
      <circle class="cls-53" cx="35" cy="35" r="35"/>
      <circle class="cls-1" cx="35" cy="35" r="34.5"/>
    </g>
    <g id="Repeat_Grid_2" data-name="Repeat Grid 2" class="cls-11" transform="translate(-8 476)">
      <g id="Group_52" data-name="Group 52" transform="translate(8 -278)">
        <g class="cls-57" transform="matrix(1, 0, 0, 1, 0, -198)">
          <rect id="Rectangle_108-4" data-name="Rectangle 108" class="cls-12" width="340" height="515" rx="15" transform="translate(10 491)"/>
        </g>
        <g id="Group_50" data-name="Group 50" transform="translate(-2593 -20)">
          <rect id="Rectangle_109" data-name="Rectangle 109" class="cls-13" width="312" height="251" rx="15" transform="translate(2617 327)"/>
          <g id="Group_49" data-name="Group 49" transform="translate(2632.285 435.668)">
            <path id="Union_1" data-name="Union 1" class="cls-14" d="M0,25.386l8.416-8.715L0,7.956,8.238,0,24.151,16.478l-.2.193.2.193L8.238,33.341Z" transform="translate(263.149 0)"/>
            <path id="Union_2" data-name="Union 2" class="cls-14" d="M0,7.955,8.416,16.67,0,25.385l8.238,7.956L24.151,16.864l-.2-.193.2-.193L8.238,0Z" transform="translate(24.151 33.341) rotate(180)"/>
          </g>
        </g>
        <g id="Group_48" data-name="Group 48" transform="translate(-524 280)">
          <g id="Group_40" data-name="Group 40">
            <rect id="Rectangle_101" data-name="Rectangle 101" class="cls-15" width="190" height="18" rx="6" transform="translate(548 289)"/>
          </g>
          <text id="獨立公寓中的單人房間" class="cls-16" transform="translate(643 302)"><tspan x="-50" y="0">獨立公寓中的單人房間</tspan></text>
        </g>
        <text id="Disney_Area_Resorts_Davenport" data-name="Disney Area Resorts 
Davenport" class="cls-17" transform="translate(24 612)"><tspan x="0" y="0">Disney Area Resorts </tspan><tspan x="0" y="22">Davenport</tspan></text>
        <text id="台灣台北市大安區基隆路二段" class="cls-18" transform="translate(24 655)"><tspan x="0" y="0">台灣台北市大安區基隆路二段</tspan></text>
        <text id="_2位_1間臥室_2張床_1間共同浴室_無線網路_冷_氣房_電視" data-name="2位．1間臥室．2張床．1間共同浴室 無線網路．冷
氣房．電視" class="cls-19" transform="translate(24 676)"><tspan x="0" y="0">2</tspan><tspan class="cls-20" y="0">位．</tspan><tspan y="0">1</tspan><tspan class="cls-20" y="0">間臥室．</tspan><tspan y="0">2</tspan><tspan class="cls-20" y="0">張床．</tspan><tspan y="0">1</tspan><tspan class="cls-20" y="0">間共同浴室</tspan><tspan y="0"> </tspan><tspan class="cls-20" y="0">無線網路．冷</tspan><tspan y="0"></tspan><tspan class="cls-20"><tspan x="0" y="17">氣房．電視</tspan></tspan></text>
        <text id="_1566_TWD_晚" data-name="$ 1566 TWD / 晚" class="cls-17" transform="translate(327 754)"><tspan x="-147.217" y="0">$ 1566 TWD / </tspan><tspan class="cls-20" y="0">晚</tspan></text>
        <text id="共_10_間" data-name="共 10 間" class="cls-21" transform="translate(327 731)"><tspan x="-58.016" y="0">共</tspan><tspan class="cls-22" y="0" xml:space="preserve"> 10 </tspan><tspan y="0">間</tspan></text>
        <text id="總金額_1565_TWD" data-name="總金額$ 1565 TWD" class="cls-23" transform="translate(327 772)"><tspan x="-101.08" y="0">總金額</tspan><tspan class="cls-22" y="0">$ 1565 TWD</tspan></text>
        <g id="Group_51" data-name="Group 51" transform="translate(-2720 400)">
          <text id="_120" data-name="120" class="cls-24" transform="translate(3024 390)"><tspan x="0" y="0">120</tspan></text>
          <g id="star" transform="translate(2921 377.5)">
            <g id="star-2" data-name="star" class="cls-25">
              <g id="star-3" data-name="star" transform="translate(0 -0.452)">
                <g id="Group_42" data-name="Group 42" transform="translate(0 0.452)">
                  <path id="Path_422" data-name="Path 422" class="cls-26" d="M7.181.667,8.925,4.8l4.466.384a.352.352,0,0,1,.2.617L10.2,8.731,11.219,13.1a.352.352,0,0,1-.524.381L6.857,11.163,3.019,13.478a.352.352,0,0,1-.524-.381L3.51,8.731.122,5.8a.352.352,0,0,1,.2-.617L4.788,4.8,6.533.667a.352.352,0,0,1,.648,0Z" transform="translate(0 -0.452)"/>
                </g>
              </g>
              <g id="star-4" data-name="star" transform="translate(20 -0.452)">
                <g id="Group_42-2" data-name="Group 42" transform="translate(0 0.452)">
                  <path id="Path_422-2" data-name="Path 422" class="cls-26" d="M7.181.667,8.925,4.8l4.466.384a.352.352,0,0,1,.2.617L10.2,8.731,11.219,13.1a.352.352,0,0,1-.524.381L6.857,11.163,3.019,13.478a.352.352,0,0,1-.524-.381L3.51,8.731.122,5.8a.352.352,0,0,1,.2-.617L4.788,4.8,6.533.667a.352.352,0,0,1,.648,0Z" transform="translate(0 -0.452)"/>
                </g>
              </g>
              <g id="star-5" data-name="star" transform="translate(40 -0.452)">
                <g id="Group_42-3" data-name="Group 42" transform="translate(0 0.452)">
                  <path id="Path_422-3" data-name="Path 422" class="cls-26" d="M7.181.667,8.925,4.8l4.466.384a.352.352,0,0,1,.2.617L10.2,8.731,11.219,13.1a.352.352,0,0,1-.524.381L6.857,11.163,3.019,13.478a.352.352,0,0,1-.524-.381L3.51,8.731.122,5.8a.352.352,0,0,1,.2-.617L4.788,4.8,6.533.667a.352.352,0,0,1,.648,0Z" transform="translate(0 -0.452)"/>
                </g>
              </g>
              <g id="star-6" data-name="star" transform="translate(60 -0.452)">
                <g id="Group_42-4" data-name="Group 42" transform="translate(0 0.452)">
                  <path id="Path_422-4" data-name="Path 422" class="cls-26" d="M7.181.667,8.925,4.8l4.466.384a.352.352,0,0,1,.2.617L10.2,8.731,11.219,13.1a.352.352,0,0,1-.524.381L6.857,11.163,3.019,13.478a.352.352,0,0,1-.524-.381L3.51,8.731.122,5.8a.352.352,0,0,1,.2-.617L4.788,4.8,6.533.667a.352.352,0,0,1,.648,0Z" transform="translate(0 -0.452)"/>
                </g>
              </g>
              <g id="star-7" data-name="star" transform="translate(80 -0.452)">
                <g id="Group_42-5" data-name="Group 42" transform="translate(0 0.452)">
                  <path id="Path_422-5" data-name="Path 422" class="cls-26" d="M7.181.667,8.925,4.8l4.466.384a.352.352,0,0,1,.2.617L10.2,8.731,11.219,13.1a.352.352,0,0,1-.524.381L6.857,11.163,3.019,13.478a.352.352,0,0,1-.524-.381L3.51,8.731.122,5.8a.352.352,0,0,1,.2-.617L4.788,4.8,6.533.667a.352.352,0,0,1,.648,0Z" transform="translate(0 -0.452)"/>
                </g>
              </g>
            </g>
          </g>
        </g>
      </g>
      <g id="Group_52-2" data-name="Group 52" transform="translate(8 261)">
        <g class="cls-56" transform="matrix(1, 0, 0, 1, 0, -737)">
          <rect id="Rectangle_108-5" data-name="Rectangle 108" class="cls-12" width="340" height="515" rx="15" transform="translate(10 1030)"/>
        </g>
        <g id="Group_50-2" data-name="Group 50" transform="translate(-2593 -20)">
          <rect id="Rectangle_109-2" data-name="Rectangle 109" class="cls-13" width="312" height="251" rx="15" transform="translate(2617 327)"/>
          <g id="Group_49-2" data-name="Group 49" transform="translate(2632.285 435.668)">
            <path id="Union_1-2" data-name="Union 1" class="cls-14" d="M0,25.386l8.416-8.715L0,7.956,8.238,0,24.151,16.478l-.2.193.2.193L8.238,33.341Z" transform="translate(263.149 0)"/>
            <path id="Union_2-2" data-name="Union 2" class="cls-14" d="M0,7.955,8.416,16.67,0,25.385l8.238,7.956L24.151,16.864l-.2-.193.2-.193L8.238,0Z" transform="translate(24.151 33.341) rotate(180)"/>
          </g>
        </g>
        <g id="Group_48-2" data-name="Group 48" transform="translate(-524 280)">
          <g id="Group_40-2" data-name="Group 40">
            <rect id="Rectangle_101-2" data-name="Rectangle 101" class="cls-15" width="190" height="18" rx="6" transform="translate(548 289)"/>
          </g>
          <text id="獨立公寓中的單人房間-2" data-name="獨立公寓中的單人房間" class="cls-16" transform="translate(643 302)"><tspan x="-50" y="0">獨立公寓中的單人房間</tspan></text>
        </g>
        <text id="Disney_Area_Resorts_Davenport-2" data-name="Disney Area Resorts 
Davenport" class="cls-17" transform="translate(24 612)"><tspan x="0" y="0">Disney Area Resorts </tspan><tspan x="0" y="22">Davenport</tspan></text>
        <text id="台灣台北市大安區基隆路二段-2" data-name="台灣台北市大安區基隆路二段" class="cls-18" transform="translate(24 655)"><tspan x="0" y="0">台灣台北市大安區基隆路二段</tspan></text>
        <text id="_2位_1間臥室_2張床_1間共同浴室_無線網路_冷_氣房_電視-2" data-name="2位．1間臥室．2張床．1間共同浴室 無線網路．冷
氣房．電視" class="cls-19" transform="translate(24 676)"><tspan x="0" y="0">2</tspan><tspan class="cls-20" y="0">位．</tspan><tspan y="0">1</tspan><tspan class="cls-20" y="0">間臥室．</tspan><tspan y="0">2</tspan><tspan class="cls-20" y="0">張床．</tspan><tspan y="0">1</tspan><tspan class="cls-20" y="0">間共同浴室</tspan><tspan y="0"> </tspan><tspan class="cls-20" y="0">無線網路．冷</tspan><tspan y="0"></tspan><tspan class="cls-20"><tspan x="0" y="17">氣房．電視</tspan></tspan></text>
        <text id="_1566_TWD_晚-2" data-name="$ 1566 TWD / 晚" class="cls-17" transform="translate(327 754)"><tspan x="-147.217" y="0">$ 1566 TWD / </tspan><tspan class="cls-20" y="0">晚</tspan></text>
        <text id="共_10_間-2" data-name="共 10 間" class="cls-21" transform="translate(327 731)"><tspan x="-58.016" y="0">共</tspan><tspan class="cls-22" y="0" xml:space="preserve"> 10 </tspan><tspan y="0">間</tspan></text>
        <text id="總金額_1565_TWD-2" data-name="總金額$ 1565 TWD" class="cls-23" transform="translate(327 772)"><tspan x="-101.08" y="0">總金額</tspan><tspan class="cls-22" y="0">$ 1565 TWD</tspan></text>
        <g id="Group_51-2" data-name="Group 51" transform="translate(-2720 400)">
          <text id="_120-2" data-name="120" class="cls-24" transform="translate(3024 390)"><tspan x="0" y="0">120</tspan></text>
          <g id="star-8" data-name="star" transform="translate(2921 377.5)">
            <g id="star-9" data-name="star" class="cls-25">
              <g id="star-10" data-name="star" transform="translate(0 -0.452)">
                <g id="Group_42-6" data-name="Group 42" transform="translate(0 0.452)">
                  <path id="Path_422-6" data-name="Path 422" class="cls-26" d="M7.181.667,8.925,4.8l4.466.384a.352.352,0,0,1,.2.617L10.2,8.731,11.219,13.1a.352.352,0,0,1-.524.381L6.857,11.163,3.019,13.478a.352.352,0,0,1-.524-.381L3.51,8.731.122,5.8a.352.352,0,0,1,.2-.617L4.788,4.8,6.533.667a.352.352,0,0,1,.648,0Z" transform="translate(0 -0.452)"/>
                </g>
              </g>
              <g id="star-11" data-name="star" transform="translate(20 -0.452)">
                <g id="Group_42-7" data-name="Group 42" transform="translate(0 0.452)">
                  <path id="Path_422-7" data-name="Path 422" class="cls-26" d="M7.181.667,8.925,4.8l4.466.384a.352.352,0,0,1,.2.617L10.2,8.731,11.219,13.1a.352.352,0,0,1-.524.381L6.857,11.163,3.019,13.478a.352.352,0,0,1-.524-.381L3.51,8.731.122,5.8a.352.352,0,0,1,.2-.617L4.788,4.8,6.533.667a.352.352,0,0,1,.648,0Z" transform="translate(0 -0.452)"/>
                </g>
              </g>
              <g id="star-12" data-name="star" transform="translate(40 -0.452)">
                <g id="Group_42-8" data-name="Group 42" transform="translate(0 0.452)">
                  <path id="Path_422-8" data-name="Path 422" class="cls-26" d="M7.181.667,8.925,4.8l4.466.384a.352.352,0,0,1,.2.617L10.2,8.731,11.219,13.1a.352.352,0,0,1-.524.381L6.857,11.163,3.019,13.478a.352.352,0,0,1-.524-.381L3.51,8.731.122,5.8a.352.352,0,0,1,.2-.617L4.788,4.8,6.533.667a.352.352,0,0,1,.648,0Z" transform="translate(0 -0.452)"/>
                </g>
              </g>
              <g id="star-13" data-name="star" transform="translate(60 -0.452)">
                <g id="Group_42-9" data-name="Group 42" transform="translate(0 0.452)">
                  <path id="Path_422-9" data-name="Path 422" class="cls-26" d="M7.181.667,8.925,4.8l4.466.384a.352.352,0,0,1,.2.617L10.2,8.731,11.219,13.1a.352.352,0,0,1-.524.381L6.857,11.163,3.019,13.478a.352.352,0,0,1-.524-.381L3.51,8.731.122,5.8a.352.352,0,0,1,.2-.617L4.788,4.8,6.533.667a.352.352,0,0,1,.648,0Z" transform="translate(0 -0.452)"/>
                </g>
              </g>
              <g id="star-14" data-name="star" transform="translate(80 -0.452)">
                <g id="Group_42-10" data-name="Group 42" transform="translate(0 0.452)">
                  <path id="Path_422-10" data-name="Path 422" class="cls-26" d="M7.181.667,8.925,4.8l4.466.384a.352.352,0,0,1,.2.617L10.2,8.731,11.219,13.1a.352.352,0,0,1-.524.381L6.857,11.163,3.019,13.478a.352.352,0,0,1-.524-.381L3.51,8.731.122,5.8a.352.352,0,0,1,.2-.617L4.788,4.8,6.533.667a.352.352,0,0,1,.648,0Z" transform="translate(0 -0.452)"/>
                </g>
              </g>
            </g>
          </g>
        </g>
      </g>
      <g id="Group_52-3" data-name="Group 52" transform="translate(8 800)">
        <g class="cls-55" transform="matrix(1, 0, 0, 1, 0, -1276)">
          <rect id="Rectangle_108-6" data-name="Rectangle 108" class="cls-12" width="340" height="515" rx="15" transform="translate(10 1569)"/>
        </g>
        <g id="Group_50-3" data-name="Group 50" transform="translate(-2593 -20)">
          <rect id="Rectangle_109-3" data-name="Rectangle 109" class="cls-13" width="312" height="251" rx="15" transform="translate(2617 327)"/>
          <g id="Group_49-3" data-name="Group 49" transform="translate(2632.285 435.668)">
            <path id="Union_1-3" data-name="Union 1" class="cls-14" d="M0,25.386l8.416-8.715L0,7.956,8.238,0,24.151,16.478l-.2.193.2.193L8.238,33.341Z" transform="translate(263.149 0)"/>
            <path id="Union_2-3" data-name="Union 2" class="cls-14" d="M0,7.955,8.416,16.67,0,25.385l8.238,7.956L24.151,16.864l-.2-.193.2-.193L8.238,0Z" transform="translate(24.151 33.341) rotate(180)"/>
          </g>
        </g>
        <g id="Group_48-3" data-name="Group 48" transform="translate(-524 280)">
          <g id="Group_40-3" data-name="Group 40">
            <rect id="Rectangle_101-3" data-name="Rectangle 101" class="cls-15" width="190" height="18" rx="6" transform="translate(548 289)"/>
          </g>
          <text id="獨立公寓中的單人房間-3" data-name="獨立公寓中的單人房間" class="cls-16" transform="translate(643 302)"><tspan x="-50" y="0">獨立公寓中的單人房間</tspan></text>
        </g>
        <text id="Disney_Area_Resorts_Davenport-3" data-name="Disney Area Resorts 
Davenport" class="cls-17" transform="translate(24 612)"><tspan x="0" y="0">Disney Area Resorts </tspan><tspan x="0" y="22">Davenport</tspan></text>
        <text id="台灣台北市大安區基隆路二段-3" data-name="台灣台北市大安區基隆路二段" class="cls-18" transform="translate(24 655)"><tspan x="0" y="0">台灣台北市大安區基隆路二段</tspan></text>
        <text id="_2位_1間臥室_2張床_1間共同浴室_無線網路_冷_氣房_電視-3" data-name="2位．1間臥室．2張床．1間共同浴室 無線網路．冷
氣房．電視" class="cls-19" transform="translate(24 676)"><tspan x="0" y="0">2</tspan><tspan class="cls-20" y="0">位．</tspan><tspan y="0">1</tspan><tspan class="cls-20" y="0">間臥室．</tspan><tspan y="0">2</tspan><tspan class="cls-20" y="0">張床．</tspan><tspan y="0">1</tspan><tspan class="cls-20" y="0">間共同浴室</tspan><tspan y="0"> </tspan><tspan class="cls-20" y="0">無線網路．冷</tspan><tspan y="0"></tspan><tspan class="cls-20"><tspan x="0" y="17">氣房．電視</tspan></tspan></text>
        <text id="_1566_TWD_晚-3" data-name="$ 1566 TWD / 晚" class="cls-17" transform="translate(327 754)"><tspan x="-147.217" y="0">$ 1566 TWD / </tspan><tspan class="cls-20" y="0">晚</tspan></text>
        <text id="共_10_間-3" data-name="共 10 間" class="cls-21" transform="translate(327 731)"><tspan x="-58.016" y="0">共</tspan><tspan class="cls-22" y="0" xml:space="preserve"> 10 </tspan><tspan y="0">間</tspan></text>
        <text id="總金額_1565_TWD-3" data-name="總金額$ 1565 TWD" class="cls-23" transform="translate(327 772)"><tspan x="-101.08" y="0">總金額</tspan><tspan class="cls-22" y="0">$ 1565 TWD</tspan></text>
        <g id="Group_51-3" data-name="Group 51" transform="translate(-2720 400)">
          <text id="_120-3" data-name="120" class="cls-24" transform="translate(3024 390)"><tspan x="0" y="0">120</tspan></text>
          <g id="star-15" data-name="star" transform="translate(2921 377.5)">
            <g id="star-16" data-name="star" class="cls-25">
              <g id="star-17" data-name="star" transform="translate(0 -0.452)">
                <g id="Group_42-11" data-name="Group 42" transform="translate(0 0.452)">
                  <path id="Path_422-11" data-name="Path 422" class="cls-26" d="M7.181.667,8.925,4.8l4.466.384a.352.352,0,0,1,.2.617L10.2,8.731,11.219,13.1a.352.352,0,0,1-.524.381L6.857,11.163,3.019,13.478a.352.352,0,0,1-.524-.381L3.51,8.731.122,5.8a.352.352,0,0,1,.2-.617L4.788,4.8,6.533.667a.352.352,0,0,1,.648,0Z" transform="translate(0 -0.452)"/>
                </g>
              </g>
              <g id="star-18" data-name="star" transform="translate(20 -0.452)">
                <g id="Group_42-12" data-name="Group 42" transform="translate(0 0.452)">
                  <path id="Path_422-12" data-name="Path 422" class="cls-26" d="M7.181.667,8.925,4.8l4.466.384a.352.352,0,0,1,.2.617L10.2,8.731,11.219,13.1a.352.352,0,0,1-.524.381L6.857,11.163,3.019,13.478a.352.352,0,0,1-.524-.381L3.51,8.731.122,5.8a.352.352,0,0,1,.2-.617L4.788,4.8,6.533.667a.352.352,0,0,1,.648,0Z" transform="translate(0 -0.452)"/>
                </g>
              </g>
              <g id="star-19" data-name="star" transform="translate(40 -0.452)">
                <g id="Group_42-13" data-name="Group 42" transform="translate(0 0.452)">
                  <path id="Path_422-13" data-name="Path 422" class="cls-26" d="M7.181.667,8.925,4.8l4.466.384a.352.352,0,0,1,.2.617L10.2,8.731,11.219,13.1a.352.352,0,0,1-.524.381L6.857,11.163,3.019,13.478a.352.352,0,0,1-.524-.381L3.51,8.731.122,5.8a.352.352,0,0,1,.2-.617L4.788,4.8,6.533.667a.352.352,0,0,1,.648,0Z" transform="translate(0 -0.452)"/>
                </g>
              </g>
              <g id="star-20" data-name="star" transform="translate(60 -0.452)">
                <g id="Group_42-14" data-name="Group 42" transform="translate(0 0.452)">
                  <path id="Path_422-14" data-name="Path 422" class="cls-26" d="M7.181.667,8.925,4.8l4.466.384a.352.352,0,0,1,.2.617L10.2,8.731,11.219,13.1a.352.352,0,0,1-.524.381L6.857,11.163,3.019,13.478a.352.352,0,0,1-.524-.381L3.51,8.731.122,5.8a.352.352,0,0,1,.2-.617L4.788,4.8,6.533.667a.352.352,0,0,1,.648,0Z" transform="translate(0 -0.452)"/>
                </g>
              </g>
              <g id="star-21" data-name="star" transform="translate(80 -0.452)">
                <g id="Group_42-15" data-name="Group 42" transform="translate(0 0.452)">
                  <path id="Path_422-15" data-name="Path 422" class="cls-26" d="M7.181.667,8.925,4.8l4.466.384a.352.352,0,0,1,.2.617L10.2,8.731,11.219,13.1a.352.352,0,0,1-.524.381L6.857,11.163,3.019,13.478a.352.352,0,0,1-.524-.381L3.51,8.731.122,5.8a.352.352,0,0,1,.2-.617L4.788,4.8,6.533.667a.352.352,0,0,1,.648,0Z" transform="translate(0 -0.452)"/>
                </g>
              </g>
            </g>
          </g>
        </g>
      </g>
    </g>
    <g id="Group_53" data-name="Group 53" transform="translate(-300.24 -719)">
      <g id="Group_36" data-name="Group 36" transform="translate(3357 -416.076)">
        <g id="Group_35" data-name="Group 35" transform="translate(-3356.76 3254.076)">
          <g id="Group_27" data-name="Group 27" class="cls-27" transform="translate(0)">
            <rect id="Rectangle_21" data-name="Rectangle 21" class="cls-15" width="959.76" height="318.904"/>
          </g>
          <g id="Group_28" data-name="Group 28" class="cls-27" transform="translate(0)">
            <path id="Path_381" data-name="Path 381" class="cls-28" d="M987.14,410.822s1.8-7.584,14.441-5.053,14.441,5.053,14.441,5.053Z" transform="translate(-224.613 -91.632)"/>
            <path id="Path_382" data-name="Path 382" class="cls-28" d="M906.67,398s1.8-7.584,14.441-5.053S935.551,398,935.551,398Z" transform="translate(-206.418 -88.734)"/>
            <path id="Path_383" data-name="Path 383" class="cls-28" d="M1038.891,411.653s-10.107-6.137-14.441,0Z" transform="translate(-233.049 -92.463)"/>
            <path id="Path_384" data-name="Path 384" class="cls-28" d="M978.021,389.263s-10.107-6.137-14.441,0Z" transform="translate(-219.286 -87.4)"/>
            <path id="Path_385" data-name="Path 385" class="cls-3" d="M908.421,379.205c3.01,5.58,9.4,7.979,9.4,7.979s1.509-6.655-1.5-12.235-9.4-7.979-9.4-7.979S905.41,373.625,908.421,379.205Z" transform="translate(-206.389 -82.976)"/>
            <path id="Path_386" data-name="Path 386" class="cls-29" d="M908.421,379.205c3.01,5.58,9.4,7.979,9.4,7.979s1.509-6.655-1.5-12.235-9.4-7.979-9.4-7.979S905.41,373.625,908.421,379.205Z" transform="translate(-206.389 -82.976)"/>
            <path id="Path_387" data-name="Path 387" class="cls-3" d="M908.09,379.741c5.433,3.266,7.522,9.759,7.522,9.759s-6.717,1.192-12.15-2.074-7.522-9.759-7.522-9.759S902.657,376.468,908.09,379.741Z" transform="translate(-203.991 -85.347)"/>
            <path id="Path_388" data-name="Path 388" class="cls-28" d="M1297.1,404.992s1.8-7.584,14.441-5.053,14.441,5.053,14.441,5.053Z" transform="translate(-294.699 -90.314)"/>
            <path id="Path_389" data-name="Path 389" class="cls-28" d="M1210.1,394.363q-13.164-2.066-25.322-3.506l3.119-6.238c-1.083-.364-5.773,3.25-5.773,3.25l3.97-18.047c-5.417.72-7.94,19.13-7.94,19.13l-6.137-6.137,3.018,6.95a559.062,559.062,0,0,0-64.171-3.235l2.67-5.34c-1.083-.364-5.773,3.25-5.773,3.25l3.97-18.047c-5.417.72-7.94,19.131-7.94,19.131l-6.137-6.137,3.2,7.36a359.838,359.838,0,0,0-36.829,2.964c2.662-8.3,11.972-16.283,11.972-16.283-7.158,2.229-10.881,5.851-12.808,9.217a145.166,145.166,0,0,1,7.747-50.187s-14.441,32.488-12.274,54.149l.279,3.846a147.434,147.434,0,0,0-18.867,3.916H1210.1Z" transform="translate(-236.581 -75.173)"/>
            <path id="Path_390" data-name="Path 390" class="cls-28" d="M1138.04,432.415s66.423-9.743,107.578,0" transform="translate(-258.733 -96.795)"/>
            <path id="Path_391" data-name="Path 391" class="cls-28" d="M1011.63,449.675s66.423-9.743,107.578,0" transform="translate(-230.15 -100.698)"/>
            <path id="Path_392" data-name="Path 392" class="cls-28" d="M1170.69,454.275s39.337-9.975,63.714,0" transform="translate(-266.116 -101.715)"/>
            <path id="Path_393" data-name="Path 393" class="cls-28" d="M1308.161,380.184l-.642-.333c8.335-16.112,3.877-37.031-1.331-51.742a158.644,158.644,0,0,0-13.458-28.4l.611-.387a159.494,159.494,0,0,1,13.528,28.549C1312.131,342.712,1316.612,363.839,1308.161,380.184Z" transform="translate(-293.711 -67.68)"/>
            <rect id="Rectangle_23" data-name="Rectangle 23" class="cls-28" width="26.057" height="0.72" transform="translate(1015.999 257.426) rotate(-79.642)"/>
            <rect id="Rectangle_24" data-name="Rectangle 24" class="cls-28" width="0.72" height="35.506" transform="translate(988.981 254.138) rotate(-42.937)"/>
            <rect id="Rectangle_25" data-name="Rectangle 25" class="cls-28" width="20.941" height="0.72" transform="translate(1020.646 299.14) rotate(-54.139)"/>
            <circle id="Ellipse_68" data-name="Ellipse 68" class="cls-30" cx="3.606" cy="3.606" r="3.606" transform="translate(1019.195 217.757)"/>
            <circle id="Ellipse_69" data-name="Ellipse 69" class="cls-28" cx="3.606" cy="3.606" r="3.606" transform="translate(979.842 245.555)"/>
            <circle id="Ellipse_70" data-name="Ellipse 70" class="cls-28" cx="3.606" cy="3.606" r="3.606" transform="translate(995.73 249.169)"/>
            <circle id="Ellipse_71" data-name="Ellipse 71" class="cls-30" cx="3.606" cy="3.606" r="3.606" transform="translate(988.51 263.246)"/>
            <circle id="Ellipse_72" data-name="Ellipse 72" class="cls-28" cx="3.606" cy="3.606" r="3.606" transform="translate(1033.628 272.269)"/>
            <circle id="Ellipse_73" data-name="Ellipse 73" class="cls-28" cx="3.606" cy="3.606" r="3.606" transform="translate(1021.718 276.239)"/>
            <circle id="Ellipse_74" data-name="Ellipse 74" class="cls-28" cx="3.606" cy="3.606" r="3.606" transform="translate(1030.021 287.793)"/>
            <circle id="Ellipse_75" data-name="Ellipse 75" class="cls-28" cx="3.606" cy="3.606" r="3.606" transform="translate(992.116 222.09)"/>
            <path id="Path_394" data-name="Path 394" class="cls-31" d="M980.868,237.3c0,44.622-26.529,60.2-59.249,60.2s-59.249-15.578-59.249-60.2S921.619,135.91,921.619,135.91,980.868,192.675,980.868,237.3Z" transform="translate(-196.401 -30.731)"/>
            <path id="Path_395" data-name="Path 395" class="cls-28" d="M929.182,290.672l.6-37.348,25.26-46.2-25.159,40.343.271-16.793,17.4-33.424L930.227,226.23h0l.5-30.2,18.635-26.614L930.8,191.282l.3-55.372-1.927,73.3.163-3.018-18.953-29.005L929.028,212l-1.764,33.726-.054-.9L905.37,214.3l21.777,33.687-.224,4.218-.039.062.023.348-4.481,85.569h5.982l.72-44.2,21.723-33.6Z" transform="translate(-206.124 -30.731)"/>
            <path id="Path_396" data-name="Path 396" class="cls-31" d="M1225.723,213.541c0,54.513-32.41,73.55-72.382,73.55s-72.382-19.038-72.382-73.55S1153.342,89.68,1153.342,89.68,1225.723,159.028,1225.723,213.541Z" transform="translate(-245.827 -20.278)"/>
            <path id="Path_397" data-name="Path 397" class="cls-28" d="M1162.58,278.746l.743-45.621,30.855-56.447-30.739,49.289.333-20.516,21.266-40.838-21.174,35.413h0l.6-36.9,22.768-32.511-22.675,26.707.379-67.653-2.36,89.562.193-3.691L1139.619,140.1l22.776,42.525-2.151,41.21-.07-1.1-26.684-37.286,26.606,41.155-.271,5.146-.047.077.023.426L1154.331,336.8h7.305l.882-54,26.537-41.047Z" transform="translate(-257.704 -20.275)"/>
            <path id="Path_398" data-name="Path 398" class="cls-32" d="M1095.885,351.18l3.3,10.208a52.78,52.78,0,0,0-1.571,20.26c1.416,10.68.627,11,.627,11s-14.123-.813-12.707,3.428,15.222,1.757,15.222,1.757,2.654-.712,3.908-8.25,4.419-22.064,4.419-22.064l-2.972-13.706Z" transform="translate(-246.838 -79.406)"/>
            <path id="Path_399" data-name="Path 399" class="cls-3" d="M1098.617,324.19s-5.967,2.2-5.967,8.164,2.2,14.139,3.614,14.611,10.834,6.911,12.568,2.353S1098.617,324.19,1098.617,324.19Z" transform="translate(-248.47 -73.303)"/>
            <path id="Path_400" data-name="Path 400" class="cls-32" d="M1163.754,414.968l12.568-.472,9.581-1.416-2.825,9.426-23.248.627Z" transform="translate(-263.66 -93.402)"/>
            <path id="Path_401" data-name="Path 401" class="cls-33" d="M1187.574,415.166s-.155-3.459-1.571-3.3-.472-1.254.782-1.571,4.868-1.888,4.868-1.888l14.294.944s9.263,8.164,5.495,12.568-13.5.472-13.5.472l-10.525.155C1187.419,422.549,1183.96,416.892,1187.574,415.166Z" transform="translate(-269.418 -92.347)"/>
            <path id="Path_402" data-name="Path 402" class="cls-32" d="M1195.55,398.528l4.55,21.367,9.426-1.888-5.34-26.7-5.657-2.987Z" transform="translate(-271.737 -87.804)"/>
            <path id="Path_403" data-name="Path 403" class="cls-33" d="M1120.275,385.353s-26.39,11.933-15.238,24.029c0,0,0,5.657,11.779,4.558s34.554-3.142,35.653-2.515,4.558-12.405,1.571-13.04-6.594-1.416-6.594-1.416,3.142-.472,3.142-3.142c0,0,8.954-.627,11.624-6.284s5.185-9.9,5.185-9.9l6.129,15.71s7.066-13.04,12.406-7.228c0,0-5.967-37.541-10.525-40.993s-7.692-4.558-11.933-1.416-8.165,11.152-8.165,11.152Z" transform="translate(-250.65 -77.299)"/>
            <path id="Path_404" data-name="Path 404" class="cls-33" d="M1203.933,420.741a35.55,35.55,0,0,0-3.142,2.67c-1.254,1.254-2.987.627-3.142,0s-2.987.472-3.3,5.023-2.2,8.637,2.825,10.053,4.868,5.495,4.868,5.495a16.907,16.907,0,0,0,12.723.782c7.066-2.353,4.558-4.868,4.558-4.868l-9.426-15.547C1209.908,424.355,1207.393,419.643,1203.933,420.741Z" transform="translate(-271.329 -95.097)"/>
            <path id="Path_405" data-name="Path 405" class="cls-32" d="M1171.612,320.13s15.075,5.185,16.646,6.284,8.637,6.284,5.185,8.954-6.284,4.4-13.04,2.353-14.294-8.327-14.294-8.327Z" transform="translate(-265.08 -72.385)"/>
            <path id="Path_406" data-name="Path 406" class="cls-3" d="M1153.74,311.125s5.967-1.1,10.208,1.254,7.855,7.066,7.855,7.066-3.924,8.327-6.756,9.581-8.01-5.023-8.01-5.023Z" transform="translate(-262.283 -70.291)"/>
            <path id="Path_407" data-name="Path 407" class="cls-32" d="M1118.072,305.091s.155,6.129-.472,6.756,7.538,19.161,16.491,11,2.043-11.469,2.043-11.469-3.3-6.129-3.142-6.756-14.611,0-14.611,0Z" transform="translate(-254.104 -68.815)"/>
            <path id="Path_408" data-name="Path 408" class="cls-34" d="M1118.072,305.091s.155,6.129-.472,6.756,7.538,19.161,16.491,11,2.043-11.469,2.043-11.469-3.3-6.129-3.142-6.756-14.611,0-14.611,0Z" transform="translate(-254.104 -68.815)"/>
            <path id="Path_409" data-name="Path 409" class="cls-3" d="M1120.828,319.887s5.967,4.086,8.482,3.142,5.657-5.023,5.967-5.34,16.337,31.884,16.337,31.884-2.353,11.779-8.637,15.238-6.207,6.207-6.988,8.559-10.919-7.46-10.919-7.46l-6.439-27.326V321.938Z" transform="translate(-254.344 -71.833)"/>
            <path id="Path_410" data-name="Path 410" class="cls-15" d="M1113.686,311.089a5.082,5.082,0,0,0-4.009,1.339c-2.043,1.726-11.624,8.164-11.152,8.8s4.713,9.581,5.657,13.195,2.353,4.086,2.353,4.086,3.3,2.353,2.825,4.086-2.515,25.291.317,30.468,2.353,9.736,1.571,11,7.538-3.614,7.538-3.614,12.405-10.053,13.349-13.04a34.756,34.756,0,0,0,1.254-6.284s-8.01-31.729-10.525-33.455C1120.364,325.924,1113.686,311.089,1113.686,311.089Z" transform="translate(-249.795 -70.332)"/>
            <path id="Path_411" data-name="Path 411" class="cls-15" d="M1139.64,310.712s3.869-2.4,4.659-1.772,8.165.627,8.327,1.254.472,15.71,5.812,19.634,1.888,11.779,1.888,11.779l3.924,6.284s-21.359,20.578-19.951,13.5c.077-.395,0-.472,0-.472s-8.327-35.653-7.228-37.541S1140.166,312.956,1139.64,310.712Z" transform="translate(-258.492 -69.831)"/>
            <path id="Path_412" data-name="Path 412" class="cls-32" d="M1171.385,329.87l-21.359,7.383s-21.2,5.023-17.908,10.834S1149.4,344,1149.4,344l28.448-3.188C1177.847,340.82,1189.138,331.286,1171.385,329.87Z" transform="translate(-257.316 -74.588)"/>
            <circle id="Ellipse_76" data-name="Ellipse 76" class="cls-32" cx="11.624" cy="11.624" r="11.624" transform="translate(860.826 218.84)"/>
            <path id="Path_413" data-name="Path 413" class="cls-33" d="M1116,280.854l-2.151-.782s4.5-4.5,10.749-4.1l-1.757-1.757s4.3-1.563,8.211,2.538a34.759,34.759,0,0,1,5.913,7.553h2.306l-.96,1.919,3.366,1.919-3.452-.348a9.706,9.706,0,0,1-.325,4.976l-.782,2.151s-3.126-6.253-3.126-7.035v1.958s-2.151-1.757-2.151-2.933l-1.176,1.37-.588-2.151-7.228,2.151,1.176-1.757-4.5.588,1.757-2.151s-5.084,2.538-5.278,4.69-2.74,4.883-2.74,4.883l-1.176-1.958S1110.338,283.78,1116,280.854Z" transform="translate(-252.809 -61.937)"/>
          </g>
          <g id="Group_29" data-name="Group 29" class="cls-27" transform="translate(0)">
            <rect id="Rectangle_27" data-name="Rectangle 27" class="cls-31" width="256.521" height="54.358" transform="translate(345.734 263.927)"/>
            <path id="Path_414" data-name="Path 414" class="cls-3" d="M437.99,331.662l27.922-58.452H688.923l20.849,58.452Z" transform="translate(-100.443 -61.776)"/>
            <rect id="Rectangle_28" data-name="Rectangle 28" class="cls-31" width="103.5" height="34.252" transform="translate(407.166 215.156)"/>
            <path id="Path_415" data-name="Path 415" class="cls-3" d="M531.823,241.94,515.44,276.192H638.3l-9.681-34.252Z" transform="translate(-117.956 -54.706)"/>
            <rect id="Rectangle_29" data-name="Rectangle 29" class="cls-35" width="81.723" height="43.562" transform="translate(416.29 274.722)"/>
            <rect id="Rectangle_30" data-name="Rectangle 30" class="cls-35" width="43.562" height="42.069" transform="translate(355.787 276.216)"/>
            <rect id="Rectangle_31" data-name="Rectangle 31" class="cls-3" width="22.528" height="39.468" transform="translate(512.159 278.816)"/>
            <rect id="Rectangle_32" data-name="Rectangle 32" class="cls-28" width="423.317" height="0.743" transform="translate(261.783 318.099)"/>
            <rect id="Rectangle_33" data-name="Rectangle 33" class="cls-3" width="10.981" height="10.239" transform="translate(559.064 281.053)"/>
            <rect id="Rectangle_34" data-name="Rectangle 34" class="cls-3" width="10.981" height="10.239" transform="translate(573.776 281.053)"/>
            <rect id="Rectangle_35" data-name="Rectangle 35" class="cls-3" width="10.981" height="10.61" transform="translate(559.064 295.014)"/>
            <rect id="Rectangle_36" data-name="Rectangle 36" class="cls-3" width="10.981" height="10.61" transform="translate(573.776 295.014)"/>
            <rect id="Rectangle_37" data-name="Rectangle 37" class="cls-28" width="8.598" height="8.01" transform="translate(416.661 224.528)"/>
            <rect id="Rectangle_38" data-name="Rectangle 38" class="cls-28" width="8.598" height="8.01" transform="translate(428.169 224.528)"/>
            <rect id="Rectangle_39" data-name="Rectangle 39" class="cls-28" width="8.598" height="8.304" transform="translate(416.661 235.455)"/>
            <rect id="Rectangle_40" data-name="Rectangle 40" class="cls-28" width="8.598" height="8.304" transform="translate(428.169 235.455)"/>
            <rect id="Rectangle_41" data-name="Rectangle 41" class="cls-28" width="8.598" height="8.01" transform="translate(481.072 224.528)"/>
            <rect id="Rectangle_42" data-name="Rectangle 42" class="cls-28" width="8.598" height="8.01" transform="translate(492.58 224.528)"/>
            <rect id="Rectangle_43" data-name="Rectangle 43" class="cls-28" width="8.598" height="8.304" transform="translate(481.072 235.455)"/>
            <rect id="Rectangle_44" data-name="Rectangle 44" class="cls-28" width="8.598" height="8.304" transform="translate(492.58 235.455)"/>
            <rect id="Rectangle_45" data-name="Rectangle 45" class="cls-28" width="8.598" height="8.01" transform="translate(449.048 224.528)"/>
            <rect id="Rectangle_46" data-name="Rectangle 46" class="cls-28" width="8.598" height="8.01" transform="translate(460.556 224.528)"/>
            <rect id="Rectangle_47" data-name="Rectangle 47" class="cls-28" width="8.598" height="8.304" transform="translate(449.048 235.455)"/>
            <rect id="Rectangle_48" data-name="Rectangle 48" class="cls-28" width="8.598" height="8.304" transform="translate(460.556 235.455)"/>
            <rect id="Rectangle_49" data-name="Rectangle 49" class="cls-31" width="5.409" height="5.046" transform="translate(517.181 282.817)"/>
            <rect id="Rectangle_50" data-name="Rectangle 50" class="cls-31" width="5.409" height="5.046" transform="translate(524.433 282.817)"/>
            <rect id="Rectangle_51" data-name="Rectangle 51" class="cls-31" width="5.409" height="5.231" transform="translate(517.181 289.697)"/>
            <rect id="Rectangle_52" data-name="Rectangle 52" class="cls-31" width="5.409" height="5.231" transform="translate(524.433 289.697)"/>
            <circle id="Ellipse_77" data-name="Ellipse 77" class="cls-31" cx="1.486" cy="1.486" r="1.486" transform="translate(530.214 299.858)"/>
            <rect id="Rectangle_53" data-name="Rectangle 53" class="cls-31" width="81.908" height="0.743" transform="translate(416.29 279.373)"/>
            <rect id="Rectangle_54" data-name="Rectangle 54" class="cls-31" width="81.908" height="0.743" transform="translate(416.29 282.724)"/>
            <rect id="Rectangle_55" data-name="Rectangle 55" class="cls-31" width="81.908" height="0.743" transform="translate(416.29 286.075)"/>
            <rect id="Rectangle_56" data-name="Rectangle 56" class="cls-31" width="81.908" height="0.743" transform="translate(416.29 289.426)"/>
            <rect id="Rectangle_57" data-name="Rectangle 57" class="cls-31" width="81.908" height="0.743" transform="translate(416.29 292.777)"/>
            <rect id="Rectangle_58" data-name="Rectangle 58" class="cls-31" width="81.908" height="0.743" transform="translate(416.29 296.128)"/>
            <rect id="Rectangle_59" data-name="Rectangle 59" class="cls-31" width="81.908" height="0.743" transform="translate(416.29 299.479)"/>
            <rect id="Rectangle_60" data-name="Rectangle 60" class="cls-31" width="81.908" height="0.743" transform="translate(416.29 302.83)"/>
            <rect id="Rectangle_61" data-name="Rectangle 61" class="cls-31" width="81.908" height="0.743" transform="translate(416.29 306.181)"/>
            <rect id="Rectangle_62" data-name="Rectangle 62" class="cls-31" width="81.908" height="0.743" transform="translate(416.29 309.532)"/>
            <rect id="Rectangle_63" data-name="Rectangle 63" class="cls-31" width="81.908" height="0.743" transform="translate(416.29 312.883)"/>
            <rect id="Rectangle_64" data-name="Rectangle 64" class="cls-31" width="43.562" height="0.743" transform="translate(355.787 279.373)"/>
            <rect id="Rectangle_65" data-name="Rectangle 65" class="cls-31" width="43.562" height="0.743" transform="translate(355.787 282.724)"/>
            <rect id="Rectangle_66" data-name="Rectangle 66" class="cls-31" width="43.562" height="0.743" transform="translate(355.787 286.075)"/>
            <rect id="Rectangle_67" data-name="Rectangle 67" class="cls-31" width="43.562" height="0.743" transform="translate(355.787 289.426)"/>
            <rect id="Rectangle_68" data-name="Rectangle 68" class="cls-31" width="43.562" height="0.743" transform="translate(355.787 292.777)"/>
            <rect id="Rectangle_69" data-name="Rectangle 69" class="cls-31" width="43.562" height="0.743" transform="translate(355.787 296.128)"/>
            <rect id="Rectangle_70" data-name="Rectangle 70" class="cls-31" width="43.562" height="0.743" transform="translate(355.787 299.479)"/>
            <rect id="Rectangle_71" data-name="Rectangle 71" class="cls-31" width="43.562" height="0.743" transform="translate(355.787 302.83)"/>
            <rect id="Rectangle_72" data-name="Rectangle 72" class="cls-31" width="43.562" height="0.743" transform="translate(355.787 306.181)"/>
            <rect id="Rectangle_73" data-name="Rectangle 73" class="cls-31" width="43.562" height="0.743" transform="translate(355.787 309.532)"/>
            <rect id="Rectangle_74" data-name="Rectangle 74" class="cls-31" width="43.562" height="0.743" transform="translate(355.787 312.883)"/>
          </g>
          <g id="Group_34" data-name="Group 34" class="cls-27" transform="translate(0)">
            <path id="Path_416" data-name="Path 416" class="cls-36" d="M-13.69,345.827,65.038,156.48l166.185,69.093L152.495,414.92Z" transform="translate(1.687 -35.382)"/>
            <rect id="Rectangle_76" data-name="Rectangle 76" class="cls-12" width="196.56" height="175.758" transform="translate(-7.954 306.223) rotate(-67.425)"/>
            <rect id="Rectangle_77" data-name="Rectangle 77" class="cls-3" width="141.807" height="159.158" transform="translate(18.687 262.979) rotate(-67.425)"/>
            <rect id="Rectangle_78" data-name="Rectangle 78" class="cls-37" width="141.807" height="159.158" transform="translate(18.687 262.979) rotate(-67.425)"/>
            <path id="Path_417" data-name="Path 417" class="cls-38" d="M-4.7,174.5l174.218,45.172-51.471,198.5L-56.17,373Z" transform="translate(11.292 -39.457)"/>
            <rect id="Rectangle_79" data-name="Rectangle 79" class="cls-12" width="196.56" height="175.758" transform="matrix(0.251, -0.968, 0.968, 0.251, -41.464, 328.808)"/>
            <path id="Path_418" data-name="Path 418" class="cls-39" d="M8.7,185.47l156.031,40.459-36.62,141.219L-27.92,326.689Z" transform="translate(4.905 -41.937)"/>
            <g id="Group_31" data-name="Group 31" transform="translate(-23.012 143.534)">
              <g id="Group_30" data-name="Group 30" class="cls-40">
                <path id="Path_419" data-name="Path 419" class="cls-41" d="M13.11,293.821c3.637,6.949,6.021,14.982,11.972,20.013,8.629,7.306,21.878,5.634,31.915.341S75.26,300.593,84.981,294.7c27.891-16.917,66.206-10.672,89.74,11.724,3.359,3.2,6.508,6.756,8.35,11.043,2.4,5.572,2.422,11.887,2.082,17.977a176.561,176.561,0,0,1-6.965,40.173c-2.616,8.9-6.957,18.612-15.625,21.615a29.217,29.217,0,0,1-8.551,1.215c-42.773,1.416-84.7-10.316-125.586-22.8-30.476-9.3-61.168-19.247-88.161-36.28a7.316,7.316,0,0,1-3.119-3.026c-.65-1.54-.217-3.328.333-4.906,1.811-5.232,4.767-9.968,7.352-14.866a110.092,110.092,0,0,0,11.028-32.534c1.734-10.061-1.625-19.812,10.478-19.61C-14.688,264.708,4.326,277.051,13.11,293.821Z" transform="translate(35.889 -203.324)"/>
              </g>
            </g>
            <rect id="Rectangle_81" data-name="Rectangle 81" class="cls-12" width="141.807" height="159.158" transform="matrix(0.251, -0.968, 0.968, 0.251, -21.132, 282.256)"/>
            <g id="Group_33" data-name="Group 33" transform="translate(-21.132 144.987)">
              <g id="Group_32" data-name="Group 32" class="cls-42">
                <path id="Path_420" data-name="Path 420" class="cls-43" d="M14.779,292.767c3.614,6.772,6,14.6,11.887,19.517,8.544,7.135,21.6,5.572,31.482.449s17.97-13.148,27.535-18.844c27.45-16.352,65.27-10.138,88.556,11.732,3.328,3.127,6.439,6.6,8.281,10.773,2.391,5.433,2.43,11.577,2.12,17.505a169.3,169.3,0,0,1-6.717,39.058c-2.554,8.644-6.795,18.086-15.338,20.988a29.079,29.079,0,0,1-8.428,1.145c-42.185,1.23-83.6-10.355-123.961-22.652C.106,363.269-30.215,353.471-56.9,336.817a7.219,7.219,0,0,1-3.088-2.956c-.65-1.5-.224-3.243.3-4.783,1.764-5.084,4.674-9.681,7.2-14.433A105.674,105.674,0,0,0-41.73,283.024c1.672-9.774-1.679-19.278,10.262-19.045C-12.748,264.343,6.05,276.431,14.779,292.767Z" transform="translate(33.362 -204.675)"/>
              </g>
            </g>
            <circle id="Ellipse_78" data-name="Ellipse 78" class="cls-44" cx="11.562" cy="11.562" r="11.562" transform="translate(17.033 157.471)"/>
            <rect id="Rectangle_83" data-name="Rectangle 83" class="cls-45" width="41.829" height="5.44" transform="matrix(0.251, -0.968, 0.968, 0.251, 81.78, 304.023)"/>
            <path id="Path_421" data-name="Path 421" class="cls-45" d="M136.063,327.218l-4.187-4.365,4.086,1.873-.371-8.544-4.93-5.139,4.806,2.376-.526-12.049-4.8-5.007,4.682,2.151-.5-11.6-4.891-5.092L134.19,284l-.774-17.885-6.826,11.221,4.009-.356-5.193,2.314-4.953,8.157,7.414.062-9.72,3.738-5.324,8.753,7.925.07-10.393,3.993-4.117,6.772,6.083.046-7.971,3.065L97.26,325.609l39.174,10.153Z" transform="translate(-23.4 -60.173)"/>
            <rect id="Rectangle_84" data-name="Rectangle 84" class="cls-30" width="25.507" height="175.758" transform="matrix(0.251, -0.968, 0.968, 0.251, -41.464, 328.807)"/>
          </g>
        </g>
        <g id="分離模式" transform="translate(-3295.553 3264.206)">
          <circle id="Ellipse_79" data-name="Ellipse 79" class="cls-46" cx="16.739" cy="16.739" r="16.739" transform="translate(175.951 36.481)"/>
          <circle id="Ellipse_80" data-name="Ellipse 80" class="cls-46" cx="16.739" cy="16.739" r="16.739" transform="translate(518.095 0)"/>
          <circle id="Ellipse_81" data-name="Ellipse 81" class="cls-46" cx="16.739" cy="16.739" r="16.739" transform="translate(720.977 37.487)"/>
          <circle id="Ellipse_82" data-name="Ellipse 82" class="cls-46" cx="28.053" cy="28.053" r="28.053" transform="translate(0 65.664)"/>
          <circle id="Ellipse_83" data-name="Ellipse 83" class="cls-46" cx="28.053" cy="28.053" r="28.053" transform="translate(26.893 204.19)"/>
          <circle id="Ellipse_84" data-name="Ellipse 84" class="cls-46" cx="28.053" cy="28.053" r="28.053" transform="translate(779.823 153.199)"/>
        </g>
      </g>
      <g id="Group_39" data-name="Group 39" transform="translate(90.74 17.769)">
        <g id="Layer_1_1_2" data-name="Layer_1_1_" transform="translate(282.191 2853.519)">
          <g id="Group_3-2" data-name="Group 3" transform="translate(0 0)">
            <g id="Group_1-2" data-name="Group 1">
              <path id="Path_1-2" data-name="Path 1" class="cls-3" d="M0,25.2A20.329,20.329,0,0,0,3.91,37.683a8.451,8.451,0,0,0,7.465,3.3A18.619,18.619,0,0,0,21.8,37.33c5.1-3.651,8.532-8.479,9.243-14.839.474-4.593-1.3-8.361-4.266-11.659-4.5-4.946-14.575-6.124-19.789-1.178-2.607,2.473-4.384,5.417-4.147,9.186.237,4,2.488,6.595,6.162,8.126A8.111,8.111,0,0,0,20.5,20.607a3.587,3.587,0,0,0-2.725-3.886c-1.777-.471-2.962.118-3.792,1.884-.118.236-.474.707-.711.707-1.185.118-2.37,0-3.555,0a6.477,6.477,0,0,1,5.806-7.066,8.127,8.127,0,0,1,7.7,3.18c3.2,4.122,1.659,9.186-1.659,12.719-4.147,4.357-10.309,4.828-15.641,2A16.059,16.059,0,0,1,0,25.2ZM12.205,45.338v.353c1.066.471,2.251.942,3.318,1.413,7.7,2.826,15.049,2.473,22.04-2.12,4.74-3.18,7.7-7.89,10.072-12.954,1.777-3.769,3.673-7.419,7.228-10.01a1.4,1.4,0,0,0,.355-1.3,14.61,14.61,0,0,0-2.607-3.3A9.683,9.683,0,0,0,38.63,20.843c-2.251,3.769-4.147,7.773-6.28,11.541-3.673,6.242-8.887,10.717-16.234,12.13A38.13,38.13,0,0,0,12.205,45.338ZM16,2c9.954.824,16.708,5.653,19.315,15.31A39.98,39.98,0,0,1,39.7,13.659a32.956,32.956,0,0,1,5.1-2.12C40.644,2.707,22.4-3.3,16,2Z" transform="translate(0 0.042)"/>
              <path id="Path_2-2" data-name="Path 2" class="cls-3" d="M0,24.337a16.686,16.686,0,0,0,5.688,5.1c5.332,2.844,11.494,2.251,15.641-2.014,3.436-3.555,4.977-8.65,1.659-12.8a8.1,8.1,0,0,0-7.7-3.2A6.374,6.374,0,0,0,9.48,18.53h3.555c.237,0,.592-.355.711-.711.948-1.777,2.133-2.37,3.792-1.9a3.85,3.85,0,0,1,2.725,3.91c-.592,5.451-6.162,8.65-11.494,6.4-3.555-1.54-5.806-4.147-6.162-8.176C2.37,14.264,4.147,11.3,6.754,8.814c5.451-5.1,15.523-3.91,19.907,1.066,3.081,3.318,4.858,7.11,4.266,11.731-.711,6.4-4.147,11.257-9.243,14.93a18.241,18.241,0,0,1-10.428,3.673A8.429,8.429,0,0,1,3.792,36.9,21.49,21.49,0,0,1,0,24.337Z" transform="translate(0 1.062)"/>
              <path id="Path_3-2" data-name="Path 3" class="cls-3" d="M10.318,43.125c1.3-.237,2.488-.474,3.792-.711,7.347-1.54,12.561-5.925,16.234-12.205,2.251-3.792,4.029-7.821,6.28-11.613A9.739,9.739,0,0,1,50.607,15.16a10.469,10.469,0,0,1,2.607,3.318,1.122,1.122,0,0,1-.355,1.3c-3.555,2.607-5.451,6.162-7.228,10.072-2.37,5.1-5.332,9.835-10.072,13.035-6.873,4.621-14.338,4.977-22.04,2.133-1.185-.474-2.251-.948-3.318-1.422A1.869,1.869,0,0,0,10.318,43.125Z" transform="translate(1.887 2.233)"/>
              <path id="Path_4-2" data-name="Path 4" class="cls-3" d="M13.5,2.021c6.4-5.451,24.647.711,28.676,9.48a38.521,38.521,0,0,0-5.1,2.133A40.037,40.037,0,0,0,32.7,17.307C30.208,7.709,23.572,2.85,13.5,2.021Z" transform="translate(2.497 0.034)"/>
            </g>
            <g id="Group_2-2" data-name="Group 2" transform="translate(59.927 13.009)">
              <path id="Path_5-2" data-name="Path 5" class="cls-3" d="M53.833,28.026a2.129,2.129,0,0,1,1.3.355,1.5,1.5,0,0,1,.474,1.066,1.346,1.346,0,0,1-.355.948,1.076,1.076,0,0,1-.829.355.9.9,0,0,1-.474-.118c-.118-.118-.237-.118-.355-.237a1.5,1.5,0,0,0-.474,1.066,2.778,2.778,0,0,0-.237,1.3,3.086,3.086,0,0,0,.474,1.777,5.317,5.317,0,0,0,1.3,1.54A6.015,6.015,0,0,0,56.8,37.151a9.5,9.5,0,0,0,2.725.355,7.219,7.219,0,0,0,4.266-1.185,8.513,8.513,0,0,0,2.844-2.962,14.174,14.174,0,0,0,1.54-3.91,17.147,17.147,0,0,0,.474-4.147,30.4,30.4,0,0,1,.592-5.925,11.358,11.358,0,0,1,1.777-4.384,8.169,8.169,0,0,1,2.844-2.844,6.7,6.7,0,0,1,3.792-.948,5.393,5.393,0,0,1,3.2.948,2.836,2.836,0,0,1,1.185,2.488,1.871,1.871,0,0,1-.829,1.777,3.672,3.672,0,0,1-2.014.592,10.959,10.959,0,0,0,.592-1.185,4.42,4.42,0,0,0,.237-1.422,2.441,2.441,0,0,0-.829-2.014,2.493,2.493,0,0,0-1.777-.592,5.508,5.508,0,0,0-2.488.592,5.163,5.163,0,0,0-1.659,1.54A7.235,7.235,0,0,0,72.2,16.3q-.355,1.244-.711,2.844a24.427,24.427,0,0,0-.355,3.081c-.118,1.066-.118,2.133-.237,3.081a18.34,18.34,0,0,1-1.3,6.28,12.49,12.49,0,0,1-2.607,3.91,8.918,8.918,0,0,1-3.555,2.014A15.049,15.049,0,0,1,59.4,38.1a8.836,8.836,0,0,1-3.081-.474,7.888,7.888,0,0,1-2.37-1.422,5.887,5.887,0,0,1-1.54-2.251,5.085,5.085,0,0,1-.711-2.844,4.092,4.092,0,0,1,.592-2.133A1.708,1.708,0,0,1,53.833,28.026Z" transform="translate(-51.7 -11.2)"/>
              <path id="Path_6-2" data-name="Path 6" class="cls-3" d="M78.109,22.837l-4.858,6.754.118.118q.711-.889,1.777-2.133c.711-.829,1.422-1.54,2.251-2.37a19.675,19.675,0,0,1,2.488-1.9,4.977,4.977,0,0,1,2.488-.711,2.344,2.344,0,0,1,1.659.592,2.253,2.253,0,0,1,.592,1.54,2.826,2.826,0,0,1-.474,1.422,10.029,10.029,0,0,1-1.066,1.777c-.474.592-.829,1.185-1.3,1.9a16.955,16.955,0,0,0-1.3,1.777c-.474.592-.711,1.066-1.066,1.54a3.076,3.076,0,0,0-.474,1.185A.943.943,0,0,0,80.005,35.4a4.175,4.175,0,0,0,2.488-.829,22.1,22.1,0,0,0,3.2-2.607c.474-.474.948-1.066,1.54-1.659l1.422-1.777c.474-.592.829-1.066,1.3-1.659.355-.474.711-.948.948-1.3l.237.118a23.209,23.209,0,0,1-1.9,2.607c-.829,1.066-1.659,2.014-2.488,2.962A21.9,21.9,0,0,1,85.1,32.909a15.388,15.388,0,0,1-1.659,1.422,11.842,11.842,0,0,1-1.659.948,4.182,4.182,0,0,1-1.659.355,2.911,2.911,0,0,1-1.777-.592,1.988,1.988,0,0,1-.711-1.659,4.106,4.106,0,0,1,.829-2.37c.592-.829,1.185-1.777,1.9-2.607s1.3-1.777,1.9-2.488a3.759,3.759,0,0,0,.829-2.133,1.684,1.684,0,0,0-.237-.711,1.713,1.713,0,0,0-.829-.237,3.777,3.777,0,0,0-2.014.711,24.62,24.62,0,0,0-2.37,1.777,24.079,24.079,0,0,0-2.37,2.488c-.829.948-1.54,1.777-2.251,2.725a25.657,25.657,0,0,0-1.777,2.607,10.042,10.042,0,0,0-1.185,2.133H67.8c.592-1.066,1.3-2.133,2.014-3.318.711-1.066,1.422-2.251,2.133-3.318s1.422-2.133,2.014-3.2a27.225,27.225,0,0,1,1.777-2.725Z" transform="translate(-48.722 -9.091)"/>
              <path id="Path_7-2" data-name="Path 7" class="cls-3" d="M97.72,22.874h2.37c-.948,1.3-1.777,2.488-2.607,3.673s-1.54,2.251-2.251,3.318c-.592,1.066-1.185,1.9-1.54,2.725a5.968,5.968,0,0,0-.592,1.777.872.872,0,0,0,.948.948,4.555,4.555,0,0,0,2.014-.711,12.916,12.916,0,0,0,2.607-2.133,24.3,24.3,0,0,0,2.844-3.081c.948-1.185,1.9-2.37,2.844-3.792l.237.118c-.711.948-1.422,2.133-2.37,3.2a24.866,24.866,0,0,1-2.844,3.2,18.345,18.345,0,0,1-2.962,2.488,4.69,4.69,0,0,1-2.725,1.066,2.638,2.638,0,0,1-1.54-.474,1.782,1.782,0,0,1-.474-1.3,3.281,3.281,0,0,1,.118-1.066l.356-1.066h-.119l-1.185,1.185a17.729,17.729,0,0,1-1.54,1.3,11.841,11.841,0,0,1-1.659.948,4.652,4.652,0,0,1-1.659.355,1.957,1.957,0,0,1-1.9-.829,3.581,3.581,0,0,1-.592-1.9,7.905,7.905,0,0,1,.948-3.318,16.2,16.2,0,0,1,2.37-3.436,13.429,13.429,0,0,1,3.2-2.607A6.409,6.409,0,0,1,93.335,22.4a4.26,4.26,0,0,1,1.3.237,2.58,2.58,0,0,1,.948.592,2.126,2.126,0,0,1,.592.829,8.168,8.168,0,0,1,.355.948h.118ZM85.633,33.065a2.129,2.129,0,0,0,.355,1.3,1.078,1.078,0,0,0,.948.474,2.277,2.277,0,0,0,1.422-.474,15.437,15.437,0,0,0,1.777-1.185,12.568,12.568,0,0,0,1.777-1.777,12.027,12.027,0,0,0,1.54-2.133,14.746,14.746,0,0,0,1.185-2.37,8.519,8.519,0,0,0,.474-2.251,1.618,1.618,0,0,0-.474-1.3,2.105,2.105,0,0,0-1.185-.474,5.052,5.052,0,0,0-2.488.948,10.249,10.249,0,0,0-2.607,2.488,11.845,11.845,0,0,0-2.014,3.318A12.7,12.7,0,0,0,85.633,33.065Z" transform="translate(-45.818 -9.128)"/>
              <path id="Path_8-2" data-name="Path 8" class="cls-3" d="M105.75,23.873c-1.3,1.9-2.488,3.555-3.436,4.858s-1.659,2.37-2.251,3.318c-.592.829-.948,1.54-1.3,2.133a3.089,3.089,0,0,0-.355,1.3c0,.592.237.948.829.948a3.24,3.24,0,0,0,1.659-.474,16.119,16.119,0,0,0,2.014-1.422c.711-.592,1.422-1.185,2.133-1.9s1.422-1.422,2.014-2.133,1.185-1.422,1.659-2.014.829-1.185,1.066-1.54l.237.237c-.237.474-.711,1.066-1.185,1.777a26.03,26.03,0,0,1-1.659,2.133c-.592.711-1.3,1.422-2.014,2.133s-1.422,1.3-2.133,1.9a6.9,6.9,0,0,1-2.133,1.3,4.063,4.063,0,0,1-1.9.474,1.616,1.616,0,0,1-1.422-.592A1.7,1.7,0,0,1,97.1,35.13a4.652,4.652,0,0,1,.356-1.659,17.724,17.724,0,0,1,1.066-2.133c.474-.829,1.185-1.9,2.014-3.081s1.777-2.607,2.962-4.384ZM107.883,17a1.173,1.173,0,0,1,.829,2.014,1.173,1.173,0,1,1-1.659-1.659A1.076,1.076,0,0,1,107.883,17Z" transform="translate(-43.303 -10.127)"/>
              <path id="Path_9-2" data-name="Path 9" class="cls-3" d="M120.882,11.8q-3.2,4.977-5.688,8.532c-1.659,2.37-2.962,4.5-4.147,6.162s-2.133,3.081-2.844,4.266c-.711,1.066-1.3,2.014-1.777,2.725a6.977,6.977,0,0,0-.829,1.659,6.011,6.011,0,0,0-.237,1.066c0,.592.237.948.829.948a4.5,4.5,0,0,0,2.133-.711,17.276,17.276,0,0,0,2.607-2.014,24.3,24.3,0,0,0,2.844-3.081c.948-1.185,1.9-2.37,2.844-3.673l.355.118a27.721,27.721,0,0,1-2.844,3.673,36.449,36.449,0,0,1-2.844,3.081A21.723,21.723,0,0,1,108.2,37.04a5.192,5.192,0,0,1-2.37.829,2.317,2.317,0,0,1-1.659-.474,1.782,1.782,0,0,1-.474-1.3,6.935,6.935,0,0,1,.237-1.54,14.409,14.409,0,0,1,.948-2.014c.474-.829,1.066-1.659,1.777-2.844.711-1.066,1.659-2.488,2.725-4.029,1.066-1.659,2.37-3.555,3.792-5.688q2.133-3.377,4.977-7.821h2.725Z" transform="translate(-42.082 -11.089)"/>
              <path id="Path_10-2" data-name="Path 10" class="cls-3" d="M119.55,23.873c-1.3,1.9-2.488,3.555-3.436,4.858s-1.659,2.37-2.251,3.318c-.592.829-.948,1.54-1.3,2.133a3.09,3.09,0,0,0-.355,1.3c0,.592.237.948.829.948a3.24,3.24,0,0,0,1.659-.474,16.119,16.119,0,0,0,2.014-1.422c.711-.592,1.422-1.185,2.133-1.9s1.422-1.422,2.014-2.133,1.185-1.422,1.659-2.014.829-1.185,1.066-1.54l.237.237c-.237.474-.711,1.066-1.185,1.777a26.025,26.025,0,0,1-1.659,2.133c-.592.711-1.3,1.422-2.014,2.133s-1.422,1.3-2.133,1.9a6.9,6.9,0,0,1-2.133,1.3,4.063,4.063,0,0,1-1.9.474,1.616,1.616,0,0,1-1.422-.592,1.7,1.7,0,0,1-.474-1.185,4.652,4.652,0,0,1,.355-1.659,17.727,17.727,0,0,1,1.066-2.133c.474-.829,1.185-1.9,2.014-3.081s1.777-2.607,2.962-4.384ZM121.683,17a1.173,1.173,0,0,1,.829,2.014,1.173,1.173,0,1,1-1.659-1.659A1.076,1.076,0,0,1,121.683,17Z" transform="translate(-40.75 -10.127)"/>
              <path id="Path_11-2" data-name="Path 11" class="cls-3" d="M126.309,22.837l-4.858,6.754.118.118q.711-.889,1.777-2.133c.711-.829,1.422-1.54,2.251-2.37a19.673,19.673,0,0,1,2.488-1.9,4.977,4.977,0,0,1,2.488-.711,2.344,2.344,0,0,1,1.659.592,2.253,2.253,0,0,1,.592,1.54,2.826,2.826,0,0,1-.474,1.422,10.03,10.03,0,0,1-1.066,1.777c-.474.592-.829,1.185-1.3,1.9a16.96,16.96,0,0,0-1.3,1.777c-.474.592-.711,1.066-1.066,1.54a3.076,3.076,0,0,0-.474,1.185.943.943,0,0,0,1.066,1.066,4.174,4.174,0,0,0,2.488-.829,22.1,22.1,0,0,0,3.2-2.607c.474-.474.948-1.066,1.54-1.659l1.422-1.777c.474-.592.829-1.066,1.3-1.659.355-.474.711-.948.948-1.3l.237.118a23.209,23.209,0,0,1-1.9,2.607c-.829,1.066-1.659,2.014-2.488,2.962a21.9,21.9,0,0,1-1.659,1.659,15.388,15.388,0,0,1-1.659,1.422,11.84,11.84,0,0,1-1.659.948,4.182,4.182,0,0,1-1.659.355,2.911,2.911,0,0,1-1.777-.592,1.988,1.988,0,0,1-.711-1.659,4.106,4.106,0,0,1,.829-2.37c.592-.829,1.185-1.777,1.9-2.607s1.3-1.777,1.9-2.488a3.759,3.759,0,0,0,.829-2.133,1.684,1.684,0,0,0-.237-.711,1.713,1.713,0,0,0-.829-.237,3.777,3.777,0,0,0-2.014.711,24.62,24.62,0,0,0-2.37,1.777,24.08,24.08,0,0,0-2.37,2.488c-.829.948-1.54,1.777-2.251,2.725a25.661,25.661,0,0,0-1.777,2.607,10.043,10.043,0,0,0-1.185,2.133H116c.592-1.066,1.3-2.133,2.014-3.318.711-1.066,1.422-2.251,2.133-3.318s1.422-2.133,2.014-3.2a27.228,27.228,0,0,1,1.777-2.725Z" transform="translate(-39.807 -9.091)"/>
              <path id="Path_12-2" data-name="Path 12" class="cls-3" d="M150.487,22.837c-1.422,2.014-2.844,4.029-4.147,6.043s-2.607,4.147-4.029,6.162a15.171,15.171,0,0,0,3.673-1.3,14.92,14.92,0,0,0,3.318-2.251,22.26,22.26,0,0,0,2.962-2.844,16.937,16.937,0,0,0,2.251-3.081l.118.237a23.832,23.832,0,0,1-3.555,4.621,25.16,25.16,0,0,1-3.673,2.962,12.923,12.923,0,0,1-3.2,1.54c-.948.355-1.659.474-2.014.592a4.421,4.421,0,0,0-.711.948,16.117,16.117,0,0,1-1.422,2.014c-.592.829-1.3,1.659-2.133,2.607a14.3,14.3,0,0,1-2.844,2.488,12.8,12.8,0,0,1-3.555,1.9,12.31,12.31,0,0,1-4.147.829,17.678,17.678,0,0,1-2.488-.237,10.251,10.251,0,0,1-2.014-.829,4.548,4.548,0,0,1-1.3-1.3,2.856,2.856,0,0,1-.474-1.777,3.2,3.2,0,0,1,1.185-2.607,3.844,3.844,0,0,1,2.844-1.066h.592c.118,0,.355.118.474.118v.237h-.237a2.6,2.6,0,0,0-2.133.948,3.76,3.76,0,0,0-.711,2.37,3.441,3.441,0,0,0,.355,1.659A4.64,4.64,0,0,0,124.418,45a3.954,3.954,0,0,0,1.422.592,9.147,9.147,0,0,0,1.777.237,7.821,7.821,0,0,0,3.2-.711,11.926,11.926,0,0,0,2.962-2.014,29.578,29.578,0,0,0,2.725-2.725c.829-1.066,1.659-2.014,2.488-3.081s1.422-2.014,2.133-2.962c.592-.948,1.185-1.777,1.659-2.488l-.119-.118a14.2,14.2,0,0,1-1.3,1.422,8.158,8.158,0,0,1-1.54,1.3,11.841,11.841,0,0,1-1.659.948,4.755,4.755,0,0,1-1.777.355,3.506,3.506,0,0,1-1.185-.237,1.593,1.593,0,0,1-.829-.711,2.382,2.382,0,0,1-.474-.948,2.945,2.945,0,0,1-.118-.948,6.026,6.026,0,0,1,.474-2.37,11.769,11.769,0,0,1,1.3-2.37,11.073,11.073,0,0,1,1.9-2.133,10.618,10.618,0,0,1,2.251-1.777,11.07,11.07,0,0,1,2.37-1.185,5.38,5.38,0,0,1,2.133-.474,2.9,2.9,0,0,1,2.133.711,2.218,2.218,0,0,1,.592,1.659h.118l1.3-2.133Zm-6.873.118a4.386,4.386,0,0,0-2.607,1.066A17.138,17.138,0,0,0,138.4,26.51a11.845,11.845,0,0,0-2.014,3.318,7.22,7.22,0,0,0-.829,3.318,1.619,1.619,0,0,0,.474,1.3,1.155,1.155,0,0,0,1.066.474,2.206,2.206,0,0,0,1.3-.474,7.735,7.735,0,0,0,1.777-1.185,12.57,12.57,0,0,0,1.777-1.777,26.026,26.026,0,0,0,1.659-2.133,14.748,14.748,0,0,0,1.185-2.37,6.188,6.188,0,0,0,.474-2.488,1.448,1.448,0,0,0-.355-1.066A1.618,1.618,0,0,0,143.614,22.955Z" transform="translate(-38.864 -9.091)"/>
              <path id="Path_13-2" data-name="Path 13" class="cls-3" d="M148.8,31.1a1.223,1.223,0,1,1-.948.355A1.346,1.346,0,0,1,148.8,31.1Z" transform="translate(-33.981 -7.519)"/>
              <path id="Path_14-2" data-name="Path 14" class="cls-3" d="M161.65,23.873c-1.3,1.9-2.488,3.555-3.436,4.858s-1.659,2.37-2.251,3.318c-.592.829-.948,1.54-1.3,2.133a3.089,3.089,0,0,0-.355,1.3c0,.592.237.948.829.948a3.24,3.24,0,0,0,1.659-.474,16.12,16.12,0,0,0,2.014-1.422c.711-.592,1.422-1.185,2.133-1.9s1.422-1.422,2.014-2.133,1.185-1.422,1.659-2.014.829-1.185,1.066-1.54l.237.237c-.237.474-.711,1.066-1.185,1.777a26.027,26.027,0,0,1-1.659,2.133c-.592.711-1.3,1.422-2.014,2.133s-1.422,1.3-2.133,1.9a6.9,6.9,0,0,1-2.133,1.3,4.063,4.063,0,0,1-1.9.474,1.616,1.616,0,0,1-1.422-.592A1.7,1.7,0,0,1,153,35.13a4.652,4.652,0,0,1,.355-1.659,17.728,17.728,0,0,1,1.066-2.133c.474-.829,1.185-1.9,2.014-3.081s1.777-2.607,2.962-4.384ZM163.783,17a1.173,1.173,0,0,1,.829,2.014,1.173,1.173,0,1,1-1.659-1.659A1.076,1.076,0,0,1,163.783,17Z" transform="translate(-32.964 -10.127)"/>
              <path id="Path_15-2" data-name="Path 15" class="cls-3" d="M168.409,22.837l-4.858,6.754.119.118q.711-.889,1.777-2.133c.711-.829,1.422-1.54,2.251-2.37a19.675,19.675,0,0,1,2.488-1.9,4.977,4.977,0,0,1,2.488-.711,2.344,2.344,0,0,1,1.659.592,2.253,2.253,0,0,1,.592,1.54,2.826,2.826,0,0,1-.474,1.422,10.028,10.028,0,0,1-1.066,1.777c-.474.592-.829,1.185-1.3,1.9a16.96,16.96,0,0,0-1.3,1.777c-.474.592-.711,1.066-1.066,1.54a3.076,3.076,0,0,0-.474,1.185.943.943,0,0,0,1.066,1.066,4.174,4.174,0,0,0,2.488-.829,22.1,22.1,0,0,0,3.2-2.607c.474-.474.948-1.066,1.54-1.659l1.422-1.777c.474-.592.829-1.066,1.3-1.659.355-.474.711-.948.948-1.3l.237.118a23.207,23.207,0,0,1-1.9,2.607c-.829,1.066-1.659,2.014-2.488,2.962a21.9,21.9,0,0,1-1.659,1.659,15.388,15.388,0,0,1-1.659,1.422,11.841,11.841,0,0,1-1.659.948,4.182,4.182,0,0,1-1.659.355,2.911,2.911,0,0,1-1.777-.592,1.988,1.988,0,0,1-.711-1.659,4.106,4.106,0,0,1,.829-2.37c.592-.829,1.185-1.777,1.9-2.607s1.3-1.777,1.9-2.488a3.759,3.759,0,0,0,.829-2.133,1.684,1.684,0,0,0-.237-.711,1.713,1.713,0,0,0-.829-.237,3.777,3.777,0,0,0-2.014.711,24.614,24.614,0,0,0-2.37,1.777,24.078,24.078,0,0,0-2.37,2.488c-.829.948-1.54,1.777-2.251,2.725a25.657,25.657,0,0,0-1.777,2.607,10.041,10.041,0,0,0-1.185,2.133H158.1c.592-1.066,1.3-2.133,2.014-3.318.711-1.066,1.422-2.251,2.133-3.318s1.422-2.133,2.014-3.2a27.226,27.226,0,0,1,1.777-2.725Z" transform="translate(-32.02 -9.091)"/>
              <path id="Path_16-2" data-name="Path 16" class="cls-3" d="M190.434,26.155a21.792,21.792,0,0,1-2.251,2.962,34.942,34.942,0,0,1-2.962,2.962,18.71,18.71,0,0,1-3.91,2.607,8.1,8.1,0,0,1-3.91,1.066,3.417,3.417,0,0,1-2.251-.711,2.6,2.6,0,0,1-.948-2.133,6.859,6.859,0,0,1,1.066-3.555,17.342,17.342,0,0,1,2.488-3.318,12.8,12.8,0,0,1,3.318-2.488,7.926,7.926,0,0,1,3.436-.948,4.912,4.912,0,0,1,1.9.355,1.457,1.457,0,0,1,.829,1.3,1.271,1.271,0,0,1-.237.711,1.183,1.183,0,0,1-.592.474,1.713,1.713,0,0,1-.829.237,1.5,1.5,0,0,1-.711.118,1.684,1.684,0,0,0,.237-.711,1.757,1.757,0,0,0,.119-.829,1.136,1.136,0,0,0-1.3-1.3,4.386,4.386,0,0,0-2.251.948,15.3,15.3,0,0,0-2.488,2.37,14.638,14.638,0,0,0-2.014,3.2,7.22,7.22,0,0,0-.829,3.318,2.507,2.507,0,0,0,.474,1.659,1.689,1.689,0,0,0,1.422.711,6.268,6.268,0,0,0,2.962-.829,18.8,18.8,0,0,0,3.2-2.133,36.452,36.452,0,0,0,3.2-2.962,28.226,28.226,0,0,0,2.607-3.2Z" transform="translate(-29.043 -9.091)"/>
            </g>
          </g>
        </g>
        <text id="Subscribe_To_Our_Newsletter" data-name="Subscribe To Our Newsletter" class="cls-47" transform="translate(230.5 2933.499)"><tspan x="0" y="0">Subscribe To Our Newsletter</tspan></text>
        <g id="Group_38" data-name="Group 38" transform="translate(236.677 2957.215)">
          <g id="Group_37" data-name="Group 37">
            <rect id="Rectangle_86" data-name="Rectangle 86" class="cls-12" width="312.099" height="31.21" rx="11" transform="translate(0)"/>
            <path id="Rectangle_87" data-name="Rectangle 87" class="cls-48" d="M0,0H49.819a10,10,0,0,1,10,10V21.21a10,10,0,0,1-10,10H0a0,0,0,0,1,0,0V0A0,0,0,0,1,0,0Z" transform="translate(252.28)"/>
          </g>
          <text id="Button" class="cls-49" transform="translate(266.91 17.802)"><tspan x="0" y="0">Button</tspan></text>
        </g>
      </g>
    </g>
    <rect id="Rectangle_110" data-name="Rectangle 110" class="cls-15" width="308" height="206" transform="translate(32 176)"/>
    <text id="入住_退房" data-name="入住 / 退房" class="cls-50" transform="translate(41 201)"><tspan x="0" y="0">入住</tspan><tspan class="cls-22" y="0" xml:space="preserve"> / </tspan><tspan y="0">退房</tspan></text>
    <text id="房間數" class="cls-50" transform="translate(41 275)"><tspan x="0" y="0">房間數</tspan></text>
    <rect id="Rectangle_112" data-name="Rectangle 112" class="cls-51" width="289" height="30" transform="translate(41 212)"/>
    <rect id="Rectangle_113" data-name="Rectangle 113" class="cls-51" width="289" height="31" transform="translate(41 285)"/>
    <g id="Rectangle_114" data-name="Rectangle 114" class="cls-52" transform="translate(41 337)">
      <rect class="cls-53" width="289" height="30" rx="9"/>
      <rect class="cls-1" x="0.5" y="0.5" width="288" height="29" rx="8.5"/>
    </g>
    <text id="送出" class="cls-50" transform="translate(172 357)"><tspan x="0" y="0">送出</tspan></text>
  </g>
</svg>
