<svg xmlns="http://www.w3.org/2000/svg" xmlns:xlink="http://www.w3.org/1999/xlink" viewBox="0 0 179 162">
  <defs>
    <style>
      .cls-1 {
        clip-path: url(#clip-bed);
      }

      .cls-2 {
        fill: #f2f2f2;
      }

      .cls-3 {
        fill: #cfada4;
      }

      .cls-4 {
        fill: #e8c2b8;
      }

      .cls-5 {
        fill: #dbaca2;
      }

      .cls-6 {
        fill: #ebecf0;
      }

      .cls-7 {
        fill: #f8f9fa;
      }

      .cls-8 {
        fill: #fff;
      }
    </style>
    <clipPath id="clip-bed">
      <rect width="179" height="162"/>
    </clipPath>
  </defs>
  <g id="bed" class="cls-1">
    <rect class="cls-8" width="179" height="162"/>
    <g id="Group_15" data-name="Group 15" transform="translate(-102.749 -1938.737)">
      <path id="Path_323" data-name="Path 323" class="cls-2" d="M219.774,191.024c-47.982-3.651-105.2-40.83-102.29-79.111S175.816,38,223.8,41.647s75.6,75.193,72.69,113.474S267.756,194.676,219.774,191.024Z" transform="translate(-14.629 1902.349)"/>
      <g id="Group_8" data-name="Group 8" transform="translate(105.875 1943.737)">
        <path id="Path_180" data-name="Path 180" class="cls-3" d="M161.8,167.768l-64.786,36.9L20.628,160.8,18.413,108,.5,115.236v52.532l13.035,8.8,82.142,47.555-.013,0h.013l7.039,3.364,5.981-3.364h0l52.816-30.494,9.608-22.285Zm0,0" transform="translate(-0.499 -70.951)"/>
        <path id="Path_181" data-name="Path 181" class="cls-4" d="M187.275,181.829,92.242,126.961,19.876,168.742l95.033,54.868Zm0,0" transform="translate(-13.229 -83.407)"/>
        <path id="Path_183" data-name="Path 183" class="cls-4" d="M77.753,4.291a0,0,0,0,1,0,0L71.8.735A3.027,3.027,0,0,0,68.3.41L4.595,37.192A8.191,8.191,0,0,0,.5,44.285l6.647,4h0V85.335L79.512,43.554V7.045a3.015,3.015,0,0,0-1.759-2.754Zm-.306-.123-.034-.011Zm-.326-.092-.068-.013Zm-.342-.056c-.035,0-.07-.005-.1-.008C76.71,4.014,76.745,4.015,76.78,4.019ZM76.425,4c-.047,0-.094,0-.142.008C76.331,4.006,76.378,4,76.425,4Zm-1.108.226a3.229,3.229,0,0,0-.369.181A3.229,3.229,0,0,1,75.317,4.228Zm.744-.2c-.06.008-.121.021-.181.034C75.94,4.05,76,4.036,76.06,4.028Zm-.371.074c-.076.021-.151.05-.228.075C75.538,4.152,75.613,4.124,75.689,4.1Zm0,0" transform="translate(-0.499 0)"/>
        <path id="Path_184" data-name="Path 184" class="cls-5" d="M19.875,92.988V55.936a8.188,8.188,0,0,1,4.1-7.091L87.677,12.062A3.043,3.043,0,0,1,92.241,14.7V51.207Zm0,0" transform="translate(-13.228 -7.653)"/>
        <path id="Path_185" data-name="Path 185" class="cls-6" d="M43.8,114.908,104.189,80.04a5.955,5.955,0,0,1,5.959,0l82.073,47.385a3.863,3.863,0,0,1,1.95,3.377v17.7a3.863,3.863,0,0,1-1.95,3.377L131.83,186.749a5.962,5.962,0,0,1-5.959,0L43.8,139.364a3.863,3.863,0,0,1-1.95-3.378v-17.7A3.863,3.863,0,0,1,43.8,114.908Zm0,0" transform="translate(-27.663 -52.057)"/>
        <path id="Path_186" data-name="Path 186" class="cls-7" d="M192.221,127.425,110.148,80.04a5.955,5.955,0,0,0-5.959,0L43.8,114.908a3.9,3.9,0,0,0,0,6.755l82.073,47.385a5.962,5.962,0,0,0,5.959,0l60.392-34.868A3.9,3.9,0,0,0,192.221,127.425Zm0,0" transform="translate(-27.663 -52.058)"/>
        <path id="Path_187" data-name="Path 187" class="cls-5" d="M369.265,286.9v16.245l-6.517,4.255h0l-59.333,34.257h0l-5.906,3.289-.611-16.264Zm0,0" transform="translate(-195.219 -188.48)"/>
      </g>
    </g>
  </g>
</svg>
