<svg xmlns="http://www.w3.org/2000/svg" xmlns:xlink="http://www.w3.org/1999/xlink" width="1001" height="800" viewBox="0 0 1001 800">
  <defs>
    <linearGradient id="linear-gradient" x1="0.5" y1="1" x2="0.5" gradientUnits="objectBoundingBox">
      <stop offset="0" stop-color="gray" stop-opacity="0.251"/>
      <stop offset="0.54" stop-color="gray" stop-opacity="0.122"/>
      <stop offset="1" stop-color="gray" stop-opacity="0.102"/>
    </linearGradient>
    <clipPath id="clip-doublebed">
      <rect width="1001" height="800"/>
    </clipPath>
  </defs>
  <g id="doublebed" clip-path="url(#clip-doublebed)">
    <rect width="1001" height="800" fill="#fff"/>
    <g id="Group_6" data-name="Group 6" transform="translate(-548.315 -222)">
      <path id="Path_1" data-name="Path 1" d="M205.319,477.362c36.865,61.808,29.92,144.791,13.689,209.971-5.437,21.815-11.689,44.843-7.035,69.5,5.658,30.155,26.312,54.218,47.237,68.137,38.122,25.413,81.671,25.7,113.37.749,27.4-21.569,45.438-59.837,73.369-80.193,46.815-34.147,110.918-11.376,166.648,22.7C652.024,792.338,695.4,822.74,731.836,806.9c25.639-11.149,41.629-43.867,49.107-79.69,3.608-17.3,5.789-36.227,14.071-49.289,4.915-7.768,11.679-12.884,18.674-17.034,63.921-37.962,150.376-3.086,212.066-46.332,41.639-29.189,65.328-90.859,73.138-157.2s1.447-137.654-6.543-207.911c-5.679-49.93-13.367-103.428-38.936-144.505-27.046-43.463-69.7-63.553-106.787-60.379S877.3,71.1,849.558,99.828c-34.7,35.912-66,82.066-110.9,92.89-30.574,7.374-63.972-2.7-96.485-8.7-54.273-10.045-107.812-8.7-160.969-6.585-50.886,2.031-102.083,4.85-149.512,22.111-33.559,12.214-59.3,38.623-90.636,55.47-20.413,10.982-43.438,11.918-62.464,26.744-23.438,18.267-43.72,52.493-34.353,96.547C153.157,420.167,185.72,444.555,205.319,477.362Z" transform="translate(446.555 177.77)" fill="#009688" opacity="0.1"/>
      <path id="Path_2" data-name="Path 2" d="M109.56,351.58S60,429,222.49,430.35c0,0,2.39-67.38-50.73-95.14a47.66,47.66,0,0,0-61.44,15.22Z" transform="translate(446.555 173.135)" fill="#3f5d45"/>
      <path id="Path_3" data-name="Path 3" d="M109.93,350.28s83.23,16.4,112.56,80.07" transform="translate(446.555 172.941)" fill="none" stroke="#535461" stroke-miterlimit="10" stroke-width="1"/>
      <path id="Path_4" data-name="Path 4" d="M229.75,419.93s-53.44-69.06-48.56-137.14c2-28.57-4.71-57.11-20.21-81.21a222.5,222.5,0,0,0-25.11-32" transform="translate(446.555 175.192)" fill="none" stroke="#535461" stroke-miterlimit="10" stroke-width="2"/>
      <path id="Path_5" data-name="Path 5" d="M138.67,126.65c3.73,9.56-2.76,44.05-2.76,44.05s-28.14-21-31.87-30.53a18.589,18.589,0,1,1,34.632-13.521Z" transform="translate(446.555 177.77)" fill="#3f5d45"/>
      <path id="Path_6" data-name="Path 6" d="M188,168.45c-2.06,10.06-26.26,35.48-26.26,35.48s-12.22-32.9-10.16-43A18.594,18.594,0,0,1,188,168.45Z" transform="translate(446.555 177.77)" fill="#3f5d45"/>
      <path id="Path_7" data-name="Path 7" d="M222,259.45c-6.86,7.64-40.57,17.37-40.57,17.37s6.06-34.57,12.91-42.21A18.589,18.589,0,1,1,222,259.451Z" transform="translate(446.555 174.984)" fill="#3f5d45"/>
      <path id="Path_8" data-name="Path 8" d="M232.33,334.11c-5.47,8.69-37.06,24-37.06,24s.13-35.09,5.6-43.78a18.588,18.588,0,1,1,31.463,19.8Z" transform="translate(446.555 173.795)" fill="#3f5d45"/>
      <path id="Path_9" data-name="Path 9" d="M126.08,220c9.46,4,44.11-1.58,44.11-1.58S150,189.7,140.51,185.71A18.6,18.6,0,1,0,126.08,220Z" transform="translate(446.555 175.683)" fill="#3f5d45"/>
      <path id="Path_10" data-name="Path 10" d="M139.21,307.13c10.22,1,41.61-14.71,41.61-14.71S153,271.1,142.73,270.13a18.59,18.59,0,0,0-3.52,37Z" transform="translate(446.555 174.404)" fill="#3f5d45"/>
      <path id="Path_11" data-name="Path 11" d="M163.6,390.1c9.91,2.69,43.5-7.47,43.5-7.47s-23.87-25.73-33.78-28.41A18.588,18.588,0,1,0,163.6,390.1Z" transform="translate(446.555 173.161)" fill="#3f5d45"/>
      <path id="Path_12" data-name="Path 12" d="M138.67,126.65c3.73,9.56-2.76,44.05-2.76,44.05s-28.14-21-31.87-30.53a18.589,18.589,0,1,1,34.632-13.521Z" transform="translate(445.555 178.77)" opacity="0.25"/>
      <path id="Path_13" data-name="Path 13" d="M188,168.45c-2.06,10.06-26.26,35.48-26.26,35.48s-12.22-32.9-10.16-43A18.594,18.594,0,0,1,188,168.45Z" transform="translate(445.555 178.77)" opacity="0.25"/>
      <path id="Path_14" data-name="Path 14" d="M222,259.45c-6.86,7.64-40.57,17.37-40.57,17.37s6.06-34.57,12.91-42.21A18.589,18.589,0,1,1,222,259.451Z" transform="translate(445.555 175.984)" opacity="0.25"/>
      <path id="Path_15" data-name="Path 15" d="M232.33,334.11c-5.47,8.69-37.06,24-37.06,24s.13-35.09,5.6-43.78a18.588,18.588,0,1,1,31.463,19.8Z" transform="translate(445.555 174.795)" opacity="0.25"/>
      <path id="Path_16" data-name="Path 16" d="M126.08,220c9.46,4,44.11-1.58,44.11-1.58S150,189.7,140.51,185.71A18.6,18.6,0,1,0,126.08,220Z" transform="translate(445.555 176.683)" opacity="0.25"/>
      <path id="Path_17" data-name="Path 17" d="M139.21,307.13c10.22,1,41.61-14.71,41.61-14.71S153,271.1,142.73,270.13a18.59,18.59,0,0,0-3.52,37Z" transform="translate(445.555 175.404)" opacity="0.25"/>
      <path id="Path_18" data-name="Path 18" d="M163.6,390.1c9.91,2.69,43.5-7.47,43.5-7.47s-23.87-25.73-33.78-28.41A18.588,18.588,0,1,0,163.6,390.1Z" transform="translate(445.555 174.161)" opacity="0.25"/>
      <path id="Path_19" data-name="Path 19" d="M123,140.05V481.88l454.8-88.35-8.69-262.17Z" transform="translate(548.995 218.731)" fill="#dbaca2"/>
      <path id="Path_21" data-name="Path 21" d="M982.759,535.827V646.9L499.208,785.01l-4.937-2.5-382.5-194V129.293L585.134,114.34l2.916,254.884-18.935,5.7-7.28-238.4-416.56,14.127-2.916,345.3L505.03,651.163l.272-.059Z" transform="translate(548.995 222.02)" fill="#e8c2b8" opacity="0.9"/>
      <path id="Path_22" data-name="Path 22" d="M977.93,543.08V656.06L497.06,796.55l-4.91-2.54,10.97-133.67Z" transform="translate(553.823 210.479)" opacity="0.1"/>
      <path id="Path_23" data-name="Path 23" d="M502.135,423.29S268,446.52,245.237,480.17s-.181,74.93-.181,74.93L607.012,711.53l490.867-126s-13.073-88.35-53.892-98.49-365.606-79.68-365.606-79.68S547.287,399.39,502.135,423.29Z" transform="translate(446.555 169.518)" fill="#ebecf0"/>
      <path id="Path_24" data-name="Path 24" d="M245,480.5,614.347,607.24s393.962-118.77,449.771-107.55c0,0-275.625-98.05-385.664-93.79-87.727,3.4-179.579,17.72-179.579,17.72S255.19,447.92,245,480.5Z" transform="translate(446.555 170.931)" fill="#f8f9fa"/>
      <rect id="Rectangle_4" data-name="Rectangle 4" width="209" height="148.87" rx="30" transform="translate(711.274 564.04) rotate(-40.12)" fill="#ebecf0" opacity="0.1"/>
      <rect id="Rectangle_5" data-name="Rectangle 5" width="195.3" height="139.1" rx="30" transform="translate(719.693 562.342) rotate(-40.12)" fill="#ebecf0"/>
      <path id="Path_25" data-name="Path 25" d="M319.69,425.14c2.86-3.88,6-8,10.45-9.72,2.61-1,5.52-1.18,8.1-2.27,5.42-2.3,8.34-8.14,10.32-13.69s3.66-11.55,8-15.53" transform="translate(447.649 172.681)" fill="#3f5d45" opacity="0.05"/>
      <path id="Path_26" data-name="Path 26" d="M344.66,434.56c2.86-3.88,6-8,10.45-9.72,2.61-1,5.52-1.18,8.1-2.27,5.42-2.3,8.34-8.14,10.32-13.69s3.66-11.55,8-15.53" transform="translate(447.775 172.539)" fill="#3f5d45" opacity="0.05"/>
      <path id="Path_27" data-name="Path 27" d="M399.22,353.63c2.86-3.88,6-8,10.45-9.72,2.61-1,5.52-1.18,8.1-2.27,5.42-2.3,8.34-8.14,10.32-13.69s3.66-11.55,8-15.53" transform="translate(448.05 173.752)" fill="#3f5d45" opacity="0.05"/>
      <path id="Path_28" data-name="Path 28" d="M408.79,418.15c2.86-3.88,6-8,10.45-9.72,2.61-1,5.52-1.18,8.1-2.27,5.42-2.3,8.34-8.14,10.32-13.69s3.66-11.55,8-15.53" transform="translate(448.098 172.785)" opacity="0.1"/>
      <rect id="Rectangle_6" data-name="Rectangle 6" width="209" height="148.87" rx="30" transform="translate(894.477 541.514) rotate(-40.12)" fill="#f8f9fa"/>
      <rect id="Rectangle_7" data-name="Rectangle 7" width="209" height="148.87" rx="30" transform="translate(894.477 541.514) rotate(-40.12)" fill="#f8f9fa" opacity="0.1"/>
      <rect id="Rectangle_8" data-name="Rectangle 8" width="195.3" height="139.1" rx="30" transform="translate(902.864 540.778) rotate(-40.12)" fill="#f8f9fa"/>
      <path id="Path_29" data-name="Path 29" d="M501.69,403.14c2.86-3.88,6-8,10.45-9.72,2.61-1,5.52-1.18,8.1-2.27,5.42-2.3,8.34-8.14,10.32-13.69s3.66-11.55,8-15.53" transform="translate(448.566 173.01)" opacity="0.05"/>
      <path id="Path_30" data-name="Path 30" d="M526.66,412.56c2.86-3.88,6-8,10.45-9.72,2.61-1,5.52-1.18,8.1-2.27,5.42-2.3,8.34-8.14,10.32-13.69s3.66-11.55,8-15.53" transform="translate(448.692 172.869)" opacity="0.05"/>
      <path id="Path_31" data-name="Path 31" d="M581.22,331.63c2.86-3.88,6-8,10.45-9.72,2.61-1,5.52-1.18,8.1-2.27,5.42-2.3,8.34-8.14,10.32-13.69s3.66-11.55,8-15.53" transform="translate(448.967 174.081)" opacity="0.05"/>
      <path id="Path_32" data-name="Path 32" d="M590.79,396.15c2.86-3.88,6-8,10.45-9.72,2.61-1,5.52-1.18,8.1-2.27,5.42-2.3,8.34-8.14,10.32-13.69s3.66-11.55,8-15.53" transform="translate(449.015 173.115)" opacity="0.1"/>
      <path id="Path_33" data-name="Path 33" d="M1050.7,678.44a8.957,8.957,0,0,0-6.719-6.59c-28.3-7-53.765-60.45-53.765-60.45s-1.006-10.18-8.188-25.45c-3.35-7.13-5.794-19.13-7.464-29.91,9.144-4.1,16.094-8.67,11.558-11.83a22.947,22.947,0,0,0-8.369-3.49l-2.9-15.85c1.006-11.2-7.172-48.87-7.172-48.87l-7.092-58.42s.815-1.37-.453-3.63v-.08l-.191-.32-.091-.13-.211-.31-.121-.16-.382-.47-.251-.29-.211-.22-.3-.31-.231-.22-.362-.33-.241-.21-.473-.39-.211-.17a15.358,15.358,0,0,0-1.67-1.19l-.171-.11-.8-.51-.262-.16-.835-.49-.282-.16-1.006-.54-.211-.11q-1.3-.67-2.827-1.36l-.251-.11-1.308-.57-.453-.19-1.247-.51-.523-.21-1.378-.52-.493-.19-2.012-.71c-.674-.23-1.328-.44-2.012-.64l-.714-.2-1.2-.33-.775-.19-1.076-.24-.734-.15-1.106-.19-.594-.1q-.815-.12-1.6-.2H931l-1.247-.09h-3.39l-1.177.12h-.09q-.664.09-1.288.21h-.111l-1.006.24-.3.08-.795.24-.342.11-.684.25-.352.14H920.1l-.241.11c-8.641,3-23.649,5.36-39.723,7.14-3.148-10.82-5.824-21.56-6.558-28.81-2.012-20.36-12.292-43.78-12.292-43.78a3.572,3.572,0,0,1-.412.76,4.3,4.3,0,0,0-.141-.8c-1.448-7.34-6.488-10-23-16.25-16.094-6.1-23.588,3.21-26.334,8.27-.161.29-.292.56-.422.82l-1.911-.94L785.5,359.84l-.634,1.16-16.094,31.32-.543,1.06-.221.15-22.723,52.2c-12.785-6.38-33.6-6.38-33.6-6.38l-10.24-9.16-25.62-30.55a174.354,174.354,0,0,0-9.254-24.44c-3.309-7.13-5.13-18.1-6.116-26.7a46.855,46.855,0,0,0,6.116-11l-.563-.73c.191-.43.382-.86.563-1.3,0,0-20.48-26.47-20.48-36.65s-57.336-18.33-57.336-18.33-.05.2-.151.53a21.522,21.522,0,0,1-6.035-5.18c-.282-.35-.563-.73-.835-1.12a40.672,40.672,0,0,0,8.53-13.7,12.249,12.249,0,0,0,5.784,1.46c2.545,0,5.623-1.75,5.13-4.23h0a2.566,2.566,0,0,0,0-1c-.282-1.43-1.64-2.34-2.7-3.35a7.214,7.214,0,0,1-2.132-4.33,3.919,3.919,0,0,1,1.116-2.45,28.274,28.274,0,0,1,2.877-1.94c2.354-1.83,2.716-5.11,2.646-8.14v-1.89a144.669,144.669,0,0,0-2.293-19.92,32.34,32.34,0,0,0-1.247-5,36.517,36.517,0,0,0-3.35-6.47l-9.978-16.47a19.9,19.9,0,0,0-4.567-5.77c-6.971-5.33-15.088,1.16-21.747-2.59-3.48-1.94-5.975-4.4-10.059-5.33-4.738-1.07-9.717-.44-14.394.58a6.8,6.8,0,0,0-3.521,1.55c-1.318,1.35-1.338,3.44-1.841,5.25-1.006,3.5-3.923,6.11-7.041,8s-6.548,3.27-9.455,5.47c-5.311,4-8.339,10.22-11.89,15.83A81.665,81.665,0,0,1,484.049,230a2.468,2.468,0,0,0,.432.65l-.432.37c1.006,2.29,4.627,1.62,6.639,3.15a3.723,3.723,0,0,1,1.428,2.77,12.825,12.825,0,0,1-1.418,4.57c-.946,1.87-1.891,4.14-1.71,6.1a4.223,4.223,0,0,0,1.006,3.4,15.8,15.8,0,0,1,1.821,1.69,2.562,2.562,0,0,1,.412,1c-.292,1.86-1.921,3.9-2.092,5.94a4.137,4.137,0,0,0,0,.86v.16c-.231,2.73,2.253,4.93,4.748,6.1,2.314,1.09,4.909,1.8,6.78,3.49-1.348,1.95-2.6,4.24-2.374,6.39a4.7,4.7,0,0,0,.453,2.59c1.589,3.17,6.116,3.19,9.576,2.35a4.906,4.906,0,0,1,2.8-.15,6.379,6.379,0,0,1,2.082,1.7c3.762,3.67,11,2.3,13.338-2.33l-.181.75c-.312,1.26-.664,2.55-1.006,3.87v-.84s-19.394,4.51-34.663,7.8a31.3,31.3,0,0,0-20.792,15.44l-14.183,25.63s.151.43.483,1.16l-.483.88a29.047,29.047,0,0,0,3.37,6.16c-6.468,15.16-20.118,44.78-32.048,55.94a71.087,71.087,0,0,1-6.106,5.12,15.68,15.68,0,0,0-6.931,1.42,17.5,17.5,0,0,0-6.277,5c-3.5.57-5.261-.29-5.261-.29s-11.739,9.18-19.3,19.1c-1.559.56-3.108,1.13-4.627,1.76-6.971,2.92-14.022,8.57-13.952,16.09,0,5.28,3.641,10,5.412,15l-4.4,5.1s-9.214,7.13-17.412,9.16-24.6,15.19-24.6,15.19l-30.72,21.38-3.239,2.07c-6.689-9.45-13.147-23.45-13.147-23.45s-11.266-20.36-23.558,2l-.372.67a38.169,38.169,0,0,0-3.973,11.51c-14.414-7-21.405,20.36-22.291,26.51-.2,1.39-2.082,8.11.4,13.72a61.02,61.02,0,0,0,37.63,33.87,51.153,51.153,0,0,0,5.029,1.27c15.36,3.05,25.6-19.34,25.6-19.34l.322-3.22a47.629,47.629,0,0,0,7.041.2c1.5-.07,3.018-.08,4.7,0A61.021,61.021,0,0,0,332.029,553l13.077-5.21,2.183-.87c-.06.43-.121.86-.191,1.3L396.265,532s16.8-2.09,35.468-4.82c.583,1.64,1.127,3.3,1.811,4.91,4.275,10,14.082,16.77,24.453,20.05s21.466,3.55,32.36,3.79h3.39c3.571.05,7.212-.06,10.451-1.5,3.651-1.62,6.649-5.42,5.965-9.34-.533-3.06-3.018-5.33-5.331-7.43-4.436-4.08-8.671-8.62-10.9-14.2a20.786,20.786,0,0,1-1.157-4.06,22.55,22.55,0,0,0,9.988,5.47c20.48,5.09,56.33,10.18,66.56,7.13s35.84-9.16,74.758,0,50.174,6.11,50.174,6.11l-.171-.25c10.2,2.37,24.9,4.5,38.8,1.88a211.172,211.172,0,0,1,24.6-3.12c5.221-.36,11.316-1,17.513-2a48.676,48.676,0,0,0,28.547-16c20.42,2.75,52.5-9,52.5-9l4.7-2.43,3.5,8.54s-5.12,26.47,26.626,37.67a232.394,232.394,0,0,0,46.462,11.16c5.16,34.72,11.91,48.9,11.91,48.9l-11.266,16.29c-3.47,13.78,7.041,19.47,16.939,21.8a63.253,63.253,0,0,1,22.924,10.8c14.284,10.55,42.056,21.35,42.056,21.35C1048.083,689.4,1051.835,683.6,1050.7,678.44ZM686.072,451.56l6.337,6.3-2.243-.19-3.943,7.13H666.578c-2.012,0-11.266-7.13-11.266-7.13l-2.615.26,4.667-3.31s6.75-3.63,5.824-17.12Zm-70.121-26.07c-1.71-5.45-3.631-11.37-5.593-17.09.241-2.27.523-4.53.855-6.75l7.273,22.42ZM472.441,394.22a72.9,72.9,0,0,1-7.886,11.25c-.915-.28-1.841-.51-2.776-.73h0S466.577,400.56,472.441,394.22ZM892.9,495.33c-.151-1.41-.342-2.94-.563-4.55l12.845-6.65c8.208,6.12,11.276,23.47,12.292,39.27C913.022,521.39,894.724,512.26,892.9,495.33Z" transform="translate(446.555 172.79)" fill="url(#linear-gradient)"/>
      <path id="Path_34" data-name="Path 34" d="M902.55,410.17s6-15,29-7,19.07,14.62,19.07,14.62l-3.07,13.38-12,7-20-2Z" transform="translate(451.383 172.454)" fill="#ffbcc7"/>
      <path id="Path_35" data-name="Path 35" d="M950.8,417.25a1.931,1.931,0,0,1-.18.54l-3.07,13.38-12,7-20-2-13-26a15.84,15.84,0,0,1,8.43-7.82c4.47-1.87,11.07-2.48,20.57.82C950.68,409.82,951.18,415.52,950.8,417.25Z" transform="translate(451.383 172.454)" opacity="0.03"/>
      <path id="Path_36" data-name="Path 36" d="M961.55,531.17s3,37,10,52,8,25,8,25,24.86,52.49,52.5,59.38a8.77,8.77,0,0,1,6.56,6.47c1.11,5.07-2.56,10.77-30.06,5.15,0,0-27.12-10.61-41.07-21a61.611,61.611,0,0,0-22.39-10.61c-9.62-2.29-19.92-7.88-16.54-21.42l11-16s-9-19-14-67S961.55,531.17,961.55,531.17Z" transform="translate(451.383 169.332)" fill="#ffbcc7"/>
      <path id="Path_37" data-name="Path 37" d="M853.55,346.17c0,14-50-13-50-13a18.824,18.824,0,0,1,1.28-2.88c2.69-5,10-14.11,25.72-8.12,16.12,6.14,21,8.75,22.46,16a42.931,42.931,0,0,1,.54,8Z" transform="translate(450.137 173.695)" fill="#ffbcc7"/>
      <path id="Path_38" data-name="Path 38" d="M692.11,305.92l-30,58-2.8-12.15,1.55-3.04,15.72-30.76.53-1.05Z" transform="translate(552.303 217.334)" fill="#ffbcc7"/>
      <path id="Path_39" data-name="Path 39" d="M588.11,419.92l-16,35-11,11-5.16-5.43-2.06-2.17-11.78-12.4,11-26Z" transform="translate(551.752 215.689)" fill="#ffbcc7"/>
      <path id="Path_40" data-name="Path 40" d="M605.55,306.17s-68,32-70,31-28-7-16-31a105.483,105.483,0,0,0,8-22,93.582,93.582,0,0,0,3-24s42-19,45,3c1,7.12,3.3,12,6,15.43a19.69,19.69,0,0,0,13,7.57Z" transform="translate(448.761 174.462)" fill="#feb7c5"/>
      <path id="Path_41" data-name="Path 41" d="M304.55,528.17l-3,30s-10,22-25,19a49.669,49.669,0,0,1-4.87-1.25,59.71,59.71,0,0,1-36.74-33.27c-2.43-5.51-.58-12.11-.39-13.48,1-7,10-42,29-20s30,33,30,33Z" transform="translate(446.555 170.593)" fill="#feb7c5"/>
      <path id="Path_42" data-name="Path 42" d="M467.55,411.17l-85,40-12,14s-9,7-17,9-24,15-24,15l-30,21-14,9,14,11,43-10,52-11,27-13,77-67Z" transform="translate(447.685 171.655)" fill="#5d526d"/>
      <path id="Path_43" data-name="Path 43" d="M304.55,528.17l-3,30s-10,22-25,19a49.669,49.669,0,0,1-4.87-1.25,59.71,59.71,0,0,1-36.74-33.27c-2.43-5.51-.58-12.11-.39-13.48,1-7,10-42,29-20s30,33,30,33Z" transform="translate(446.555 170.593)" opacity="0.03"/>
      <path id="Path_44" data-name="Path 44" d="M467.55,411.17l-85,40-12,14s-9,7-17,9-24,15-24,15l-30,21-14,9,14,11,43-10,52-11,27-13,77-67Z" transform="translate(447.685 171.655)" opacity="0.05"/>
      <path id="Path_45" data-name="Path 45" d="M363.55,540.17l-13.94,5.57-12.79,5.12a59.28,59.28,0,0,1-23.49,4.31h-4.59a45.68,45.68,0,0,1-31.81-10.83,62.249,62.249,0,0,0-5.22-4,37.7,37.7,0,0,1-11.52-48.52l.36-.66c12-22,23-2,23-2s11,24,19,30c5.45,4.09,23.42.29,34.33-2.55,5.11-1.33,8.67-2.45,8.67-2.45Z" transform="translate(447.389 170.934)" fill="#feb7c5"/>
      <path id="Path_46" data-name="Path 46" d="M349.61,545.74c3.26-21.38-5-27.67-12.73-29.12,5.11-1.33,8.67-2.45,8.67-2.45l18,26Z" transform="translate(447.723 170.816)" opacity="0.1"/>
      <path id="Path_47" data-name="Path 47" d="M514.55,422.17l-104,73s-27,16-37,12-46,10-46,10,30-9,24,29l48-16s72-9,82-14,52-91,52-91Z" transform="translate(447.932 171.426)" fill="#5d526d"/>
      <path id="Path_48" data-name="Path 48" d="M656.55,337.17s1,26,7,39a171.894,171.894,0,0,1,9,24l25,30,10,9s38,0,42,16-58,5-58,5l-9-9-42-26-24-73Z" transform="translate(449.435 172.833)" fill="#feb7c5"/>
      <path id="Path_49" data-name="Path 49" d="M465.55,334.17s-19,49-35,64-24,11-24,11-42,33-17,41,38-27,38-27l36-18s33-29,31-50S465.55,334.17,465.55,334.17Z" transform="translate(448.083 172.951)" fill="#feb7c5"/>
      <path id="Path_50" data-name="Path 50" d="M465.55,334.17s-19,49-35,64-24,11-24,11-42,33-17,41,38-27,38-27l36-18s33-29,31-50S465.55,334.17,465.55,334.17Z" transform="translate(448.083 172.951)" opacity="0.03"/>
      <path id="Path_51" data-name="Path 51" d="M546.11,309.1c-7.41.38-19.25,3.71-19.56-19.93,0,0-18.94,4.43-33.85,7.66A30.58,30.58,0,0,0,472.39,312l-13.85,25.17s6,17,25,19c0,0,4,40-32,65s93,60,93,60l64-21s-7-72,14-91c0,0,30-2,41-30,0,0-20-26-20-36s-56-18-56-18-6.78,27.4-30.39,24.28a60.4,60.4,0,0,0-11.04-.35Z" transform="translate(448.685 173.252)" opacity="0.1"/>
      <path id="Path_52" data-name="Path 52" d="M546.11,307.1c-7.41.38-19.25,3.71-19.56-19.93,0,0-18.94,4.43-33.85,7.66A30.58,30.58,0,0,0,472.39,310l-13.85,25.17s6,17,25,19c0,0,4,40-32,65s93,60,93,60l64-21s-7-72,14-91c0,0,30-2,41-30,0,0-20-26-20-36s-56-18-56-18-6.78,27.4-30.39,24.28a60.4,60.4,0,0,0-11.04-.35Z" transform="translate(448.685 173.29)" fill="#d6e6f9"/>
      <path id="Path_53" data-name="Path 53" d="M961.55,531.17s3,37,10,52,8,25,8,25,24.86,52.49,52.5,59.38a8.77,8.77,0,0,1,6.56,6.47c1.11,5.07-2.56,10.77-30.06,5.15,0,0-27.12-10.61-41.07-21a61.611,61.611,0,0,0-22.39-10.61c-9.62-2.29-19.92-7.88-16.54-21.42l11-16s-9-19-14-67S961.55,531.17,961.55,531.17Z" transform="translate(451.383 169.332)" opacity="0.03"/>
      <path id="Path_54" data-name="Path 54" d="M950.8,417.25a1.931,1.931,0,0,1-.18.54l-3.07,13.38-12,7-20-2-13-26a15.84,15.84,0,0,1,8.43-7.82c-1.55,6.77-4.57,27,14.57,27.82,23,1,25-15,25-15Z" transform="translate(451.383 172.442)" opacity="0.1"/>
      <path id="Path_55" data-name="Path 55" d="M806.55,414.17s81-3,105-12c0,0-9,29,14,30s25-15,25-15l7,58s8,37,7,48l4,22s-54,18-60,6c0,0,4-56-12-68l-48,25s-46,17-62,5S806.55,414.17,806.55,414.17Z" transform="translate(451.383 171.496)" fill="#a2a0ff"/>
      <path id="Path_57" data-name="Path 57" d="M581.56,278.6a40,40,0,0,1-54,5.6,93.579,93.579,0,0,0,3-24s42-19,45,3C576.52,270.29,578.85,275.2,581.56,278.6Z" transform="translate(448.736 174.655)" opacity="0.1"/>
      <circle id="Ellipse_1" data-name="Ellipse 1" cx="40" cy="40" r="40" transform="translate(960.263 385.322)" fill="#feb7c5"/>
      <path id="Path_58" data-name="Path 58" d="M535.43,179.69a6.62,6.62,0,0,0-3.44,1.53c-1.29,1.32-1.3,3.38-1.8,5.16-1,3.43-3.83,6-6.88,7.85s-6.4,3.22-9.24,5.37c-5.19,3.93-8.14,10-11.61,15.55a80.07,80.07,0,0,1-17.2,19.41c1,2.25,4.52,1.59,6.48,3.09,2.37,1.81,1.35,5.55,0,8.21s-2.69,6.17-.64,8.33a15.45,15.45,0,0,1,1.78,1.66c1.57,2.29-1.41,5.07-1.64,7.84s2.2,4.84,4.64,6,5.2,1.86,7,3.82c-1.8,2.49-3.67,5.68-2.3,8.43,1.55,3.11,6,3.13,9.35,2.3a4.77,4.77,0,0,1,2.73-.15,6.241,6.241,0,0,1,2,1.67c3.81,3.74,11.3,2.16,13.27-2.81,1.07-2.7.64-5.72.75-8.62.18-4.6,1.79-9,2.37-13.6,1-7.73-1-15.51-1.13-23.3a2.42,2.42,0,0,1,.3-1.47,2.52,2.52,0,0,1,1.81-.77A111.246,111.246,0,0,0,545,232.67c3.3-.85,7-2.25,8.14-5.46-.67,2.36.52,4.94,2.36,6.56a17.21,17.21,0,0,0,6.56,3.17c5.75,1.74,12.4,2.77,17.4-.55-.27,6.16-.51,12.52,1.67,18.29s7.45,10.84,13.61,10.79c2.48,0,5.49-1.72,5-4.15-.28-1.4-1.61-2.3-2.63-3.29-2.06-2-3-5.63-1-7.66a27.615,27.615,0,0,1,2.81-1.9c2.52-2,2.7-5.66,2.56-8.85A142.9,142.9,0,0,0,599.24,220a31.921,31.921,0,0,0-1.24-4.9,36.005,36.005,0,0,0-3.27-6.36L585,192.57a19.529,19.529,0,0,0-4.46-5.67c-6.81-5.23-14.7,1.14-21.24-2.54-3.4-1.91-5.84-4.33-9.82-5.23C544.86,178.07,540,178.69,535.43,179.69Z" transform="translate(448.658 175.562)" opacity="0.1"/>
      <path id="Path_59" data-name="Path 59" d="M535.43,178.69a6.62,6.62,0,0,0-3.44,1.53c-1.29,1.32-1.3,3.38-1.8,5.16-1,3.43-3.83,6-6.88,7.85s-6.4,3.22-9.24,5.37c-5.19,3.93-8.14,10-11.61,15.55a80.07,80.07,0,0,1-17.2,19.41c1,2.25,4.52,1.59,6.48,3.09,2.37,1.81,1.35,5.55,0,8.21s-2.69,6.17-.64,8.33a15.451,15.451,0,0,1,1.78,1.66c1.57,2.29-1.41,5.07-1.64,7.84s2.2,4.84,4.64,6,5.2,1.86,7,3.82c-1.8,2.49-3.67,5.68-2.3,8.43,1.55,3.11,6,3.13,9.35,2.3a4.77,4.77,0,0,1,2.73-.15,6.241,6.241,0,0,1,2,1.67c3.81,3.74,11.3,2.16,13.27-2.81,1.07-2.7.64-5.72.75-8.62.18-4.6,1.79-9,2.37-13.6,1-7.73-1-15.51-1.13-23.3a2.42,2.42,0,0,1,.3-1.47,2.52,2.52,0,0,1,1.81-.77A111.25,111.25,0,0,0,545,231.67c3.3-.85,7-2.25,8.14-5.46-.67,2.36.52,4.94,2.36,6.56a17.21,17.21,0,0,0,6.56,3.17c5.75,1.74,12.4,2.77,17.4-.55-.27,6.16-.51,12.52,1.67,18.29s7.45,10.84,13.61,10.79c2.48,0,5.49-1.72,5-4.15-.28-1.4-1.61-2.3-2.63-3.29-2.06-2-3-5.63-1-7.66a27.619,27.619,0,0,1,2.81-1.9c2.52-2,2.7-5.66,2.56-8.85A142.9,142.9,0,0,0,599.24,219a31.921,31.921,0,0,0-1.24-4.9,36,36,0,0,0-3.27-6.36L585,191.57a19.529,19.529,0,0,0-4.46-5.67c-6.81-5.23-14.7,1.14-21.24-2.54-3.4-1.91-5.84-4.33-9.82-5.23C544.86,177.07,540,177.69,535.43,178.69Z" transform="translate(448.658 175.578)" fill="#8e6f80"/>
      <path id="Path_60" data-name="Path 60" d="M516.55,493.17l-15,10a158.222,158.222,0,0,0-19.27-28.39c-7.43-8.71-16.8-17.58-27.73-23.61-29-16,28-25,28-25a114.5,114.5,0,0,0,14,16.84c10.06,10,24.4,20,39,16.16C562.55,452.17,516.55,493.17,516.55,493.17Z" transform="translate(448.405 171.769)" fill="#ffbcc7"/>
      <rect id="Rectangle_9" data-name="Rectangle 9" width="62" height="21" transform="translate(992.387 608.218)" fill="#cccad6"/>
      <path id="Path_61" data-name="Path 61" d="M563.55,393.17s-9-20-14-26-6-27-6-27-6-37,12-45,13,46,13,46l-1,8s27,25,26,44S563.55,393.17,563.55,393.17Z" transform="translate(448.806 173.671)" fill="#ffbcc7"/>
      <path id="Path_62" data-name="Path 62" d="M563.55,393.17s-9-20-14-26-6-27-6-27-6-37,12-45,13,46,13,46l-1,8s27,25,26,44S563.55,393.17,563.55,393.17Z" transform="translate(448.806 173.671)" opacity="0.03"/>
      <path id="Path_63" data-name="Path 63" d="M499.55,446.17s9-4,11-10,27-3,27-3l30-6s8-12,0-18-8-19-8-19,27.76,0,34.32-7.12a6,6,0,0,0,.68-.88c5-8,26,66,26,66l-50-10-38,22S510.55,464.17,499.55,446.17Z" transform="translate(448.748 172.455)" opacity="0.1"/>
      <path id="Path_64" data-name="Path 64" d="M499.55,445.17s9-4,11-10,27-3,27-3l30-6s8-12,0-18-8-19-8-19,27.76,0,34.32-7.12a6,6,0,0,0,.68-.88c5-8,26,66,26,66l-50-10-38,22S510.55,463.17,499.55,445.17Z" transform="translate(448.748 172.471)" fill="#2e688c"/>
      <path id="Path_65" data-name="Path 65" d="M499.55,445.17s9-4,11-10,27-3,27-3l30-6s8-12,0-18-8-19-8-19,27.76,0,34.32-7.12a6,6,0,0,0,.68-.88c5-8,26,66,26,66l-50-10-38,22S510.55,463.17,499.55,445.17Z" transform="translate(448.748 172.471)" opacity="0.03"/>
      <path id="Path_66" data-name="Path 66" d="M656.33,502.57l-11.78-12.4,11-26h9S670.34,491.18,656.33,502.57Z" transform="translate(449.242 171.501)" opacity="0.1"/>
      <path id="Path_67" data-name="Path 67" d="M632.55,459.17l20-2s9,7,11,7c0,0,6,28-9,39s-34-10-34-10l-17-20Z" transform="translate(449.145 171.519)" fill="#cccad6"/>
      <path id="Path_68" data-name="Path 68" d="M938.55,563.17s-25-1-56-12-26-37-26-37l-18.13-44.49-3.87-9.51,39-24s1.42,6.13,3.25,14.73c2.79,13.06,6.54,31.81,7.75,43.27,2,19,25,28,25,28l41,17s15-4,25,3S938.55,563.17,938.55,563.17Z" transform="translate(451.383 171.162)" fill="#ffbcc7"/>
      <path id="Path_69" data-name="Path 69" d="M578.26,419.92h9.85l-16,35-11,11-5.16-5.43Z" transform="translate(551.782 215.689)" opacity="0.1"/>
      <path id="Path_70" data-name="Path 70" d="M853.55,346.17c0,14-50-13-50-13a18.824,18.824,0,0,1,1.28-2.88C841.49,348.15,850.9,341,853,338.13a42.929,42.929,0,0,1,.55,8.04Z" transform="translate(450.137 173.599)" opacity="0.1"/>
      <path id="Path_71" data-name="Path 71" d="M779.55,361.17l15-11-30,58L761.75,396l1.55-3c20.14-14,17.13-27,15.72-30.76Z" transform="translate(449.863 173.084)" opacity="0.1"/>
      <path id="Path_72" data-name="Path 72" d="M876.8,450.9c-12.53,3.08-30.55,13.86-38.38,18.78l-3.87-9.51,39-24S875,442.3,876.8,450.9Z" transform="translate(450.264 171.956)" opacity="0.1"/>
      <path id="Path_73" data-name="Path 73" d="M686.55,457.17l-33,60,24,15s26.59,10.17,50.73,5.6a205.05,205.05,0,0,1,24-3.07c5.09-.35,11-1,17.1-2a47.49,47.49,0,0,0,38-34.76c6.16-23.46,14.72-59.51,12.54-71.33a10.862,10.862,0,0,0-.36-1.46l10,30,5,15s36-24,50-22c0,0-17-47-19-67s-12-43-12-43-5,15-51-8l-23,31s9,16-17,33l-29,67Z" transform="translate(450.037 172.295)" fill="#bcbbf2"/>
      <path id="Path_74" data-name="Path 74" d="M496.55,444.17a39.85,39.85,0,0,1-14.27,30.61c-7.43-8.71-16.8-17.58-27.73-23.61-29-16,28-25,28-25a114.5,114.5,0,0,0,14,16.84C496.54,443.39,496.55,443.78,496.55,444.17Z" transform="translate(448.312 171.992)" opacity="0.1"/>
      <circle id="Ellipse_2" data-name="Ellipse 2" cx="40" cy="40" r="40" transform="translate(862.751 576.261)" fill="#ffbcc7"/>
      <path id="Path_75" data-name="Path 75" d="M691.55,535.17s-11,3-49-6-63-3-73,0-45-2-65-7-22-35-22-35c7,1,38-28,38-28,18-16,51-16,51-16l12.82,2.3,54.18,9.7,6.23,9.41Z" transform="translate(448.889 171.367)" opacity="0.1"/>
      <path id="Path_76" data-name="Path 76" d="M690.55,536.17s-11,3-49-6-63-3-73,0-45-2-65-7-22-35-22-35c7,1,38-28,38-28,18-16,51-16,51-16l12.82,2.3,54.18,9.7,6.23,9.41Z" transform="translate(448.883 171.351)" fill="#2e688c"/>
      <path id="Path_77" data-name="Path 77" d="M643.78,465.58l-79.23,56.59c-22.75,7.72-36.26,3.39-44.28-4.47-15-14.75-10-40.18,9.18-48.9a82.219,82.219,0,0,1,26.1-6.63l27.82-15.7,54.18,9.7Z" transform="translate(448.844 171.426)" opacity="0.1"/>
      <path id="Path_78" data-name="Path 78" d="M669.13,464.17s2.92,2.5,6.92,0" transform="translate(449.324 171.79)" opacity="0.1"/>
      <path id="Path_79" data-name="Path 79" d="M556.48,266.37s-3-.07-3.14,2.36c-.07,1.16,1.82,8.28,3.83,15.38,1,3.49,2,7,2.8,9.76,1,3.41,1.69,5.76,1.69,5.76l.79,1.67,4.73,10.07,4.45,9.47,2.77,3.57,14.51-10,7.2-18.31-3.31-1.45-.57-.25-6.39-5-18-14-8.12-6.3-1-.74Z" transform="translate(448.841 174.367)" fill="#ffe09c"/>
      <path id="Path_80" data-name="Path 80" d="M578.77,330.61s15.94-10.64,18.75-20c0,0,2.74-7.94,2.64-11.93,0,0,.6-3.74-6.67-3.55,0,0-1.24,13.63-10.1,20.79l-8.86,7.17Z" transform="translate(448.906 174.039)" fill="#e7c4c3"/>
      <ellipse id="Ellipse_3" data-name="Ellipse 3" cx="5.9" cy="5" rx="5.9" ry="5" transform="translate(1022.622 488.488) rotate(-83.66)" fill="#ff7f8e"/>
      <ellipse id="Ellipse_4" data-name="Ellipse 4" cx="5.9" cy="5" rx="5.9" ry="5" transform="translate(1018.23 470.565) rotate(-83.66)" fill="#ff7f8e"/>
      <path id="Path_81" data-name="Path 81" d="M585.82,289.47a6.16,6.16,0,0,0-3,4.78c-.36,3.24,1.57,6.11,4.31,6.41s5.26-2.07,5.62-5.31v-.67l-.57-.25Z" transform="translate(448.909 174.233)" fill="#ff7f8e"/>
      <path id="Path_82" data-name="Path 82" d="M566,300.12a4.59,4.59,0,0,0-3.55,1.19l4.73,10.07a6.13,6.13,0,0,0,3.14-4.85C570.67,303.29,568.74,300.42,566,300.12Z" transform="translate(448.805 174.08)" fill="#ff7f8e"/>
      <path id="Path_83" data-name="Path 83" d="M561.42,282.18a4.79,4.79,0,0,0-4.26,1.94c1,3.49,2,7,2.8,9.76h.16c2.74.3,5.26-2.07,5.62-5.31S564.16,282.48,561.42,282.18Z" transform="translate(448.78 174.336)" fill="#ff7f8e"/>
      <path id="Path_84" data-name="Path 84" d="M559.64,269.17a6.874,6.874,0,0,0-.47,1.85c-.36,3.24,1.57,6.11,4.31,6.41a4.8,4.8,0,0,0,4.28-2Z" transform="translate(448.79 174.538)" fill="#ff7f8e"/>
      <path id="Path_85" data-name="Path 85" d="M574.51,315.15l-1.88-.21a10.36,10.36,0,0,0,.59-4.41.641.641,0,0,0-.07-.29c-.52-1.82,1.88.21,1.88.21S575.28,314.33,574.51,315.15Z" transform="translate(448.842 173.971)" fill="#94cc79"/>
      <path id="Path_86" data-name="Path 86" d="M581,302.28l-1.88-.21a10.36,10.36,0,0,0,.59-4.41.641.641,0,0,0-.07-.29c-.52-1.82,1.88.21,1.88.21S581.74,301.46,581,302.28Z" transform="translate(448.873 174.155)" fill="#94cc79"/>
      <path id="Path_87" data-name="Path 87" d="M574.78,299.28l-1.88-.21a10.36,10.36,0,0,0,.59-4.41.641.641,0,0,0-.07-.29c-.52-1.82,1.88.21,1.88.21S575.55,298.46,574.78,299.28Z" transform="translate(448.843 174.198)" fill="#94cc79"/>
      <path id="Path_88" data-name="Path 88" d="M566.09,290.67l-1.88-.21a10.361,10.361,0,0,0,.59-4.41.641.641,0,0,0-.07-.29c-.52-1.82,1.88.21,1.88.21S566.86,289.85,566.09,290.67Z" transform="translate(448.801 174.322)" fill="#94cc79"/>
      <path id="Path_89" data-name="Path 89" d="M559.19,275.37l-1.88-.21a10.36,10.36,0,0,0,.59-4.41.641.641,0,0,0-.07-.29c-.52-1.82,1.88.21,1.88.21S560,274.55,559.19,275.37Z" transform="translate(448.767 174.541)" fill="#94cc79"/>
      <path id="Path_90" data-name="Path 90" d="M570.66,285.06l-1.88-.21a10.36,10.36,0,0,0,.59-4.41.641.641,0,0,0-.07-.29c-.52-1.82,1.88.21,1.88.21S571.43,284.24,570.66,285.06Z" transform="translate(448.823 174.402)" fill="#94cc79"/>
      <path id="Path_91" data-name="Path 91" d="M573,330s3.47,5.46,5.81.65a20.88,20.88,0,0,0-4.84-9.41s-13.18-24-13-28.07c0,0-7.39-24-6.68-25.46,0,0-1.27-1.59-1,5S559.57,298,559.57,298l7.64,19.23,4.11,6.25Z" transform="translate(448.8 174.317)" fill="#e7c4c3"/>
      <path id="Path_92" data-name="Path 92" d="M573,330s3.47,5.46,5.81.65a20.88,20.88,0,0,0-4.84-9.41s-13.18-24-13-28.07c0,0-7.39-24-6.68-25.46,0,0-1.27-1.59-1,5S559.57,298,559.57,298l7.64,19.23,4.11,6.25Z" transform="translate(448.8 174.317)" fill="#fff" opacity="0.2"/>
      <path id="Path_93" data-name="Path 93" d="M635.55,386.17c0,7-24,11-24,11l-3.39-6-25.61-45s-16-40,0-46,18,40,18,40,23,25.63,31.71,39.07C634.3,382.37,635.55,384.85,635.55,386.17Z" transform="translate(448.997 173.642)" fill="#ffbcc7"/>
      <path id="Path_94" data-name="Path 94" d="M635.55,386.17c0,7-24,11-24,11l-3.39-6c8.94-.29,20.32-8.9,24.1-12C634.3,382.37,635.55,384.85,635.55,386.17Z" transform="translate(449.078 172.899)" opacity="0.1"/>
      <path id="Path_95" data-name="Path 95" d="M519.27,514.69c8,7.86,21.53,12.19,44.28,4.47l91-65s13-7,0-38-21-36-21-36-16,14-27,13l10,31-62,35a82.26,82.26,0,0,0-26.1,6.63C509.26,474.52,504.23,499.95,519.27,514.69Z" transform="translate(448.885 171.97)" fill="#2e688c"/>
      <path id="Path_96" data-name="Path 96" d="M419.82,404.59c-6.63,2.88-9.43,10.71-14.75,15.61s-13.08,6.59-19.88,9.46-13.69,8.41-13.62,15.8,7.33,13.88,6.1,21.25c-.63,3.79-3.45,6.94-4.1,10.72-.71,4.08,1.25,8.21,3.92,11.38,7.28,8.64,19.06,11.61,29.89,14.82s22.5,8,27.38,18.18c1.3,2.72,2,5.67,3.21,8.44,4.17,9.79,13.74,16.47,23.88,19.7s21,3.49,31.6,3.72c3.9.08,8,.14,11.52-1.45s6.49-5.33,5.82-9.17c-.52-3-3-5.23-5.21-7.3-4.33-4-8.47-8.47-10.65-14s-2.06-12.2,1.62-16.81c4.36-5.46,12.17-6.58,17.85-10.65,10.19-7.3,10.29-24.84.2-32.26-3.59-2.64-7.95-4-11.85-6.15-11.73-6.46-18.43-19.38-29.14-27.42-8.51-6.39-18.93-9.23-28-14.62C437.2,408.89,431.16,399.67,419.82,404.59Z" transform="translate(448.093 171.503)" opacity="0.1"/>
      <path id="Path_97" data-name="Path 97" d="M417.82,404.59c-6.63,2.88-9.43,10.71-14.75,15.61s-13.08,6.59-19.88,9.46-13.69,8.41-13.62,15.8,7.33,13.88,6.1,21.25c-.63,3.79-3.45,6.94-4.1,10.72-.71,4.08,1.25,8.21,3.92,11.38,7.28,8.64,19.06,11.61,29.89,14.82s22.5,8,27.38,18.18c1.3,2.72,2,5.67,3.21,8.44,4.17,9.79,13.74,16.47,23.88,19.7s21,3.49,31.6,3.72c3.9.08,8,.14,11.52-1.45s6.49-5.33,5.82-9.17c-.52-3-3-5.23-5.21-7.3-4.33-4-8.47-8.47-10.65-14s-2.06-12.2,1.62-16.81c4.36-5.46,12.17-6.58,17.85-10.65,10.19-7.3,10.29-24.84.2-32.26-3.59-2.64-7.95-4-11.85-6.15-11.73-6.46-18.43-19.38-29.14-27.42-8.51-6.39-18.93-9.23-28-14.62C435.2,408.89,429.16,399.67,417.82,404.59Z" transform="translate(448.082 171.503)" fill="#85596b"/>
      <path id="Path_98" data-name="Path 98" d="M263.27,713.78l-71.76,59.78-84.47-57.09,83.04-44.38,69.97,33.1Z" transform="translate(548.995 210.479)" fill="#dadae5"/>
      <path id="Path_99" data-name="Path 99" d="M154.74,588.78l35.97,70.69-83.58,42.24-53.5-99.33Z" transform="translate(548.995 210.479)" fill="none"/>
      <path id="Path_100" data-name="Path 100" d="M149.01,595.94l36.15,69.44-78.03,36.33L56.68,608.06Z" transform="translate(548.995 210.479)" fill="#dadae5"/>
      <path id="Path_101" data-name="Path 101" d="M154.74,589.5l-5.73,7.16L56.68,608.78l-3.05-5.68Z" transform="translate(548.995 213.432)" opacity="0.03"/>
      <path id="Path_102" data-name="Path 102" d="M190.71,660.19,154.74,589.5l-5.73,7.16,35.24,67.69Z" transform="translate(548.995 212.785)" opacity="0.03"/>
      <path id="Path_103" data-name="Path 103" d="M154.74,588.78l-5.73,7.16L56.68,608.06l-3.05-5.68Z" transform="translate(548.995 213.443)" fill="#eff0f4"/>
      <path id="Path_104" data-name="Path 104" d="M190.71,659.47l-35.97-70.69-5.73,7.16,35.24,67.7Z" transform="translate(548.995 212.796)" fill="#eff0f4"/>
      <path id="Path_105" data-name="Path 105" d="M154.74,588.78l-8.73,11.16L53.68,612.06l-.05-9.68Z" transform="translate(548.995 213.399)" opacity="0.03"/>
      <path id="Path_106" data-name="Path 106" d="M190.71,659.47l-35.97-70.69-8.73,11.16,35.24,67.7Z" transform="translate(548.995 212.745)" opacity="0.03"/>
      <path id="Path_107" data-name="Path 107" d="M190.71,660.54v14.53l-83.58,44.56V702.78Z" transform="translate(548.995 210.479)" opacity="0.03"/>
      <path id="Path_108" data-name="Path 108" d="M263.36,696.87l-72.65-36.33-.63,14.62,71.68,37.66Z" transform="translate(549.99 210.479)" opacity="0.03"/>
      <path id="Path_109" data-name="Path 109" d="M190.71,659.47V672l-83.58,44.56V701.71Z" transform="translate(548.995 210.479)" fill="#eff0f4"/>
      <path id="Path_110" data-name="Path 110" d="M263.36,695.8l-72.65-36.33-.63,12.62,71.68,37.65Z" transform="translate(549.99 210.479)" fill="#eff0f4"/>
      <path id="Path_111" data-name="Path 111" d="M190.71,659.47V672l-83.58,44.56V701.71Z" transform="translate(548.995 210.479)" opacity="0.03"/>
      <path id="Path_112" data-name="Path 112" d="M263.36,695.8l-72.65-36.33-.63,12.62,71.68,37.65Z" transform="translate(549.99 210.479)" opacity="0.03"/>
      <path id="Path_113" data-name="Path 113" d="M263.36,695.8l-.18,18.07-71.58,59.6-.89-18.44Z" transform="translate(549.993 210.479)" fill="#cccad6"/>
      <path id="Path_114" data-name="Path 114" d="M329.39,742.91s1.78,2.4-.12,3.93c-.91.73-7.82,3.27-14.78,5.73-3.42,1.21-6.85,2.39-9.59,3.33l-5.69,1.93-1.82.32-11,1.93-10.3,1.82-4.51-.21-.19-17.61,10.83-16.42,3.09,1.87.54.32,7.74,2.37,21.84,6.7,9.83,3,1.15.35Z" transform="translate(447.426 166.229)" fill="#ffe09c"/>
      <path id="Path_115" data-name="Path 115" d="M264,761.67s-.48-19.16,5.57-26.85c0,0,4.91-6.81,8.24-9,0,0,2.71-2.64,6.74,3.41,0,0-10.43,8.86-11.19,20.23l-.76,11.37Z" transform="translate(446.555 166.229)" fill="#e7c4c3"/>
      <ellipse id="Ellipse_5" data-name="Ellipse 5" cx="5.9" cy="5" rx="5.9" ry="5" transform="translate(720.099 915.193) rotate(-41.49)" fill="#ff7f8e"/>
      <ellipse id="Ellipse_6" data-name="Ellipse 6" cx="5.9" cy="5" rx="5.9" ry="5" transform="translate(738.416 908.29) rotate(-41.49)" fill="#ff7f8e"/>
      <path id="Path_116" data-name="Path 116" d="M293.61,732.22a6.16,6.16,0,0,1-2.18,5.21c-2.44,2.16-5.9,2.23-7.73.16s-1.33-5.49,1.11-7.65q.25-.22.52-.42l.54.32Z" transform="translate(446.555 166.229)" fill="#ff7f8e"/>
      <path id="Path_117" data-name="Path 117" d="M296.32,754.56a4.59,4.59,0,0,1,1.07,3.59l-11,1.93a6.13,6.13,0,0,1,2.16-5.36C291,752.57,294.49,752.49,296.32,754.56Z" transform="translate(446.555 166.229)" fill="#ff7f8e"/>
      <path id="Path_118" data-name="Path 118" d="M313.62,748a4.79,4.79,0,0,1,.87,4.6c-3.42,1.21-6.85,2.39-9.59,3.33l-.11-.12c-1.83-2.07-1.33-5.49,1.11-7.65S311.79,745.91,313.62,748Z" transform="translate(447.542 166.229)" fill="#ff7f8e"/>
      <path id="Path_119" data-name="Path 119" d="M325.28,741.93a6.871,6.871,0,0,1-1.24,1.45c-2.44,2.16-5.9,2.23-7.73.16a4.8,4.8,0,0,1-.86-4.63Z" transform="translate(447.597 166.229)" fill="#ff7f8e"/>
      <path id="Path_120" data-name="Path 120" d="M279.12,756.25l1.25,1.42a10.36,10.36,0,0,1,3.26-3l.28-.11c1.79-.62-1.25-1.42-1.25-1.42S279.35,755.15,279.12,756.25Z" transform="translate(446.555 166.229)" fill="#94cc79"/>
      <path id="Path_121" data-name="Path 121" d="M285.93,743.56l1.25,1.42a10.36,10.36,0,0,1,3.26-3l.28-.11c1.79-.62-1.25-1.42-1.25-1.42S286.15,742.46,285.93,743.56Z" transform="translate(446.555 166.229)" fill="#94cc79"/>
      <path id="Path_122" data-name="Path 122" d="M291.94,746.9l1.25,1.42a10.36,10.36,0,0,1,3.26-3l.28-.11c1.79-.62-1.25-1.42-1.25-1.42S292.17,745.79,291.94,746.9Z" transform="translate(446.555 166.229)" fill="#94cc79"/>
      <path id="Path_123" data-name="Path 123" d="M304,749l1.25,1.42a10.36,10.36,0,0,1,3.26-3l.28-.11c1.79-.62-1.25-1.42-1.25-1.42S304.21,747.94,304,749Z" transform="translate(447.538 166.229)" fill="#94cc79"/>
      <path id="Path_124" data-name="Path 124" d="M320.47,745.87l1.25,1.42a10.36,10.36,0,0,1,3.26-3l.28-.11c1.79-.62-1.25-1.42-1.25-1.42S320.7,744.77,320.47,745.87Z" transform="translate(447.618 166.229)" fill="#94cc79"/>
      <path id="Path_125" data-name="Path 125" d="M305.94,742.08l1.25,1.42a10.361,10.361,0,0,1,3.26-3l.28-.11c1.79-.62-1.25-1.42-1.25-1.42S306.17,741,305.94,742.08Z" transform="translate(447.547 166.229)" fill="#94cc79"/>
      <path id="Path_126" data-name="Path 126" d="M267.91,766s-6.46.31-3.88-4.38a20.881,20.881,0,0,1,10.48-1.46s27.22-3,30.43-5.53c0,0,23.88-7.78,24.67-9.2,0,0,2,.12-3.54,3.74s-24.36,9.41-24.36,9.41l-20.13,4.82-7.48.24Z" transform="translate(447.392 166.229)" fill="#e7c4c3"/>
      <path id="Path_127" data-name="Path 127" d="M267.91,766s-6.46.31-3.88-4.38a20.881,20.881,0,0,1,10.48-1.46s27.22-3,30.43-5.53c0,0,23.88-7.78,24.67-9.2,0,0,2,.12-3.54,3.74s-24.36,9.41-24.36,9.41l-20.13,4.82-7.48.24Z" transform="translate(447.392 166.229)" fill="#fff" opacity="0.2"/>
      <path id="Path_128" data-name="Path 128" d="M322.86,749.76s2.55,1.55,1.37,3.68c-.57,1-6,6-11.54,10.87-2.71,2.4-5.45,4.79-7.63,6.7-2.68,2.33-4.54,3.93-4.54,3.93l-1.57,1-9.42,5.91-8.86,5.56-4.26,1.5-6.81-16.24,3.85-19.29,3.57.57.62.1,8.06-.71,22.75-2,10.24-.91,1.2-.11Z" transform="translate(447.413 166.229)" fill="#ffe09c"/>
      <path id="Path_129" data-name="Path 129" d="M269.37,791.74s-7.66-17.57-5-27c0,0,2-8.16,4.23-11.46,0,0,1.52-3.47,7.53.62,0,0-6.32,12.13-2.75,23L277,787.69Z" transform="translate(446.555 166.229)" fill="#e7c4c3"/>
      <ellipse id="Ellipse_7" data-name="Ellipse 7" cx="5.9" cy="5" rx="5.9" ry="5" transform="matrix(0.445, -0.896, 0.896, 0.445, 719.941, 942.726)" fill="#ff7f8e"/>
      <ellipse id="Ellipse_8" data-name="Ellipse 8" cx="5.9" cy="5" rx="5.9" ry="5" transform="matrix(0.445, -0.896, 0.896, 0.445, 733.448, 929.782)" fill="#ff7f8e"/>
      <path id="Path_130" data-name="Path 130" d="M285.69,753.33a6.16,6.16,0,0,1-.06,5.64c-1.45,2.92-4.62,4.29-7.1,3.06s-3.3-4.58-1.85-7.5q.15-.3.33-.59l.62.1Z" transform="translate(446.555 166.229)" fill="#ff7f8e"/>
      <path id="Path_131" data-name="Path 131" d="M296.6,773a4.59,4.59,0,0,1,2.34,2.92l-9.42,5.91a6.13,6.13,0,0,1,0-5.78C291,773.15,294.13,771.78,296.6,773Z" transform="translate(446.555 166.229)" fill="#ff7f8e"/>
      <path id="Path_132" data-name="Path 132" d="M310.15,760.38a4.79,4.79,0,0,1,2.54,3.93c-2.71,2.4-5.45,4.79-7.63,6.7l-.14-.07c-2.47-1.23-3.3-4.58-1.85-7.5S307.68,759.16,310.15,760.38Z" transform="translate(447.535 166.229)" fill="#ff7f8e"/>
      <path id="Path_133" data-name="Path 133" d="M318.68,750.4a6.869,6.869,0,0,1-.61,1.81c-1.45,2.92-4.62,4.29-7.1,3.06a4.8,4.8,0,0,1-2.54-4Z" transform="translate(447.564 166.229)" fill="#ff7f8e"/>
      <path id="Path_134" data-name="Path 134" d="M281.31,781l1.69.84a10.36,10.36,0,0,1,1.89-4l.21-.21c1.43-1.25-1.69-.84-1.69-.84S281.11,779.93,281.31,781Z" transform="translate(446.555 166.229)" fill="#94cc79"/>
      <path id="Path_135" data-name="Path 135" d="M282.84,766.72l1.69.84a10.36,10.36,0,0,1,1.89-4l.21-.21c1.43-1.25-1.69-.84-1.69-.84S282.63,765.62,282.84,766.72Z" transform="translate(446.555 166.229)" fill="#94cc79"/>
      <path id="Path_136" data-name="Path 136" d="M289.66,767.55l1.69.84a10.36,10.36,0,0,1,1.89-4l.21-.21c1.43-1.25-1.69-.84-1.69-.84S289.46,766.44,289.66,767.55Z" transform="translate(446.555 166.229)" fill="#94cc79"/>
      <path id="Path_137" data-name="Path 137" d="M301.63,765l1.69.84a10.361,10.361,0,0,1,1.89-4l.21-.21c1.43-1.25-1.69-.84-1.69-.84S301.43,763.89,301.63,765Z" transform="translate(447.525 166.229)" fill="#94cc79"/>
      <path id="Path_138" data-name="Path 138" d="M315.71,755.86l1.69.84a10.36,10.36,0,0,1,1.89-4l.21-.21c1.43-1.25-1.69-.84-1.69-.84S315.51,754.75,315.71,755.86Z" transform="translate(447.594 166.229)" fill="#94cc79"/>
      <path id="Path_139" data-name="Path 139" d="M300.82,757.82l1.69.84a10.36,10.36,0,0,1,1.89-4l.21-.21c1.43-1.25-1.69-.84-1.69-.84S300.62,756.71,300.82,757.82Z" transform="translate(447.521 166.229)" fill="#94cc79"/>
      <path id="Path_140" data-name="Path 140" d="M274.61,794.34s-5.87,2.71-5.24-2.6a20.88,20.88,0,0,1,9.16-5.3s24.07-13.07,26.11-16.58c0,0,19.19-16.2,19.39-17.81,0,0,1.93-.65-1.88,4.8s-19,17.89-19,17.89l-16.83,12-6.83,3Z" transform="translate(447.412 166.229)" fill="#e7c4c3"/>
      <path id="Path_141" data-name="Path 141" d="M274.61,794.34s-5.87,2.71-5.24-2.6a20.88,20.88,0,0,1,9.16-5.3s24.07-13.07,26.11-16.58c0,0,19.19-16.2,19.39-17.81,0,0,1.93-.65-1.88,4.8s-19,17.89-19,17.89l-16.83,12-6.83,3Z" transform="translate(447.412 166.229)" fill="#fff" opacity="0.2"/>
      <path id="Path_142" data-name="Path 142" d="M190.71,755.03l-83.58-53.32v14.67l84.47,57.09Z" transform="translate(548.995 210.479)" fill="#cccad6"/>
      <path id="Path_143" data-name="Path 143" d="M98.19,706.89l8.94-5.18-53.5-99.33-6.27,6.09Z" transform="translate(548.995 210.479)" fill="#cccad6"/>
    </g>
  </g>
</svg>
