<?xml version="1.0" encoding="utf-8"?>
<!-- Generator: Adobe Illustrator 23.0.3, SVG Export Plug-In . SVG Version: 6.00 Build 0)  -->
<svg version="1.1" xmlns="http://www.w3.org/2000/svg" xmlns:xlink="http://www.w3.org/1999/xlink" x="0px" y="0px"
	 viewBox="0 0 1242 412" style="enable-background:new 0 0 1242 412;" xml:space="preserve">
<style type="text/css">
	.st0{opacity:0.1;fill:#252223;enable-background:new    ;}
	.st1{fill:none;stroke:#535461;stroke-width:2;stroke-miterlimit:10;}
	.st2{fill:#6C63FF;}
	.st3{opacity:0.25;enable-background:new    ;}
	.st4{opacity:0.5;fill:#FFFFFF;enable-background:new    ;}
	.st5{opacity:0.7;}
	.st6{fill:url(#SVGID_1_);}
	.st7{opacity:0.2;fill:#FFFFFF;enable-background:new    ;}
	.st8{fill:#535461;}
	.st9{opacity:0.1;fill:#FFFFFF;enable-background:new    ;}
	.st10{opacity:0.07;enable-background:new    ;}
	.st11{opacity:0.2;enable-background:new    ;}
	.st12{fill:url(#SVGID_2_);}
	.st13{fill:#F0898B;}
	.st14{opacity:0.1;enable-background:new    ;}
	.st15{fill:#FDB797;}
	.st16{opacity:0.05;enable-background:new    ;}
	.st17{opacity:0.03;enable-background:new    ;}
	.st18{fill:#252223;}
	.st19{fill:#333333;}
	.st20{opacity:0.3;fill:#6C63FF;enable-background:new    ;}
	.st21{fill:none;stroke:#535461;stroke-width:0.75;stroke-miterlimit:10;}
	.st22{opacity:0.1;fill:#6C63FF;enable-background:new    ;}
	.st23{fill:#BE6F72;}
	.st24{fill:#3F3D56;}
	.st25{fill:#FBBEBE;}
	.st26{fill:#E3E8F4;}
	.st27{fill:#F86D70;}
	.st28{opacity:0.2;}
	.st29{fill:#F2F2F2;}
	.st30{fill:#FFB9B9;}
	.st31{fill:#2F2E41;}
	.st32{fill:#A0616A;}
	.st33{fill:#9F616A;}
	.st34{fill:#FFB8B8;}
	.st35{fill:#575A88;}
	.st36{fill:#8985A8;}
	.st37{fill:none;stroke:#2F2E41;stroke-miterlimit:10;}
	.st38{fill:#D0CDE1;}
	.st39{clip-path:url(#SVGID_4_);fill:#BCBBF2;}
	.st40{clip-path:url(#SVGID_4_);}
	.st41{fill:#2E688C;}
	.st42{fill:#003B45;}
	.st43{fill:#BCBBF2;}
	.st44{fill:#CCCCCC;}
	.st45{fill:url(#SVGID_5_);}
	.st46{fill:#FFFFFF;}
	.st47{fill:none;stroke:#6C63FF;stroke-width:1.9516;stroke-miterlimit:10;}
	.st48{fill:url(#SVGID_6_);}
	.st49{fill:url(#SVGID_7_);}
	.st50{clip-path:url(#SVGID_9_);}
	.st51{fill:url(#SVGID_10_);}
	.st52{clip-path:url(#SVGID_12_);}
	.st53{fill:#BDBDBD;}
	.st54{fill:#FF5252;}
	.st55{fill:#2E688C;stroke:#2E688C;stroke-width:1.9516;stroke-miterlimit:10;}
</style>
<g id="圖層_1">
	<g>
		<title>ethereum</title>
		<path class="st0" d="M287.76,1247.99c-7.12,3.67-14.58,6.84-21.94,10c-27.19,11.48-54.79,23.06-84,27
			c-54.82,7.39-111.44-12.62-165.33-0.17c-45.15,10.42-82.49,42.35-126.6,56.57c-20.51,6.61-41.85,9.2-63.38,9.2h-2.82
			c-2.67-0.03-5.31-0.1-7.94-0.2c-21.83-0.82-43.75-4.05-65.15-8.18c-67.57-13-136.34-36.83-188-80.7
			C-286.98,1233.99,22.87,1191.8,287.76,1247.99z"/>
		<path class="st1" d="M87.92,1251.07c0,0-24.67-83.76,4.63-145.38c12.3-25.87,16.38-54.92,10.7-83c-2.72-13.33-6.65-26.39-11.75-39
			"/>
		<path class="st2" d="M109.69,944.75c0,10.27-18.59,40-18.59,40s-18.59-29.77-18.59-40c-0.24-10.26,7.89-18.78,18.15-19.02
			c10.26-0.24,18.78,7.89,19.02,18.15c0.01,0.29,0.01,0.58,0,0.86H109.69z"/>
		<path class="st2" d="M140.45,1001.61c-5.58,8.62-37.36,23.5-37.36,23.5s0.58-35.09,6.16-43.71c5.79-8.48,17.36-10.65,25.84-4.85
			C143.26,982.14,145.62,993.16,140.45,1001.61L140.45,1001.61z"/>
		<path class="st2" d="M139.1,1098.78c-9.17,4.62-44.11,1.43-44.11,1.43s18.21-30,27.38-34.62c9.07-4.81,20.32-1.35,25.13,7.73
			c4.81,9.07,1.35,20.32-7.73,25.13c-0.22,0.12-0.44,0.23-0.66,0.33H139.1z"/>
		<path class="st2" d="M121.53,1172.07c-8.25,6.1-43.24,8.86-43.24,8.86s12.88-32.64,21.13-38.75c8.21-6.17,19.86-4.52,26.03,3.68
			c6.17,8.21,4.52,19.86-3.68,26.03C121.69,1171.96,121.61,1172.02,121.53,1172.07z"/>
		<path class="st2" d="M64.06,1027.1c7.36,7.15,41.63,14.59,41.63,14.59s-8.4-34.07-15.76-41.23c-7.53-6.98-19.29-6.53-26.27,1.01
			c-6.74,7.28-6.58,18.57,0.37,25.65L64.06,1027.1z"/>
		<path class="st2" d="M44.6,1113.07c9.17,4.62,44.11,1.43,44.11,1.43s-18.21-30-27.38-34.62c-9.07-4.81-20.32-1.35-25.13,7.73
			s-1.35,20.32,7.73,25.13c0.22,0.12,0.44,0.23,0.66,0.33H44.6z"/>
		<path class="st2" d="M37.15,1199.23c8.25,6.1,43.24,8.86,43.24,8.86s-12.88-32.64-21.13-38.75c-8.21-6.17-19.86-4.52-26.03,3.68
			c-6.17,8.21-4.52,19.86,3.68,26.03C36.99,1199.12,37.07,1199.18,37.15,1199.23z"/>
		<path class="st3" d="M109.69,944.75c0,10.27-18.59,40-18.59,40s-18.59-29.77-18.59-40c-0.24-10.26,7.89-18.78,18.15-19.02
			c10.26-0.24,18.78,7.89,19.02,18.15c0.01,0.29,0.01,0.58,0,0.86H109.69z"/>
		<path class="st3" d="M140.45,1001.61c-5.58,8.62-37.36,23.5-37.36,23.5s0.58-35.09,6.16-43.71c5.79-8.48,17.36-10.65,25.84-4.85
			C143.26,982.14,145.62,993.16,140.45,1001.61L140.45,1001.61z"/>
		<path class="st3" d="M139.1,1098.78c-9.17,4.62-44.11,1.43-44.11,1.43s18.21-30,27.38-34.62c9.07-4.81,20.32-1.35,25.13,7.73
			c4.81,9.07,1.35,20.32-7.73,25.13c-0.22,0.12-0.44,0.23-0.66,0.33H139.1z"/>
		<path class="st3" d="M121.53,1172.07c-8.25,6.1-43.24,8.86-43.24,8.86s12.88-32.64,21.13-38.75c8.21-6.17,19.86-4.52,26.03,3.68
			c6.17,8.21,4.52,19.86-3.68,26.03C121.69,1171.96,121.61,1172.02,121.53,1172.07z"/>
		<path class="st3" d="M64.06,1027.1c7.36,7.15,41.63,14.59,41.63,14.59s-8.4-34.07-15.76-41.23c-7.53-6.98-19.29-6.53-26.27,1.01
			c-6.74,7.28-6.58,18.57,0.37,25.65L64.06,1027.1z"/>
		<path class="st3" d="M44.6,1113.07c9.17,4.62,44.11,1.43,44.11,1.43s-18.21-30-27.38-34.62c-9.07-4.81-20.32-1.35-25.13,7.73
			s-1.35,20.32,7.73,25.13c0.22,0.12,0.44,0.23,0.66,0.33H44.6z"/>
		<path class="st3" d="M37.15,1199.23c8.25,6.1,43.24,8.86,43.24,8.86s-12.88-32.64-21.13-38.75c-8.21-6.17-19.86-4.52-26.03,3.68
			c-6.17,8.21-4.52,19.86,3.68,26.03C36.99,1199.12,37.07,1199.18,37.15,1199.23z"/>
		<path class="st1" d="M-341.03,1280.44c0,0-24.67-83.75,4.63-145.41c12.3-25.87,16.38-54.92,10.7-83
			c-2.72-13.33-6.65-26.39-11.75-39"/>
		<path class="st2" d="M-319.22,974.12c0,10.27-18.59,40-18.59,40s-18.59-29.77-18.59-40c-0.24-10.26,7.89-18.78,18.15-19.02
			c10.26-0.24,18.78,7.89,19.02,18.15C-319.23,973.55-319.23,973.84-319.22,974.12L-319.22,974.12z"/>
		<path class="st2" d="M-288.5,1030.98c-5.58,8.62-37.36,23.5-37.36,23.5s0.58-35.09,6.16-43.71c5.36-8.76,16.81-11.51,25.56-6.15
			c8.76,5.36,11.51,16.81,6.15,25.56c-0.16,0.27-0.33,0.53-0.51,0.78L-288.5,1030.98z"/>
		<path class="st2" d="M-289.84,1128.15c-9.17,4.62-44.11,1.43-44.11,1.43s18.21-30,27.38-34.62c9.26-4.44,20.36-0.53,24.8,8.72
			C-277.46,1112.68-281.02,1123.48-289.84,1128.15L-289.84,1128.15z"/>
		<path class="st2" d="M-307.41,1201.44c-8.25,6.1-43.24,8.86-43.24,8.86s12.88-32.64,21.13-38.75c8.3-6.04,19.93-4.21,25.97,4.1
			C-297.58,1183.86-299.3,1195.34-307.41,1201.44L-307.41,1201.44z"/>
		<path class="st2" d="M-364.89,1056.47c7.36,7.15,41.67,14.56,41.67,14.56s-8.4-34.07-15.76-41.23
			c-7.53-6.98-19.29-6.52-26.27,1.01c-6.74,7.28-6.58,18.57,0.37,25.65L-364.89,1056.47z"/>
		<path class="st2" d="M-384.31,1142.44c9.17,4.62,44.11,1.43,44.11,1.43s-18.21-30-27.38-34.62c-9.28-4.39-20.36-0.42-24.75,8.86
			C-396.57,1127.07-393.04,1137.76-384.31,1142.44z"/>
		<path class="st2" d="M-391.8,1228.6c8.25,6.1,43.24,8.86,43.24,8.86s-12.88-32.64-21.13-38.77c-8.3-6.04-19.93-4.21-25.97,4.1
			c-5.97,8.21-4.25,19.69,3.86,25.79V1228.6z"/>
		<path class="st3" d="M-319.22,974.12c0,10.27-18.59,40-18.59,40s-18.59-29.77-18.59-40c-0.24-10.26,7.89-18.78,18.15-19.02
			c10.26-0.24,18.78,7.89,19.02,18.15C-319.23,973.55-319.23,973.84-319.22,974.12L-319.22,974.12z"/>
		<path class="st3" d="M-288.5,1030.98c-5.58,8.62-37.36,23.5-37.36,23.5s0.58-35.09,6.16-43.71c5.36-8.76,16.81-11.51,25.56-6.15
			c8.76,5.36,11.51,16.81,6.15,25.56c-0.16,0.27-0.33,0.53-0.51,0.78L-288.5,1030.98z"/>
		<path class="st3" d="M-289.84,1128.15c-9.17,4.62-44.11,1.43-44.11,1.43s18.21-30,27.38-34.62c9.26-4.44,20.36-0.53,24.8,8.72
			C-277.46,1112.68-281.02,1123.48-289.84,1128.15L-289.84,1128.15z"/>
		<path class="st3" d="M-307.41,1201.44c-8.25,6.1-43.24,8.86-43.24,8.86s12.88-32.64,21.13-38.75c8.3-6.04,19.93-4.21,25.97,4.1
			C-297.58,1183.86-299.3,1195.34-307.41,1201.44L-307.41,1201.44z"/>
		<path class="st3" d="M-364.89,1056.47c7.36,7.15,41.67,14.56,41.67,14.56s-8.4-34.07-15.76-41.23
			c-7.53-6.98-19.29-6.52-26.27,1.01c-6.74,7.28-6.58,18.57,0.37,25.65L-364.89,1056.47z"/>
		<path class="st3" d="M-384.31,1142.44c9.17,4.62,44.11,1.43,44.11,1.43s-18.21-30-27.38-34.62c-9.28-4.39-20.36-0.42-24.75,8.86
			C-396.57,1127.07-393.04,1137.76-384.31,1142.44z"/>
		<path class="st3" d="M-391.8,1228.6c8.25,6.1,43.24,8.86,43.24,8.86s-12.88-32.64-21.13-38.77c-8.3-6.04-19.93-4.21-25.97,4.1
			c-5.97,8.21-4.25,19.69,3.86,25.79V1228.6z"/>
		<path class="st1" d="M-39.37,1225.55c0,0-13.36-45.35,2.5-78.72c6.74-13.96,8.77-29.72,5.79-44.93
			c-1.47-7.21-3.6-14.27-6.36-21.09"/>
		<path class="st2" d="M-27.57,1059.69c0,5.56-10.06,21.67-10.06,21.67s-10.06-16.09-10.06-21.67c0-5.56,4.51-10.06,10.07-10.06
			s10.07,4.51,10.07,10.06l0,0H-27.57z"/>
		<path class="st2" d="M-10.93,1090.5c-3,4.66-20.23,12.72-20.23,12.72s0.31-19,3.33-23.66c3.02-4.66,9.25-6,13.92-2.97
			C-9.26,1079.61-7.92,1085.84-10.93,1090.5L-10.93,1090.5z"/>
		<path class="st2" d="M-11.66,1143.1c-5,2.5-23.88,0.77-23.88,0.77s9.86-16.24,14.82-18.74c4.97-2.5,11.03-0.5,13.53,4.47
			c2.5,4.97,0.5,11.03-4.47,13.53l0,0V1143.1z"/>
		<path class="st2" d="M-21.17,1182.78c-4.47,3.3-23.41,4.8-23.41,4.8s7-17.67,11.44-21c4.47-3.31,10.78-2.38,14.09,2.09
			c3.31,4.47,2.38,10.78-2.09,14.09L-21.17,1182.78z"/>
		<path class="st2" d="M-52.31,1104.3c4,3.87,22.56,7.88,22.56,7.88s-4.56-18.49-8.56-22.32c-4.09-3.76-10.46-3.49-14.21,0.61
			C-56.14,1094.41-56.05,1100.48-52.31,1104.3z"/>
		<path class="st2" d="M-62.82,1150.84c5,2.5,23.88,0.77,23.88,0.77s-9.86-16.24-14.82-18.74c-4.97-2.5-11.03-0.5-13.53,4.47
			c-2.5,4.97-0.5,11.03,4.47,13.53V1150.84z"/>
		<path class="st2" d="M-66.86,1197.49c4.47,3.3,23.41,4.8,23.41,4.8s-7-17.67-11.44-21c-4.47-3.31-10.78-2.38-14.09,2.09
			c-3.31,4.47-2.38,10.78,2.09,14.09L-66.86,1197.49z"/>
		<path class="st4" d="M-27.57,1059.69c0,5.56-10.06,21.67-10.06,21.67s-10.06-16.09-10.06-21.67c0-5.56,4.51-10.06,10.07-10.06
			s10.07,4.51,10.07,10.06l0,0H-27.57z"/>
		<path class="st4" d="M-10.93,1090.5c-3,4.66-20.23,12.72-20.23,12.72s0.31-19,3.33-23.66c3.02-4.66,9.25-6,13.92-2.97
			C-9.26,1079.61-7.92,1085.84-10.93,1090.5L-10.93,1090.5z"/>
		<path class="st4" d="M-11.66,1143.1c-5,2.5-23.88,0.77-23.88,0.77s9.86-16.24,14.82-18.74c4.97-2.5,11.03-0.5,13.53,4.47
			c2.5,4.97,0.5,11.03-4.47,13.53l0,0V1143.1z"/>
		<path class="st4" d="M-21.17,1182.78c-4.47,3.3-23.41,4.8-23.41,4.8s7-17.67,11.44-21c4.47-3.31,10.78-2.38,14.09,2.09
			c3.31,4.47,2.38,10.78-2.09,14.09L-21.17,1182.78z"/>
		<path class="st4" d="M-52.31,1104.3c4,3.87,22.56,7.88,22.56,7.88s-4.56-18.49-8.56-22.32c-4.09-3.76-10.46-3.49-14.21,0.61
			C-56.14,1094.41-56.05,1100.48-52.31,1104.3z"/>
		<path class="st4" d="M-62.82,1150.84c5,2.5,23.88,0.77,23.88,0.77s-9.86-16.24-14.82-18.74c-4.97-2.5-11.03-0.5-13.53,4.47
			c-2.5,4.97-0.5,11.03,4.47,13.53V1150.84z"/>
		<path class="st4" d="M-66.86,1197.49c4.47,3.3,23.41,4.8,23.41,4.8s-7-17.67-11.44-21c-4.47-3.31-10.78-2.38-14.09,2.09
			c-3.31,4.47-2.38,10.78,2.09,14.09L-66.86,1197.49z"/>
		<polyline class="st1" points="-131.42,666.59 -131.42,778.78 -79.5,712.02 		"/>
		<line class="st1" x1="-184.27" y1="701.82" x2="-131.42" y2="778.78"/>
		<g class="st5">
			
				<linearGradient id="SVGID_1_" gradientUnits="userSpaceOnUse" x1="-112.2192" y1="-47.7838" x2="-112.2192" y2="104.3774" gradientTransform="matrix(1 0 0 -1 -19.84 669.25)">
				<stop  offset="0" style="stop-color:#808080;stop-opacity:0.25"/>
				<stop  offset="0.54" style="stop-color:#808080;stop-opacity:0.12"/>
				<stop  offset="1" style="stop-color:#808080;stop-opacity:0.1"/>
			</linearGradient>
			<path class="st6" d="M-35.92,653.4c-0.02-23.07-18.73-41.77-41.81-41.75c-4.37,0-8.71,0.69-12.87,2.04
				c0.34-2.35,0.52-4.72,0.53-7.09c-0.02-23.06-18.73-41.75-41.79-41.73c-21.88,0.02-40.03,16.91-41.62,38.73
				c-21.94-7.14-45.52,4.86-52.66,26.8c-1.36,4.17-2.05,8.53-2.05,12.91c0,21,15.43,50.75,35.55,56l3.13,1.79l-1.7,5.82h10.06
				l-2.16-5.81l3.11-1.78c15.54-4.08,28.29-22.8,33.28-40.76c2.73,1.82,5.74,3.19,8.91,4.05l3.13,1.79l-1.7,5.82h10.06l-2.19-5.83
				l3.11-1.78c2.32-0.62,4.55-1.52,6.64-2.69c2.69,20.15,17,44.74,35.09,49.49l3.13,1.79l-1.7,5.82h10.06l-2.19-5.83l3.11-1.78
				C-51.31,704.15-35.92,674.35-35.92,653.4z"/>
		</g>
		<polygon class="st2" points="-179.56,704.81 -189.29,704.81 -187.59,698.97 -181.75,698.97 		"/>
		<path class="st2" d="M-144.31,643.23c0,22.32-18.09,55-40.41,55s-40.41-32.7-40.41-55c0.35-22.32,18.73-40.12,41.04-39.77
			c21.82,0.34,39.43,17.95,39.77,39.77H-144.31z"/>
		<path class="st7" d="M-144.31,643.23c0,22.32-18.09,55-40.41,55s-40.41-32.7-40.41-55c0.35-22.32,18.73-40.12,41.04-39.77
			c21.82,0.34,39.43,17.95,39.77,39.77H-144.31z"/>
		<polygon class="st8" points="-181.75,699.22 -187.59,699.22 -191,697.27 -178.34,697.27 		"/>
		<path class="st9" d="M-199.31,611.82c0,0-17,9.25-19.47,27.75"/>
		<polygon class="st2" points="-126.72,669.29 -136.45,669.29 -134.75,663.45 -128.91,663.45 		"/>
		<polygon class="st10" points="-126.72,669.29 -136.45,669.29 -134.75,663.45 -128.91,663.45 		"/>
		<path class="st2" d="M-91.42,607.69c0,22.32-18.09,55-40.41,55s-40.41-32.7-40.41-55c0.35-22.32,18.73-40.12,41.04-39.77
			c21.82,0.34,39.42,17.95,39.77,39.77H-91.42z"/>
		<polygon class="st8" points="-128.91,663.69 -134.75,663.69 -138.16,661.75 -125.5,661.75 		"/>
		<path class="st9" d="M-146.44,576.3c0,0-17,9.25-19.47,27.75"/>
		<polygon class="st2" points="-74.32,714.58 -84.06,714.58 -82.35,708.74 -76.51,708.74 		"/>
		<path class="st2" d="M-39.03,652.99c0,22.32-18.09,55-40.41,55s-40.41-32.7-40.41-55c0.35-22.32,18.73-40.12,41.04-39.77
			C-56.99,613.57-39.39,631.17-39.03,652.99L-39.03,652.99z"/>
		<path class="st7" d="M-39.03,652.99c0,22.32-18.09,55-40.41,55s-40.41-32.7-40.41-55c0.35-22.32,18.73-40.12,41.04-39.77
			C-56.99,613.57-39.39,631.17-39.03,652.99L-39.03,652.99z"/>
		<polygon class="st8" points="-76.51,708.99 -82.35,708.99 -85.76,707.04 -73.1,707.04 		"/>
		<path class="st9" d="M-94.04,621.59c0,0-17,9.25-19.47,27.75"/>
		<path class="st11" d="M-64.67,660.53l-13.9,8.49l-13.91-8.49l13.91-23.84L-64.67,660.53z M-78.57,671.75l-13.91-8.49l13.91,20.26
			l13.91-20.26L-78.57,671.75z"/>
		<path class="st11" d="M-117.53,612.32l-13.9,8.49l-13.88-8.49l13.91-23.86L-117.53,612.32z M-131.43,623.54l-13.88-8.5
			l13.91,20.26l13.91-20.26l-13.91,8.49L-131.43,623.54z"/>
		<path class="st11" d="M-172.23,651.26l-13.9,8.49l-13.91-8.49l13.91-23.86L-172.23,651.26z M-186.13,662.48l-13.91-8.49
			l13.91,20.26l13.91-20.26L-186.13,662.48z"/>
		
			<linearGradient id="SVGID_2_" gradientUnits="userSpaceOnUse" x1="-146.9701" y1="-644.3692" x2="-146.9701" y2="-94.6238" gradientTransform="matrix(1 0 0 -1 -19.84 669.25)">
			<stop  offset="0" style="stop-color:#808080;stop-opacity:0.25"/>
			<stop  offset="0.54" style="stop-color:#808080;stop-opacity:0.12"/>
			<stop  offset="1" style="stop-color:#808080;stop-opacity:0.1"/>
		</linearGradient>
		<path class="st12" d="M-81.4,1304.79c-7-1.6-12.75-10-12.75-10l-0.57,0.09l6.9-91.61c0,0,7.32-13.31,0-32.62
			c-1.46-3.84-2.83-7.87-4.11-11.86l1.11-0.46l-0.22-1.24l0.22-0.09c0,0-21.29-116.68-21.49-154.66c0-4.59,0.41-7.87,1.23-9.44
			c3.36-6.41,9.38-15.63,9.13-27.14c0.22-11.24-5.41-24.75-25.6-40c1.61-12.8,5.58-39.75,12.48-58c0,0,2.66-12,0-30l-4-50.59
			c0,0,0.67-23.3-14-23.3s0.67,26,0.67,26l-1.33,65.9c0,0-0.44,3.41-1.19,8.77c-3.53-4-8.21-6.81-13.39-8.05
			c0.21-2.41-0.14-4.83-1-7.09c-0.3,0.19-0.61,0.36-0.92,0.53c-0.12-0.4-0.26-0.8-0.41-1.19c-3.12,1.94-6.72,2.97-10.39,3
			c-3.36,0-6.66-0.81-10-1.06c-5.67-0.4-11.33,0.86-16.29,3.63c-0.69-0.07-1.39-0.16-2.09-0.26c-13.1-2-22.21,14.7-35.33,21.53
			c-9.2,4.79-12.92,16-14.36,26.26s-1.61,21.19-7,30.09c-3.66,6.08-11.85,9.59-13.39,16.51c-3,13.5,0.33,10.17,3.66,28.14
			c1.1,5.94,2.53,8.31,3.93,14.19c1.52,6.34-0.16,13-0.39,19.48c-0.58,17.07,10.4,33.55,25.65,40.89c3.84,2.03,7.98,3.43,12.27,4.15
			c-0.69,7.63-3.87,14.83-9.05,20.47c0.51,0.17,1,0.31,1.54,0.43l-0.21,0.23c8.8,2.88,18.52-0.45,26.28-5.51
			c2.26-1.48,4.42-3.11,6.47-4.88c-1.2,2.83-2.18,5.74-2.92,8.72l-0.06,0.06l-1.6-0.39c0,0,0.46,0.26,1.29,0.68
			c-4.42,4.1-47.79,44.13-64.46,51.78c-3.67,0.08-15.67,21.49,15.57,29.09c24.63,6,30-2.66,42.6,12.65c3.54,4.1,8.1,7.19,13.22,8.95
			c-3.6,11.48-9.29,25.89-15.89,29c-11.32,5.33-30,33.28-32,43.27l-16.72,35.63h-0.31l-3.39,3.63c-2.3,2.46-2.16,6.31,0.3,8.61
			c0.55,0.51,1.19,0.92,1.89,1.2c9.66,3.85,25.38,9.19,32.49,6.53c10.65-4-6-8-6-8c-6.66-2.66-10-11.32-10-11.32l53.58-60.91
			c0,0,21-8.14,25.29-25.29c0.27-1.09,3.43-9.5,7.07-19.07c3.4-0.25,6.63-0.58,9.57-0.9c4.76-0.53,10.4-2.41,16.12-4.89
			c3.47,11.73,6.45,24.45,5.18,30.18c-2.66,12-6,27.29,0,47.26l10.32,44.27h0.94l-1.06,0.16l-2.75,4.07
			c-1.9,2.8-1.16,6.61,1.64,8.51c0.64,0.43,1.35,0.74,2.1,0.91c10.15,2.3,26.43,5.11,33,1.38
			C-64.31,1306.15-81.4,1304.79-81.4,1304.79z M-169.15,978.09c-0.22-4.83-0.15-9.66,0.21-14.48c0.87,8.77,2.39,17.46,4.56,26
			c2.9,6.13,4.47,12.81,4.6,19.59c-0.08,9.48-3.6,18.6-9.92,25.67l-0.06,0.06C-164.82,1016.55-168.31,997.1-169.15,978.09
			L-169.15,978.09z"/>
		<path class="st13" d="M-163.79,937.27c-5.74,9.71-4.7,27.46,3.27,59.92c0,0,9.11,24.73-9.11,45.55c-18.22,20.82-22.12,39-22.12,39
			s-57.2,35.44-64.42,51.4c10.74-23.75-24.52,10.25,16.27,20.17c24.07,5.86,29.28-2.6,41.64,12.36s40.34,13,57.91,11.06
			c17.57-1.94,47.5-22.77,47.5-22.77s-33.18-139.89-26-153.56c6.77-12.93,31.12-37.5-16.58-69.32
			C-144.96,924.78-157.98,927.44-163.79,937.27z"/>
		<path class="st14" d="M-163.79,937.27c-5.74,9.71-4.7,27.46,3.27,59.92c0,0,9.11,24.73-9.11,45.55c-18.22,20.82-22.12,39-22.12,39
			s-57.57,35.28-64.42,51.4c10.09-23.75-24.52,10.25,16.27,20.17c24.07,5.86,29.28-2.6,41.64,12.36s40.34,13,57.91,11.06
			c17.57-1.94,47.5-22.77,47.5-22.77s-33.18-139.89-26-153.56c6.77-12.93,31.12-37.5-16.58-69.32
			C-144.96,924.78-157.98,927.44-163.79,937.27z"/>
		<path class="st15" d="M-181.31,1159.85c0,0-8.46,37.74-19.52,42.94c-11.06,5.2-29.28,32.53-31.23,42.29l-16.59,35.46h15
			l52.34-59.52c0,0,20.53-8,24.73-24.73c0.65-2.6,18.22-48.15,18.22-48.15L-181.31,1159.85z"/>
		<path class="st15" d="M-132.55,1148.14c0,0,15.62,41.64,13,53.36s-5.86,26.68,0,46.2l10.09,43.27l13-0.65l6.83-90.77
			c0,0,7.16-13,0-31.88s-12.36-42.29-12.36-42.29L-132.55,1148.14z"/>
		<path class="st15" d="M-129.31,935.37c0,0,3.9-39.69,13-63.77c0,0,2.6-11.71,0-29.28l-3.9-49.45c0,0,0.65-22.77-13.66-22.77
			s0.65,25.38,0.65,25.38l-1.3,64.42c0,0-8.46,65.72-14.31,72.88L-129.31,935.37z"/>
		<path class="st16" d="M-129.31,935.37c0,0,3.9-39.69,13-63.77c0,0,2.6-11.71,0-29.28l-3.9-49.45c0,0,0.65-22.77-13.66-22.77
			s0.65,25.38,0.65,25.38l-1.3,64.42c0,0-8.46,65.72-14.31,72.88L-129.31,935.37z"/>
		<path class="st15" d="M-132.55,888.52c0,0-2.6,31.23,5.21,41.64c0,0-18.22-9.76-33.83-1.3c0,0,9.76-26.68,6.51-38.39
			L-132.55,888.52z"/>
		<path class="st14" d="M-163.79,930.76c-5.74,9.71-8.61,27.46-0.64,59.92c0,0,13,24.73-5.21,45.55c-18.21,20.82-22.12,39-22.12,39
			s-48.15,44.9-64.42,51.4c0,0-7.81,14.31,16.27,20.17s29.28-2.6,41.64,12.36s40.34,13,57.91,11.06
			c17.57-1.94,47.82-14.64,47.82-14.64s-27-148-19.85-161.69c6.77-12.93,24.61-37.5-23.08-69.32
			C-144.96,918.27-157.98,920.94-163.79,930.76z"/>
		<path class="st13" d="M-163.79,929.46c-5.74,9.71-8.61,27.46-0.64,59.92c0,0,13,24.73-5.21,45.55s-22.12,39-22.12,39
			s-48.15,44.9-64.42,51.4c0,0-7.81,14.31,16.27,20.17s29.28-2.6,41.64,12.36s40.34,13,57.91,11.06
			c17.57-1.94,47.82-14.64,47.82-14.64s-27-148-19.85-161.69c6.77-12.93,24.61-37.5-23.08-69.32
			C-144.96,916.97-157.98,919.63-163.79,929.46z"/>
		<circle class="st15" cx="-144.26" cy="945.14" r="22.12"/>
		<path class="st14" d="M-152.07,954.24l-4.55,68.32l15,72.88c0,0-13.66,48.15,0,43.59c13.66-4.56,14.31-44.24,14.31-44.24
			l-9.14-76.1c0,0,11.06-57.26,9.11-69C-129.29,937.95-152.07,954.24-152.07,954.24z"/>
		<path class="st15" d="M-152.07,952.94l-4.55,68.32l15,72.88c0,0-13.69,48.15-0.04,43.55s14.35-44.2,14.35-44.2l-9.11-76.13
			c0,0,11.06-57.26,9.11-69C-129.26,936.62-152.07,952.94-152.07,952.94z"/>
		<path class="st17" d="M-155,909.69c9.21,0,17.59-2.63,22-10c0.06-5.75,0.41-9.88,0.41-9.88l-22.12,2c1.4,5,0.63,9.32-1,16.59
			C-155.24,908.39-155.41,909.69-155,909.69z"/>
		<circle class="st15" cx="-154.67" cy="885.28" r="25.38"/>
		<path class="st17" d="M-127.02,983.2c0,0,2,9.76,14.64,10.74"/>
		<path class="st17" d="M-194.36,1157.9c-12.36-15-17.57-6.51-41.64-12.36s-16.31-20.17-16.31-20.17
			c16.27-6.51,64.42-51.4,64.42-51.4s3.9-18.22,22.12-39s5.21-45.55,5.21-45.55c-8-32.45-5.11-50.21,0.64-59.92
			c3.21-5.4,8.81-8.93,15.07-9.49c-7.64-0.81-15.06,2.9-19,9.49c-5.74,9.71-8.61,27.46-0.64,59.92c0,0,13,24.73-5.21,45.55
			c-18.21,20.82-22.12,39-22.12,39s-48.15,44.9-64.42,51.4c0,0-7.81,14.31,16.27,20.17s29.28-2.6,41.64,12.36
			c8.55,10.35,24.56,12.61,39.44,12.37C-172.53,1170.05-186.56,1167.35-194.36,1157.9z"/>
		<path class="st14" d="M-145.46,914.69c-0.82-1.82-2.57-3-3.89-4.51c-4.29-4.87-3.55-12.17-3.8-18.66c-0.25-6.2-1.64-12.3-4.09-18
			c1.54-0.76,2.93-1.78,4.13-3c4.23-4.51,5.53-11.04,3.33-16.83c-3.05,1.89-6.57,2.91-10.16,2.94c-3.28,0-6.51-0.79-9.79-1
			c-5.54-0.39-11.08,0.84-15.93,3.55c-0.68-0.07-1.36-0.15-2-0.26c-12.81-1.94-21.71,14.37-34.53,21.05
			c-9,4.69-12.63,15.63-14,25.67c-1.37,10.04-1.58,20.72-6.8,29.41c-3.58,5.94-11.59,9.37-13.09,16.14
			c-2.93,13.2,0.32,9.94,3.57,27.51c1.08,5.81,2.47,8.13,3.84,13.87c1.48,6.2-0.16,12.67-0.38,19
			c-0.71,20.92,16.34,40.95,37.11,43.58c-0.59,7.62-3.72,14.83-8.89,20.46c8.6,2.82,18.11-0.44,25.69-5.39
			c12.28-8.12,21.24-20.37,25.26-34.53c5.11-18.14,1.59-37.42,0.78-56.25s2.16-39.77,16.48-52
			C-148.63,924-143.31,919.5-145.46,914.69z"/>
		<path class="st18" d="M-146.76,914.06c-0.82-1.82-2.57-3-3.89-4.51c-4.29-4.87-3.55-12.17-3.8-18.66c-0.25-6.2-1.64-12.3-4.09-18
			c1.54-0.76,2.93-1.78,4.13-3c4.24-4.52,5.53-11.06,3.33-16.85c-3.05,1.89-6.57,2.91-10.16,2.94c-3.28,0-6.51-0.79-9.79-1
			c-5.54-0.39-11.08,0.84-15.93,3.55c-0.68-0.07-1.36-0.15-2-0.26c-12.81-1.94-21.71,14.37-34.53,21.05
			c-9,4.69-12.63,15.63-14,25.67c-1.37,10.04-1.58,20.72-6.8,29.41c-3.58,5.94-11.59,9.37-13.09,16.14
			c-2.93,13.2,0.32,9.94,3.57,27.51c1.08,5.81,2.47,8.13,3.84,13.87c1.48,6.2-0.16,12.67-0.38,19
			c-0.71,20.92,16.34,40.95,37.11,43.58c-0.59,7.62-3.72,14.83-8.89,20.46c8.6,2.82,18.11-0.44,25.69-5.39
			c12.31-8.1,21.3-20.34,25.35-34.51c5.11-18.14,1.59-37.42,0.78-56.25s2.16-39.77,16.48-52
			C-149.93,923.35-144.61,918.85-146.76,914.06z"/>
		<path class="st19" d="M-233.73,1280.55c0,0,3.25,8.46,9.76,11.06c0,0,16.27,3.9,5.86,7.81c-7,2.61-22.31-2.62-31.76-6.38
			c-3.06-1.27-4.52-4.77-3.25-7.84c0.27-0.64,0.64-1.24,1.11-1.75l3.31-3.55L-233.73,1280.55z"/>
		<path class="st19" d="M-95.79,1289.01c0,0,5.63,8.23,12.46,9.79c0,0,16.68,1.33,7,6.8c-6.44,3.64-22.36,0.9-32.28-1.35
			c-3.23-0.73-5.26-3.94-4.53-7.18c0.16-0.73,0.46-1.42,0.88-2.04l2.69-4L-95.79,1289.01z"/>
		<path class="st17" d="M-193.39,1073.69c0,0,15,8.46,31.88,7.81"/>
		<polygon class="st20" points="-223.37,828.48 -227.52,828.48 -226.8,825.98 -224.3,825.98 		"/>
		<path class="st20" d="M-208.31,802.19c0,9.5-7.72,23.5-17.24,23.5s-17.24-14-17.24-23.47c0-9.52,7.72-17.24,17.24-17.24
			c9.52,0,17.24,7.72,17.24,17.24l0,0L-208.31,802.19z"/>
		<polygon class="st8" points="-224.3,826.09 -226.8,826.09 -228.25,825.26 -222.85,825.26 		"/>
		<path class="st9" d="M-231.79,788.8c0,0-7.27,3.95-8.31,11.84"/>
		<path class="st11" d="M-219.26,805.41l-5.93,3.62l-5.93-3.62l5.93-10.18L-219.26,805.41z M-225.19,810.2l-5.93-3.62l5.93,8.64
			l5.93-8.64L-225.19,810.2z"/>
		<path class="st21" d="M-225.12,825.62c-2.23,2.46-3.22,5.78-2.72,9.06c0.91,5.44,5.44,10.88,4.53,17.22
			c-0.91,6.34-3.63,10-3.63,12.69"/>
		<polygon class="st20" points="224.79,883.07 220.63,883.07 221.36,880.57 223.85,880.57 		"/>
		<path class="st20" d="M239.84,856.78c0,9.52-7.72,23.47-17.24,23.47s-17.24-14-17.24-23.47c-0.01-9.52,7.7-17.25,17.22-17.26
			c9.52-0.01,17.25,7.7,17.26,17.22C239.84,856.76,239.84,856.77,239.84,856.78z"/>
		<polygon class="st8" points="223.85,880.68 221.36,880.68 219.91,879.85 225.31,879.85 		"/>
		<path class="st9" d="M216.37,843.39c0,0-7.27,3.95-8.31,11.84"/>
		<path class="st11" d="M228.9,860l-5.93,3.62l-5.93-3.62l5.93-10.18L228.9,860z M222.97,864.79l-5.93-3.62l5.93,8.64l5.93-8.64
			L222.97,864.79z"/>
		<path class="st21" d="M223.04,880.21c-2.23,2.46-3.22,5.78-2.72,9.06c0.91,5.44,5.44,10.88,4.53,17.22
			c-0.91,6.34-3.63,10-3.63,12.69"/>
		<polygon class="st20" points="302.27,853.32 298.2,852.46 299.43,850.17 301.87,850.69 		"/>
		<path class="st20" d="M322.44,830.69c-2,9.32-12.41,21.37-21.73,19.4c-9.32-1.97-14-17.22-12-26.53
			c2.12-9.28,11.37-15.09,20.65-12.96C318.42,812.67,324.21,821.56,322.44,830.69z"/>
		<polygon class="st8" points="301.85,850.79 299.41,850.28 298.16,849.16 303.44,850.28 		"/>
		<path class="st9" d="M302.25,812.76c0,0-7.93,2.36-10.58,9.86"/>
		<path class="st11" d="M311.07,831.61l-6.55,2.32l-5.06-4.77l7.91-8.73L311.07,831.61z M304.28,835.07l-5.06-4.77l4,9.69l7.6-7.23
			l-6.56,2.32L304.28,835.07z"/>
		<path class="st21" d="M301.15,850.16c-2.69,1.94-4.35,4.99-4.54,8.3c-0.24,5.51,3.07,11.77,0.87,17.79s-5.61,9-6.17,11.66"/>
	</g>
	<g>
		<title>having fun</title>
		<path class="st22" d="M-411.38,297.13c-11.39,27.39-35.22,52.13-60.8,75.56c-22.49,20.6-46.54,40.51-72.16,59.72
			c-7.1,5.33-14.31,10.6-21.64,15.8l-5.09,3.59c-4.51,3.19-9.1,6.36-13.77,9.49l-0.56,0.38c-4.53,3.08-9.09,6.13-13.7,9.15
			c-15.07,9.9-31,19.73-48.61,27.87c-6,2.78-12.19,5.37-18.6,7.69c-3.47,1.26-7.01,2.44-10.62,3.54c-5.92,1.8-12,3.37-18.35,4.66
			c-1.06,0.22-2.13,0.43-3.2,0.63c-6.5,1.22-13.08,2.11-19.73,2.72c-24.37,2.23-49.54,0.6-73.95-3.22
			c-12.2-1.91-24.21-4.37-35.83-7.17c-1.43-0.34-2.85-0.69-4.28-1c-39.57-9.9-76.72-23.34-116.57-32.79
			c-13.73-3.26-27.73-6.03-42-8.3c-6.96-1.11-13.96-2.11-21-3c-16.57-2.06-33.35-3.44-50.2-4.14c-22.72-1-46.18-0.57-67.8,3.4
			c-2.88,0.53-5.72,1.12-8.53,1.78c-3.56,0.83-7.05,1.78-10.48,2.85c-9.24,2.98-18.23,6.69-26.89,11.07
			c-1.71,0.84-3.4,1.69-5.09,2.55l0,0c-5.3,2.7-10.53,5.46-15.84,8.14c-9.56,5-19.5,9.22-29.74,12.62
			c-5.61,1.77-11.31,3.23-17.08,4.36c-15.27,3.06-31.52,4.27-47.84,4.35c-7.87,0-15.75-0.17-23.54-0.58h-0.24
			c-2.66-0.14-5.33-0.3-8-0.5c-12.16-0.83-24.28-2.11-36.22-3.86c-40.91-6-79.71-17.34-110.92-34.64
			c-42.39-23.48-69.31-58.49-65.27-93.47c2.9-25.2,20.91-48.6,38-71.51c31.79-42.66,61.57-86.29,77.24-132.28
			c12.71-37.33,16.5-76.8,45.75-110.35c9.37-10.74,21.35-20.54,35.3-29.13c10.43-6.38,21.36-11.91,32.68-16.52
			c12.8-5.24,25.96-9.54,39.39-12.85c11.64-2.89,23.43-5.1,35.32-6.64c6.46-0.84,13-1.49,19.58-1.93
			c5.07-0.35,10.16-0.58,15.27-0.67h0.79c3.13-0.06,6.25-0.06,9.38,0c22.8,0.35,45.53,2.49,68,6.39c14.06,2.35,28,5.23,41.65,8.4
			c8.15,1.89,16.22,3.86,24.22,5.93c2.44,0.63,4.88,1.27,7.29,1.92c56.92,15.25,107,36.31,161.84,53.59
			c0.28,0.09,0.55,0.18,0.83,0.25l0,0c11.26,3.46,22.68,6.33,34.24,8.6c8.49,1.7,17.17,3.17,26,4.46c13.52,2,27.33,3.58,41.24,4.94
			l3.07,0.3c20.41,2,41,3.49,61,5.23c7.1,0.62,14.14,1.26,21.08,2c4.4,0.44,8.76,0.91,13.08,1.4c3.1,0.36,6.21,0.72,9.32,1.1
			s6.4,0.78,9.6,1.19c2.08,0.26,4.15,0.53,6.23,0.82c12.6,1.67,25.17,3.54,37.6,5.68c7.56,1.3,15.08,2.7,22.51,4.21
			c5.38,1.09,10.71,2.25,16,3.46c3.92,0.89,7.81,1.82,11.66,2.8c31.31,7.87,60.61,18.19,85.86,32.12
			C-418.93,185.38-389.59,244.75-411.38,297.13z"/>
		<circle class="st22" cx="-1290.43" cy="-125.17" r="21.63"/>
		<circle class="st22" cx="-848.32" cy="-172.31" r="21.63"/>
		<circle class="st22" cx="-586.17" cy="-123.87" r="21.63"/>
		<circle class="st22" cx="-1503.17" cy="-72.84" r="36.25"/>
		<circle class="st22" cx="-1468.42" cy="106.16" r="36.25"/>
		<circle class="st22" cx="-495.5" cy="40.27" r="36.25"/>
		<path class="st23" d="M-1185.07,45.41c0.18,3.04,0,6.1-0.53,9.1c-2,9.29-10.46,15.67-18.65,20.51
			c-8.19,4.84-17.19,9.42-22.06,17.59c-5.87,9.87-4,23.14,2.89,32.36s17.81,14.71,29.05,17c20.5,4.23,42.95-1.71,58.32-15.91
			s23.08-36.39,19.31-57c-8.34,1.17-15.77-6.19-18.47-14.17c-2.7-7.98-2.14-16.63-3.19-25c-0.08-1.42-0.5-2.79-1.24-4
			c-1.17-1.62-3.24-2.28-5.17-2.81c-9.64-2.65-25.86-8.45-35.85-6.23C-1189.66,18.91-1185.22,37.85-1185.07,45.41z"/>
		<path class="st14" d="M-1185.07,45.41c0.18,3.04,0,6.1-0.53,9.1c-2,9.29-10.46,15.67-18.65,20.51
			c-8.19,4.84-17.19,9.42-22.06,17.59c-5.87,9.87-4,23.14,2.89,32.36s17.81,14.71,29.05,17c20.5,4.23,42.95-1.71,58.32-15.91
			s23.08-36.39,19.31-57c-8.34,1.17-15.77-6.19-18.47-14.17c-2.7-7.98-2.14-16.63-3.19-25c-0.08-1.42-0.5-2.79-1.24-4
			c-1.17-1.62-3.24-2.28-5.17-2.81c-9.64-2.65-25.86-8.45-35.85-6.23C-1189.66,18.91-1185.22,37.85-1185.07,45.41z"/>
		<path class="st23" d="M-1196.72,488.12c-9.56,5-19.5,9.22-29.74,12.62c-5.61,1.77-11.31,3.23-17.08,4.36
			c-0.41-7.69,0.01-15.4,1.25-23c0.78-4.37,1.93-8.7,2.23-13.13c0.42-6.39-0.94-12.78-3.95-18.44c11.14-1.52,21.72-4,32.91-3.27
			l0.71,0.05c1.33,0.03,2.65,0.28,3.9,0.73c1.72,0.83,3.18,2.12,4.23,3.72c0.58,0.79,1.11,1.6,1.59,2.45
			c3.16,5.46,4.36,11.76,4.61,18.25C-1195.94,477.69-1196.16,482.92-1196.72,488.12z"/>
		<path class="st23" d="M-1138.41,463.5c-3.56,0.83-7.05,1.78-10.48,2.85c-9.24,2.98-18.23,6.69-26.89,11.07
			c-0.56-2.72-0.84-5.5-0.82-8.28c10.31-7.11,23.07-9.73,35.35-7.27c0.81,0.1,1.59,0.41,2.24,0.9
			C-1138.77,462.98-1138.57,463.23-1138.41,463.5z"/>
		<path class="st24" d="M-1121.22,413.02c-0.68,6.54-1.68,13.1-4,19.25c-2.51,6.6-6.59,13-6.07,20.05c0.23,3.06,1.27,6.38,1.42,9.41
			c-2.88,0.53-5.72,1.12-8.53,1.78c-3.56,0.83-7.05,1.78-10.48,2.85c-9.24,2.98-18.23,6.69-26.89,11.07
			c-1.71,0.84-3.4,1.69-5.09,2.55l0,0c-0.7-0.09-1.39-0.2-2.09-0.33c-5-0.91-10.26-3.15-13.09-7.15c-0.65-0.92-1.16-1.93-1.51-3
			c-1.63-4.87,0.07-10.94-3.32-14.8l-0.16,0.14l-0.12,0.08c-1.86,1.68-3.9,3.15-6.08,4.38l0,0c-10.05,5.69-22.05,6.84-33,3.18
			c-2.15-0.73-4.22-1.66-6.19-2.78c-4.58-2.61-9-7-8.64-12.24c0.2-2.92,1.87-5.72,1.42-8.61c-0.33-2.07-1.69-3.79-2.71-5.62
			c-6.69-12,1.29-27.43-2.91-40.47c-0.1-0.31-0.21-0.62-0.32-0.92c-0.31-0.85-0.66-1.67-1-2.49c-0.86-1.91-1.82-3.79-2.58-5.75
			c-0.63-1.65-1.13-3.34-1.5-5.07c-0.94-5.01-1.28-10.12-1-15.22c0-13.43,2.4-27.18,5.82-40.12c0.61-2.3,1.29-5.55,2.19-9.09l0,0
			c0.88-3.73,2.06-7.38,3.54-10.92c2-4.6,4.72-8.27,8.44-9.14c5.6-1.31,14.16,1.46,19.84,2.14l22.45,2.68l44.89,5.37
			c7.75,0.93,15.89,2,22.28,6.36c0.42,0.29,0.83,0.59,1.24,0.91c1.69,1.33,3.2,2.87,4.5,4.58c0.46,0.59,0.9,1.21,1.32,1.84
			c1.46,2.23,2.7,4.59,3.7,7.06c5.57,13.38,5.7,28.31,5.74,42.8C-1119.71,382.9-1119.66,398.01-1121.22,413.02z"/>
		<path class="st14" d="M-1207.28,459.36c-1.35-5.2-4.2-12.73-4.62-14.78c-1.41-6.88-2.43-13.83-3.06-20.82
			c-1.11-12.46-3.11-30,1.29-41.85c4.13,2.2,7.76,8.43,9.67,12.68c6.92,15.41-0.87,34.33,5.63,49.92c0.49,0.93,0.79,1.95,0.89,3
			c-0.11,1.33-0.59,2.6-1.38,3.68l-2.19,3.64L-1207.28,459.36z"/>
		<path class="st23" d="M-1063.26-16.38c7.36-12,17.44-23.8,16.81-37.83c-0.23-5-1.87-9.89-3.12-14.79
			c-3.58-14.18-3.82-29-0.69-43.29c12.37-1.99,25.02,0.85,35.36,7.92c3.27,2.26,6.37,5.07,7.81,8.78c1.33,3.42,1.11,7.23,0.87,10.89
			c-0.55,8.41-1.3,17.38-6.48,24c-1.61,2.07-3.59,3.82-5.16,5.91c-2.29,3-3.63,6.66-4.94,10.23l-17,46.25
			c-8.58,23.31-17.88,47.69-36.78,63.82c-0.46,0.39-14-18.84-15.12-20.77c-4.53-7.91-2.55-11.25,2.93-17.87
			C-1077.96,13.78-1072.09-2.01-1063.26-16.38z"/>
		<path class="st25" d="M-1258.08,377.83c-0.06,3.45-0.35,6.9-0.87,10.31c-0.18,1.26-0.39,2.51-0.64,3.76
			c-3.41,17.8-11.9,34.73-17.84,52.07c-7.83,22.89-11.27,42.75-14,65.48c-7.87,0-15.75-0.17-23.54-0.58h-0.24
			c-2.66-0.14-5.33-0.3-8-0.5c2.41-21.2-2-43.44,2.31-64.66c1.74-8.54,4.71-16.83,6.5-25.33c0.55-2.5,0.97-5.03,1.25-7.58
			c0.25-2.42,0.38-4.93,1.47-7.11c0.1-0.21,0.21-0.41,0.34-0.61c0.96-1.51,2.15-2.86,3.52-4c12.18-10.68,27.09-17.79,43.06-20.53
			C-1262.49,378.24-1260.28,377.98-1258.08,377.83z"/>
		<path class="st14" d="M-1258.08,377.83c-0.06,3.45-0.35,6.9-0.87,10.31c-0.18,1.26-0.39,2.51-0.64,3.76
			c-3.41,17.8-11.9,34.73-17.84,52.07c-7.83,22.89-11.27,42.75-14,65.48c-7.87,0-15.75-0.17-23.54-0.58h-0.24
			c-2.66-0.14-5.33-0.3-8-0.5c2.41-21.2-2-43.44,2.31-64.66c1.74-8.54,4.71-16.83,6.5-25.33c0.55-2.5,0.97-5.03,1.25-7.58
			c0.25-2.42,0.38-4.93,1.47-7.11c0.1-0.21,0.21-0.41,0.34-0.61c0.96-1.51,2.15-2.86,3.52-4c12.18-10.68,27.09-17.79,43.06-20.53
			C-1262.49,378.24-1260.28,377.98-1258.08,377.83z"/>
		<path class="st25" d="M-1308.78,423.4c-0.16,5.56-0.62,11.1-1.37,16.61c-2.67,22.51-3.17,46-5,68.85c-2.66-0.14-5.33-0.3-8-0.5
			c-12.16-0.83-24.28-2.11-36.22-3.86c0.92-5.15,1.85-10.29,2.78-15.44c1.14-6.31,2.28-12.68,1.95-19.08
			c-0.31-6.05-1.93-11.94-3.22-17.87c-2.75-12.7-4.29-26.4-8.82-38.38c-2.36-6.72-6.13-12.86-11.06-18
			c18.74-7.36,36.75-7.78,56.88-7c1.43-0.08,2.85,0.27,4.08,1c0.95,0.83,1.66,1.9,2.05,3.1c3.02,7.28,4.92,14.97,5.63,22.82
			C-1308.86,418.23-1308.75,420.81-1308.78,423.4z"/>
		<circle class="st23" cx="-1157.83" cy="1.25" r="39"/>
		<path class="st26" d="M-1149.72,92.4c5-8.53,9.38-19.18,19-21.55c5.43-1.35,11.08,0.49,16.37,2.3c1.53,0.36,2.92,1.17,4,2.32
			c0.78,1.24,1.2,2.67,1.21,4.14c1.67,17.63,1.62,35.38-0.17,53c-1.27,12.47-3.41,24.88-3.79,37.41
			c-0.53,17.37,2.33,34.74,1.39,52.09c-0.71,13.15-3.59,26.07-6.45,38.92l-12,53.8c-0.21,1.66-0.88,3.24-1.93,4.55
			c-1.01,0.93-2.22,1.61-3.54,2c-35.13,12.42-73.87,9.38-106.63-8.35c-4.33-2.38-8.65-5.13-11.47-9.19
			c-4-5.76-4.37-13.38-3.07-20.28c1.3-6.9,4.11-13.41,6-20.18c2.92-10.5,3.61-21.46,4.27-32.34c0.88-14.32,1.76-28.73,0.23-43
			c-1.05-9.83-3.24-19.51-4.89-29.26c-2.43-14.69-3.84-29.54-4.22-44.43c-0.25-8.89,0.16-18.76,6.31-25.17c3-3.12,7-5,11.07-6.52
			c6.83-2.52,14.46-4,21.36-1.7s12.46,9.54,10.83,16.63c-0.75,3.29-2.88,6.17-3.4,9.51c-0.69,4.42,1.65,8.87,5,11.86
			C-1186.22,135.24-1158.71,107.84-1149.72,92.4z"/>
		<path class="st24" d="M-1148.29,52.55c5.47-2.02,11.42-2.36,17.09-1c3.61,0.86,7.51,2.38,10.84,0.77
			c1.21-0.58,2.21-1.53,3.43-2.07c3.3-1.45,7.58,0.33,10.5-1.78c1.84-1.33,2.44-3.75,3.06-5.95c3-10.5,9.16-19.83,17.63-26.72
			c-1.05,7.67-1.81,16.4,3.26,22.26c2.31,2.66,5.55,4.33,8.83,5.63c4.71,1.87,9.88,3.11,14.85,2.09c4.97-1.02,9.62-4.78,10.41-9.79
			c-0.17,7.53-7.34,12.79-9.35,20.06c-0.76,2.72-0.69,5.61-1.22,8.39c-1.35,7.1-6.42,12.8-10.85,18.52
			c-14.15,18.4-23.19,40.21-26.2,63.22c-0.2,2.73-0.78,5.42-1.7,8c-0.98,1.98-2.09,3.89-3.32,5.72c-7.33,12.38-5.07,28-2.58,42.14
			c3.89,22.15,7.77,43.85,14.07,65.44c1.08,3.69,2.3,7.54,5.05,10.23c-0.87,8.73-9.68,12.71-17.6,16.48
			c-7.82,3.73-15.03,8.61-21.4,14.49c-2.28,2.1-4.53,4.46-5.36,7.45c-0.78,2.81-0.22,5.9-1.22,8.63s-5,4.69-6.76,2.39
			c-2.2-8.23,1.56-16.84,1.39-25.36c-0.12-5.75-2-11.34-2.27-17.09c-0.26-6.51,1.66-12.9,3.7-19.08
			c5.68-17.21,12.54-34.26,14.51-52.27c1.97-18.01-1.71-37.68-14.49-50.53c-15.17-15.32-23.59-36.09-39.85-50.16
			c-2.58-2.23-5.5-5-5.07-8.38c0.3-1.49,0.95-2.88,1.91-4.06c5.58-7.88,13-14.31,19-21.85S-1147.2,62.15-1148.29,52.55z"/>
		<path class="st24" d="M-1201.68,68.68c-1,1-1.69,2.38-2.85,3.24c-1.35,0.84-2.9,1.31-4.49,1.39c-5.89,0.89-11.82,1.42-17.77,1.59
			c-5,0-10.19-0.44-15,0.93c-6.71,1.9-12.07,7.2-15.43,13.3s-4.95,13-6.24,19.87c-2.84,15.14-4.37,30.49-4.55,45.89
			c8.24-6.57,15.59-14.2,21.85-22.68c4.8-6.51,9.15-13.71,16-18.06c3.15-2,6.69-3.32,9.86-5.27c6.61-4.07,11.19-10.65,15.59-17
			c3.24-4.71,12.61-13.91,13.35-19.55C-1190.73,66.94-1198.18,64.31-1201.68,68.68z"/>
		<path class="st24" d="M-1166.84-25.45c1.23,0.74,2.42,1.57,3.54,2.47c6.79,4.74,15.88,3.86,24.09,2.78c2.52-0.32,5.11-0.68,7.27-2
			c3.47-2.14,5.1-6.54,4.76-10.61s-2.39-7.82-4.89-11c-6.69-8.5-16.58-13.9-27.35-14.92c-2.76-0.36-5.57-0.06-8.19,0.87
			c-3.23,1.33-5.66,4.07-8.64,5.9c-8.79,5.4-22.33,3-28,11.62c-4.15,6.36-1.19,15-3.15,22.31c-1.46,5.46-5.67,10.43-4.86,16
			c0.45,3,2.33,5.62,3.83,8.3c3.44,6.16,5.04,13.19,4.59,20.23c3.85,2.72,9.22-1.51,10.29-6.09c1.07-4.58-0.16-9.46,0.75-14.08
			c1.61-8.11,8.77-14.06,12-21.5C-1178.48-20.5-1174.7-29.5-1166.84-25.45z"/>
		<path class="st25" d="M-1261.4,63.32c-0.3,1.82-0.49,3.83,0.52,5.37c2,3,6.58,1.92,10.18,2.37c5.61,0.69,9.75,6,10.84,11.58
			s-0.21,11.26-1.63,16.74c-3.21,12.42-7.04,24.66-11.48,36.73c-11.94-1.41-24.51-6-30.85-16.19c-5.76-9.27-5.17-21.08-8.83-31.36
			c-2.57-7.24-7.18-13.54-11.74-19.72c7.33,0.92,12.57-7.46,13-14.84c0.43-7.38-1.89-14.87-0.31-22.08
			c0.37-1.71,29.26,3.68,32.07,5.63C-1251.51,43.18-1260.12,55.5-1261.4,63.32z"/>
		<path class="st14" d="M-1261.4,63.32c-0.3,1.82-0.49,3.83,0.52,5.37c2,3,6.58,1.92,10.18,2.37c5.61,0.69,9.75,6,10.84,11.58
			s-0.21,11.26-1.63,16.74c-3.21,12.42-7.04,24.66-11.48,36.73c-11.94-1.41-24.51-6-30.85-16.19c-5.76-9.27-5.17-21.08-8.83-31.36
			c-2.57-7.24-7.18-13.54-11.74-19.72c7.33,0.92,12.57-7.46,13-14.84c0.43-7.38-1.89-14.87-0.31-22.08
			c0.37-1.71,29.26,3.68,32.07,5.63C-1251.51,43.18-1260.12,55.5-1261.4,63.32z"/>
		<circle class="st25" cx="-1267.83" cy="12.25" r="39"/>
		<path class="st24" d="M-1279.84,57.72c1.42-2.22-1-5.32,0.11-7.71c0.66-1.44,2.33-2.06,3.62-3c1.62-1.32,2.91-2.99,3.77-4.89
			c6.07-11.67,7.91-25.08,5.2-37.95c-0.92-4.32-1.74-10.06,2.21-12c1.09-0.49,2.29-0.69,3.49-0.6c7.12,0.23,14,5,20.91,3.31
			c4.83-1.31,8.34-5.49,8.8-10.47c0.45-6.46-4.39-12-9.15-16.35c-8.57-7.88-21.63-9.63-33.27-9.82l-21.65-0.36
			c-6.93-0.12-14.7,0.1-19.52,5.07c-6.94,7.15-3.45,18.85-4.45,28.76c-0.85,7.91-4.81,15.16-11,20.15
			c-4.49,3.58-10.67,7-10.59,12.72c0,2,0.86,3.82,1.41,5.71c2.21,7.48,0.1,15.75-4.14,22.3s-10.44,11.59-16.87,16
			c-3.44,2.35-7,4.61-9.72,7.8c-2.98,3.68-4.75,8.2-5.07,12.93c-0.43,3.61,0.32,7.27,2.12,10.43c4.23,6.76,14.38,7.75,21.33,3.83
			c6.95-3.92,11.19-11.34,14-18.8c1.68-4.43,3.39-9.5,7.69-11.49c5.44-2.53,11.8,1.47,15.34,6.32c3.54,4.85,5.72,10.77,10.25,14.71
			c7.1,6.18,19.18,5.18,25.18-2.08c4.29-5.21,5.24-12.42,5-19.17C-1274.96,67.57-1276.69,62.23-1279.84,57.72z"/>
		<path class="st27" d="M-1265.84,108.55c-4.45,0.95-9.1-1.15-12.41-4.29c-3.31-3.14-5.54-7.19-7.86-11.11
			c-5.88-9.89-12.62-19.24-20.15-27.94c-6.56-7.57-15.69-15.26-25.43-12.92c-3.26,0.94-6.29,2.56-8.88,4.75
			c-17.46,13.82-26.59,35.65-24.17,57.78c0.76,6.37,2.49,12.6,3.21,19c0.48,5.28,0.63,10.58,0.42,15.87
			c-0.27,16.12-0.82,33.17-9.51,46.75c-13.47,21-20.68,46.08-30.57,69c-5.34,12.39-8.54,25.58-11.68,38.7
			c-1.86,7.79-3.72,15.57-5.57,23.35l-12.1,50.9c-1.25,5.25-2.5,10.75-1.18,16c2,7.84,9.37,13.32,17.14,15.55s16,1.85,24.07,1.92
			c15.44,0.15,31,2.07,45.49,7.43c4.14,1.53,8.27,3.36,12.68,3.72c4.41,0.36,8.8-0.79,12.93-2.39c11.27-4.36,20.93-12,31.31-18.17
			c6.48-3.91,13.31-7.21,20.4-9.87c3.56-1.33,7.38-2.59,9.83-5.5c1.85-2.19,2.68-5.05,3.29-7.85c3.38-15.76,1.11-32.09,0-48.17
			s-10.72-33.07-2.77-47.09c1.6-2.83,3.51-5.55,4.33-8.69c1.08-4.1,0.17-8.51,1.08-12.65c0.67-3.06,2.28-5.81,3.38-8.74
			c1.92-5.16,2.18-10.78,2.16-16.29c-0.05-12.1-1.32-24.16-3.8-36c-3.15-15,7.27-29.83,13.24-44c2.14-5.07,5.17-9.86,6.06-15.29
			c0.8-4.9-0.23-9.89-1-14.8c-1.15-7.61-1.62-15.31-1.4-23c0.19-6.9,0.92-13.93-0.73-20.64s-6.36-13.22-13.13-14.6
			c-1.54-0.45-3.2-0.19-4.52,0.71c-0.78,0.77-1.33,1.74-1.59,2.8c-2.2,6.74-1.77,14-3,21
			C-1257.5,100.78-1258.94,107.07-1265.84,108.55z"/>
		<path class="st23" d="M-1360.21,151.5c0.41-2.77-0.88-6.45-3.68-6.35c-2.58,0.1-3.73,3.33-3.72,5.92s0.36,5.56-1.47,7.38
			c-1.62,1.61-4.3,1.56-6.18,2.87c-1.35,0.96-2.14,2.52-2.13,4.17c0,1.39,0.63,2.72,0.67,4.11c0.04,1.39-0.89,3-2.27,2.91
			c-1.46,2.45-1.08,5.57,0.91,7.6c0.72,0.7,1.66,1.3,1.9,2.28c0.08,0.69,0.02,1.38-0.16,2.05c-0.42,2.75,1.48,5.83,4.25,6.13
			c-1.55,1.11-1.24,3.71,0.18,5c1.42,1.29,3.46,1.54,5.37,1.54c4.33-0.02,8.62-0.91,12.61-2.61c1.37-0.45,2.57-1.28,3.48-2.4
			c0.87-1.19,0.75-2.83-0.29-3.88c1.94,0.32,4.27,0.5,5.54-1c1.77-2.1-0.13-5.21-2-7.24c2.19-0.32,3.69-2.36,3.37-4.54
			c-0.15-1.02-0.69-1.94-1.51-2.58c-0.64-0.47-1.51-0.88-1.6-1.67c-0.09-0.79,0.58-1.3,0.86-2c0.64-1.57-0.82-3.17-2.23-4.12
			c-3.34-2.22-8.26-2.18-11.23-4.42C-1362.51,158.41-1360.64,154.5-1360.21,151.5z"/>
		<path class="st24" d="M-1153.91-0.24c-2.42,0.24-4.86,0.3-7.29,0.17c-0.86-0.09-1.64,0.52-1.75,1.38l-4.65,34.88
			c-0.36,2.53-1.39,4.92-3,6.91c-2.68,3.2-3.9,7.37-3.39,11.51v59.25c0,0-0.3,7.9,5.77,7.9c7.26,0.91,14.62,0.91,21.88,0
			c0,0,4.86-0.92,4.86-8.21V55.21c0.75-4.12-0.35-8.36-3-11.6c-1.55-2-2.55-4.37-2.91-6.87l-4.83-35.61
			C-1152.33,0.3-1153.07-0.3-1153.91-0.24z"/>
		<path class="st14" d="M-1153.91-0.24c-2.42,0.24-4.86,0.3-7.29,0.17c-0.86-0.09-1.64,0.52-1.75,1.38l-4.65,34.88
			c-0.36,2.53-1.39,4.92-3,6.91c-2.68,3.2-3.9,7.37-3.39,11.51v59.25c0,0-0.3,7.9,5.77,7.9c7.26,0.91,14.62,0.91,21.88,0
			c0,0,4.86-0.92,4.86-8.21V55.21c0.75-4.12-0.35-8.36-3-11.6c-1.55-2-2.55-4.37-2.91-6.87l-4.83-35.61
			C-1152.33,0.3-1153.07-0.3-1153.91-0.24z"/>
		<path class="st2" d="M-1161.25,55.67h7.37c6.1,0,11.05,4.95,11.05,11.05v27.73c0,6.1-4.95,11.05-11.05,11.05h-7.37
			c-6.1,0-11.05-4.95-11.05-11.05V66.72C-1172.3,60.62-1167.35,55.67-1161.25,55.67z"/>
		<path class="st24" d="M-1054.84-150.96c-2.14,1.17-4.36,2.18-6.66,3c-0.83,0.25-1.31,1.11-1.09,1.94l9.14,34
			c0.65,2.47,0.63,5.07-0.08,7.52c-1.25,3.98-0.77,8.31,1.3,11.93l22.82,54.68c0,0,2.76,7.4,8.37,5.06
			c7.06-1.96,13.85-4.8,20.2-8.46c0,0,4.13-2.72,1.33-9.44l-22.47-53.84c-0.9-4.09-3.54-7.58-7.23-9.56
			c-2.2-1.24-4.04-3.04-5.33-5.21l-18.17-31C-1053.13-151.09-1054.07-151.36-1054.84-150.96z"/>
		<path class="st2" d="M-1040.06-96.53l6.8-2.84c5.63-2.35,12.1,0.31,14.45,5.94l10.68,25.59c2.35,5.63-0.31,12.1-5.94,14.45
			l-6.8,2.84c-5.63,2.35-12.1-0.31-14.45-5.94L-1046-82.07C-1048.35-87.7-1045.69-94.18-1040.06-96.53z"/>
		<path class="st25" d="M-1335.47,58.75c-10.75,4.43-15,18.21-12.48,29.55s10.11,20.79,17.51,29.78l20.74,25.3
			c5.73,7,12,14.37,20.74,16.81c12.78,3.57,25.56-4.57,36.61-11.93c32.98-21.98,68.24-40.34,105.16-54.76
			c3.61-1.4,7.31-2.82,10.28-5.32c6.16-5.18,7.89-14.73,4.46-22s-11.42-12-19.47-12.06c-8.05-0.06-15.88,4.2-20.72,10.64
			c-2.31,3.07-4,6.58-6.23,9.7c-5.64,7.84-14.44,12.69-23.05,17.07c-20.76,10.59-42.13,19.94-64,28c-4,1.46-8.51,2.85-12.28,0.92
			c-2.31-1.19-3.87-3.44-5.27-5.64c-6.38-10.04-11.45-20.86-15.1-32.18c-2.73-8.5-4.94-17.76-11.5-23.8
			c-9.3-8.56-26.14-6.51-33.11,4c0,0-8.17,11.95-3.17,16.95S-1335.47,58.75-1335.47,58.75z"/>
		<path class="st25" d="M-774.63,17.37c1.46,3.89,1.5,8.15,1.29,12.3c-0.26,5.06-1.53,11-6.23,12.93c-3.06,1.23-6.84,0.3-9.56,2.16
			c-3.3,2.24-3.14,7.06-2.63,11c1.41,10.83,3,22.06,8.9,31.22c3.17,4.91,7.46,9,11.81,12.91c8.67,7.82,18.18,15.46,29.57,18.07
			c1.86,0.52,3.81,0.61,5.7,0.24c1.87-0.58,3.56-1.61,4.93-3c6.6-6.06,10-14.71,14.4-22.55c3.11-5.61,6.82-11,8.57-17.18
			c2.94-11.01-0.62-22.74-9.18-30.27c-1.95-1.67-4.11-3.07-6-4.8c-4.94-4.48-7.82-10.91-9-17.47s-1-13.31-0.43-20
			c-10-0.77-19.93,0.44-29.69,2.39c-4.34,0.87-10.45,1.27-14.38,3.34C-780.98,11.01-775.84,14.02-774.63,17.37z"/>
		<path class="st14" d="M-774.63,17.37c1.46,3.89,1.5,8.15,1.29,12.3c-0.26,5.06-1.53,11-6.23,12.93c-3.06,1.23-6.84,0.3-9.56,2.16
			c-3.3,2.24-3.14,7.06-2.63,11c1.41,10.83,3,22.06,8.9,31.22c3.17,4.91,7.46,9,11.81,12.91c8.67,7.82,18.18,15.46,29.57,18.07
			c1.86,0.52,3.81,0.61,5.7,0.24c1.87-0.58,3.56-1.61,4.93-3c6.6-6.06,10-14.71,14.4-22.55c3.11-5.61,6.82-11,8.57-17.18
			c2.94-11.01-0.62-22.74-9.18-30.27c-1.95-1.67-4.11-3.07-6-4.8c-4.94-4.48-7.82-10.91-9-17.47s-1-13.31-0.43-20
			c-10-0.77-19.93,0.44-29.69,2.39c-4.34,0.87-10.45,1.27-14.38,3.34C-780.98,11.01-775.84,14.02-774.63,17.37z"/>
		<path class="st25" d="M-830.43,46.8c-16.24-5.57-24-27.33-41-29.77c-2.68-0.39-5.43-0.24-8.06-0.86
			c-9.79-2.32-14-13.64-16.83-23.29c-9.54-32.17-22-63.65-39.7-92.17c-7.47-12-19.28-21.86-24.67-35c-1.24-3-1.87-6.42-4.1-8.79
			s-7-2.71-8.21,0.31c-0.34,1.07-0.41,2.2-0.22,3.31l1.17,12.45l-20.34-1.83c-1.88-0.32-3.81-0.18-5.63,0.4
			c-1.96,0.98-3.53,2.61-4.43,4.61c-6.88,12.93,0.45,29.87,12.59,38.05c14.18,9.55,34.43,11,43.85,25.25
			c5.6,8.48,5.71,19.39,9.4,28.86c1.76,4.53,4.33,8.69,6.38,13.08c3.91,8.37,5.91,17.47,8.94,26.19
			c4.34,12.47,10.77,24.09,17.18,35.64c4.94,8.92,10,18,17.6,24.82c5,4.48,10.88,7.8,16.76,11c14.46,7.9,31.51,15.5,46.83,9.44
			C-822.04,74.84-825.47,59.61-830.43,46.8z"/>
		<path class="st25" d="M-781.12,477.28c-1.23,13.05-9.15,24.87-11,37.43c-12.2-1.91-24.21-4.37-35.83-7.17
			c-1.43-0.34-2.85-0.69-4.28-1c6.58-18,0.85-38.16,2.59-57.33c0.17-1.84,0.41-3.68,0.73-5.5c15.07-5.14,28.68-12,44.48-10
			c0.31,3.2,0.63,6.41,0.94,9.61c0.63,6.39,1.26,12.78,1.88,19.16C-780.97,467.39-780.81,472.34-781.12,477.28z"/>
		<path class="st25" d="M-676.9,509.92c-5.92,1.8-12,3.37-18.35,4.66c-1.06,0.22-2.13,0.43-3.2,0.63
			c-6.5,1.22-13.08,2.11-19.73,2.72c-0.68-13.9-10-26.68-11.36-40.95c-0.28-3.55-0.24-7.11,0.11-10.65c0.12-1.4,0.26-2.8,0.39-4.2
			l2.82-28.77c2.24-0.28,4.51-0.39,6.77-0.33c13,0.31,24.83,5.94,37.71,10.33c0.96,6.07,1.3,12.22,1,18.36
			c-0.49,15.62-3,31.43,2.8,45.76C-677.61,508.29-677.25,509.1-676.9,509.92z"/>
		<path class="st27" d="M-845.7,290.58c1.75,13.64-5.22,26.7-8.24,40.11c-2,8.87-2.27,18-2.54,27.1l-1.58,54.51
			c-0.16,5.45-0.3,11,1.36,16.23c3.34,10.48,13.63,17.56,24.34,20.08s21.91,1.24,32.82-0.2c5.35-0.71,10.93-1.54,15.36-4.63
			c6.09-4.25,8.75-11.82,11.05-18.88l6.49-19.93c7.47,16.82,4.31,35.21,8.79,53.06c0.29,1.65,0.97,3.21,2,4.53
			c1.89,2.1,5,2.43,7.83,2.63c19.6,1.38,39.47,2.75,58.75-1c5.3-1,10.83-2.62,14.49-6.6c4.26-4.63,5-11.44,4.95-17.73
			c-0.27-21.61-8.08-42.46-9.82-64c-0.75-9.23-0.38-18.51-0.71-27.77c-0.26-6.96-0.91-13.91-1.95-20.8c-0.33-3.16-1.2-6.23-2.56-9.1
			c-3-5.6-9.23-8.64-15.13-11C-745.84,288.57-796.26,288.75-845.7,290.58z"/>
		<circle class="st25" cx="-760.83" cy="-20.75" r="43"/>
		<path class="st26" d="M-723.35,54.99c-3.19,7-8.21,14-15.68,15.78c-6.87,1.65-14.15-1.66-19.21-6.59s-8.37-11.33-11.88-17.46
			c-2.56-4.48-5.41-9-9.74-11.82c-5.92-3.84-13.56-3.74-20.54-2.61c-6.98,1.13-13.91,3.15-21,2.69c-8.83-0.59-17.83-5-26.16-2.06
			c2.7,12.08,1.73,25.36,1.42,37.74c0.05,1.91-0.22,3.82-0.8,5.64c-0.73,1.7-1.71,3.28-2.91,4.68l-8,10.31
			c8.58,6.42,16,14.8,19,25.09c1.69,5.86,1.17,12.08,1.11,18.18c-0.19,17.91,3.7,35.75,2.47,53.62
			c-1.44,20.93-9.8,40.71-14.11,61.24c-3.69,17.62-4.39,35.74-2.06,53.6c44.82,15.51,91,23.45,138.38,26.05
			c8.37,0.46,17.41,0.53,24.28-4.28c5.71-4,8.91-10.85,10-17.75s0.34-13.92-0.42-20.86c-2.06-18.77-4.12-37.53-6.17-56.3
			c-1.17-10.68-2.34-21.42-1.58-32.13c0.57-8,2.21-15.85,3.84-23.68l10-48.06c1.43-6.83,2.87-13.71,5.7-20.08
			c2.32-5.2,5.53-10,8.09-15.06c3.05-6.07,5.16-12.57,6.24-19.27c0.43-1.95,0.41-3.97-0.08-5.9c-1.07-3.28-4.34-5.25-7.39-6.86
			c-18.6-9.77-38.53-16.77-59.16-20.75C-721.11,43.98-720.84,49.5-723.35,54.99z"/>
		<path class="st24" d="M-727.5,26.19c5-9.58,14.35-16.3,19.78-25.66c6.09-10.77,6.55-23.83,1.22-35c-1.91-3.9-4.5-7.48-6-11.56
			c-1.67-4.64-1.83-9.75-3.76-14.29c-2.65-6.22-8.39-10.7-14.64-13.28s-13-3.51-19.73-4.41l-22.72-3.06c-3.29-0.44-6.7-0.88-9.9,0
			s-6.18,3.49-6.44,6.81c-0.31,3.93,3.14,7.59,2.34,11.45c-0.29,1.36-1.09,2.74-0.63,4.06c0.41,0.88,1.12,1.59,2,2
			c5.39,3,11.83,3.27,17.67,5.23s11.7,6.88,11.11,13c-0.32,3.29-2.44,6.71-1,9.66c1.38,2.73,5,3.23,7.89,4.08
			c9.35,2.71,15.91,12.85,14.55,22.5c-0.42,3-1.5,5.87-1.72,8.88c-0.73,10.54,0.93,13.55,9.54,19.68L-727.5,26.19z"/>
		<path class="st23" d="M-669.09,71.77c0.05,2-0.32,3.98-1.07,5.83c-3.12,6.65-12.67,6.23-19,10c-7.88,4.7-9.62,15.19-10.34,24.33
			c-0.82,10.35-1.38,20.85,0.74,31s7.22,20.05,15.74,26c10.37,7.21,24.47,7.46,36.31,3.07s21.73-12.88,30.31-22.16
			c8.14-8.8,15.43-18.61,19.8-29.78c0.77-2,1.45-4.12,0.83-6.12c-0.93-3-4.2-4.36-6.86-6c-6.21-3.75-10.35-10.29-12.5-17.2
			s-2.51-14.26-2.58-21.51c-0.08-7.53-0.1-15.76-4.9-21.57s-13.12-7.44-20.7-7.38c-6.2,0-23.36,0.59-27.59,6
			C-674.37,50.78-668.84,65.33-669.09,71.77z"/>
		<path class="st14" d="M-669.09,71.77c0.05,2-0.32,3.98-1.07,5.83c-3.12,6.65-12.67,6.23-19,10c-7.88,4.7-9.62,15.19-10.34,24.33
			c-0.82,10.35-1.38,20.85,0.74,31s7.22,20.05,15.74,26c10.37,7.21,24.47,7.46,36.31,3.07s21.73-12.88,30.31-22.16
			c8.14-8.8,15.43-18.61,19.8-29.78c0.77-2,1.45-4.12,0.83-6.12c-0.93-3-4.2-4.36-6.86-6c-6.21-3.75-10.35-10.29-12.5-17.2
			s-2.51-14.26-2.58-21.51c-0.08-7.53-0.1-15.76-4.9-21.57s-13.12-7.44-20.7-7.38c-6.2,0-23.36,0.59-27.59,6
			C-674.37,50.78-668.84,65.33-669.09,71.77z"/>
		<path class="st23" d="M-722.41,339.95c0.31,1.52,1.03,2.93,2.08,4.08c0.99,0.78,2.14,1.32,3.37,1.59
			c32.82,9.63,67.88,5.79,101.86,1.86c-4.65-14.16-9.33-28.48-10.62-43.33c-1.07-12.25,0.13-25-4.21-36.49
			c-1.28-3.4-75.88,12.25-83.24,13.52c-3.77,0.65-8.11,0.43-10.78,3.42c-3.22,3.62-3.49,12.24-3.83,16.75
			C-728.74,314.38-726.05,327.5-722.41,339.95z"/>
		<path class="st23" d="M-647.68,498.69c-6,2.78-12.19,5.37-18.6,7.69c-3.47,1.26-7.01,2.44-10.62,3.54
			c-5.92,1.8-12,3.37-18.35,4.66c-3.62-9.18-7.24-18.36-10.87-27.55c-2.67-6.76-5.34-13.55-7.57-20.46
			c-1.55-4.72-2.83-9.52-3.82-14.39c-3.27-16.54-2.42-33.64,2.48-49.77c13.86,2.61,27.41,4.31,41.06,6.29c7.29,1,14.6,2.18,22,3.57
			c0.58,4.82,1.11,9.64,1.58,14.46c0.72,7.44,1.31,14.88,1.77,22.32C-647.6,465.58-647.28,482.13-647.68,498.69z"/>
		<path class="st14" d="M-647.68,498.69c-6,2.78-12.19,5.37-18.6,7.69c-3.47,1.26-7.01,2.44-10.62,3.54
			c-5.92,1.8-12,3.37-18.35,4.66c-3.62-9.18-7.24-18.36-10.87-27.55c-2.67-6.76-5.34-13.55-7.57-20.46
			c-1.55-4.72-2.83-9.52-3.82-14.39c-3.27-16.54-2.42-33.64,2.48-49.77c13.86,2.61,27.41,4.31,41.06,6.29c7.29,1,14.6,2.18,22,3.57
			c0.58,4.82,1.11,9.64,1.58,14.46c0.72,7.44,1.31,14.88,1.77,22.32C-647.6,465.58-647.28,482.13-647.68,498.69z"/>
		<path class="st23" d="M-570.78,455.36c0.08,5.76-1.56,11.64-3.08,17.29c-0.11,0.4-0.21,0.79-0.31,1.19
			c-3.62-1.13-6.73-3.46-8.83-6.62c-1.08-1.71-1.88-3.59-2.37-5.55c-4.53,3.08-9.09,6.13-13.7,9.15c-15.07,9.9-31,19.73-48.61,27.87
			c-6,2.78-12.19,5.37-18.6,7.69c-1.33-4.67-2.6-9.36-3.8-14.09c-1.31-4.87-2.34-9.8-3.08-14.79c-1.46-11.32-0.33-22.83,3.32-33.65
			l0,0l0.45-1.3c1.7-4.81,3.89-9.43,6.55-13.79c2.49-4,7.42-3.33,12.45-2c2.28,0.59,4.59,1.3,6.69,1.74
			c13.07,2.74,26.64-0.09,40,0.66c6.37,0.32,12.61,1.91,18.35,4.67c6.43,3.23,11.61,8.17,13.64,15c0.29,0.98,0.51,1.99,0.66,3
			C-570.88,453-570.79,454.18-570.78,455.36z"/>
		<path class="st23" d="M-811.36-5.19c-20.65-20-44.12-36.95-68.13-52.8c-6.25-3.92-12.26-8.2-18-12.83c-6-5-11.23-10.87-17.6-15.37
			s-14.25-7.59-21.9-6.11s-14.45,8.8-13.33,16.46c1,6.74,7.06,11.36,12.66,15.23c10.6,7.33,21.25,14.68,32.78,20.43
			c4.01,1.82,7.89,3.89,11.63,6.2c7.18,4.84,12.41,12,17.84,18.73c20.5,25.46,45.6,46.83,74,63c0.34,0.2,12.17-25.33,11.67-28.64
			C-790.84,11.5-805.92,0.09-811.36-5.19z"/>
		<path class="st24" d="M-634.74,317.97c-15.94,1-31.23,6.38-46.82,9.81s-32.53,4.76-47-2l8.8,60.09c0.49,3.34,1,6.76,0.27,10.05
			c-0.67,3.14-2.41,6.1-2.26,9.31c0.23,5.08,5,8.65,9.49,11c13.04,6.89,27.66,10.25,42.4,9.77c-1.09,4.4-2.45,8.75-3.55,13.15
			c7.35,7.89,19.37,8.42,29.86,10.92c8,1.89,15.5,5.17,23.34,7.48c9.48,2.8,19.33,4.17,29.21,4.07c6.67-0.07,13.74-1,18.92-5.16
			c6.37-5.13,8.35-13.85,9.73-21.91c0.77-4.5,1.48-9.06,1-13.6c-0.52-5.22-2.54-10.16-4.54-15l-13.7-33.25c-2.49-6-5-12.09-8-17.88
			C-597.39,336.09-613.65,316.66-634.74,317.97z"/>
		<path class="st2" d="M-622.54,110.35c2.44-6.4,8.9-10.34,15.7-9.57c4,0.56,7.57,2.75,11,4.89l19.1,11.92
			c3.17,1.88,6.2,3.97,9.09,6.26c13.17,10.92,18.25,28.87,19.7,45.92c1.45,17.05,0,34.39,3.39,51.16c-8.06,6.68-17,12.33-25.06,19
			c-4.22,3.49-8.49,7-11.69,11.49c-2.54,3.53-4.35,7.57-7,11c-4.34,5.42-10.64,8.92-17.53,9.74c4.37,2.54,6.82,7.47,8,12.38
			s1.5,10,2.81,14.91c1.8,6.67,5.53,12.76,6.76,19.56c0.86,4.69,0.48,9.5,0.79,14.26c1.56,24.63,20.89,46.16,19.64,70.8
			c-9.12-3.32-17.76-7.85-25.66-13.49c-3.56-2.55-7-5.31-10.37-8.06l-25.47-20.65c-12.39-10-24.9-20.22-34.75-32.78
			c-6.18-7.88-11.22-16.6-17.42-24.46s-13.83-15-23.3-18.3c-1.39,2.09-3.86,3.54-5.25,5.63c-0.25,0.33-0.44,0.69-0.58,1.08
			c-0.17,0.93-0.05,1.89,0.33,2.76c1.12,4.04,1.79,8.2,2,12.39l0.63,7.52c0.23,1.99,0.23,4.01,0,6
			c-0.95,6.43-6.91,11.42-13.34,12.42c-0.93,0.2-1.89,0.17-2.81-0.09c-1.79-0.6-2.78-2.49-3.32-4.29
			c-2.53-8.54,1.35-17.55,1.66-26.44c0.04-2.26-0.03-4.51-0.23-6.76l-0.6-8.87c-5.81-1.21-9.15-7.45-10.69-13.18
			c-4.16-15.47-8.35-31.48-5.94-47.32c0.64-4.24,1.76-8.54,1-12.78c-1-5.67-5.08-10.27-7.23-15.61c-7-17.41,7.87-36.31,6.49-55
			c-0.58-7.85-5.56-14.67-8.56-21.95c-1.55-4.24-3.56-8.3-6-12.11c-3.06-4.37-7.19-7.87-11.2-11.39
			c-12.38-10.87-24.13-22.44-35.18-34.66c-5.67-0.59-11-3.03-15.15-6.94c-2.64-2.5-4.81-5.8-4.88-9.43s2.61-7.44,6.24-7.63
			c2.12-0.11,4.1,0.94,6.17,1.4c6.48,1.42,13-3.35,15.89-9.34s2.89-12.88,2.84-19.52c6.44-1.14,13.01,1.16,17.33,6.07
			c4.47,4.86,7.38,10.92,10.9,16.5c1.43,2.48,3.27,4.7,5.44,6.57c4.81,3.82,11.74,4.54,15.94,9c2.13,2.28,3.31,5.3,5.26,7.74
			c5.48,6.87,15.51,7.71,23,12.23s12.7,12.78,21,15.46c3,1,6.27,1.13,9.24,2.24c6.86,2.55,11.05,9.84,12,17.09
			s-0.67,14.58-2.31,21.72l-3.85,16.71c-0.85,3.7-1.5,8.15,1.23,10.79c1.29,1.07,2.8,1.83,4.43,2.23c7,2.28,14.8,4.52,21.38,1.29
			c3.11-1.54,5.55-4.14,7.78-6.8C-633.99,139.56-627.5,124.5-622.54,110.35z"/>
		<path class="st23" d="M-543.61,450.4c-1.38,9.15-6.42,18.15-14.67,22.34c-4.95,2.44-10.65,2.83-15.89,1.1
			c-3.62-1.13-6.73-3.46-8.83-6.62c-1.08-1.71-1.88-3.59-2.37-5.55c0-0.1-0.05-0.21-0.07-0.31c-0.75-3.54-1.06-7.16-0.93-10.77
			c0-5.61,0.33-11.22,1-16.79c0.56-4.69,1.48-9.33,2.76-13.88c1.86-6.49,4.54-12.74,7-19c1.28-3.3,2.51-6.61,3.52-10l0,0
			c0.61-2,1.13-4.06,1.55-6.14l0.15-0.75c0.08-0.42,0.15-0.84,0.22-1.26c1-5.7,1.29-11.6,3.86-16.75c6-12.09,17.68-9,19.46,2.15
			c0.13,0.86,0.21,1.74,0.23,2.61c0.27,14.11-5.33,27.9-2.77,42.06c0.72,3.45,1.63,6.86,2.72,10.22c0.9,3.09,1.71,6.22,2.33,9.39
			C-543.08,438.35-542.83,444.42-543.61,450.4z"/>
		<path class="st2" d="M-538.11,293.5c0.27,5.78,0,11.63,1.16,17.3c2.71,13.4,13,25.26,11.86,38.88c-0.28,3.32-1.51,6.89-4.41,8.53
			s-7.7,1.51-8.65,4.81c-0.27,0.92-0.13,1.92-0.43,2.83c-0.63,1.94-3,2.77-5,2.72s-4-0.71-6.07-0.54
			c-7.25,0.61-9.91,10.31-16.37,13.64c-4.35,2.24-10,1-13.59-2.31s-5.16-8.47-4.88-13.36c0.21-3.69,1.38-7.25,2-10.89
			c1.13-6.49,0.54-13.14-0.05-19.7c-0.87-9.61-1.77-19.34-4.93-28.45c-1.49-4.3-3.47-8.41-4.76-12.77
			c-1.84-6.17-2.26-12.66-2.45-19.09c-0.39-13.53,0.54-28,8.62-38.88c6.07-8.16,14.77-14.79,21.64-22.34
			c4.3-4.73,5.54-6.21,10.29-2.2c3.91,3.29,8,7.83,8.44,12.29c1.2,11.43,0,22.67,2.14,34.31S-538.67,281.55-538.11,293.5z"/>
		<circle class="st23" cx="-641.83" cy="22.25" r="51"/>
		<path class="st24" d="M-595.13,119.81c1.12-1.57,2.45-3.26,4.35-3.59c1.43-0.11,2.87,0.19,4.14,0.87l13.43,5.61
			c3.63-5.99,5.77-12.77,6.24-19.76c0.28-4.29-0.06-8.64,0.76-12.86c1.22-6.26,4.93-11.87,5.79-18.19
			c0.68-5.1-0.55-10.23-1.29-15.32c-2.28-15.72,0.17-31.76-1.14-47.59s-7.66-32.79-21.78-40.06c-4-2-8.31-3.2-12.47-4.78
			c-9.27-3.53-17.58-9.18-26.74-13s-19.92-5.57-28.8-1.18s-14.05,16.74-8.28,24.8c1.9,2.65,4.68,4.53,7.34,6.44
			c5.41,3.87,10.93,8.65,12.18,15.19c2.24,11.77-10,21-13.45,32.51c-1.27,4.49-1.39,9.24-0.33,13.79c1.49,6.82,5.13,13.26,5,20.24
			c-0.1,7.65-4.68,14.58-5.54,22.19c-0.31,2.79-0.12,5.62-0.47,8.4c-0.62,3.67-1.7,7.24-3.23,10.63c-8,20-16.11,40.21-28,58.19
			c12.73,0.22,25.31-2.72,36.63-8.56c-1.63,7.71-4.74,15.03-9.17,21.54c10.17-1.18,19.96-4.59,28.66-10
			c-2.11,7.56-5.17,14.82-9.1,21.61c0.34-0.58,6.63-2,7.79-2.66c2.38-1.36,4.3-3.4,5.5-5.87c3.4-6.08,5.52-13.41,8.67-19.73
			C-611.7,145.12-603.91,132.13-595.13,119.81z"/>
		<path class="st24" d="M-981.91-186.24c-2.42,0.24-4.86,0.3-7.29,0.17c-0.86-0.09-1.64,0.52-1.75,1.38l-4.65,34.88
			c-0.36,2.53-1.39,4.92-3,6.91c-2.68,3.2-3.9,7.37-3.39,11.51v59.25c0,0-0.3,7.9,5.77,7.9c7.26,0.91,14.62,0.91,21.88,0
			c0,0,4.86-0.92,4.86-8.21v-58.34c0.75-4.12-0.35-8.36-3-11.6c-1.55-2-2.55-4.37-2.91-6.87l-4.83-35.61
			C-980.33-185.7-981.07-186.3-981.91-186.24z"/>
		<path class="st2" d="M-989.25-130.33h7.37c6.1,0,11.05,4.95,11.05,11.05v27.73c0,6.1-4.95,11.05-11.05,11.05h-7.37
			c-6.1,0-11.05-4.95-11.05-11.05v-27.73C-1000.3-125.38-995.35-130.33-989.25-130.33z"/>
		<path class="st24" d="M-912.91-135.24c-2.42,0.24-4.86,0.3-7.29,0.17c-0.86-0.09-1.64,0.52-1.75,1.38l-4.65,34.88
			c-0.36,2.53-1.39,4.92-3,6.91c-2.68,3.2-3.9,7.37-3.39,11.51v59.25c0,0-0.3,7.9,5.77,7.9c7.26,0.91,14.62,0.91,21.88,0
			c0,0,4.86-0.92,4.86-8.21v-58.34c0.75-4.12-0.35-8.36-3-11.6c-1.55-2-2.55-4.37-2.91-6.87l-4.83-35.61
			C-911.33-134.7-912.07-135.3-912.91-135.24z"/>
		<path class="st2" d="M-920.25-79.33h7.37c6.1,0,11.05,4.95,11.05,11.05v27.73c0,6.1-4.95,11.05-11.05,11.05h-7.37
			c-6.1,0-11.05-4.95-11.05-11.05v-27.73C-931.3-74.38-926.35-79.33-920.25-79.33z"/>
		<g class="st28">
			<path class="st24" d="M-990.47,462.29c-0.03,1.08-0.16,2.15-0.37,3.21c-6.96-1.11-13.96-2.11-21-3c0-0.28,0-0.57,0-0.86
				c0.07-3,0.93-5.93,2.5-8.48c2.06-3.26,5.19-5.3,8.64-5.19s6.44,2.34,8.29,5.71C-991.01,456.33-990.34,459.3-990.47,462.29z"/>
			
				<ellipse transform="matrix(0.0316 -0.9995 0.9995 0.0316 -1413.6493 -569.2764)" class="st24" cx="-1000.6" cy="444.88" rx="14.01" ry="10.7"/>
			
				<ellipse transform="matrix(0.0316 -0.9995 0.9995 0.0316 -1396.009 -585.3109)" class="st24" cx="-1000.05" cy="427.76" rx="14.01" ry="10.7"/>
			
				<ellipse transform="matrix(0.0316 -0.9995 0.9995 0.0316 -1378.3784 -601.3551)" class="st24" cx="-999.52" cy="410.63" rx="14.01" ry="10.7"/>
			
				<ellipse transform="matrix(0.0316 -0.9995 0.9995 0.0316 -1360.7382 -617.3896)" class="st24" cx="-998.97" cy="393.51" rx="14.01" ry="10.7"/>
			<path class="st2" d="M-1035.37,275.05c-1.41-1.91-2.68-3.91-3.8-6l28.26-3.73l-30.42-0.73c-5.49-13.01-5.37-27.71,0.31-40.64
				l40.12,22.45l-36.75-28.84c14.89-24.09,46.5-31.54,70.58-16.65c24.09,14.89,31.54,46.5,16.65,70.58
				c-1.31,2.13-2.78,4.15-4.39,6.06c2.19,2.97,4.05,6.16,5.55,9.53l-37.09,17.8l39.33-11.83c5.03,16.6,1.34,34.63-9.82,47.91
				c16.8,22.8,11.94,54.9-10.85,71.7s-54.9,11.94-71.7-10.85c-14.05-19.06-13.22-45.25,2-63.39c-14.04-19.06-13.21-45.25,2-63.38
				H-1035.37z"/>
			<path class="st14" d="M-944.84,309.63c-0.35,11.5-4.58,22.55-12,31.34c16.8,22.8,11.94,54.9-10.85,71.7s-54.9,11.94-71.7-10.85
				c-14.05-19.06-13.22-45.25,2-63.39C-1043.97,329.5-944.66,303.88-944.84,309.63z"/>
		</g>
	</g>
	<g>
		<title>late at night</title>
		<path class="st24" d="M1377.61-717.1h788.65c20.53,0,37.17,16.64,37.17,37.17c0,0,0,0,0,0v532.43l0,0h-863l0,0v-532.43
			C1340.44-700.46,1357.08-717.1,1377.61-717.1z"/>
		<circle class="st29" cx="1838.44" cy="-607.3" r="44"/>
		<path class="st24" d="M1340.44-175.3h863l0,0v77.17c0,17.03-13.81,30.83-30.83,30.83l0,0h-801.33
			c-17.03,0-30.83-13.81-30.83-30.83c0,0,0,0,0,0V-175.3L1340.44-175.3z"/>
		<ellipse class="st14" cx="1402.94" cy="-126.3" rx="49.5" ry="16"/>
		<ellipse class="st14" cx="1642.44" cy="-126.3" rx="67" ry="16"/>
		<path class="st20" d="M1721.13-499.57v-50.09h-160.29v50.09h-50.09v58.68h-115.93v230.42h377.83v-289.1H1721.13z M1509.32-233.37
			h-88.73v-17.17h88.73V-233.37z M1509.32-286.32h-88.73v-17.17h88.73V-286.32z M1509.32-339.27h-88.73v-17.17h88.73V-339.27z
			 M1509.32-392.23h-88.73v-17.17h88.73V-392.23z M1603.77-247.68h-51.52v-51.52h51.52V-247.68z M1603.77-330.69h-51.52v-51.52
			h51.52V-330.69z M1603.77-413.69h-51.52v-51.52h51.52V-413.69z M1735.44-247.68h-51.52v-51.52h51.52V-247.68z M1735.44-330.69
			h-51.52v-51.52h51.52V-330.69z M1735.44-413.69h-51.52v-51.52h51.52V-413.69z"/>
		<path class="st20" d="M1832.76-499.57v289.1h367.81v-230.42h-112.85v-58.68h-48.76v-50.09h-156.04v50.09L1832.76-499.57z
			 M2089.12-250.54h86.38v17.17h-86.38V-250.54z M2089.12-303.49h86.38v17.17h-86.38V-303.49z M2089.12-356.45h86.38v17.17h-86.38
			V-356.45z M2089.12-409.4h86.38v17.17h-86.38V-409.4z M1997.16-299.2h50.16v51.52h-50.16V-299.2z M1997.16-382.21h50.16v51.52
			h-50.16V-382.21z M1997.16-465.22h50.16v51.52h-50.16V-465.22z M1868.99-299.2h50.16v51.52h-50.16V-299.2z M1868.99-382.21h50.16
			v51.52h-50.16V-382.21z M1868.99-465.22h50.16v51.52h-50.16V-465.22z"/>
		<path class="st24" d="M2149.05-717.1h-771.44c-20.53,0-37.17,16.64-37.17,37.17l0,0v532.43h863v-532.43
			c0-20.53-16.64-37.17-37.17-37.17l0,0H2149.05z M1394.82-654.13h309.13v443.67h-309.13V-654.13z M2149.05-210.47h-310.57v-443.67
			h310.57V-210.47z"/>
		<path class="st14" d="M2149.05-717.1h-771.44c-20.53,0-37.17,16.64-37.17,37.17l0,0v532.43h863v-532.43
			c0-20.53-16.64-37.17-37.17-37.17l0,0H2149.05z M1394.82-654.13h309.13v443.67h-309.13V-654.13z M2149.05-210.47h-310.57v-443.67
			h310.57V-210.47z"/>
		<path class="st14" d="M2197.85-151.96c0,48.74-67.93,33.66-151.11,33.66s-150.1,15.08-150.1-33.66s67.92-59.34,151.1-59.34
			S2197.85-200.7,2197.85-151.96z"/>
		<path class="st24" d="M2197.85-163.96c0,48.74-67.93,33.66-151.11,33.66s-150.1,15.08-150.1-33.66s67.92-59.34,151.1-59.34
			S2197.85-212.7,2197.85-163.96z"/>
		<path class="st30" d="M1676.91-321.14l-4.32,42.96c0,0,6.13,45.59,3.11,68.19c-3.02,22.6-7.75,47.45-7.75,47.45l-12.29-1.37
			c0,0,0.04-22.2-2.01-30s-2.3-47.11-2.3-47.11s-6.89-21.27-5.71-27.48s-1.96-37.07-1.96-37.07L1676.91-321.14z"/>
		<path class="st30" d="M1596.94-318.8l10,42c0,0,0,46,6,68s14,46,14,46l12-3c0,0-3-22-2-30s-4-47-4-47s4-22,2-28s-3-37-3-37
			L1596.94-318.8z"/>
		<path class="st31" d="M1643.92-129.63c-0.39,1.11-1.07,2.09-1.98,2.83c-2.5,1.88-8.56,1.8-13.45,0.98
			c-0.13-0.02-0.26-0.05-0.39-0.07c-2.15-0.28-4.23-0.92-6.16-1.91c-3-2,0-7,2-7s3-8,3-8c0.09-2.69,0.43-5.37,1-8c1-5-4-10-4-12
			s16-6,16-6s3,14,4,17s1,12,1,12S1645.55-133.73,1643.92-129.63z"/>
		<path class="st14" d="M1643.92-129.63c-0.39,1.11-1.07,2.09-1.98,2.83c-2.5,1.88-8.56,1.8-13.45,0.98
			c1.74-5.47,5.46-15.34,9.45-14.98C1640.82-140.54,1642.74-134.92,1643.92-129.63z"/>
		<path class="st31" d="M1632.94-140.8l1.88,15.53l2.49-0.12c0,0,3.63-12.41,5.63-15.41H1632.94z"/>
		<path class="st31" d="M1650.96-132.13c0.39,1.11,1.07,2.09,1.98,2.83c2.5,1.88,8.56,1.8,13.45,0.98c0.13-0.02,0.26-0.05,0.39-0.07
			c2.15-0.28,4.23-0.92,6.16-1.91c3-2,0-7-2-7s-3-8-3-8c-0.09-2.69-0.43-5.37-1-8c-1-5,4-10,4-12s-16-6-16-6s-3,14-4,17s-1,12-1,12
			S1649.33-136.23,1650.96-132.13z"/>
		<path class="st14" d="M1650.96-132.13c0.39,1.11,1.07,2.09,1.98,2.83c2.5,1.88,8.56,1.8,13.45,0.98
			c-1.74-5.47-5.46-15.34-9.45-14.98C1654.06-143.04,1652.14-137.42,1650.96-132.13z"/>
		<path class="st31" d="M1661.94-143.3l-1.88,15.53l-2.49-0.12c0,0-3.63-12.41-5.63-15.41H1661.94z"/>
		<circle class="st32" cx="1636.44" cy="-534.3" r="22"/>
		<path class="st30" d="M1623.94-521.8c0,0,4,20-8,25s-30,8-27,27s93,9,97,2s3-9,3-9s8-13-30-23c0,0-17-2-11-18
			C1653.94-533.8,1623.94-521.8,1623.94-521.8z"/>
		<path class="st2" d="M1601.94-450.8c0,0,6,61-1,68s-25,62-7,71s85,25,91-3c3.51-17.12,1.76-34.89-5-51l-9-40l1-43L1601.94-450.8z"
			/>
		<path class="st30" d="M1590.94-447.8l5,38c0,0-4,19-4,53s-7,47,3,48s6-30,6-30l13-60c0,0-1-45-4-46S1590.94-447.8,1590.94-447.8z"
			/>
		<path class="st30" d="M1673.94-447.8l1,43l11,50c0,0-6,35,4,32s4-33,4-33s4-47-2-58l-1-39L1673.94-447.8z"/>
		<path class="st31" d="M1618.04-559.32c-1.65,0.89-3.08,2.13-4.21,3.62c-0.7,1.22-1.23,2.52-1.59,3.88
			c-1.43,4.35-3.49,8.46-6.12,12.2c-1.86,2.64-4.03,5.16-4.99,8.24c-1.3,4.16-0.14,8.79,2.17,12.49c2.31,3.7,5.67,6.61,9.09,9.31
			c1.85,1.46,3.98,2.96,6.33,2.75c1.49-0.27,2.91-0.83,4.18-1.65c8.49-4.44,18.9-4.61,27.9-1.33c3.54,1.29,6.93,3.09,10.63,3.8
			c1.36,0.26,2.92,0.32,3.95-0.6c0.76-0.84,1.19-1.93,1.22-3.07c0.38-3.24,0.16-6.53-0.64-9.7c-0.59-2.3-1.48-4.52-1.98-6.83
			c-0.84-3.88-0.56-7.93-1.24-11.84c-0.77-3.77-2.09-7.4-3.93-10.78c-2.44-4.83-5.42-9.57-9.81-12.73
			c-4.98-3.59-9.22-2.92-14.86-2.6c-2.73,0.16-5.1-0.11-7.79,0.73C1623.42-562.42,1620.63-561.04,1618.04-559.32z"/>
		<path class="st2" d="M1606.94-466.8c0,0-15-6-18-4s-7,25-4,27s4-3,8,1s4,5,9,3s10-1,10,0s61-2,62-3s5-2,9-2s9-2,11-4s0-1,3-1
			s6,0,4-3s-8-24-11-24s-16,15-47,13S1606.94-466.8,1606.94-466.8z"/>
		<polygon class="st31" points="1415.75,-128.01 1387.28,-128.01 1373.27,-165.05 1434.44,-164.3 		"/>
		<polygon class="st14" points="1415.75,-128.01 1387.28,-128.01 1373.27,-165.05 1434.44,-164.3 		"/>
		<path class="st2" d="M1420.8-299.54c0.68,5.22,1.28,11.1,1.63,17.33l12.32-20.88l0.15,0.28c-1.84-4.05-4.23-7.82-7.12-11.2
			l0.16,0.26L1420.8-299.54z"/>
		<path class="st2" d="M1427.59-314.22c-2.72-3.22-6.21-5.69-10.15-7.2c-0.19-0.07-0.38-0.13-0.57-0.19
			c0.34,1.39,2.25,9.57,3.81,21.15L1427.59-314.22z"/>
		<path class="st2" d="M1421.72-252.19c-0.16,1.33-0.33,2.64-0.52,3.94l20.64-18.5l0.1,0.34c0.06-2.24,0.03-4.46-0.08-6.66
			l-20.09,21.04L1421.72-252.19z"/>
		<path class="st2" d="M1422.64-264.39l17.56-21.7l0.13,0.31c-1.1-5.77-2.87-11.39-5.29-16.74l-12.56,21.28
			C1422.78-275.39,1422.83-269.78,1422.64-264.39z"/>
		<path class="st2" d="M1422.05-281.5l-30.98-23.04l0.07-0.35c-1.69,3.82-3,7.81-3.89,11.9l35.05,24.82
			C1422.38-272.85,1422.27-277.34,1422.05-281.5z"/>
		<path class="st2" d="M1422.18-263.98c0.05-1.15,0.08-2.28,0.1-3.41l-35.18-24.91l0.07-0.35c-0.32,1.44-0.59,2.92-0.83,4.44
			l0.06-0.35L1422.18-263.98z"/>
		<path class="st2" d="M1421.81-252.97l19.92-20.86l0.11,0.33c-0.21-3.99-0.69-7.96-1.44-11.89l-17.8,21.99
			C1422.45-259.81,1422.18-256.33,1421.81-252.97z"/>
		<path class="st2" d="M1388.06-259.93l0.09-0.38l29.62,25.78c1.17-4.11,2.09-8.28,2.76-12.5l-34.67-24.19
			C1386.34-267.41,1387.08-263.64,1388.06-259.93z"/>
		<path class="st2" d="M1416.43-321.55l0.19-0.14c-5.68-1.7-11.17-0.27-15.93,3.58l19.57,17.71
			C1418.57-312.92,1416.46-321.43,1416.43-321.55z"/>
		<path class="st2" d="M1439.52-251.42c1.16-3.36,1.9-6.85,2.19-10.39c0.11-1.39,0.18-2.78,0.22-4.17l-20.88,18.72
			c-0.06,0.4-0.12,0.8-0.19,1.2c-0.63,3.8-1.46,7.57-2.5,11.28l21.07-16.97L1439.52-251.42z"/>
		<path class="st2" d="M1420.38-299.46l-20.02-18.11l0.09-0.33c-3.96,3.51-7.09,7.85-9.18,12.72l30.73,22.85
			C1421.65-288.49,1421.06-294.3,1420.38-299.46z"/>
		<path class="st2" d="M1420.63-247.75l0.02-0.02c0.78-5.12,1.28-10.27,1.5-15.45l-35.87-24.64c-0.32,2.06-0.56,4.18-0.73,6.37
			c-0.22,3.13-0.15,6.28,0.21,9.4L1420.63-247.75z"/>
		<path class="st2" d="M1472.42-227.56l-0.04,0.3l-14.57,6.4c-2.8,4.46-6.09,9.37-9.79,14.39l22.81-8.22l-0.06,0.31
			C1471.93-218.68,1472.49-223.12,1472.42-227.56z"/>
		<path class="st2" d="M1472.41-227.84c-0.04-4.21-1.15-8.35-3.23-12.02c-0.1-0.17-0.21-0.34-0.32-0.51
			c-0.63,1.29-4.37,8.81-10.56,18.72L1472.41-227.84z"/>
		<path class="st2" d="M1428.33-183.81c-0.97,0.93-1.94,1.83-2.91,2.7l27.7-1.09l-0.14,0.33c1.47-1.69,2.86-3.41,4.18-5.18
			l-28.89,3.39L1428.33-183.81z"/>
		<path class="st2" d="M1436.81-192.62l27.37-5.51l-0.1,0.32c2.84-5.14,5.05-10.6,6.61-16.27l-23.24,8.38
			C1443.94-201,1440.4-196.64,1436.81-192.62z"/>
		<path class="st2" d="M1428.89-184.35l28.65-3.37l-0.12,0.32c2.38-3.21,4.54-6.57,6.47-10.07l-27.74,5.58
			C1433.74-189.21,1431.32-186.7,1428.89-184.35z"/>
		<path class="st2" d="M1397.23-163.4c0.16-0.25,0.33-0.5,0.49-0.76c5.55-2.08,10.84-4.83,15.74-8.17l-3.36-20.41
			c0.12-0.56,0.24-1.13,0.34-1.7l3.57,21.73c3.52-2.42,6.89-5.05,10.1-7.87l-10.29-37.21c0.18-0.15,0.36-0.29,0.55-0.45l10.28,37.16
			l0.03,0c3.86-3.45,7.54-7.1,11.01-10.94l-10.4-36.56c0.17-0.19,0.34-0.37,0.51-0.57l10.4,36.56c0.77-0.85,1.52-1.71,2.26-2.56
			l-9.99-37.12c0.17-0.21,0.34-0.41,0.5-0.62l10,37.14c3.04-3.55,5.82-7.08,8.31-10.43l-9.17-37.51l0.27-0.22
			c-0.99,0.49-1.99,1.03-3,1.6c1.55-2.72,2.87-5.57,3.93-8.52l-21.27,17.13c-1.01,3.46-2.25,6.85-3.71,10.15
			c-0.34,0.49-0.69,0.97-1.02,1.48l0.12,0.45c-0.14,0.29-0.28,0.59-0.43,0.88l-0.17-0.6c-0.24,0.37-0.46,0.75-0.7,1.13
			c2.25-4.37,4.07-8.95,5.44-13.67l-29.4-25.59c0.71,2.67,1.52,5.34,2.41,7.96c-2.87-3.06-6.14-5.72-9.72-7.91l0.23,0.2l-2.4,15.73
			c2.26,4.76,4.65,10.16,6.91,15.97l5.19-23.34c0.11,0.32,0.23,0.65,0.34,0.97l-5.18,23.29c2.09,5.46,3.88,10.79,5.35,15.97
			l7.78-20.27c0.12,0.24,0.24,0.49,0.35,0.73l-7.86,20.49c0.97,3.46,1.79,6.85,2.47,10.17l10.22-21.27
			c0.12,0.23,0.24,0.45,0.36,0.67l-10.33,21.5l-0.1-0.13c0.26,1.31,0.5,2.62,0.72,3.9l12.15-20.95c0.13,0.23,0.26,0.44,0.37,0.64
			l-12.36,21.31c0.06,0.4,0.13,0.8,0.19,1.2c0.58,3.81,0.95,7.65,1.11,11.5l1.21-1.85c-0.17,0.66-0.33,1.3-0.48,1.94l-0.69,1.05
			c0.02,0.59,0.02,1.17,0.02,1.75c-0.18,0.77-0.35,1.51-0.51,2.24c0.03-1.34,0.03-2.68-0.01-4.02l-35.88-15.25
			c12.48,19.34,32.01,36.18,33.26,37.24c0.5-1.66,0.91-3.36,1.26-5.07c0.19-0.06,0.38-0.12,0.57-0.18
			c-0.04,0.21-0.09,0.42-0.13,0.63c-0.1,0.03-0.19,0.07-0.29,0.1c0.08,0.01,0.18,0.01,0.26,0.02c-0.25,1.2-0.52,2.38-0.83,3.53
			c0.56-0.76,1.41-1.93,2.41-3.44c7.79,0.38,28.54,0.37,44.4-9.07l-27.31-0.37C1408.58-168.4,1403.05-165.54,1397.23-163.4z
			 M1408.87-200.23l0.5-0.76l0.16,0.96l-0.5,0.76L1408.87-200.23z"/>
		<path class="st2" d="M1468.49-240.6l0.23,0.02c-3.3-4.93-8.43-7.34-14.56-7.4l3.78,26.12
			C1464.63-232.59,1468.43-240.49,1468.49-240.6z"/>
		<path class="st2" d="M1423.75-179.64c-2.91,2.53-5.95,4.9-9.11,7.09l27.05,0.37l-0.14,0.32c3.04-1.84,5.83-4.06,8.31-6.61
			c0.97-1,1.91-2.03,2.83-3.07l-28.03,1.1C1424.36-180.17,1424.05-179.9,1423.75-179.64z"/>
		<path class="st2" d="M1438.68-244.04l9.09,37.2c3.66-4.97,6.9-9.82,9.67-14.22l-3.86-26.72l0.28-0.2
			C1448.57-247.81,1443.38-246.46,1438.68-244.04z"/>
		<path class="st2" d="M1380.64-259.55c-3.58-2.22-7.67-3.49-11.88-3.71c-0.2,0-0.4,0-0.6,0c0.75,1.22,5.1,8.41,10.16,18.94
			L1380.64-259.55z"/>
		<path class="st2" d="M1385.48-226.72l-36.58-12.34l-0.04-0.35c-0.43,4.16-0.44,8.35-0.02,12.52l41.01,12.77
			C1388.47-218.59,1386.98-222.83,1385.48-226.72z"/>
		<path class="st2" d="M1391.02-210.09c-0.31-1.1-0.63-2.2-0.96-3.28l-41.16-12.82l-0.04-0.35c0.14,1.47,0.34,2.96,0.58,4.48
			l-0.05-0.35L1391.02-210.09z"/>
		<path class="st2" d="M1395.94-180.72c-0.16-4.27-0.58-8.52-1.24-12.74l-40.45-12.29c1.63,3.47,3.5,6.83,5.58,10.06l-0.03-0.39
			L1395.94-180.72z"/>
		<path class="st2" d="M1367.76-263.07l0.14-0.19c-5.93,0.14-10.71,3.19-14.04,8.33l24.08,10.79
			C1372.46-255.52,1367.82-262.96,1367.76-263.07z"/>
		<path class="st2" d="M1378.34-243.28l-24.63-11.04l-0.02-0.34c-2.68,4.56-4.32,9.66-4.8,14.93l36.29,12.24
			C1382.94-233.24,1380.58-238.58,1378.34-243.28z"/>
		<path class="st2" d="M1394.58-194.2c-0.84-5.11-1.96-10.17-3.35-15.15l-41.73-12.35c0.34,2.06,0.76,4.15,1.28,6.29
			c0.76,3.05,1.8,6.02,3.11,8.88l40.68,12.36L1394.58-194.2z"/>
		<polygon class="st31" points="1415.75,-124.01 1387.28,-124.01 1374.27,-163.05 1433.65,-163.05 		"/>
	</g>
	<g>
		<title>play time</title>
		<path class="st24" d="M340.82-274.52c-15.39,0-30.09,0.3-43.54,0.83c0.02-0.11,0.03-0.22,0.04-0.33c0-4.67-16.03-8.93-42.47-12.19
			c77.86-4.23,130.04-11.99,130.04-20.87c0-13.4-118.82-24.26-265.4-24.26s-265.4,10.86-265.4,24.26c0,2.5,4.14,4.91,11.81,7.18
			c-45.73,1.55-78.58,5.84-78.58,10.88c0,6.35,52.16,11.5,116.5,11.5c20.6,0,39.94-0.53,56.73-1.45c-4.05,1.58-6.23,3.24-6.23,4.95
			c0,10.22,76.78,18.5,171.5,18.5c39.35,0,75.6-1.43,104.54-3.84c15.5,4.55,59.1,7.84,110.46,7.84c64.34,0,116.5-5.15,116.5-11.5
			S405.16-274.52,340.82-274.52z"/>
		<path class="st24" d="M-116.64-340.97c6.71,24.79,29.68,40.14,29.68,40.14s12.1-24.84,5.39-49.63s-29.68-40.14-29.68-40.14
			S-123.34-365.76-116.64-340.97z"/>
		<path class="st2" d="M-106.78-346.29c18.4,17.91,20.65,45.45,20.65,45.45s-27.59-1.51-45.99-19.42s-20.65-45.45-20.65-45.45
			S-125.19-364.21-106.78-346.29z"/>
		<path class="st31" d="M124.91-873.57c0,0,2.11,2.42-1.51,7.1s-0.7,14.84,6.18,15.1c6.87,0.26,10.21,3.14,8.55,6.93
			c-1.66,3.79-3.65,12.81,3.84,11.44s9.85,1.61,8.53,3.9s3.34-4.56,3.34-4.56s4.17,6.22,9.29,1.86c5.12-4.35,7.16-43.79-3.28-44.46
			C149.4-876.92,124.91-873.57,124.91-873.57z"/>
		<polygon class="st33" points="177.83,-686.01 180.21,-669.36 190.91,-669.36 187.34,-688.39 		"/>
		<path class="st29" d="M192.1-679.47c0,0,14.27,13.08,10.71,14.27c-3.57,1.19-16.65,15.46-19.03,16.65
			c-2.13,1.06-24.98,8.33-21.41,0s11.89-13.08,11.89-13.08l2.38-14.27L192.1-679.47z"/>
		<path class="st14" d="M192.1-679.47c0,0,14.27,13.08,10.71,14.27c-3.57,1.19-16.65,15.46-19.03,16.65
			c-2.13,1.06-24.98,8.33-21.41,0s11.89-13.08,11.89-13.08l2.38-14.27L192.1-679.47z"/>
		<polygon class="st33" points="192.1,-698.5 194.48,-681.85 205.19,-681.85 201.62,-700.88 		"/>
		<path class="st34" d="M147.37-742.71l15.59-51.55c0,0-26.17-23.79-8.33-30.93c17.84-7.14,22.6,28.55,22.6,28.55l-5.95,61.85H147.5
			L147.37-742.71z"/>
		<path class="st2" d="M183.78-780.57c0,0-30.74,39.43-26.08,45.29c4.67,5.86,12.99,41.54,12.99,41.54s-1.19,14.27,3.57,14.27
			s16.65-2.38,16.65-5.95s-10.71-48.77-10.71-48.77l30.93-40.44L183.78-780.57z"/>
		<path class="st2" d="M186.15-778.2l30.93-16.65c0,0,21.41,10.71,15.46,20.22c-5.95,9.52-33.31,34.49-33.31,34.49
			s8.33,40.44,7.14,41.63s-14.27,5.95-17.84,4.76s-22.6-47.58-17.84-49.96s20.22-27.36,20.22-27.36L186.15-778.2z"/>
		<path class="st31" d="M101.7-341.66c0,0,21.41,13.08,23.79,13.08s34.49,8.33,20.22,14.27s-68.99-2.38-67.8-5.95
			s0-24.98,2.38-24.98S101.7-341.66,101.7-341.66z"/>
		<path class="st31" d="M125.49-325.01c0,0,21.41,13.08,23.79,13.08s34.49,8.33,20.22,14.27s-68.99-2.38-67.8-5.95
			s0-24.98,2.38-24.98S125.49-325.01,125.49-325.01z"/>
		<path class="st35" d="M102.89-577.18c0,0,3.57,17.84,9.52,30.93s-1.19,74.94-4.76,84.45S69.59-339.28,80.29-338.09
			s32.12,0,32.12,0l34.49-108.24l-5.95-145.12L102.89-577.18z"/>
		<path class="st14" d="M102.89-577.18c0,0,3.57,17.84,9.52,30.93s-1.19,74.94-4.76,84.45S69.59-339.28,80.29-338.09
			s32.12,0,32.12,0l34.49-108.24l-5.95-145.12L102.89-577.18z"/>
		<path class="st35" d="M110.03-575.99c0,0,4.76,32.12,15.46,39.25s7.14,14.27,7.14,14.27l-4.76,63.04
			c0,0-46.39,114.19-32.12,128.46s27.36,8.33,33.31,7.14s16.65-26.17,10.71-33.31s11.89-49.96,16.65-57.09s0-16.65,5.95-19.03
			s19.03-17.84,19.03-28.55s16.65-124.89,5.95-132.03c-10.71-7.14-79.33,14.73-79.33,14.73L110.03-575.99z"/>
		<circle class="st34" cx="87.43" cy="-768.68" r="26.17"/>
		<circle class="st33" cx="146.9" cy="-863.84" r="21.41"/>
		<path class="st34" d="M105.27-768.68c0,0,14.27,26.17,21.41,26.17s-28.55,27.36-28.55,27.36s-11.89-34.49-14.27-35.68
			S105.27-768.68,105.27-768.68z"/>
		<path class="st36" d="M110.03-744.89c0,0-30.93,10.71-29.74,14.27s-8.33,11.89-8.33,15.46s-2.38,35.68,11.89,61.85
			s36.87,45.2,26.17,57.09s-27.36,32.12-9.52,32.12s46.39-26.17,72.56-16.65c26.17,9.52,20.22-26.17,20.22-26.17
			s3.57-27.36-3.57-35.68c-7.14-8.33-32.12-67.8-32.12-74.94c0-7.14-23.79-34.49-29.74-34.49S110.03-744.89,110.03-744.89z"/>
		<path class="st37" d="M146.9-850.75"/>
		<path class="st33" d="M152.85-850.75c0,0,9.69,18.42,10.2,21.7c0.51,3.28,17.16-21.7,17.16-21.7l-19.03-13.08L152.85-850.75z"/>
		<path class="st29" d="M156.42-836.48l20.22-21.41l23.79,10.71c0,0,22.19,48.77,23.58,52.34c1.4,3.57-35.48,20.22-39.05,20.22
			s-28.55-36.87-28.55-36.87S150.47-829.34,156.42-836.48z"/>
		<polygon class="st33" points="146.9,-807.93 146.9,-786.52 161.18,-786.52 156.48,-807.93 		"/>
		<path class="st33" d="M155.05-791.87c-3.69-0.05-7.03,2.19-8.38,5.63c-0.93,2.51-0.61,5.16,3.8,6.26c9.52,2.38,10.71,0,10.71,0
			s16.52-2.38,13.02-7.14s-13.02-4.76-13.02-4.76H155.05z"/>
		<path class="st29" d="M206.38-688.99c0,0,14.27,13.08,10.71,14.27c-3.57,1.19-16.65,15.46-19.03,16.65
			c-2.13,1.06-24.98,8.33-21.41,0s11.89-13.08,11.89-13.08l2.38-14.27L206.38-688.99z"/>
		<path class="st31" d="M78.1-788.82c1.64-0.96,3.57-2.15,3.62-4.05c-0.09-1.42-1.01-2.66-2.35-3.15c-1.32-0.46-2.72-0.64-4.11-0.55
			c-0.53-0.03-1.07,0.03-1.59,0.16c-1.35,0.42-2.14,1.79-3.2,2.73c-1.55,1.36-3.68,1.75-5.68,2.27c-3.34,0.87-6.54,2.19-9.51,3.94
			c-0.59,0.3-1.1,0.72-1.51,1.24c-0.47,0.96-0.68,2.02-0.6,3.08c-0.27,4.04-2.69,7.55-4.49,11.17s-2.99,8.13-0.87,11.57
			c0.84,1.07,1.63,2.19,2.35,3.34c1.5,3.13-0.37,6.99,0.71,10.28c0.49,1.3,1.27,2.47,2.28,3.41c2.09,2.1,4.66,3.66,7.49,4.54
			c2.7,0.83,6.06,1.39,7.12,4.01c0.45,1.13,0.36,2.45,1,3.48c0.79,1.28,2.43,1.69,3.91,1.96c1.66,0.38,3.37,0.5,5.06,0.37
			c1.71-0.15,3.29-0.99,4.37-2.34c0.48-0.94,1.07-1.81,1.77-2.61c1.72-1.44,4.34-0.3,6.55-0.68c1.83-0.35,3.29-1.72,3.75-3.52
			c0.06-0.94,0.32-1.86,0.76-2.69c1.37-1.76,4.99-0.52,5.9-2.56c0.59-1.32-0.64-2.72-1.84-3.55c-1.94-1.34-4.12-2.38-5.86-3.97
			c-1.74-1.6-3.03-3.98-2.49-6.28c0.82-3.45,5.32-5.35,5.47-8.89c0.09-2.03-1.37-3.81-3-5.02c-1.63-1.21-3.52-2.08-4.98-3.49
			c-1.07-1.03-1.87-2.33-3.03-3.25c-2.1-1.68-4.97-1.88-7.64-2.15c-1.43-0.15-7.15-0.81-6.92-2.99
			C70.72-784.84,76.65-787.97,78.1-788.82z"/>
		<path class="st29" d="M156.42-837.67c0,0-13.08,4.76-13.08,10.71c0,5.95-5.95,24.98,0,24.98s17.84-4.57,17.84-4.57L156.42-837.67z
			"/>
		<path class="st34" d="M152.85-752.03c0,0,34.49-11.89,35.68-11.89s17.84-9.52,16.65-13.08l-4.76-29.74c0,0-19.03-39.25-5.95-39.25
			s20.22,30.93,20.22,30.93s28.55,53.53,13.08,65.42c-15.46,11.89-79.69,33.31-83.26,29.74S152.85-752.03,152.85-752.03z"/>
		<path class="st33" d="M186.15-829.34l8.03,7.74l-10.41,10.1c0,0-14.27-5.95-13.08-2.38s8.33,14.27,13.08,14.27
			s29.52-15.46,29.63-20.22c0.11-4.76-15.35-21.41-18.92-22.6S186.15-829.34,186.15-829.34z"/>
		<path class="st29" d="M171.06-837.63c0,0,17.48,15.43,19.85,15.43s6.71-23.18,6.71-23.18s-14.1-9.19-19.32-6.68
			S171.06-837.63,171.06-837.63z"/>
		<path class="st36" d="M110.03-737.75c0,0,0-16.65,35.68-16.65h15.46l-7.14,39.25l-23.79,7.14L110.03-737.75z"/>
		<path class="st31" d="M187.98-872.52c-3.5-0.02-6.99-0.23-10.46-0.65c-2.73-6.59-6.2-12.12-9.96-14.18
			c-2.67-2.39-6.78-4.12-10.01-5.49c-7.93-3.37-21.12-1.27-21.89,2.56c-15.6,7.45-11.65,20.54-11.65,20.54
			c2.42,5.12,7.86,2.85,12.47,0.53c1.18,3.71,3.96,6.86,7.94,7.01c7.62,0.29,11.31,3.48,9.47,7.68s-4.04,14.19,4.25,12.67
			c8.29-1.52,10.92,1.78,9.45,4.32s3.7-5.05,3.7-5.05s4.62,6.89,10.29,2.07c0.57-0.55,0.98-1.25,1.18-2.02
			c2.64,1.14,4.73,1.57,5.91,1.04c6.79-3.04,2.57-10.18,2.57-10.18s9.07-1.39,6.15-1.16c-2.92,0.23-4.77-3.56,0.17-10.39
			S192.56-872.36,187.98-872.52z"/>
		
			<rect x="133.22" y="-875.14" transform="matrix(0.3158 -0.9488 0.9488 0.3158 923.4906 -466.0962)" class="st2" width="10.71" height="3.57"/>
		<path class="st29" d="M-68.62-687.76c-46.28,0.21-83.94,0.9-83.94,0.9s44.77-59.31,83.78-37.33c39,21.97,83.81,36.56,83.81,36.56
			S-22.35-687.97-68.62-687.76z"/>
		<path class="st29" d="M264.38-921.76c-46.28,0.21-83.94,0.9-83.94,0.9s44.77-59.31,83.78-37.33c39,21.97,83.81,36.56,83.81,36.56
			S310.65-921.97,264.38-921.76z"/>
		<path class="st29" d="M341.27-670.76c46.28,0.21,83.94,0.9,83.94,0.9s-44.77-59.31-83.78-37.33c-39,21.97-83.81,36.56-83.81,36.56
			S294.99-670.97,341.27-670.76z"/>
	</g>
	<g>
		<title>void</title>
		<ellipse class="st24" cx="301.06" cy="929.46" rx="159.91" ry="28.25"/>
		<circle class="st24" cx="398.25" cy="681.43" r="156.29"/>
		<circle class="st16" cx="398.25" cy="681.43" r="129.02"/>
		<circle class="st16" cx="398.25" cy="681.43" r="105.74"/>
		<circle class="st16" cx="398.25" cy="681.43" r="75.81"/>
		<path class="st38" d="M243.35,695.41c0,0-12.29,34.59-6.83,46.87c5.46,12.29,14.11,24.12,14.11,24.12S247.45,697.69,243.35,695.41
			z"/>
		<path class="st14" d="M243.35,695.41c0,0-12.29,34.59-6.83,46.87c5.46,12.29,14.11,24.12,14.11,24.12S247.45,697.69,243.35,695.41
			z"/>
		<path class="st31" d="M252,775.51c0,0-0.91,8.65-1.37,9.1c-0.46,0.46,0.46,1.37,0,2.73c-0.46,1.37-0.91,3.19,0,3.64
			c0.91,0.46-5.01,40.5-5.01,40.5s-14.56,19.11-8.65,49.15l1.82,30.49c0,0,14.11,0.91,14.11-4.1c0,0-0.91-5.92-0.91-8.65
			s2.28-2.73,0.91-4.1c-1.37-1.37-1.37-2.28-1.37-2.28s2.28-1.82,1.82-2.28s4.1-32.77,4.1-32.77s5.01-5.01,5.01-7.74v-2.73
			c0,0,2.28-5.92,2.28-6.37s12.29-28.21,12.29-28.21l5.01,20.02l5.46,28.67c0,0,2.73,25.94,8.19,35.95c0,0,9.56,32.77,9.56,31.86
			s15.93-3.19,15.47-7.28c-0.46-4.1-9.56-61.44-9.56-61.44l2.28-85.1L252,775.51z"/>
		<path class="st31" d="M239.71,908.85c0,0-12.29,24.12-4.1,25.03c8.19,0.91,11.38,0.91,15.02-2.73c1.99-1.99,6.02-4.66,9.27-6.67
			c3.92-2.39,6.13-6.82,5.69-11.39c-0.24-2.23-1.07-4.06-3.12-4.23c-5.46-0.46-11.83-5.46-11.83-5.46L239.71,908.85z"/>
		<path class="st31" d="M307.52,926.59c0,0-12.29,24.12-4.1,25.03c8.19,0.91,11.38,0.91,15.02-2.73c1.99-1.99,6.02-4.66,9.27-6.67
			c3.92-2.39,6.13-6.82,5.69-11.39c-0.24-2.23-1.07-4.06-3.12-4.23c-5.46-0.46-11.83-5.46-11.83-5.46L307.52,926.59z"/>
		<circle class="st34" cx="294.53" cy="636.81" r="19.13"/>
		<path class="st34" d="M282.23,643.1c0,0-13.66,25.14-14.76,25.14s24.6,8.2,24.6,8.2s7.11-24.05,8.2-26.24L282.23,643.1z"/>
		<path class="st38" d="M303.19,670.61c0,0-27.3-15.02-30.04-14.56c-2.73,0.46-31.86,25.94-31.4,36.41
			c0.46,10.47,4.1,27.76,4.1,27.76s1.37,48.24,4.1,48.69s-0.46,8.65,0.46,8.65s63.71,0,64.17-1.37
			C315.03,774.82,303.19,670.61,303.19,670.61z"/>
		<path class="st34" d="M318.44,778.69c0,0,8.65,26.39,1.37,25.48c-7.28-0.91-10.47-22.75-10.47-22.75L318.44,778.69z"/>
		<path class="st38" d="M295.23,669.02c0,0-16.84,3.64-14.11,26.39c2.73,22.75,7.74,45.51,7.74,45.51l16.84,36.86l1.82,6.83
			l12.29-3.19l-9.1-52.79c0,0-3.19-56.43-7.28-58.25C300.84,669.28,298.03,668.81,295.23,669.02z"/>
		<polygon class="st14" points="284.99,740.24 305.92,777.55 288.29,738.23 		"/>
		<path class="st31" d="M313.58,631.18l0.06-1.46l2.91,0.72c-0.06-0.95-0.54-1.82-1.3-2.39l3.1-0.17
			c-5.25-7.46-13.33-12.46-22.35-13.81c-6.7-0.97-14.16,0.43-18.76,5.41c-2.23,2.41-3.63,5.48-4.62,8.61
			c-1.83,5.76-2.21,12.63,1.62,17.32c3.89,4.76,10.68,5.69,16.8,6.28c2.15,0.21,4.41,0.4,6.4-0.44c0.22-2.29-0.07-4.6-0.86-6.76
			c-0.33-0.67-0.48-1.41-0.46-2.15c0.27-1.82,2.7-2.28,4.52-2.03s4.02,0.62,5.22-0.77c0.83-0.96,0.78-2.36,0.89-3.63
			C307.04,632.46,313.54,631.9,313.58,631.18z"/>
		<circle class="st2" cx="430.91" cy="911.06" r="22.29"/>
		<circle class="st2" cx="169.14" cy="903.28" r="22.29"/>
		<circle class="st2" cx="169.14" cy="873.74" r="16.07"/>
		<circle class="st2" cx="169.14" cy="848.86" r="11.4"/>
	</g>
	<g>
		<defs>
			<rect id="SVGID_3_" x="1.82" width="1240.18" height="412.08"/>
		</defs>
		<clipPath id="SVGID_4_">
			<use xlink:href="#SVGID_3_"  style="overflow:visible;"/>
		</clipPath>
		<rect x="1.82" class="st39" width="1240.18" height="412.08"/>
		<g class="st40">
			<title>a_moment_to_relax</title>
			<path class="st24" d="M987.14,412.45c0,0,2.33-9.8,18.66-6.53c16.33,3.27,18.66,6.53,18.66,6.53H987.14z"/>
			<path class="st24" d="M906.67,399.63c0,0,2.33-9.8,18.66-6.53c16.33,3.27,18.66,6.53,18.66,6.53H906.67z"/>
			<path class="st24" d="M1043.11,412.45c0,0-13.06-7.93-18.66,0H1043.11z"/>
			<path class="st24" d="M982.24,390.06c0,0-13.06-7.93-18.66,0H982.24z"/>
			<path class="st41" d="M908.97,382.78c3.89,7.21,12.14,10.31,12.14,10.31s1.95-8.6-1.94-15.81c-3.89-7.21-12.14-10.31-12.14-10.31
				S905.08,375.57,908.97,382.78z"/>
			<path class="st42" d="M908.97,382.78c3.89,7.21,12.14,10.31,12.14,10.31s1.95-8.6-1.94-15.81c-3.89-7.21-12.14-10.31-12.14-10.31
				S905.08,375.57,908.97,382.78z"/>
			<path class="st41" d="M911.64,380.41c7.02,4.22,9.72,12.61,9.72,12.61s-8.68,1.54-15.7-2.68c-7.02-4.22-9.72-12.61-9.72-12.61
				S904.62,376.18,911.64,380.41z"/>
			<path class="st24" d="M1297.1,406.62c0,0,2.33-9.8,18.66-6.53s18.66,6.53,18.66,6.53H1297.1z"/>
			<path class="st24" d="M1259.78,412.45c-11.34-1.78-22.25-3.29-32.72-4.53l4.03-8.06c-1.4-0.47-7.46,4.2-7.46,4.2l5.13-23.32
				c-7,0.93-10.26,24.72-10.26,24.72l-7.93-7.93l3.9,8.98c-32.04-3.37-59.68-4.42-82.92-4.18l3.45-6.9c-1.4-0.47-7.46,4.2-7.46,4.2
				l5.13-23.32c-7,0.93-10.26,24.72-10.26,24.72l-7.93-7.93l4.13,9.51c-15.92,0.46-31.8,1.74-47.59,3.83
				c3.44-10.73,15.47-21.04,15.47-21.04c-9.25,2.88-14.06,7.56-16.55,11.91c-0.5-22.04,2.89-43.99,10.01-64.85
				c0,0-18.66,41.98-15.86,69.97l0.36,4.97c-16.23,2.53-24.38,5.06-24.38,5.06H1259.78z"/>
			<path class="st24" d="M1138.04,433.68c0,0,85.83-12.59,139.01,0"/>
			<path class="st24" d="M1011.63,450.94c0,0,85.83-12.59,139.01,0"/>
			<path class="st24" d="M1170.69,455.57c0,0,50.83-12.89,82.33,0"/>
			<path class="st24" d="M1312.67,403.81l-0.83-0.43c10.77-20.82,5.01-47.85-1.72-66.86c-4.57-12.78-10.39-25.07-17.39-36.7
				l0.79-0.5c7.03,11.69,12.89,24.04,17.48,36.89C1317.8,355.39,1323.59,382.69,1312.67,403.81z"/>
			
				<rect x="1301.26" y="315.67" transform="matrix(0.1798 -0.9837 0.9837 0.1798 770.1802 1555.932)" class="st24" width="33.67" height="0.93"/>
			
				<rect x="1295.23" y="321.88" transform="matrix(0.7321 -0.6812 0.6812 0.7321 112.2557 975.0542)" class="st24" width="0.93" height="45.88"/>
			
				<rect x="1315.52" y="375.37" transform="matrix(0.5858 -0.8104 0.8104 0.5858 245.8441 1232.7472)" class="st24" width="27.06" height="0.93"/>
			<circle class="st2" cx="1323.46" cy="286.04" r="4.66"/>
			<circle class="st24" cx="1272.61" cy="321.96" r="4.66"/>
			<circle class="st24" cx="1293.14" cy="326.63" r="4.66"/>
			<circle class="st2" cx="1283.81" cy="344.82" r="4.66"/>
			<circle class="st24" cx="1342.11" cy="356.48" r="4.66"/>
			<circle class="st24" cx="1326.72" cy="361.61" r="4.66"/>
			<circle class="st24" cx="1337.45" cy="376.54" r="4.66"/>
			<circle class="st24" cx="1288.47" cy="291.64" r="4.66"/>
			<path class="st29" d="M1015.49,266.92c0,57.66-34.28,77.79-76.56,77.79c-42.28,0-76.56-20.13-76.56-77.79
				s76.56-131.01,76.56-131.01S1015.49,209.26,1015.49,266.92z"/>
			<polygon class="st24" points="936.14,335.89 936.92,287.63 969.56,227.93 937.05,280.06 937.4,258.36 959.89,215.17 
				937.49,252.62 937.49,252.62 938.13,213.6 962.21,179.21 938.23,207.46 938.62,135.91 936.13,230.63 936.34,226.73 
				911.85,189.25 935.94,234.23 933.66,277.81 933.59,276.65 905.37,237.21 933.51,280.74 933.22,286.19 933.17,286.27 
				933.2,286.72 927.41,397.29 935.14,397.29 936.07,340.18 964.14,296.76 			"/>
			<path class="st29" d="M1268.02,249.73c0,70.44-41.88,95.04-93.53,95.04c-51.66,0-93.53-24.6-93.53-95.04
				s93.53-160.05,93.53-160.05S1268.02,179.29,1268.02,249.73z"/>
			<polygon class="st24" points="1171.08,333.99 1172.04,275.04 1211.91,202.1 1172.19,265.79 1172.62,239.28 1200.1,186.51 
				1172.74,232.27 1172.74,232.27 1173.51,184.59 1202.93,142.58 1173.63,177.09 1174.12,89.67 1171.07,205.4 1171.32,200.63 
				1141.41,154.84 1170.84,209.79 1168.06,263.04 1167.97,261.62 1133.49,213.44 1167.87,266.62 1167.52,273.27 1167.46,273.37 
				1167.49,273.92 1160.42,409.01 1169.86,409.01 1171,339.23 1205.29,286.19 			"/>
			<path class="st34" d="M1098.94,351.18l4.26,13.19c0,0-3.86,12.38-2.03,26.18c1.83,13.8,0.81,14.21,0.81,14.21
				s-18.25-1.05-16.42,4.43c1.83,5.48,19.67,2.27,19.67,2.27s3.43-0.92,5.05-10.66c1.62-9.74,5.71-28.51,5.71-28.51l-3.84-17.71
				L1098.94,351.18z"/>
			<path class="st41" d="M1100.36,324.19c0,0-7.71,2.84-7.71,10.55c0,7.71,2.84,18.27,4.67,18.88c1.83,0.61,14,8.93,16.24,3.04
				C1115.79,350.77,1100.36,324.19,1100.36,324.19z"/>
			<polygon class="st34" points="1164.9,415.52 1181.14,414.91 1193.52,413.08 1189.87,425.26 1159.83,426.07 			"/>
			<path class="st31" d="M1188.24,417.14c0,0-0.2-4.47-2.03-4.26c-1.83,0.2-0.61-1.62,1.01-2.03c1.62-0.41,6.29-2.44,6.29-2.44
				l18.47,1.22c0,0,11.97,10.55,7.1,16.24c-4.87,5.68-17.45,0.61-17.45,0.61l-13.6,0.2
				C1188.04,426.68,1183.57,419.37,1188.24,417.14z"/>
			<polygon class="st34" points="1195.55,401.51 1201.43,429.12 1213.61,426.68 1206.71,392.18 1199.4,388.32 			"/>
			<path class="st31" d="M1125.53,398.06c0,0-34.1,15.42-19.69,31.05c0,0,0,7.31,15.22,5.89c15.22-1.42,44.65-4.06,46.07-3.25
				c1.42,0.81,5.89-16.03,2.03-16.85c-3.86-0.81-8.52-1.83-8.52-1.83s4.06-0.61,4.06-4.06c0,0,11.57-0.81,15.02-8.12
				c3.45-7.31,6.7-12.79,6.7-12.79l7.92,20.3c0,0,9.13-16.85,16.03-9.34c0,0-7.71-48.51-13.6-52.97c-5.89-4.47-9.94-5.89-15.42-1.83
				c-5.48,4.06-10.55,14.41-10.55,14.41L1125.53,398.06z"/>
			<path class="st31" d="M1206.91,420.79c-1.42,1.07-2.77,2.22-4.06,3.45c-1.62,1.62-3.86,0.81-4.06,0
				c-0.2-0.81-3.86,0.61-4.26,6.49c-0.41,5.89-2.84,11.16,3.65,12.99c6.49,1.83,6.29,7.1,6.29,7.1c5.14,2.47,11.04,2.83,16.44,1.01
				c9.13-3.04,5.89-6.29,5.89-6.29l-12.18-20.09C1214.63,425.46,1211.38,419.37,1206.91,420.79z"/>
			<path class="st34" d="M1173.22,320.13c0,0,19.48,6.7,21.51,8.12c2.03,1.42,11.16,8.12,6.7,11.57c-4.47,3.45-8.12,5.68-16.85,3.04
				c-8.73-2.64-18.47-10.76-18.47-10.76L1173.22,320.13z"/>
			<path class="st41" d="M1153.74,311.2c0,0,7.71-1.42,13.19,1.62s10.15,9.13,10.15,9.13s-5.07,10.76-8.73,12.38
				c-3.65,1.62-10.35-6.49-10.35-6.49L1153.74,311.2z"/>
			<path class="st34" d="M1118.22,305.31c0,0,0.2,7.92-0.61,8.73c-0.81,0.81,9.74,24.76,21.31,14.21
				c11.57-10.55,2.64-14.82,2.64-14.82s-4.26-7.92-4.06-8.73c0.2-0.81-18.88,0-18.88,0L1118.22,305.31z"/>
			<path class="st14" d="M1118.22,305.31c0,0,0.2,7.92-0.61,8.73c-0.81,0.81,9.74,24.76,21.31,14.21
				c11.57-10.55,2.64-14.82,2.64-14.82s-4.26-7.92-4.06-8.73c0.2-0.81-18.88,0-18.88,0L1118.22,305.31z"/>
			<path class="st41" d="M1121.47,320.53c0,0,7.71,5.28,10.96,4.06s7.31-6.49,7.71-6.9c0.41-0.41,21.11,41.2,21.11,41.2
				s-3.04,15.22-11.16,19.69s-8.02,8.02-9.03,11.06s-14.11-9.64-14.11-9.64l-8.32-35.31v-21.51L1121.47,320.53z"/>
			<path class="st43" d="M1118.12,311.1c0,0-2.54-0.51-5.18,1.73c-2.64,2.23-15.02,10.55-14.41,11.37
				c0.61,0.81,6.09,12.38,7.31,17.05c1.22,4.67,3.04,5.28,3.04,5.28s4.26,3.04,3.65,5.28c-0.61,2.23-3.25,32.68,0.41,39.37
				c3.65,6.7,3.04,12.58,2.03,14.21c-1.01,1.62,9.74-4.67,9.74-4.67s16.03-12.99,17.25-16.85c0.79-2.65,1.33-5.37,1.62-8.12
				c0,0-10.35-41-13.6-43.23C1126.75,330.27,1118.12,311.1,1118.12,311.1z"/>
			<path class="st43" d="M1140.42,311.26c0,0,5-3.1,6.02-2.29c1.01,0.81,10.55,0.81,10.76,1.62c0.2,0.81,0.61,20.3,7.51,25.37
				c6.9,5.07,2.44,15.22,2.44,15.22l5.07,8.12c0,0-27.6,26.59-25.78,17.45c0.1-0.51,0-0.61,0-0.61s-10.76-46.07-9.34-48.51
				C1138.52,325.2,1141.1,314.16,1140.42,311.26z"/>
			<path class="st34" d="M1182.96,329.87l-27.6,9.54c0,0-27.4,6.49-23.14,14c4.26,7.51,22.33-5.28,22.33-5.28l36.76-4.12
				C1191.31,344.02,1205.9,331.7,1182.96,329.87z"/>
			<circle class="st34" cx="1129.18" cy="297.8" r="15.02"/>
			<path class="st31" d="M1117.22,282.88l-2.78-1.01c0,0,5.81-5.81,13.89-5.3l-2.27-2.27c0,0,5.56-2.02,10.61,3.28
				c2.66,2.79,5.73,6.07,7.64,9.76h2.98l-1.24,2.48l4.35,2.48l-4.46-0.45c0.42,2.14,0.28,4.36-0.42,6.43l-1.01,2.78
				c0,0-4.04-8.08-4.04-9.09v2.53c0,0-2.78-2.27-2.78-3.79l-1.52,1.77l-0.76-2.78l-9.34,2.78l1.52-2.27l-5.81,0.76l2.27-2.78
				c0,0-6.57,3.28-6.82,6.06c-0.25,2.78-3.54,6.31-3.54,6.31l-1.52-2.53C1112.17,298.03,1109.9,286.66,1117.22,282.88z"/>
		</g>
		<g class="st40">
			<title>buy_house</title>
			<rect x="448.57" y="341.04" class="st29" width="331.47" height="70.24"/>
			<polygon class="st41" points="437.99,348.74 474.07,273.21 762.24,273.21 789.18,348.74 			"/>
			<rect x="527.95" y="278.02" class="st29" width="133.74" height="44.26"/>
			<polygon class="st41" points="536.61,241.94 515.44,286.2 674.2,286.2 661.69,241.94 			"/>
			<rect x="539.74" y="354.99" class="st44" width="105.6" height="56.29"/>
			<rect x="461.56" y="356.92" class="st44" width="56.29" height="54.36"/>
			<rect x="663.62" y="360.28" class="st41" width="29.11" height="51"/>
			<rect x="340.09" y="411.04" class="st24" width="547" height="0.96"/>
			<rect x="724.23" y="363.17" class="st41" width="14.19" height="13.23"/>
			<rect x="743.24" y="363.17" class="st41" width="14.19" height="13.23"/>
			<rect x="724.23" y="381.21" class="st41" width="14.19" height="13.71"/>
			<rect x="743.24" y="381.21" class="st41" width="14.19" height="13.71"/>
			<rect x="540.22" y="290.13" class="st24" width="11.11" height="10.35"/>
			<rect x="555.09" y="290.13" class="st24" width="11.11" height="10.35"/>
			<rect x="540.22" y="304.25" class="st24" width="11.11" height="10.73"/>
			<rect x="555.09" y="304.25" class="st24" width="11.11" height="10.73"/>
			<rect x="623.45" y="290.13" class="st24" width="11.11" height="10.35"/>
			<rect x="638.32" y="290.13" class="st24" width="11.11" height="10.35"/>
			<rect x="623.45" y="304.25" class="st24" width="11.11" height="10.73"/>
			<rect x="638.32" y="304.25" class="st24" width="11.11" height="10.73"/>
			<rect x="582.07" y="290.13" class="st24" width="11.11" height="10.35"/>
			<rect x="596.94" y="290.13" class="st24" width="11.11" height="10.35"/>
			<rect x="582.07" y="304.25" class="st24" width="11.11" height="10.73"/>
			<rect x="596.94" y="304.25" class="st24" width="11.11" height="10.73"/>
			<rect x="670.11" y="365.45" class="st29" width="6.99" height="6.52"/>
			<rect x="679.48" y="365.45" class="st29" width="6.99" height="6.52"/>
			<rect x="670.11" y="374.34" class="st29" width="6.99" height="6.76"/>
			<rect x="679.48" y="374.34" class="st29" width="6.99" height="6.76"/>
			<circle class="st29" cx="688.87" cy="389.39" r="1.92"/>
			<rect x="539.74" y="361" class="st29" width="105.84" height="0.96"/>
			<rect x="539.74" y="365.33" class="st29" width="105.84" height="0.96"/>
			<rect x="539.74" y="369.66" class="st29" width="105.84" height="0.96"/>
			<rect x="539.74" y="373.99" class="st29" width="105.84" height="0.96"/>
			<rect x="539.74" y="378.32" class="st29" width="105.84" height="0.96"/>
			<rect x="539.74" y="382.65" class="st29" width="105.84" height="0.96"/>
			<rect x="539.74" y="386.98" class="st29" width="105.84" height="0.96"/>
			<rect x="539.74" y="391.31" class="st29" width="105.84" height="0.96"/>
			<rect x="539.74" y="395.64" class="st29" width="105.84" height="0.96"/>
			<rect x="539.74" y="399.97" class="st29" width="105.84" height="0.96"/>
			<rect x="539.74" y="404.3" class="st29" width="105.84" height="0.96"/>
			<rect x="461.56" y="361" class="st29" width="56.29" height="0.96"/>
			<rect x="461.56" y="365.33" class="st29" width="56.29" height="0.96"/>
			<rect x="461.56" y="369.66" class="st29" width="56.29" height="0.96"/>
			<rect x="461.56" y="373.99" class="st29" width="56.29" height="0.96"/>
			<rect x="461.56" y="378.32" class="st29" width="56.29" height="0.96"/>
			<rect x="461.56" y="382.65" class="st29" width="56.29" height="0.96"/>
			<rect x="461.56" y="386.98" class="st29" width="56.29" height="0.96"/>
			<rect x="461.56" y="391.31" class="st29" width="56.29" height="0.96"/>
			<rect x="461.56" y="395.64" class="st29" width="56.29" height="0.96"/>
			<rect x="461.56" y="399.97" class="st29" width="56.29" height="0.96"/>
			<rect x="461.56" y="404.3" class="st29" width="56.29" height="0.96"/>
		</g>
		<g class="st40">
			<title>photos</title>
			
				<linearGradient id="SVGID_5_" gradientUnits="userSpaceOnUse" x1="74.4868" y1="146.5939" x2="74.4868" y2="411.5732" gradientTransform="matrix(0.9234 0.3839 0.3839 -0.9234 -31.3746 552.5554)">
				<stop  offset="0" style="stop-color:#808080;stop-opacity:0.25"/>
				<stop  offset="0.54" style="stop-color:#808080;stop-opacity:0.12"/>
				<stop  offset="1" style="stop-color:#808080;stop-opacity:0.1"/>
			</linearGradient>
			<polygon class="st45" points="-13.69,401.15 88.04,156.48 302.78,245.76 201.05,490.43 			"/>
			
				<rect x="18.15" y="208.48" transform="matrix(0.3839 -0.9234 0.9234 0.3839 -207.9368 332.4191)" class="st46" width="253.99" height="227.11"/>
			
				<rect x="64.46" y="191.87" transform="matrix(0.3839 -0.9234 0.9234 0.3839 -175.9524 325.6784)" class="st41" width="183.24" height="205.66"/>
			
				<rect x="64.46" y="191.87" transform="matrix(0.3839 -0.9234 0.9234 0.3839 -175.9524 325.6784)" class="st47" width="183.24" height="205.66"/>
			
				<linearGradient id="SVGID_6_" gradientUnits="userSpaceOnUse" x1="-81.5031" y1="257.3268" x2="-81.5031" y2="522.3062" gradientTransform="matrix(0.968 0.251 0.251 -0.968 70.6997 729.728)">
				<stop  offset="0" style="stop-color:#808080;stop-opacity:0.25"/>
				<stop  offset="0.54" style="stop-color:#808080;stop-opacity:0.12"/>
				<stop  offset="1" style="stop-color:#808080;stop-opacity:0.1"/>
			</linearGradient>
			<polygon class="st48" points="10.34,174.5 235.46,232.87 168.95,489.37 -56.17,431 			"/>
			
				<rect x="-36.96" y="216.89" transform="matrix(0.251 -0.968 0.968 0.251 -252.4309 334.6617)" class="st46" width="253.99" height="227.11"/>
			
				<linearGradient id="SVGID_7_" gradientUnits="userSpaceOnUse" x1="-82.1198" y1="300.7549" x2="-82.1198" y2="489.2725" gradientTransform="matrix(0.968 0.251 0.251 -0.968 70.6997 729.728)">
				<stop  offset="0" style="stop-color:#808080;stop-opacity:0.25"/>
				<stop  offset="0.54" style="stop-color:#808080;stop-opacity:0.12"/>
				<stop  offset="1" style="stop-color:#808080;stop-opacity:0.1"/>
			</linearGradient>
			<polygon class="st49" points="19.4,185.47 221.02,237.75 173.7,420.23 -27.92,367.95 			"/>
			<g>
				<defs>
					
						<rect id="SVGID_8_" x="2.29" y="198.71" transform="matrix(0.251 -0.968 0.968 0.251 -220.8412 320.2989)" width="188.52" height="208.29"/>
				</defs>
				<clipPath id="SVGID_9_">
					<use xlink:href="#SVGID_8_"  style="overflow:visible;"/>
				</clipPath>
				<g class="st50">
					
						<linearGradient id="SVGID_10_" gradientUnits="userSpaceOnUse" x1="81.4509" y1="242.7924" x2="81.4509" y2="390.6127" gradientTransform="matrix(0.968 0.251 0.251 -0.968 -56.2443 631.4805)">
						<stop  offset="0" style="stop-color:#808080;stop-opacity:0.25"/>
						<stop  offset="0.54" style="stop-color:#808080;stop-opacity:0.12"/>
						<stop  offset="1" style="stop-color:#808080;stop-opacity:0.1"/>
					</linearGradient>
					<path class="st51" d="M35.4,302.41c4.7,8.98,7.78,19.36,15.47,25.86c11.15,9.44,28.27,7.28,41.24,0.44
						c12.98-6.84,23.6-17.55,36.16-25.16c36.04-21.86,85.55-13.79,115.96,15.15c4.34,4.13,8.41,8.73,10.79,14.27
						c3.1,7.2,3.13,15.36,2.69,23.23c-0.99,17.59-4,35.01-9,51.91c-3.38,11.5-8.99,24.05-20.19,27.93
						c-3.54,1.22-7.32,1.44-11.05,1.57c-55.27,1.83-109.45-13.33-162.28-29.46c-39.38-12.02-79.04-24.87-113.92-46.88
						c-1.6-1.01-3.29-2.15-4.03-3.91c-0.84-1.99-0.28-4.3,0.43-6.34c2.34-6.76,6.16-12.88,9.5-19.21
						c6.92-13.18,11.73-27.37,14.25-42.04c2.24-13-2.1-25.6,13.54-25.34C-0.52,264.79,24.05,280.74,35.4,302.41z"/>
				</g>
			</g>
			
				<rect x="5.42" y="199.02" transform="matrix(0.251 -0.968 0.968 0.251 -219.4987 320.0173)" class="st46" width="183.24" height="205.66"/>
			<g>
				<defs>
					
						<rect id="SVGID_11_" x="5.42" y="199.02" transform="matrix(0.251 -0.968 0.968 0.251 -219.4987 320.0174)" width="183.24" height="205.66"/>
				</defs>
				<clipPath id="SVGID_12_">
					<use xlink:href="#SVGID_11_"  style="overflow:visible;"/>
				</clipPath>
				<g class="st52">
					<path class="st53" d="M36.72,301.18c4.67,8.75,7.75,18.86,15.36,25.22c11.04,9.22,27.91,7.2,40.68,0.58
						c12.78-6.61,23.22-16.99,35.58-24.35c35.47-21.13,84.34-13.1,114.43,15.16c4.3,4.04,8.32,8.53,10.7,13.92
						c3.09,7.02,3.14,14.96,2.74,22.62c-0.91,17.11-3.82,34.05-8.68,50.47c-3.3,11.17-8.78,23.37-19.82,27.12
						c-3.48,1.18-7.21,1.36-10.89,1.48c-54.51,1.59-108.02-13.38-160.18-29.27c-38.88-11.85-78.06-24.51-112.54-46.03
						c-1.59-0.99-3.25-2.1-3.99-3.82c-0.84-1.94-0.29-4.19,0.39-6.18c2.28-6.57,6.04-12.51,9.3-18.65
						c6.77-12.79,11.46-26.59,13.9-40.86c2.16-12.63-2.17-24.91,13.26-24.61C1.15,264.45,25.44,280.07,36.72,301.18z"/>
				</g>
			</g>
			<circle class="st54" cx="38.77" cy="218.42" r="14.94"/>
			
				<rect x="90.65" y="364.06" transform="matrix(0.251 -0.968 0.968 0.251 -267.6693 389.2214)" class="st55" width="54.05" height="7.03"/>
			<polygon class="st55" points="147.4,345.07 141.99,339.43 147.27,341.85 146.79,330.81 140.42,324.17 146.63,327.24 
				145.95,311.67 139.75,305.2 145.8,307.98 145.15,292.99 138.83,286.41 144.98,289.23 143.98,266.12 135.16,280.62 140.34,280.16 
				133.63,283.15 127.23,293.69 136.81,293.77 124.25,298.6 117.37,309.91 127.61,310 114.18,315.16 108.86,323.91 116.72,323.97 
				106.42,327.93 97.26,342.99 147.88,356.11 			"/>
			
				<rect x="45.82" y="323.87" transform="matrix(0.251 -0.968 0.968 0.251 -376.7656 387.9395)" class="st2" width="32.96" height="227.11"/>
		</g>
	</g>
</g>
<g id="分離模式">
	<circle class="st22" cx="329.9" cy="81.86" r="21.63"/>
	<circle class="st22" cx="772.01" cy="34.72" r="21.63"/>
	<circle class="st22" cx="1034.17" cy="83.16" r="21.63"/>
	<circle class="st22" cx="117.16" cy="134.19" r="36.25"/>
	<circle class="st22" cx="151.91" cy="313.19" r="36.25"/>
	<circle class="st22" cx="1124.83" cy="247.3" r="36.25"/>
</g>
</svg>
