<svg xmlns="http://www.w3.org/2000/svg" xmlns:xlink="http://www.w3.org/1999/xlink" viewBox="0 0 236 158">
  <defs>
    <style>
      .cls-1 {
        clip-path: url(#clip-hreat);
      }

      .cls-2 {
        fill: #3f5d45;
      }

      .cls-3 {
        fill: #ffe180;
      }

      .cls-4 {
        fill: #fff;
      }
    </style>
    <clipPath id="clip-hreat">
      <rect width="236" height="158"/>
    </clipPath>
  </defs>
  <g id="hreat" class="cls-1">
    <rect class="cls-4" width="236" height="158"/>
    <g id="Group_21" data-name="Group 21" transform="translate(-2493.5 -260.06)">
      <path id="Path_390" data-name="Path 390" class="cls-2" d="M472,104.318H236V233.491H402.5l1.267,28.814,27.756-17.695,17.443-11.12H472Z" transform="translate(2257 156.001)"/>
      <path id="Path_391" data-name="Path 391" class="cls-3" d="M564.9,322.635l-6.157-5.554c-21.863-20.073-36.3-33.1-36.3-49.331A23.088,23.088,0,0,1,545.8,244.259a25.115,25.115,0,0,1,19.1,8.97,25.113,25.113,0,0,1,19.1-8.97,23.088,23.088,0,0,1,23.349,23.491c0,16.23-14.434,29.258-36.3,49.331Z" transform="translate(2046.099 41.458)"/>
    </g>
  </g>
</svg>
