<?xml version="1.0"?>
<svg xmlns="http://www.w3.org/2000/svg" height="512px" viewBox="-69 -19 618 618.66669" width="512px"><g><path d="m468.25 62.5c-4.832031 0-8.75 3.914062-8.75 8.75v94.46875c-10.972656-10.878906-25.800781-16.976562-41.25-16.96875h-403.75v-140c0-4.835938-3.914062-8.75-8.75-8.75-4.832031 0-8.75 3.914062-8.75 8.75v562.5c0 4.835938 3.917969 8.75 8.75 8.75 4.835938 0 8.75-3.914062 8.75-8.75v-53.75h445v53.75c0 4.835938 3.917969 8.75 8.75 8.75 4.835938 0 8.75-3.914062 8.75-8.75v-500c0-4.835938-3.914062-8.75-8.75-8.75zm-8.75 325h-445v-171.25h445zm-445 112.5v-20h445v20zm0 0" data-original="#000000" class="active-path" data-old_color="#000000" fill="#2E688C"/><path d="m37.890625 371.410156h116.242187c4.832032 0 8.75-3.914062 8.75-8.75-.03125-31.136718-25.273437-56.375-56.410156-56.410156h-68.582031c-4.835937 0-8.75 3.914062-8.75 8.75v47.660156c0 4.835938 3.914063 8.75 8.75 8.75zm0 0" data-original="#000000" class="active-path" data-old_color="#000000" fill="#2E688C"/><path d="m37.890625 132.660156h116.242187c4.832032 0 8.75-3.914062 8.75-8.75-.03125-31.136718-25.273437-56.375-56.410156-56.410156h-68.582031c-4.835937 0-8.75 3.914062-8.75 8.75v47.660156c0 4.835938 3.914063 8.75 8.75 8.75zm0 0" data-original="#000000" class="active-path" data-old_color="#000000" fill="#2E688C"/></g> </svg>
