<svg xmlns="http://www.w3.org/2000/svg" xmlns:xlink="http://www.w3.org/1999/xlink" width="975" height="800" viewBox="0 0 975 800">
  <defs>
    <clipPath id="clip-tent">
      <rect width="975" height="800"/>
    </clipPath>
  </defs>
  <g id="tent" clip-path="url(#clip-tent)">
    <rect width="975" height="800" fill="#fff"/>
    <g id="Group_5" data-name="Group 5" transform="translate(1358.575 -1508)">
      <path id="Path_311" data-name="Path 311" d="M993.9,429.09c-47.39-185.6-211.147-319.59-403.355-324.964C488.931,101.283,382,134.849,304.145,252.314,164.974,462.29,312.7,607.384,415.687,676.333a643.54,643.54,0,0,1,133.2,119.239c69.566,82.217,203.39,184.386,362.773,24.3C1027.169,703.846,1025.466,552.719,993.9,429.09Z" transform="translate(-1486.215 1404.038)" fill="#f2f2f2"/>
      <g id="Group_4" data-name="Group 4" transform="translate(-451.442 711.239)">
        <path id="Path_60" data-name="Path 60" d="M941.893,738.856a37.315,37.315,0,0,0-15.247-1.622,4.9,4.9,0,0,0,.909,9.761,45.019,45.019,0,0,0,9.277-1.709Z" transform="translate(-1058.537 713.267)" fill="#3f5d45"/>
        <path id="Path_61" data-name="Path 61" d="M941.124,738.61a37.252,37.252,0,0,1,3.731,14.882,4.907,4.907,0,1,1-9.8.461,45.581,45.581,0,0,1,.414-9.422Z" transform="translate(-1055.868 713.596)" fill="#3f5d45"/>
        <path id="Path_62" data-name="Path 62" d="M956.7,722.945s-3.063-9.616-21.8-5.885a7.676,7.676,0,0,0,.244,15.125h.362C947.871,733.906,952.169,729,956.7,722.945Z" transform="translate(-1057.199 708.869)" fill="#3f5d45"/>
        <path id="Path_63" data-name="Path 63" d="M954.5,721.3s10.064.787,10.694,19.861a7.678,7.678,0,0,1-14.775,3.22,1.04,1.04,0,0,0-.134-.351C945.839,732.392,949.63,727.089,954.5,721.3Z" transform="translate(-1053.05 709.944)" fill="#3f5d45"/>
        <path id="Path_64" data-name="Path 64" d="M969.237,703.725a20.018,20.018,0,0,0-13.513-15.09c-12.678-4-19.376,14.969-6.986,19.789a39.561,39.561,0,0,0,16.041,2.326Z" transform="translate(-1054.347 702.935)" fill="#3f5d45"/>
        <path id="Path_65" data-name="Path 65" d="M982.763,677.419a26.316,26.316,0,0,0-18.417-14.531c-14.083-2.578-18.349,18.577-4.432,21.955a46.447,46.447,0,0,0,18.964.157Z" transform="translate(-1052.407 697.572)" fill="#3f5d45"/>
        <path id="Path_66" data-name="Path 66" d="M990.364,651.462a30.054,30.054,0,0,0-19.374-13.331c-12.111-2.275-16.192,15.853-4.3,18.952a45.216,45.216,0,0,0,22.695-.315Z" transform="translate(-1050.673 692.346)" fill="#3f5d45"/>
        <path id="Path_67" data-name="Path 67" d="M997.422,626.436a31.257,31.257,0,0,0-16.955-13.48c-12.111-3.719-18.093,14.642-6.057,18.637a34.479,34.479,0,0,0,21.981-.086Z" transform="translate(-1048.937 686.975)" fill="#3f5d45"/>
        <path id="Path_68" data-name="Path 68" d="M1000.556,604.43a42.046,42.046,0,0,0-14.712-17.366c-10.991-6.7-21.471,9.687-10.9,17.063a30.679,30.679,0,0,0,24.607,5.609Z" transform="translate(-1048.354 681.284)" fill="#3f5d45"/>
        <path id="Path_69" data-name="Path 69" d="M1002.215,577.18a41.2,41.2,0,0,0-15.586-16.956c-11.457-6.054-21.423,10.694-10.631,17.9,7.061,4.711,15.877,7.762,25.249,4.081Z" transform="translate(-1048.186 675.68)" fill="#3f5d45"/>
        <path id="Path_70" data-name="Path 70" d="M1000.741,552.475a74.294,74.294,0,0,0-14.531-16.531c-8.021-6.553-18.165,5.243-10.572,12.244,7.01,6.431,15.743,11.831,24.765,11.395Z" transform="translate(-1047.85 670.426)" fill="#3f5d45"/>
        <path id="Path_71" data-name="Path 71" d="M998.264,529.562a108.845,108.845,0,0,0-16.421-21.218c-6.274-6.054-15.55,3.172-9.687,9.556a63.012,63.012,0,0,0,26.874,18.093Z" transform="translate(-1048.412 664.59)" fill="#3f5d45"/>
        <path id="Path_72" data-name="Path 72" d="M992.871,500.8a97.064,97.064,0,0,0-13.115-16.239,6.839,6.839,0,0,0-9.785,9.556,50.059,50.059,0,0,0,24.548,15.428Z" transform="translate(-1048.891 659.538)" fill="#3f5d45"/>
        <path id="Path_73" data-name="Path 73" d="M988.146,474.431a154.631,154.631,0,0,0-12.607-14.98,5.665,5.665,0,0,0-8.38,7.616c5.609,6.467,12.8,12.194,21.073,13.115Z" transform="translate(-1049.302 654.362)" fill="#3f5d45"/>
        <path id="Path_74" data-name="Path 74" d="M983.514,451.159A157.8,157.8,0,0,0,971.4,431.236a4.958,4.958,0,0,0-8.113,5.691,44.137,44.137,0,0,0,19.691,17.229Z" transform="translate(-1049.999 648.377)" fill="#3f5d45"/>
        <path id="Path_75" data-name="Path 75" d="M979.1,417.508s-2.991-5.074-7.266-10.973a5.2,5.2,0,0,0-8.615,5.813c4.117,6.309,9.277,11.686,15.283,12.752Z" transform="translate(-1049.977 643.139)" fill="#3f5d45"/>
        <path id="Path_76" data-name="Path 76" d="M976.571,397.855,972.78,378.9a3.987,3.987,0,0,0-7.872,1.212c1.358,10.123,4.845,20.309,12.438,26.993Z" transform="translate(-1049.546 637.023)" fill="#3f5d45"/>
        <path id="Path_77" data-name="Path 77" d="M977.644,349.911h0a3.719,3.719,0,0,0-7.1,2.035,95.946,95.946,0,0,0,3.826,15.5Z" transform="translate(-1048.365 631.104)" fill="#3f5d45"/>
        <path id="Path_78" data-name="Path 78" d="M965.9,700.87a20.017,20.017,0,0,1,19.813,4.262c9.69,9.045-3.416,24.221-13.744,15.877A39.8,39.8,0,0,1,962,708.237Z" transform="translate(-1050.159 705.425)" fill="#3f5d45"/>
        <path id="Path_79" data-name="Path 79" d="M978.664,673.992a26.294,26.294,0,0,1,22.6,6.152c10.45,9.784-4,25.807-15,16.634a46.351,46.351,0,0,1-11.418-15.149Z" transform="translate(-1047.451 699.847)" fill="#3f5d45"/>
        <path id="Path_80" data-name="Path 80" d="M985.868,651.839a30.072,30.072,0,0,1,23.009-5.109c12.111,2.421,9.1,20.746-3.1,19.183a45.3,45.3,0,0,1-20.927-8.781Z" transform="translate(-1045.342 694.102)" fill="#3f5d45"/>
        <path id="Path_81" data-name="Path 81" d="M992.943,625.227a31.224,31.224,0,0,1,20.731-6.184c12.666,1.1,11.311,20.345-1.37,19.546a34.407,34.407,0,0,1-20.345-8.3Z" transform="translate(-1043.839 688.353)" fill="#3f5d45"/>
        <path id="Path_82" data-name="Path 82" d="M995.2,604.462a42.181,42.181,0,0,1,17.452-14.606c11.906-4.711,19.546,13.126,7.979,18.613a30.7,30.7,0,0,1-25.32,1.393Z" transform="translate(-1043.155 682.039)" fill="#3f5d45"/>
        <path id="Path_83" data-name="Path 83" d="M995.55,576.283a41.034,41.034,0,0,1,17.656-14.725c12.111-4.542,19.849,13.367,8.211,19.133-7.617,3.755-16.76,5.62-25.546.752Z" transform="translate(-1043.081 676.081)" fill="#3f5d45"/>
        <path id="Path_84" data-name="Path 84" d="M993.67,552.9a74.26,74.26,0,0,1,10.658-19.255c6.419-8.127,18.9,1.212,12.945,9.687-5.474,7.785-12.788,14.921-21.8,16.433Z" transform="translate(-1043.479 669.688)" fill="#3f5d45"/>
        <path id="Path_85" data-name="Path 85" d="M992.9,530.377a108.437,108.437,0,0,1,9.832-25.02,6.788,6.788,0,0,1,11.918,6.479,62.773,62.773,0,0,1-20.758,24.887Z" transform="translate(-1043.642 663.728)" fill="#3f5d45"/>
        <path id="Path_86" data-name="Path 86" d="M987.1,500a97.132,97.132,0,0,1,10-19.1,6.832,6.832,0,0,1,11.481,7.364,50.287,50.287,0,0,1-21.349,20.588Z" transform="translate(-1044.864 658.761)" fill="#3f5d45"/>
        <path id="Path_87" data-name="Path 87" d="M982.48,475.329a155.693,155.693,0,0,1,5.243-18.857,5.668,5.668,0,0,1,10.791,3.44c-2.424,8.21-6.577,16.409-13.709,20.683Z" transform="translate(-1045.84 653.294)" fill="#3f5d45"/>
        <path id="Path_88" data-name="Path 88" d="M979.27,451.377a157.268,157.268,0,0,1,7.266-22.175,4.96,4.96,0,1,1,9.208,3.692,44.126,44.126,0,0,1-15.235,21.266Z" transform="translate(-1046.516 647.593)" fill="#3f5d45"/>
        <path id="Path_89" data-name="Path 89" d="M974.46,420.369s1.138-5.778,3.208-12.773a5.2,5.2,0,0,1,10.063,2.617c-1.782,7.266-4.844,14.107-10.17,17.113Z" transform="translate(-1047.534 642.942)" fill="#3f5d45"/>
        <path id="Path_90" data-name="Path 90" d="M975.962,396.569l6.589-18.165a3.987,3.987,0,0,1,7.593,2.421c-2.846,9.8-7.785,19.377-16.338,24.824Z" transform="translate(-1047.679 637.026)" fill="#3f5d45"/>
        <path id="Path_91" data-name="Path 91" d="M984.265,351.556s1.031-.823,2.605-2.118a3.267,3.267,0,0,1,4.373,4.845,61.75,61.75,0,0,1-17.912,11.359Z" transform="translate(-1047.768 631.36)" fill="#3f5d45"/>
        <path id="Path_92" data-name="Path 92" d="M982.235,347.1a238.525,238.525,0,0,1,13.138-23.4,2.421,2.421,0,0,0-3.923-2.774,70.266,70.266,0,0,0-10.56,24.474Z" transform="translate(-1046.175 625.289)" fill="#3f5d45"/>
        <path id="Path_93" data-name="Path 93" d="M976.363,439.113l1.405-.146c-6.054-56.439-3.5-91.25,7.085-98l-.763-1.212C972.876,346.945,970.211,381.289,976.363,439.113Z" transform="translate(-1047.812 629.43)" fill="#444053"/>
        <path id="Path_94" data-name="Path 94" d="M996.7,555.974l2.094-.315c-.787-5.219-1.7-10.524-2.712-15.743-8.817-45.814-15.669-88.161-19.1-120.325l-1.539-1.212c3.44,32.224,9.687,76.044,18.565,121.911C995.017,545.477,995.927,550.77,996.7,555.974Z" transform="translate(-1047.334 646.02)" fill="#444053"/>
        <path id="Path_95" data-name="Path 95" d="M912.3,818.077c.315-.255,32.577-24.934,60.895-72.275a305.181,305.181,0,0,0,35.847-89.361c8.95-39.37,9.209-85.22,2.748-128.161l-1.889,1.515c14.532,96.371-13.189,171.2-39.056,214.469-28.041,46.892-59.926,71.321-60.253,71.559Z" transform="translate(-1061.009 669.214)" fill="#444053"/>
      </g>
      <g id="Group_2" data-name="Group 2" transform="translate(-1876.502 974)">
        <ellipse id="Ellipse_28" data-name="Ellipse 28" cx="98.97" cy="16.486" rx="98.97" ry="16.486" transform="translate(517.927 1207.694)" fill="#3f5d45"/>
        <ellipse id="Ellipse_29" data-name="Ellipse 29" cx="9.984" cy="13.061" rx="9.984" ry="13.061" transform="translate(605.224 1204.115)" fill="#3f3d56"/>
        <ellipse id="Ellipse_30" data-name="Ellipse 30" cx="9.984" cy="13.061" rx="9.984" ry="13.061" transform="translate(605.224 1188.144)" fill="#3f3d56"/>
        <ellipse id="Ellipse_31" data-name="Ellipse 31" cx="9.984" cy="13.061" rx="9.984" ry="13.061" transform="translate(605.224 1172.182)" fill="#3f3d56"/>
        <ellipse id="Ellipse_32" data-name="Ellipse 32" cx="9.984" cy="13.061" rx="9.984" ry="13.061" transform="translate(605.224 1156.025)" fill="#3f3d56"/>
        <ellipse id="Ellipse_33" data-name="Ellipse 33" cx="9.984" cy="13.061" rx="9.984" ry="13.061" transform="translate(605.224 1140.002)" fill="#3f3d56"/>
        <ellipse id="Ellipse_34" data-name="Ellipse 34" cx="9.984" cy="13.061" rx="9.984" ry="13.061" transform="translate(605.224 1123.993)" fill="#3f3d56"/>
        <ellipse id="Ellipse_35" data-name="Ellipse 35" cx="9.984" cy="13.061" rx="9.984" ry="13.061" transform="translate(605.224 1107.971)" fill="#3f3d56"/>
        <path id="Path_96" data-name="Path 96" d="M276.848,607.25a47.023,47.023,0,0,0,3.722-5.475l-26.223-4.3,28.337.205a47.838,47.838,0,0,0,.913-37.869l-38.049,19.734,35.086-25.762a47.812,47.812,0,1,0-78.958,53.493,48.3,48.3,0,0,0-5.45,8.72l34.043,17.693L194,621.5a47.824,47.824,0,0,0,7.728,44.889,47.812,47.812,0,1,0,75.144,0,47.774,47.774,0,0,0,0-59.107Z" transform="translate(375.374 403.948)" fill="#3f5d45"/>
        <path id="Path_97" data-name="Path 97" d="M191.463,613.049A47.66,47.66,0,0,0,201.69,642.6a47.812,47.812,0,1,0,75.144,0C283.248,634.467,191.463,607.675,191.463,613.049Z" transform="translate(375.396 428.188)" opacity="0.1"/>
      </g>
      <g id="Group_1" data-name="Group 1" transform="translate(-390.442 621.349)">
        <path id="Path_60-2" data-name="Path 60" d="M945.134,739.157a43.505,43.505,0,0,0-17.777-1.891,5.718,5.718,0,0,0,1.06,11.38,52.486,52.486,0,0,0,10.815-1.992Z" transform="translate(-1056.176 797.022)" fill="#3f5d45"/>
        <path id="Path_61-2" data-name="Path 61" d="M942.145,738.61a43.431,43.431,0,0,1,4.35,17.351,5.721,5.721,0,1,1-11.43.537,53.138,53.138,0,0,1,.482-10.985Z" transform="translate(-1050.97 797.666)" fill="#3f5d45"/>
        <path id="Path_62-2" data-name="Path 62" d="M961.352,724.064s-3.571-11.211-25.413-6.861a8.949,8.949,0,0,0,.284,17.635h.423C951.059,736.843,956.07,731.122,961.352,724.064Z" transform="translate(-1053.571 788.437)" fill="#3f5d45"/>
        <path id="Path_63-2" data-name="Path 63" d="M955.524,721.3s11.734.918,12.468,23.155a8.952,8.952,0,0,1-17.226,3.754,1.213,1.213,0,0,0-.156-.409C945.429,734.232,949.848,728.05,955.524,721.3Z" transform="translate(-1045.472 790.536)" fill="#3f5d45"/>
        <path id="Path_64-2" data-name="Path 64" d="M973.728,706.32a23.338,23.338,0,0,0-15.755-17.594c-14.781-4.658-22.59,17.452-8.145,23.072a46.126,46.126,0,0,0,18.7,2.712Z" transform="translate(-1048.004 776.854)" fill="#3f5d45"/>
        <path id="Path_65-2" data-name="Path 65" d="M987.969,679.866A30.682,30.682,0,0,0,966.5,662.924c-16.419-3.006-21.392,21.659-5.167,25.6a54.153,54.153,0,0,0,22.109.184Z" transform="translate(-1044.213 766.386)" fill="#3f5d45"/>
        <path id="Path_66-2" data-name="Path 66" d="M995.472,653.706a35.04,35.04,0,0,0-22.587-15.543c-14.12-2.653-18.878,18.483-5.011,22.1a52.717,52.717,0,0,0,26.459-.367Z" transform="translate(-1040.833 756.189)" fill="#3f5d45"/>
        <path id="Path_67-2" data-name="Path 67" d="M1002.329,628.754a36.442,36.442,0,0,0-19.768-15.716c-14.12-4.336-21.095,17.07-7.062,21.728a40.2,40.2,0,0,0,25.628-.1Z" transform="translate(-1037.437 745.702)" fill="#3f5d45"/>
        <path id="Path_68-2" data-name="Path 68" d="M1005.532,607.572a49.022,49.022,0,0,0-17.153-20.246c-12.814-7.81-25.033,11.294-12.707,19.893a35.769,35.769,0,0,0,28.689,6.539Z" transform="translate(-1036.307 734.592)" fill="#3f5d45"/>
        <path id="Path_69-2" data-name="Path 69" d="M1007.332,580.208a48.031,48.031,0,0,0-18.172-19.768c-13.358-7.058-24.977,12.468-12.395,20.87,8.232,5.493,18.511,9.049,29.438,4.759Z" transform="translate(-1035.976 723.653)" fill="#3f5d45"/>
        <path id="Path_70-2" data-name="Path 70" d="M1005.35,555.535a86.622,86.622,0,0,0-16.942-19.273c-9.351-7.64-21.178,6.113-12.326,14.276,8.173,7.5,18.355,13.794,28.873,13.285Z" transform="translate(-1035.321 713.396)" fill="#3f5d45"/>
        <path id="Path_71-2" data-name="Path 71" d="M1002.9,533.409a126.9,126.9,0,0,0-19.145-24.738c-7.315-7.058-18.13,3.7-11.294,11.141a73.465,73.465,0,0,0,31.332,21.095Z" transform="translate(-1036.418 702.004)" fill="#3f5d45"/>
        <path id="Path_72-2" data-name="Path 72" d="M996.993,503.837A113.167,113.167,0,0,0,981.7,484.9a7.973,7.973,0,0,0-11.408,11.141,58.363,58.363,0,0,0,28.621,17.988Z" transform="translate(-1037.353 692.153)" fill="#3f5d45"/>
        <path id="Path_73-2" data-name="Path 73" d="M991.852,477.2a180.27,180.27,0,0,0-14.7-17.465,6.6,6.6,0,0,0-9.77,8.88c6.539,7.54,14.924,14.217,24.569,15.29Z" transform="translate(-1038.201 682.009)" fill="#3f5d45"/>
        <path id="Path_74-2" data-name="Path 74" d="M987,454.791a183.982,183.982,0,0,0-14.12-23.228,5.78,5.78,0,0,0-9.458,6.636,51.46,51.46,0,0,0,22.958,20.087Z" transform="translate(-1039.563 670.31)" fill="#3f5d45"/>
        <path id="Path_75-2" data-name="Path 75" d="M981.861,419.678s-3.488-5.915-8.471-12.793a6.064,6.064,0,0,0-10.044,6.778c4.8,7.356,10.816,13.624,17.819,14.868Z" transform="translate(-1039.544 660.083)" fill="#3f5d45"/>
        <path id="Path_76-2" data-name="Path 76" d="M978.509,401.53l-4.419-22.1a4.648,4.648,0,0,0-9.178,1.413c1.583,11.8,5.649,23.678,14.5,31.47Z" transform="translate(-1038.638 648.187)" fill="#3f5d45"/>
        <path id="Path_77-2" data-name="Path 77" d="M978.829,350.287h0a4.336,4.336,0,0,0-8.274,2.372,111.867,111.867,0,0,0,4.461,18.071Z" transform="translate(-1036.329 636.631)" fill="#3f5d45"/>
        <path id="Path_78-2" data-name="Path 78" d="M966.545,701.037a23.338,23.338,0,0,1,23.1,4.969c11.3,10.546-3.983,28.24-16.024,18.511A46.406,46.406,0,0,1,962,709.626Z" transform="translate(-1039.83 781.711)" fill="#3f5d45"/>
        <path id="Path_79-2" data-name="Path 79" d="M979.3,674.076a30.656,30.656,0,0,1,26.348,7.173c12.184,11.408-4.661,30.088-17.493,19.394a54.041,54.041,0,0,1-13.313-17.662Z" transform="translate(-1034.544 770.833)" fill="#3f5d45"/>
        <path id="Path_80-2" data-name="Path 80" d="M986.037,652.771a35.06,35.06,0,0,1,26.826-5.957c14.12,2.822,10.6,24.187-3.616,22.365a52.817,52.817,0,0,1-24.4-10.238Z" transform="translate(-1030.425 759.611)" fill="#3f5d45"/>
        <path id="Path_81-2" data-name="Path 81" d="M993.106,626.263a36.4,36.4,0,0,1,24.17-7.21c14.767,1.285,13.188,23.72-1.6,22.788a40.114,40.114,0,0,1-23.72-9.673Z" transform="translate(-1027.493 748.39)" fill="#3f5d45"/>
        <path id="Path_82-2" data-name="Path 82" d="M995.2,607.015a49.179,49.179,0,0,1,20.347-17.029c13.881-5.493,22.788,15.3,9.3,21.7a35.787,35.787,0,0,1-29.521,1.624Z" transform="translate(-1026.158 736.067)" fill="#3f5d45"/>
        <path id="Path_83-2" data-name="Path 83" d="M995.55,578.847a47.842,47.842,0,0,1,20.585-17.168c14.12-5.3,23.142,15.585,9.573,22.307-8.88,4.378-19.54,6.553-29.784.876Z" transform="translate(-1026.012 724.435)" fill="#3f5d45"/>
        <path id="Path_84-2" data-name="Path 84" d="M993.67,556.612a86.576,86.576,0,0,1,12.426-22.449c7.484-9.475,22.04,1.413,15.093,11.294-6.383,9.077-14.909,17.4-25.413,19.159Z" transform="translate(-1026.789 711.954)" fill="#3f5d45"/>
        <path id="Path_85-2" data-name="Path 85" d="M992.9,535.078a126.424,126.424,0,0,1,11.463-29.171,7.914,7.914,0,0,1,13.9,7.553,73.187,73.187,0,0,1-24.2,29.015Z" transform="translate(-1027.106 700.279)" fill="#3f5d45"/>
        <path id="Path_86-2" data-name="Path 86" d="M987.1,503.637a113.246,113.246,0,0,1,11.661-22.265,7.965,7.965,0,0,1,13.385,8.585,58.629,58.629,0,0,1-24.89,24Z" transform="translate(-1029.493 690.518)" fill="#3f5d45"/>
        <path id="Path_87-2" data-name="Path 87" d="M982.48,479.077a181.517,181.517,0,0,1,6.113-21.985,6.608,6.608,0,0,1,12.582,4.01c-2.826,9.573-7.667,19.131-15.983,24.115Z" transform="translate(-1031.398 679.937)" fill="#3f5d45"/>
        <path id="Path_88-2" data-name="Path 88" d="M979.27,455.572a183.357,183.357,0,0,1,8.471-25.853,5.783,5.783,0,1,1,10.736,4.3,51.446,51.446,0,0,1-17.763,24.794Z" transform="translate(-1032.718 668.868)" fill="#3f5d45"/>
        <path id="Path_89-2" data-name="Path 89" d="M974.46,423.111s1.326-6.736,3.74-14.892a6.064,6.064,0,0,1,11.733,3.051c-2.077,8.471-5.648,16.447-11.857,19.952Z" transform="translate(-1034.703 659.756)" fill="#3f5d45"/>
        <path id="Path_90-2" data-name="Path 90" d="M976.32,400.024,984,378.846a4.648,4.648,0,0,1,8.852,2.823c-3.318,11.429-9.077,22.591-19.048,28.942Z" transform="translate(-1034.98 648.197)" fill="#3f5d45"/>
        <path id="Path_91-2" data-name="Path 91" d="M986.079,352.028s1.2-.959,3.037-2.469a3.81,3.81,0,0,1,5.1,5.649,71.994,71.994,0,0,1-20.884,13.244Z" transform="translate(-1035.163 637.106)" fill="#3f5d45"/>
        <path id="Path_92-2" data-name="Path 92" d="M982.459,351.575A278.1,278.1,0,0,1,997.776,324.3a2.822,2.822,0,0,0-4.574-3.234A81.922,81.922,0,0,0,980.89,349.6Z" transform="translate(-1032.052 625.289)" fill="#3f5d45"/>
        <path id="Path_93-2" data-name="Path 93" d="M976.9,455.594l1.638-.17c-7.058-65.8-4.08-106.388,8.26-114.253l-.89-1.413C972.833,348.137,969.727,388.179,976.9,455.594Z" transform="translate(-1035.248 633.372)" fill="#444053"/>
        <path id="Path_94-2" data-name="Path 94" d="M1000.225,578.8l2.442-.367c-.918-6.085-1.977-12.27-3.162-18.355-10.279-53.414-18.269-102.786-22.265-140.286l-1.794-1.413c4.011,37.569,11.294,88.659,21.645,142.135C998.264,566.561,999.324,572.732,1000.225,578.8Z" transform="translate(-1034.306 665.756)" fill="#444053"/>
        <path id="Path_95-2" data-name="Path 95" d="M912.581,866.151c.367-.3,37.981-29.07,71-84.264A355.809,355.809,0,0,0,1025.372,677.7c10.435-45.9,10.736-99.357,3.2-149.422l-2.2,1.766c16.942,112.358-15.377,199.6-45.535,250.047-32.693,54.671-69.868,83.153-70.248,83.43Z" transform="translate(-1061.009 711.029)" fill="#444053"/>
      </g>
      <g id="Group_11" data-name="Group 11" transform="translate(-1292.004 1665.629)">
        <ellipse id="Ellipse_42" data-name="Ellipse 42" cx="1.558" cy="1.552" rx="1.558" ry="1.552" transform="translate(252.265 558.651)" fill="#f8f9fa"/>
        <ellipse id="Ellipse_43" data-name="Ellipse 43" cx="1.558" cy="1.552" rx="1.558" ry="1.552" transform="translate(256.431 558.651)" fill="#f8f9fa"/>
        <ellipse id="Ellipse_44" data-name="Ellipse 44" cx="1.558" cy="1.552" rx="1.558" ry="1.552" transform="translate(260.602 558.651)" fill="#f8f9fa"/>
        <path id="Path_312" data-name="Path 312" d="M21.9,645.408,1.472,694.285a10.959,10.959,0,0,0,10.161,15.171H889.661a10.963,10.963,0,0,0,10.161-15.171l-218.6-522.53a11,11,0,0,0-10.161-6.747h-448.2Z" transform="translate(0.501 -165.008)" fill="#e8c2b8"/>
        <g id="Group_10" data-name="Group 10" transform="translate(1.121 0)">
          <path id="Path_313" data-name="Path 313" d="M628.108,694.285,409.515,171.755a11,11,0,0,0-10.161-6.747H358.118a11,11,0,0,1,10.161,6.747l218.6,522.535a10.958,10.958,0,0,1-10.161,15.171h41.236a10.959,10.959,0,0,0,10.156-15.176Z" transform="translate(271.08 -165.008)" fill="#dbaca2"/>
          <path id="Path_314" data-name="Path 314" d="M444.287,694.285,222.863,165.008,62.092,549.317,1.472,694.285a10.959,10.959,0,0,0,10.161,15.171h422.5a10.959,10.959,0,0,0,10.152-15.171Z" transform="translate(-0.625 -165.003)" fill="#dbaca2"/>
        </g>
        <path id="Path_316" data-name="Path 316" d="M86.709,615.9,3.222,532.76a10.923,10.923,0,0,1-.15-15.34L223.364,289.237,128.5,615.9Z" transform="translate(0 -71.454)" fill="#e8c2b8"/>
        <path id="Path_321" data-name="Path 321" d="M322.577,615.9,185.9,289.237,49.262,615.9Z" transform="translate(37.447 -71.454)" fill="#cfada4"/>
        <path id="Path_322" data-name="Path 322" d="M322.577,615.9,185.9,289.237,49.262,615.9Z" transform="translate(37.447 -71.454)" fill="rgba(6,6,6,0.29)"/>
      </g>
    </g>
  </g>
</svg>
